%TF.GenerationSoftware,KiCad,Pcbnew,10.0.1*%
%TF.CreationDate,2026-07-06T15:25:19+02:00*%
%TF.ProjectId,5V_board,35565f62-6f61-4726-942e-6b696361645f,rev?*%
%TF.SameCoordinates,Original*%
%TF.FileFunction,Copper,L2,Bot*%
%TF.FilePolarity,Positive*%
%FSLAX46Y46*%
G04 Gerber Fmt 4.6, Leading zero omitted, Abs format (unit mm)*
G04 Created by KiCad (PCBNEW 10.0.1) date 2026-07-06 15:25:19*
%MOMM*%
%LPD*%
G01*
G04 APERTURE LIST*
G04 Aperture macros list*
%AMRoundRect*
0 Rectangle with rounded corners*
0 $1 Rounding radius*
0 $2 $3 $4 $5 $6 $7 $8 $9 X,Y pos of 4 corners*
0 Add a 4 corners polygon primitive as box body*
4,1,4,$2,$3,$4,$5,$6,$7,$8,$9,$2,$3,0*
0 Add four circle primitives for the rounded corners*
1,1,$1+$1,$2,$3*
1,1,$1+$1,$4,$5*
1,1,$1+$1,$6,$7*
1,1,$1+$1,$8,$9*
0 Add four rect primitives between the rounded corners*
20,1,$1+$1,$2,$3,$4,$5,0*
20,1,$1+$1,$4,$5,$6,$7,0*
20,1,$1+$1,$6,$7,$8,$9,0*
20,1,$1+$1,$8,$9,$2,$3,0*%
G04 Aperture macros list end*
%TA.AperFunction,ComponentPad*%
%ADD10RoundRect,0.250000X-0.350000X-0.650000X0.350000X-0.650000X0.350000X0.650000X-0.350000X0.650000X0*%
%TD*%
%TA.AperFunction,ComponentPad*%
%ADD11O,1.200000X1.800000*%
%TD*%
%TA.AperFunction,ComponentPad*%
%ADD12C,6.400000*%
%TD*%
%TA.AperFunction,ComponentPad*%
%ADD13RoundRect,0.250001X-0.759999X0.499999X-0.759999X-0.499999X0.759999X-0.499999X0.759999X0.499999X0*%
%TD*%
%TA.AperFunction,ComponentPad*%
%ADD14O,2.020000X1.500000*%
%TD*%
%TA.AperFunction,SMDPad,CuDef*%
%ADD15C,1.500000*%
%TD*%
%TA.AperFunction,ViaPad*%
%ADD16C,0.600000*%
%TD*%
%TA.AperFunction,Conductor*%
%ADD17C,1.000000*%
%TD*%
%TA.AperFunction,Conductor*%
%ADD18C,0.500000*%
%TD*%
G04 APERTURE END LIST*
D10*
%TO.P,J1,1,Pin_1_1*%
%TO.N,GND*%
X122840000Y-67350000D03*
D11*
%TO.P,J1,2,Pin_2_2*%
%TO.N,+5V*%
X124840000Y-67350000D03*
%TO.P,J1,3,Pin_3_3*%
%TO.N,GND*%
X126840000Y-67350000D03*
%TO.P,J1,4,Pin_4_4*%
%TO.N,+5V*%
X128840000Y-67350000D03*
%TD*%
D12*
%TO.P,H2,1,1_1*%
%TO.N,unconnected-(H2-Pad1)*%
X150590000Y-68990000D03*
%TD*%
%TO.P,H1,1,1_1*%
%TO.N,unconnected-(H1-Pad1)*%
X107050000Y-69080000D03*
%TD*%
D13*
%TO.P,J15,1,Pin_1_1*%
%TO.N,GND*%
X117230000Y-76810000D03*
D14*
%TO.P,J15,2,Pin_2_2*%
%TO.N,+5V*%
X117230000Y-79810000D03*
%TD*%
D13*
%TO.P,J13,1,Pin_1_1*%
%TO.N,GND*%
X133685000Y-76750000D03*
D14*
%TO.P,J13,2,Pin_2_2*%
%TO.N,+5V*%
X133685000Y-79750000D03*
%TD*%
D15*
%TO.P,TP1,1,1_1*%
%TO.N,+5V*%
X124150000Y-73100000D03*
%TD*%
%TO.P,TP3,1,1_1*%
%TO.N,GND*%
X150450000Y-76900000D03*
%TD*%
D16*
%TO.N,+5V*%
X140550000Y-76270000D03*
X128003750Y-74626250D03*
X124910000Y-75150000D03*
X140550000Y-76922500D03*
X127550000Y-74172500D03*
X139710000Y-76922500D03*
%TO.N,GND*%
X139180000Y-82890000D03*
X127370000Y-69180000D03*
%TD*%
%TO.N,+5V*%
D17*
X125222500Y-74172500D02*
X124150000Y-73100000D01*
D18*
X125222500Y-74172500D02*
X125222500Y-74837500D01*
X125222500Y-74837500D02*
X124910000Y-75150000D01*
D17*
X127550000Y-74172500D02*
X125222500Y-74172500D01*
%TD*%
%TA.AperFunction,Conductor*%
%TO.N,GND*%
G36*
X149008700Y-65430185D02*
G01*
X149054455Y-65482989D01*
X149064399Y-65552147D01*
X149035374Y-65615703D01*
X149000114Y-65643858D01*
X148685279Y-65812140D01*
X148685261Y-65812151D01*
X148382964Y-66014140D01*
X148382950Y-66014150D01*
X148101893Y-66244807D01*
X147844807Y-66501893D01*
X147614150Y-66782950D01*
X147614140Y-66782964D01*
X147412151Y-67085261D01*
X147412140Y-67085279D01*
X147240756Y-67405916D01*
X147240754Y-67405921D01*
X147101614Y-67741834D01*
X146996067Y-68089776D01*
X146996064Y-68089787D01*
X146925137Y-68446369D01*
X146897782Y-68724114D01*
X146896267Y-68739505D01*
X146889500Y-68808209D01*
X146889500Y-69171790D01*
X146925137Y-69533630D01*
X146996064Y-69890212D01*
X146996067Y-69890223D01*
X147101614Y-70238165D01*
X147200000Y-70475690D01*
X147227178Y-70541304D01*
X147240754Y-70574078D01*
X147240756Y-70574083D01*
X147412140Y-70894720D01*
X147412151Y-70894738D01*
X147614140Y-71197035D01*
X147614150Y-71197049D01*
X147844807Y-71478106D01*
X148101893Y-71735192D01*
X148101898Y-71735196D01*
X148101899Y-71735197D01*
X148382956Y-71965854D01*
X148685268Y-72167853D01*
X148685277Y-72167858D01*
X148685279Y-72167859D01*
X149005916Y-72339243D01*
X149005918Y-72339243D01*
X149005924Y-72339247D01*
X149341836Y-72478386D01*
X149689767Y-72583930D01*
X149689773Y-72583931D01*
X149689776Y-72583932D01*
X149689787Y-72583935D01*
X150046369Y-72654862D01*
X150408206Y-72690500D01*
X150408209Y-72690500D01*
X150771791Y-72690500D01*
X150771794Y-72690500D01*
X151133631Y-72654862D01*
X151203045Y-72641054D01*
X151490212Y-72583935D01*
X151490223Y-72583932D01*
X151490223Y-72583931D01*
X151490233Y-72583930D01*
X151838164Y-72478386D01*
X152174076Y-72339247D01*
X152494732Y-72167853D01*
X152797044Y-71965854D01*
X153078101Y-71735197D01*
X153335197Y-71478101D01*
X153565854Y-71197044D01*
X153767853Y-70894732D01*
X153939247Y-70574076D01*
X154078386Y-70238164D01*
X154136840Y-70045467D01*
X154175137Y-69987030D01*
X154238949Y-69958574D01*
X154308016Y-69969134D01*
X154360410Y-70015358D01*
X154379500Y-70081464D01*
X154379500Y-81895572D01*
X154379184Y-81904418D01*
X154379184Y-81904419D01*
X154364869Y-82104557D01*
X154362351Y-82122068D01*
X154320645Y-82313790D01*
X154315661Y-82330765D01*
X154247093Y-82514605D01*
X154239743Y-82530699D01*
X154145709Y-82702908D01*
X154136144Y-82717791D01*
X154018561Y-82874864D01*
X154006975Y-82888235D01*
X153868235Y-83026975D01*
X153854864Y-83038561D01*
X153697791Y-83156144D01*
X153682908Y-83165709D01*
X153510699Y-83259743D01*
X153494605Y-83267093D01*
X153310765Y-83335661D01*
X153293790Y-83340645D01*
X153102068Y-83382351D01*
X153084557Y-83384869D01*
X152903779Y-83397799D01*
X152884417Y-83399184D01*
X152875572Y-83399500D01*
X136507988Y-83399500D01*
X136440949Y-83379815D01*
X136395194Y-83327011D01*
X136385250Y-83257853D01*
X136404885Y-83206609D01*
X136429720Y-83169442D01*
X136496471Y-83008291D01*
X136530500Y-82837214D01*
X136530500Y-82662786D01*
X136496471Y-82491709D01*
X136429720Y-82330558D01*
X136429719Y-82330557D01*
X136429716Y-82330551D01*
X136332813Y-82185526D01*
X136332810Y-82185522D01*
X136209477Y-82062189D01*
X136209473Y-82062186D01*
X136064448Y-81965283D01*
X136064439Y-81965278D01*
X135903291Y-81898529D01*
X135903283Y-81898527D01*
X135732218Y-81864500D01*
X135732214Y-81864500D01*
X135557786Y-81864500D01*
X135557781Y-81864500D01*
X135386716Y-81898527D01*
X135386708Y-81898529D01*
X135225560Y-81965278D01*
X135225551Y-81965283D01*
X135080526Y-82062186D01*
X135080522Y-82062189D01*
X134957189Y-82185522D01*
X134957186Y-82185526D01*
X134860283Y-82330551D01*
X134860278Y-82330560D01*
X134793529Y-82491708D01*
X134793527Y-82491716D01*
X134759500Y-82662781D01*
X134759500Y-82837218D01*
X134793527Y-83008283D01*
X134793529Y-83008291D01*
X134860278Y-83169439D01*
X134860280Y-83169442D01*
X134885114Y-83206609D01*
X134905992Y-83273286D01*
X134887508Y-83340666D01*
X134835529Y-83387357D01*
X134782012Y-83399500D01*
X120089859Y-83399500D01*
X120022820Y-83379815D01*
X119977065Y-83327011D01*
X119967121Y-83257853D01*
X119975298Y-83228047D01*
X120005081Y-83156144D01*
X120041471Y-83068291D01*
X120075500Y-82897214D01*
X120075500Y-82722786D01*
X120041471Y-82551709D01*
X119974720Y-82390558D01*
X119974719Y-82390557D01*
X119974716Y-82390551D01*
X119877813Y-82245526D01*
X119877810Y-82245522D01*
X119754477Y-82122189D01*
X119754473Y-82122186D01*
X119609448Y-82025283D01*
X119609439Y-82025278D01*
X119448291Y-81958529D01*
X119448283Y-81958527D01*
X119277218Y-81924500D01*
X119277214Y-81924500D01*
X119102786Y-81924500D01*
X119102781Y-81924500D01*
X118931716Y-81958527D01*
X118931708Y-81958529D01*
X118770560Y-82025278D01*
X118770551Y-82025283D01*
X118625526Y-82122186D01*
X118625522Y-82122189D01*
X118502189Y-82245522D01*
X118502186Y-82245526D01*
X118405283Y-82390551D01*
X118405278Y-82390560D01*
X118338529Y-82551708D01*
X118338527Y-82551716D01*
X118304500Y-82722781D01*
X118304500Y-82897218D01*
X118338527Y-83068283D01*
X118338529Y-83068291D01*
X118404702Y-83228047D01*
X118412171Y-83297517D01*
X118380896Y-83359996D01*
X118320807Y-83395648D01*
X118290141Y-83399500D01*
X104934428Y-83399500D01*
X104925582Y-83399184D01*
X104903622Y-83397613D01*
X104725442Y-83384869D01*
X104707931Y-83382351D01*
X104516209Y-83340645D01*
X104499234Y-83335661D01*
X104315394Y-83267093D01*
X104299300Y-83259743D01*
X104127091Y-83165709D01*
X104112208Y-83156144D01*
X103955135Y-83038561D01*
X103941764Y-83026975D01*
X103803024Y-82888235D01*
X103791438Y-82874864D01*
X103673855Y-82717791D01*
X103664290Y-82702908D01*
X103632815Y-82645266D01*
X103570253Y-82530694D01*
X103562909Y-82514611D01*
X103494336Y-82330760D01*
X103489354Y-82313790D01*
X103474504Y-82245526D01*
X103447647Y-82122063D01*
X103445130Y-82104556D01*
X103439460Y-82025283D01*
X103430816Y-81904418D01*
X103430500Y-81895572D01*
X103430500Y-79711577D01*
X115719500Y-79711577D01*
X115719500Y-79908422D01*
X115750290Y-80102826D01*
X115811117Y-80290029D01*
X115900476Y-80465405D01*
X116016172Y-80624646D01*
X116155354Y-80763828D01*
X116314595Y-80879524D01*
X116372214Y-80908882D01*
X116489970Y-80968882D01*
X116489972Y-80968882D01*
X116489975Y-80968884D01*
X116590317Y-81001487D01*
X116677173Y-81029709D01*
X116871578Y-81060500D01*
X116871583Y-81060500D01*
X117588422Y-81060500D01*
X117782826Y-81029709D01*
X117970025Y-80968884D01*
X118145405Y-80879524D01*
X118304646Y-80763828D01*
X118443828Y-80624646D01*
X118559524Y-80465405D01*
X118648884Y-80290025D01*
X118709709Y-80102826D01*
X118719212Y-80042826D01*
X118740500Y-79908422D01*
X118740500Y-79711578D01*
X118733298Y-79666110D01*
X118733298Y-79666109D01*
X118730996Y-79651577D01*
X132174500Y-79651577D01*
X132174500Y-79848422D01*
X132205290Y-80042826D01*
X132266117Y-80230029D01*
X132296687Y-80290025D01*
X132355476Y-80405405D01*
X132471172Y-80564646D01*
X132610354Y-80703828D01*
X132769595Y-80819524D01*
X132852455Y-80861743D01*
X132944970Y-80908882D01*
X132944972Y-80908882D01*
X132944975Y-80908884D01*
X133045317Y-80941487D01*
X133132173Y-80969709D01*
X133326578Y-81000500D01*
X133326583Y-81000500D01*
X134043422Y-81000500D01*
X134237826Y-80969709D01*
X134240371Y-80968882D01*
X134425025Y-80908884D01*
X134600405Y-80819524D01*
X134759646Y-80703828D01*
X134898828Y-80564646D01*
X135014524Y-80405405D01*
X135103884Y-80230025D01*
X135164709Y-80042826D01*
X135195500Y-79848422D01*
X135195500Y-79651577D01*
X135164709Y-79457173D01*
X135103882Y-79269970D01*
X135014523Y-79094594D01*
X134898828Y-78935354D01*
X134759646Y-78796172D01*
X134600405Y-78680476D01*
X134425029Y-78591117D01*
X134237826Y-78530290D01*
X134043422Y-78499500D01*
X134043417Y-78499500D01*
X133326583Y-78499500D01*
X133326578Y-78499500D01*
X133132173Y-78530290D01*
X132944970Y-78591117D01*
X132769594Y-78680476D01*
X132678741Y-78746485D01*
X132610354Y-78796172D01*
X132610352Y-78796174D01*
X132610351Y-78796174D01*
X132471174Y-78935351D01*
X132471174Y-78935352D01*
X132471172Y-78935354D01*
X132427581Y-78995351D01*
X132355476Y-79094594D01*
X132266117Y-79269970D01*
X132205290Y-79457173D01*
X132174500Y-79651577D01*
X118730996Y-79651577D01*
X118709709Y-79517173D01*
X118648882Y-79329970D01*
X118559523Y-79154594D01*
X118443828Y-78995354D01*
X118304646Y-78856172D01*
X118145405Y-78740476D01*
X117970029Y-78651117D01*
X117782826Y-78590290D01*
X117588422Y-78559500D01*
X117588417Y-78559500D01*
X116871583Y-78559500D01*
X116871578Y-78559500D01*
X116677173Y-78590290D01*
X116489970Y-78651117D01*
X116314594Y-78740476D01*
X116237936Y-78796172D01*
X116155354Y-78856172D01*
X116155352Y-78856174D01*
X116155351Y-78856174D01*
X116016174Y-78995351D01*
X116016174Y-78995352D01*
X116016172Y-78995354D01*
X115966485Y-79063741D01*
X115900476Y-79154594D01*
X115811117Y-79329970D01*
X115750290Y-79517173D01*
X115719500Y-79711577D01*
X103430500Y-79711577D01*
X103430500Y-76260014D01*
X115720000Y-76260014D01*
X115720000Y-76560000D01*
X116785440Y-76560000D01*
X116754755Y-76613147D01*
X116720000Y-76742857D01*
X116720000Y-76877143D01*
X116754755Y-77006853D01*
X116785440Y-77060000D01*
X115720000Y-77060000D01*
X115720000Y-77359985D01*
X115730493Y-77462689D01*
X115730494Y-77462696D01*
X115785641Y-77629118D01*
X115785643Y-77629123D01*
X115877684Y-77778344D01*
X116001655Y-77902315D01*
X116150876Y-77994356D01*
X116150881Y-77994358D01*
X116317303Y-78049505D01*
X116317310Y-78049506D01*
X116420014Y-78059999D01*
X116420027Y-78060000D01*
X116980000Y-78060000D01*
X116980000Y-77254560D01*
X117033147Y-77285245D01*
X117162857Y-77320000D01*
X117297143Y-77320000D01*
X117426853Y-77285245D01*
X117480000Y-77254560D01*
X117480000Y-78060000D01*
X118039973Y-78060000D01*
X118039985Y-78059999D01*
X118142689Y-78049506D01*
X118142696Y-78049505D01*
X118309118Y-77994358D01*
X118309123Y-77994356D01*
X118458344Y-77902315D01*
X118582315Y-77778344D01*
X118674356Y-77629123D01*
X118674358Y-77629118D01*
X118729505Y-77462696D01*
X118729506Y-77462689D01*
X118739999Y-77359985D01*
X118740000Y-77359972D01*
X118740000Y-77060000D01*
X117674560Y-77060000D01*
X117705245Y-77006853D01*
X117740000Y-76877143D01*
X117740000Y-76742857D01*
X117705245Y-76613147D01*
X117674560Y-76560000D01*
X118740000Y-76560000D01*
X118740000Y-76260027D01*
X118739999Y-76260015D01*
X118734835Y-76209468D01*
X118734835Y-76209467D01*
X118733869Y-76200014D01*
X132175000Y-76200014D01*
X132175000Y-76500000D01*
X133240440Y-76500000D01*
X133209755Y-76553147D01*
X133175000Y-76682857D01*
X133175000Y-76817143D01*
X133209755Y-76946853D01*
X133240440Y-77000000D01*
X132175000Y-77000000D01*
X132175000Y-77299985D01*
X132185493Y-77402689D01*
X132185494Y-77402696D01*
X132240641Y-77569118D01*
X132240643Y-77569123D01*
X132332684Y-77718344D01*
X132456655Y-77842315D01*
X132605876Y-77934356D01*
X132605881Y-77934358D01*
X132772303Y-77989505D01*
X132772310Y-77989506D01*
X132875014Y-77999999D01*
X132875027Y-78000000D01*
X133435000Y-78000000D01*
X133435000Y-77194560D01*
X133488147Y-77225245D01*
X133617857Y-77260000D01*
X133752143Y-77260000D01*
X133881853Y-77225245D01*
X133935000Y-77194560D01*
X133935000Y-78000000D01*
X134494973Y-78000000D01*
X134494985Y-77999999D01*
X134597689Y-77989506D01*
X134597696Y-77989505D01*
X134735995Y-77943677D01*
X149759873Y-77943677D01*
X149759873Y-77943678D01*
X149794858Y-77969096D01*
X149970164Y-78058418D01*
X150157294Y-78119221D01*
X150351618Y-78150000D01*
X150548382Y-78150000D01*
X150742705Y-78119221D01*
X150929835Y-78058418D01*
X151105143Y-77969095D01*
X151140125Y-77943678D01*
X151140126Y-77943678D01*
X150450001Y-77253553D01*
X150450000Y-77253553D01*
X149759873Y-77943677D01*
X134735995Y-77943677D01*
X134764118Y-77934358D01*
X134764123Y-77934356D01*
X134913344Y-77842315D01*
X134946922Y-77808738D01*
X135037315Y-77718344D01*
X135129356Y-77569123D01*
X135129358Y-77569118D01*
X135184505Y-77402696D01*
X135184506Y-77402689D01*
X135194999Y-77299985D01*
X135195000Y-77299972D01*
X135195000Y-77000000D01*
X134129560Y-77000000D01*
X134160245Y-76946853D01*
X134187897Y-76843653D01*
X138909500Y-76843653D01*
X138909500Y-77001346D01*
X138940261Y-77155989D01*
X138940264Y-77156001D01*
X139000602Y-77301672D01*
X139000609Y-77301685D01*
X139088210Y-77432788D01*
X139088213Y-77432792D01*
X139199707Y-77544286D01*
X139199711Y-77544289D01*
X139330814Y-77631890D01*
X139330827Y-77631897D01*
X139476498Y-77692235D01*
X139476503Y-77692237D01*
X139607751Y-77718344D01*
X139631153Y-77722999D01*
X139631156Y-77723000D01*
X139631158Y-77723000D01*
X139788844Y-77723000D01*
X139788845Y-77722999D01*
X139943497Y-77692237D01*
X140010331Y-77664553D01*
X140082548Y-77634641D01*
X140152017Y-77627172D01*
X140177452Y-77634641D01*
X140316498Y-77692235D01*
X140316503Y-77692237D01*
X140447751Y-77718344D01*
X140471153Y-77722999D01*
X140471156Y-77723000D01*
X140471158Y-77723000D01*
X140628844Y-77723000D01*
X140628845Y-77722999D01*
X140783497Y-77692237D01*
X140929179Y-77631894D01*
X141060289Y-77544289D01*
X141171789Y-77432789D01*
X141259394Y-77301679D01*
X141319737Y-77155997D01*
X141350500Y-77001342D01*
X141350500Y-76843658D01*
X141350500Y-76843655D01*
X141346680Y-76824452D01*
X141346678Y-76824446D01*
X141342137Y-76801617D01*
X149200000Y-76801617D01*
X149200000Y-76998382D01*
X149230778Y-77192705D01*
X149291581Y-77379835D01*
X149380905Y-77555145D01*
X149406319Y-77590125D01*
X149406320Y-77590125D01*
X150096446Y-76900000D01*
X150096446Y-76899999D01*
X150803553Y-76899999D01*
X150803553Y-76900001D01*
X151493678Y-77590126D01*
X151493678Y-77590125D01*
X151519095Y-77555143D01*
X151608418Y-77379835D01*
X151669221Y-77192705D01*
X151700000Y-76998382D01*
X151700000Y-76801617D01*
X151669221Y-76607294D01*
X151608418Y-76420164D01*
X151519096Y-76244858D01*
X151493678Y-76209873D01*
X151493677Y-76209873D01*
X150803553Y-76899999D01*
X150096446Y-76899999D01*
X149406320Y-76209872D01*
X149406320Y-76209873D01*
X149380902Y-76244859D01*
X149380899Y-76244863D01*
X149291582Y-76420161D01*
X149230778Y-76607294D01*
X149200000Y-76801617D01*
X141342137Y-76801617D01*
X141319737Y-76689003D01*
X141297676Y-76635745D01*
X141295514Y-76627417D01*
X141296354Y-76600755D01*
X141293503Y-76574235D01*
X141297634Y-76560164D01*
X141297716Y-76557582D01*
X141298896Y-76555866D01*
X141300971Y-76548801D01*
X141319737Y-76503497D01*
X141350500Y-76348842D01*
X141350500Y-76191158D01*
X141350500Y-76191155D01*
X141350499Y-76191153D01*
X141342862Y-76152761D01*
X141319737Y-76036503D01*
X141284114Y-75950500D01*
X141259397Y-75890827D01*
X141259390Y-75890814D01*
X141236342Y-75856320D01*
X149759872Y-75856320D01*
X150450000Y-76546446D01*
X150450001Y-76546446D01*
X151140125Y-75856320D01*
X151140125Y-75856319D01*
X151105145Y-75830905D01*
X150929835Y-75741581D01*
X150742705Y-75680778D01*
X150548382Y-75650000D01*
X150351618Y-75650000D01*
X150157294Y-75680778D01*
X149970161Y-75741582D01*
X149794863Y-75830899D01*
X149794859Y-75830902D01*
X149759873Y-75856320D01*
X149759872Y-75856320D01*
X141236342Y-75856320D01*
X141171789Y-75759711D01*
X141171786Y-75759707D01*
X141060292Y-75648213D01*
X141060288Y-75648210D01*
X140929185Y-75560609D01*
X140929172Y-75560602D01*
X140783501Y-75500264D01*
X140783489Y-75500261D01*
X140628845Y-75469500D01*
X140628842Y-75469500D01*
X140471158Y-75469500D01*
X140471155Y-75469500D01*
X140316510Y-75500261D01*
X140316498Y-75500264D01*
X140170827Y-75560602D01*
X140170814Y-75560609D01*
X140039711Y-75648210D01*
X140039707Y-75648213D01*
X139928213Y-75759707D01*
X139928210Y-75759711D01*
X139840609Y-75890814D01*
X139840602Y-75890827D01*
X139777932Y-76042130D01*
X139776172Y-76041401D01*
X139742719Y-76092440D01*
X139678904Y-76120892D01*
X139662363Y-76122000D01*
X139631155Y-76122000D01*
X139476510Y-76152761D01*
X139476498Y-76152764D01*
X139330827Y-76213102D01*
X139330814Y-76213109D01*
X139199711Y-76300710D01*
X139199707Y-76300713D01*
X139088213Y-76412207D01*
X139088210Y-76412211D01*
X139000609Y-76543314D01*
X139000602Y-76543327D01*
X138940264Y-76688998D01*
X138940261Y-76689010D01*
X138909500Y-76843653D01*
X134187897Y-76843653D01*
X134195000Y-76817143D01*
X134195000Y-76682857D01*
X134160245Y-76553147D01*
X134129560Y-76500000D01*
X135195000Y-76500000D01*
X135195000Y-76200027D01*
X135194999Y-76200014D01*
X135184506Y-76097310D01*
X135184505Y-76097303D01*
X135129358Y-75930881D01*
X135129356Y-75930876D01*
X135037315Y-75781655D01*
X134913344Y-75657684D01*
X134764123Y-75565643D01*
X134764118Y-75565641D01*
X134597696Y-75510494D01*
X134597689Y-75510493D01*
X134494985Y-75500000D01*
X133935000Y-75500000D01*
X133935000Y-76305439D01*
X133881853Y-76274755D01*
X133752143Y-76240000D01*
X133617857Y-76240000D01*
X133488147Y-76274755D01*
X133435000Y-76305439D01*
X133435000Y-75500000D01*
X132875014Y-75500000D01*
X132772310Y-75510493D01*
X132772303Y-75510494D01*
X132605881Y-75565641D01*
X132605876Y-75565643D01*
X132456655Y-75657684D01*
X132332684Y-75781655D01*
X132240643Y-75930876D01*
X132240641Y-75930881D01*
X132185494Y-76097303D01*
X132185493Y-76097310D01*
X132175000Y-76200014D01*
X118733869Y-76200014D01*
X118729506Y-76157311D01*
X118729505Y-76157303D01*
X118674358Y-75990881D01*
X118674356Y-75990876D01*
X118582315Y-75841655D01*
X118458344Y-75717684D01*
X118309123Y-75625643D01*
X118309118Y-75625641D01*
X118142696Y-75570494D01*
X118142689Y-75570493D01*
X118039985Y-75560000D01*
X117480000Y-75560000D01*
X117480000Y-76365439D01*
X117426853Y-76334755D01*
X117297143Y-76300000D01*
X117162857Y-76300000D01*
X117033147Y-76334755D01*
X116980000Y-76365439D01*
X116980000Y-75560000D01*
X116420014Y-75560000D01*
X116317310Y-75570493D01*
X116317303Y-75570494D01*
X116150881Y-75625641D01*
X116150876Y-75625643D01*
X116001655Y-75717684D01*
X115877684Y-75841655D01*
X115785643Y-75990876D01*
X115785641Y-75990881D01*
X115730494Y-76157303D01*
X115730493Y-76157310D01*
X115720000Y-76260014D01*
X103430500Y-76260014D01*
X103430500Y-73722781D01*
X118304500Y-73722781D01*
X118304500Y-73897218D01*
X118338527Y-74068283D01*
X118338529Y-74068291D01*
X118405278Y-74229439D01*
X118405283Y-74229448D01*
X118502186Y-74374473D01*
X118502189Y-74374477D01*
X118625522Y-74497810D01*
X118625526Y-74497813D01*
X118770551Y-74594716D01*
X118770557Y-74594719D01*
X118770558Y-74594720D01*
X118931709Y-74661471D01*
X119102781Y-74695499D01*
X119102785Y-74695500D01*
X119102786Y-74695500D01*
X119277215Y-74695500D01*
X119277216Y-74695499D01*
X119448291Y-74661471D01*
X119609442Y-74594720D01*
X119754474Y-74497813D01*
X119877813Y-74374474D01*
X119974720Y-74229442D01*
X120041471Y-74068291D01*
X120075500Y-73897214D01*
X120075500Y-73722786D01*
X120041471Y-73551709D01*
X119976710Y-73395363D01*
X119974721Y-73390560D01*
X119974716Y-73390551D01*
X119877813Y-73245526D01*
X119877810Y-73245522D01*
X119754476Y-73122188D01*
X119720990Y-73099814D01*
X119720989Y-73099813D01*
X119609448Y-73025283D01*
X119609439Y-73025278D01*
X119552219Y-73001577D01*
X122899500Y-73001577D01*
X122899500Y-73198422D01*
X122930290Y-73392826D01*
X122991117Y-73580029D01*
X123063853Y-73722781D01*
X123080476Y-73755405D01*
X123196172Y-73914646D01*
X123335354Y-74053828D01*
X123494595Y-74169524D01*
X123577455Y-74211743D01*
X123669970Y-74258882D01*
X123669972Y-74258882D01*
X123669975Y-74258884D01*
X123770317Y-74291487D01*
X123857173Y-74319709D01*
X123894323Y-74325592D01*
X123933364Y-74331776D01*
X123996499Y-74361705D01*
X124001648Y-74366568D01*
X124210877Y-74575797D01*
X124244362Y-74637120D01*
X124239378Y-74706812D01*
X124226299Y-74732367D01*
X124200611Y-74770812D01*
X124200602Y-74770828D01*
X124140264Y-74916498D01*
X124140261Y-74916510D01*
X124109500Y-75071153D01*
X124109500Y-75228846D01*
X124140261Y-75383489D01*
X124140264Y-75383501D01*
X124200602Y-75529172D01*
X124200609Y-75529185D01*
X124288210Y-75660288D01*
X124288213Y-75660292D01*
X124399707Y-75771786D01*
X124399711Y-75771789D01*
X124530814Y-75859390D01*
X124530827Y-75859397D01*
X124676498Y-75919735D01*
X124676503Y-75919737D01*
X124831153Y-75950499D01*
X124831156Y-75950500D01*
X124831158Y-75950500D01*
X124988844Y-75950500D01*
X124988845Y-75950499D01*
X125143497Y-75919737D01*
X125289179Y-75859394D01*
X125420289Y-75771789D01*
X125531789Y-75660289D01*
X125619394Y-75529179D01*
X125629189Y-75505528D01*
X125656068Y-75465298D01*
X125805452Y-75315916D01*
X125820096Y-75293999D01*
X125863633Y-75228842D01*
X125863637Y-75228845D01*
X125863662Y-75228795D01*
X125864158Y-75228053D01*
X125917793Y-75183278D01*
X125967223Y-75173000D01*
X127367060Y-75173000D01*
X127434099Y-75192685D01*
X127454742Y-75209320D01*
X127493457Y-75248036D01*
X127493461Y-75248039D01*
X127624564Y-75335640D01*
X127624577Y-75335647D01*
X127740080Y-75383489D01*
X127770253Y-75395987D01*
X127924903Y-75426749D01*
X127924906Y-75426750D01*
X127924908Y-75426750D01*
X128082594Y-75426750D01*
X128082595Y-75426749D01*
X128237247Y-75395987D01*
X128382929Y-75335644D01*
X128514039Y-75248039D01*
X128625539Y-75136539D01*
X128713144Y-75005429D01*
X128773487Y-74859747D01*
X128804250Y-74705092D01*
X128804250Y-74547408D01*
X128804250Y-74547405D01*
X128804249Y-74547403D01*
X128773488Y-74392760D01*
X128773487Y-74392753D01*
X128760627Y-74361705D01*
X128713147Y-74247077D01*
X128713140Y-74247064D01*
X128625540Y-74115962D01*
X128625539Y-74115961D01*
X128568891Y-74059313D01*
X128535408Y-73997993D01*
X128534986Y-73995969D01*
X128512051Y-73880665D01*
X128494053Y-73837214D01*
X128438950Y-73704180D01*
X128438937Y-73704150D01*
X128436633Y-73698588D01*
X128436628Y-73698579D01*
X128412708Y-73662781D01*
X134759500Y-73662781D01*
X134759500Y-73837218D01*
X134793527Y-74008283D01*
X134793529Y-74008291D01*
X134860278Y-74169439D01*
X134860283Y-74169448D01*
X134957186Y-74314473D01*
X134957189Y-74314477D01*
X135080522Y-74437810D01*
X135080526Y-74437813D01*
X135225551Y-74534716D01*
X135225560Y-74534721D01*
X135262066Y-74549842D01*
X135386709Y-74601471D01*
X135557781Y-74635499D01*
X135557785Y-74635500D01*
X135557786Y-74635500D01*
X135732215Y-74635500D01*
X135732216Y-74635499D01*
X135903291Y-74601471D01*
X136064442Y-74534720D01*
X136209474Y-74437813D01*
X136332813Y-74314474D01*
X136429720Y-74169442D01*
X136496471Y-74008291D01*
X136530500Y-73837214D01*
X136530500Y-73662786D01*
X136496471Y-73491709D01*
X136429720Y-73330558D01*
X136429719Y-73330557D01*
X136429716Y-73330551D01*
X136332813Y-73185526D01*
X136332810Y-73185522D01*
X136209477Y-73062189D01*
X136209473Y-73062186D01*
X136064448Y-72965283D01*
X136064439Y-72965278D01*
X135903291Y-72898529D01*
X135903283Y-72898527D01*
X135732218Y-72864500D01*
X135732214Y-72864500D01*
X135557786Y-72864500D01*
X135557781Y-72864500D01*
X135386716Y-72898527D01*
X135386708Y-72898529D01*
X135225560Y-72965278D01*
X135225551Y-72965283D01*
X135080526Y-73062186D01*
X135080522Y-73062189D01*
X134957189Y-73185522D01*
X134957186Y-73185526D01*
X134860283Y-73330551D01*
X134860278Y-73330560D01*
X134793529Y-73491708D01*
X134793527Y-73491716D01*
X134759500Y-73662781D01*
X128412708Y-73662781D01*
X128327139Y-73534718D01*
X128327136Y-73534714D01*
X128187785Y-73395363D01*
X128187781Y-73395360D01*
X128023920Y-73285871D01*
X128023907Y-73285864D01*
X127841839Y-73210450D01*
X127841829Y-73210447D01*
X127648543Y-73172000D01*
X127648541Y-73172000D01*
X125688282Y-73172000D01*
X125621243Y-73152315D01*
X125600601Y-73135681D01*
X125416568Y-72951648D01*
X125383083Y-72890325D01*
X125381776Y-72883364D01*
X125369709Y-72807173D01*
X125326415Y-72673930D01*
X125308884Y-72619975D01*
X125308882Y-72619972D01*
X125308882Y-72619970D01*
X125236741Y-72478386D01*
X125219524Y-72444595D01*
X125103828Y-72285354D01*
X124964646Y-72146172D01*
X124805405Y-72030476D01*
X124630029Y-71941117D01*
X124442826Y-71880290D01*
X124248422Y-71849500D01*
X124248417Y-71849500D01*
X124051583Y-71849500D01*
X124051578Y-71849500D01*
X123857173Y-71880290D01*
X123669970Y-71941117D01*
X123494594Y-72030476D01*
X123459672Y-72055849D01*
X123335354Y-72146172D01*
X123335352Y-72146174D01*
X123335351Y-72146174D01*
X123196174Y-72285351D01*
X123196174Y-72285352D01*
X123196172Y-72285354D01*
X123157019Y-72339243D01*
X123080476Y-72444594D01*
X122991117Y-72619970D01*
X122930290Y-72807173D01*
X122899500Y-73001577D01*
X119552219Y-73001577D01*
X119448291Y-72958529D01*
X119448283Y-72958527D01*
X119277218Y-72924500D01*
X119277214Y-72924500D01*
X119102786Y-72924500D01*
X119102781Y-72924500D01*
X118931716Y-72958527D01*
X118931708Y-72958529D01*
X118770560Y-73025278D01*
X118770551Y-73025283D01*
X118625526Y-73122186D01*
X118625522Y-73122189D01*
X118502189Y-73245522D01*
X118502186Y-73245526D01*
X118405283Y-73390551D01*
X118405278Y-73390560D01*
X118338529Y-73551708D01*
X118338527Y-73551716D01*
X118304500Y-73722781D01*
X103430500Y-73722781D01*
X103430500Y-70635017D01*
X103450185Y-70567978D01*
X103502989Y-70522223D01*
X103572147Y-70512279D01*
X103635703Y-70541304D01*
X103669060Y-70587563D01*
X103700753Y-70664076D01*
X103700754Y-70664078D01*
X103700756Y-70664083D01*
X103872140Y-70984720D01*
X103872151Y-70984738D01*
X104074140Y-71287035D01*
X104074150Y-71287049D01*
X104304807Y-71568106D01*
X104561893Y-71825192D01*
X104561898Y-71825196D01*
X104561899Y-71825197D01*
X104842956Y-72055854D01*
X105145268Y-72257853D01*
X105145277Y-72257858D01*
X105145279Y-72257859D01*
X105465916Y-72429243D01*
X105465918Y-72429243D01*
X105465924Y-72429247D01*
X105801836Y-72568386D01*
X106149767Y-72673930D01*
X106149773Y-72673931D01*
X106149776Y-72673932D01*
X106149787Y-72673935D01*
X106506369Y-72744862D01*
X106868206Y-72780500D01*
X106868209Y-72780500D01*
X107231791Y-72780500D01*
X107231794Y-72780500D01*
X107593631Y-72744862D01*
X107663045Y-72731054D01*
X107950212Y-72673935D01*
X107950223Y-72673932D01*
X107950223Y-72673931D01*
X107950233Y-72673930D01*
X108298164Y-72568386D01*
X108634076Y-72429247D01*
X108954732Y-72257853D01*
X109257044Y-72055854D01*
X109538101Y-71825197D01*
X109795197Y-71568101D01*
X110025854Y-71287044D01*
X110227853Y-70984732D01*
X110399247Y-70664076D01*
X110538386Y-70328164D01*
X110643930Y-69980233D01*
X110643932Y-69980223D01*
X110643935Y-69980212D01*
X110714862Y-69623630D01*
X110750500Y-69261790D01*
X110750500Y-68898209D01*
X110729437Y-68684356D01*
X110714862Y-68536369D01*
X110688551Y-68404094D01*
X110643935Y-68179787D01*
X110643932Y-68179776D01*
X110643931Y-68179773D01*
X110643930Y-68179767D01*
X110538386Y-67831836D01*
X110399247Y-67495924D01*
X110351139Y-67405921D01*
X110227859Y-67175279D01*
X110227858Y-67175277D01*
X110227853Y-67175268D01*
X110025854Y-66872956D01*
X109842890Y-66650013D01*
X121740000Y-66650013D01*
X121740000Y-67100000D01*
X122524314Y-67100000D01*
X122519920Y-67104394D01*
X122467259Y-67195606D01*
X122440000Y-67297339D01*
X122440000Y-67402661D01*
X122467259Y-67504394D01*
X122519920Y-67595606D01*
X122524314Y-67600000D01*
X121740001Y-67600000D01*
X121740001Y-68049986D01*
X121750494Y-68152697D01*
X121805641Y-68319119D01*
X121805643Y-68319124D01*
X121897684Y-68468345D01*
X122021654Y-68592315D01*
X122170875Y-68684356D01*
X122170880Y-68684358D01*
X122337302Y-68739505D01*
X122337309Y-68739506D01*
X122440019Y-68749999D01*
X122589999Y-68749999D01*
X122590000Y-68749998D01*
X122590000Y-67665686D01*
X122594394Y-67670080D01*
X122685606Y-67722741D01*
X122787339Y-67750000D01*
X122892661Y-67750000D01*
X122994394Y-67722741D01*
X123085606Y-67670080D01*
X123090000Y-67665686D01*
X123090000Y-68749999D01*
X123239972Y-68749999D01*
X123239986Y-68749998D01*
X123342697Y-68739505D01*
X123509119Y-68684358D01*
X123509124Y-68684356D01*
X123658345Y-68592315D01*
X123782315Y-68468345D01*
X123821945Y-68404094D01*
X123873893Y-68357368D01*
X123942855Y-68346145D01*
X124006937Y-68373988D01*
X124015166Y-68381508D01*
X124123072Y-68489414D01*
X124263212Y-68591232D01*
X124417555Y-68669873D01*
X124582299Y-68723402D01*
X124753389Y-68750500D01*
X124753390Y-68750500D01*
X124926610Y-68750500D01*
X124926611Y-68750500D01*
X125097701Y-68723402D01*
X125262445Y-68669873D01*
X125416788Y-68591232D01*
X125556928Y-68489414D01*
X125679414Y-68366928D01*
X125739991Y-68283550D01*
X125795321Y-68240885D01*
X125864934Y-68234906D01*
X125926729Y-68267512D01*
X125940628Y-68283551D01*
X126000967Y-68366602D01*
X126123397Y-68489032D01*
X126263475Y-68590804D01*
X126417744Y-68669408D01*
X126582415Y-68722914D01*
X126582414Y-68722914D01*
X126589999Y-68724115D01*
X126590000Y-68724114D01*
X126590000Y-67665686D01*
X126594394Y-67670080D01*
X126685606Y-67722741D01*
X126787339Y-67750000D01*
X126892661Y-67750000D01*
X126994394Y-67722741D01*
X127085606Y-67670080D01*
X127090000Y-67665686D01*
X127090000Y-68724115D01*
X127097584Y-68722914D01*
X127262255Y-68669408D01*
X127416524Y-68590804D01*
X127556602Y-68489032D01*
X127679036Y-68366598D01*
X127739371Y-68283552D01*
X127794700Y-68240886D01*
X127864313Y-68234905D01*
X127926109Y-68267510D01*
X127940008Y-68283550D01*
X127958002Y-68308317D01*
X128000586Y-68366928D01*
X128123072Y-68489414D01*
X128263212Y-68591232D01*
X128417555Y-68669873D01*
X128582299Y-68723402D01*
X128753389Y-68750500D01*
X128753390Y-68750500D01*
X128926610Y-68750500D01*
X128926611Y-68750500D01*
X129097701Y-68723402D01*
X129262445Y-68669873D01*
X129416788Y-68591232D01*
X129556928Y-68489414D01*
X129679414Y-68366928D01*
X129781232Y-68226788D01*
X129859873Y-68072445D01*
X129913402Y-67907701D01*
X129940500Y-67736611D01*
X129940500Y-66963389D01*
X129913402Y-66792299D01*
X129859873Y-66627555D01*
X129781232Y-66473212D01*
X129679414Y-66333072D01*
X129556928Y-66210586D01*
X129416788Y-66108768D01*
X129262445Y-66030127D01*
X129097701Y-65976598D01*
X129097699Y-65976597D01*
X129097698Y-65976597D01*
X128966271Y-65955781D01*
X128926611Y-65949500D01*
X128753389Y-65949500D01*
X128713728Y-65955781D01*
X128582302Y-65976597D01*
X128417552Y-66030128D01*
X128263211Y-66108768D01*
X128186182Y-66164734D01*
X128123072Y-66210586D01*
X128123070Y-66210588D01*
X128123069Y-66210588D01*
X128000585Y-66333072D01*
X127940007Y-66416450D01*
X127884677Y-66459115D01*
X127815063Y-66465093D01*
X127753269Y-66432486D01*
X127739371Y-66416447D01*
X127679036Y-66333401D01*
X127556602Y-66210967D01*
X127416524Y-66109195D01*
X127262257Y-66030591D01*
X127097589Y-65977087D01*
X127097581Y-65977085D01*
X127090000Y-65975884D01*
X127090000Y-67034314D01*
X127085606Y-67029920D01*
X126994394Y-66977259D01*
X126892661Y-66950000D01*
X126787339Y-66950000D01*
X126685606Y-66977259D01*
X126594394Y-67029920D01*
X126590000Y-67034314D01*
X126590000Y-65975884D01*
X126589999Y-65975884D01*
X126582418Y-65977085D01*
X126582410Y-65977087D01*
X126417742Y-66030591D01*
X126263475Y-66109195D01*
X126123397Y-66210967D01*
X126000965Y-66333399D01*
X126000961Y-66333404D01*
X125940627Y-66416448D01*
X125885297Y-66459114D01*
X125815684Y-66465093D01*
X125753889Y-66432488D01*
X125739991Y-66416449D01*
X125739990Y-66416447D01*
X125679414Y-66333072D01*
X125556928Y-66210586D01*
X125416788Y-66108768D01*
X125262445Y-66030127D01*
X125097701Y-65976598D01*
X125097699Y-65976597D01*
X125097698Y-65976597D01*
X124966271Y-65955781D01*
X124926611Y-65949500D01*
X124753389Y-65949500D01*
X124713728Y-65955781D01*
X124582302Y-65976597D01*
X124417552Y-66030128D01*
X124263211Y-66108768D01*
X124123073Y-66210585D01*
X124015166Y-66318492D01*
X123953843Y-66351976D01*
X123884151Y-66346992D01*
X123828218Y-66305120D01*
X123821946Y-66295906D01*
X123782317Y-66231656D01*
X123658345Y-66107684D01*
X123509124Y-66015643D01*
X123509119Y-66015641D01*
X123342697Y-65960494D01*
X123342690Y-65960493D01*
X123239986Y-65950000D01*
X123090000Y-65950000D01*
X123090000Y-67034314D01*
X123085606Y-67029920D01*
X122994394Y-66977259D01*
X122892661Y-66950000D01*
X122787339Y-66950000D01*
X122685606Y-66977259D01*
X122594394Y-67029920D01*
X122590000Y-67034314D01*
X122590000Y-65950000D01*
X122440027Y-65950000D01*
X122440012Y-65950001D01*
X122337302Y-65960494D01*
X122170880Y-66015641D01*
X122170875Y-66015643D01*
X122021654Y-66107684D01*
X121897684Y-66231654D01*
X121805643Y-66380875D01*
X121805641Y-66380880D01*
X121750494Y-66547302D01*
X121750493Y-66547309D01*
X121740000Y-66650013D01*
X109842890Y-66650013D01*
X109795197Y-66591899D01*
X109795196Y-66591898D01*
X109795192Y-66591893D01*
X109538106Y-66334807D01*
X109257049Y-66104150D01*
X109257048Y-66104149D01*
X109257044Y-66104146D01*
X108954732Y-65902147D01*
X108954727Y-65902144D01*
X108954720Y-65902140D01*
X108634083Y-65730756D01*
X108634078Y-65730754D01*
X108448427Y-65653855D01*
X108436852Y-65649060D01*
X108382450Y-65605220D01*
X108360385Y-65538926D01*
X108377664Y-65471227D01*
X108428801Y-65423616D01*
X108484306Y-65410500D01*
X148941661Y-65410500D01*
X149008700Y-65430185D01*
G37*
%TD.AperFunction*%
%TD*%
M02*
