%TF.GenerationSoftware,KiCad,Pcbnew,10.0.1*%
%TF.CreationDate,2026-07-06T15:25:19+02:00*%
%TF.ProjectId,5V_board,35565f62-6f61-4726-942e-6b696361645f,rev?*%
%TF.SameCoordinates,Original*%
%TF.FileFunction,Copper,L1,Top*%
%TF.FilePolarity,Positive*%
%FSLAX46Y46*%
G04 Gerber Fmt 4.6, Leading zero omitted, Abs format (unit mm)*
G04 Created by KiCad (PCBNEW 10.0.1) date 2026-07-06 15:25:19*
%MOMM*%
%LPD*%
G01*
G04 APERTURE LIST*
G04 Aperture macros list*
%AMRoundRect*
0 Rectangle with rounded corners*
0 $1 Rounding radius*
0 $2 $3 $4 $5 $6 $7 $8 $9 X,Y pos of 4 corners*
0 Add a 4 corners polygon primitive as box body*
4,1,4,$2,$3,$4,$5,$6,$7,$8,$9,$2,$3,0*
0 Add four circle primitives for the rounded corners*
1,1,$1+$1,$2,$3*
1,1,$1+$1,$4,$5*
1,1,$1+$1,$6,$7*
1,1,$1+$1,$8,$9*
0 Add four rect primitives between the rounded corners*
20,1,$1+$1,$2,$3,$4,$5,0*
20,1,$1+$1,$4,$5,$6,$7,0*
20,1,$1+$1,$6,$7,$8,$9,0*
20,1,$1+$1,$8,$9,$2,$3,0*%
G04 Aperture macros list end*
%TA.AperFunction,SMDPad,CuDef*%
%ADD10RoundRect,0.250000X0.550000X-1.500000X0.550000X1.500000X-0.550000X1.500000X-0.550000X-1.500000X0*%
%TD*%
%TA.AperFunction,SMDPad,CuDef*%
%ADD11RoundRect,0.225000X-0.250000X0.225000X-0.250000X-0.225000X0.250000X-0.225000X0.250000X0.225000X0*%
%TD*%
%TA.AperFunction,ComponentPad*%
%ADD12RoundRect,0.250000X-0.350000X-0.650000X0.350000X-0.650000X0.350000X0.650000X-0.350000X0.650000X0*%
%TD*%
%TA.AperFunction,ComponentPad*%
%ADD13O,1.200000X1.800000*%
%TD*%
%TA.AperFunction,ComponentPad*%
%ADD14C,6.400000*%
%TD*%
%TA.AperFunction,SMDPad,CuDef*%
%ADD15RoundRect,0.250000X-1.500000X-0.550000X1.500000X-0.550000X1.500000X0.550000X-1.500000X0.550000X0*%
%TD*%
%TA.AperFunction,ComponentPad*%
%ADD16RoundRect,0.250001X-0.759999X0.499999X-0.759999X-0.499999X0.759999X-0.499999X0.759999X0.499999X0*%
%TD*%
%TA.AperFunction,ComponentPad*%
%ADD17O,2.020000X1.500000*%
%TD*%
%TA.AperFunction,SMDPad,CuDef*%
%ADD18RoundRect,0.140000X-0.170000X0.140000X-0.170000X-0.140000X0.170000X-0.140000X0.170000X0.140000X0*%
%TD*%
%TA.AperFunction,SMDPad,CuDef*%
%ADD19RoundRect,0.225000X0.225000X0.250000X-0.225000X0.250000X-0.225000X-0.250000X0.225000X-0.250000X0*%
%TD*%
%TA.AperFunction,ViaPad*%
%ADD20C,0.600000*%
%TD*%
%TA.AperFunction,Conductor*%
%ADD21C,1.500000*%
%TD*%
%TA.AperFunction,Conductor*%
%ADD22C,1.000000*%
%TD*%
%TA.AperFunction,Conductor*%
%ADD23C,0.200000*%
%TD*%
%TA.AperFunction,Conductor*%
%ADD24C,2.000000*%
%TD*%
%TA.AperFunction,Conductor*%
%ADD25C,0.500000*%
%TD*%
G04 APERTURE END LIST*
D10*
%TO.P,C_CM5_BULK1,1*%
%TO.N,+5V*%
X108240000Y-80550000D03*
%TO.P,C_CM5_BULK1,2*%
%TO.N,GND*%
X108240000Y-75150000D03*
%TD*%
D11*
%TO.P,C31,1*%
%TO.N,+5V*%
X137450000Y-81255000D03*
%TO.P,C31,2*%
%TO.N,GND*%
X137450000Y-82805000D03*
%TD*%
D12*
%TO.P,J1,1,Pin_1_1*%
%TO.N,GND*%
X122840000Y-67350000D03*
D13*
%TO.P,J1,2,Pin_2_2*%
%TO.N,+5V*%
X124840000Y-67350000D03*
%TO.P,J1,3,Pin_3_3*%
%TO.N,GND*%
X126840000Y-67350000D03*
%TO.P,J1,4,Pin_4_4*%
%TO.N,+5V*%
X128840000Y-67350000D03*
%TD*%
D14*
%TO.P,H2,1,1_1*%
%TO.N,unconnected-(H2-Pad1)*%
X150590000Y-68990000D03*
%TD*%
%TO.P,H1,1,1_1*%
%TO.N,unconnected-(H1-Pad1)*%
X107050000Y-69080000D03*
%TD*%
D15*
%TO.P,C35,1*%
%TO.N,+5V*%
X140170000Y-73110000D03*
%TO.P,C35,2*%
%TO.N,GND*%
X145570000Y-73110000D03*
%TD*%
D16*
%TO.P,J15,1,Pin_1_1*%
%TO.N,GND*%
X117230000Y-76810000D03*
D17*
%TO.P,J15,2,Pin_2_2*%
%TO.N,+5V*%
X117230000Y-79810000D03*
%TD*%
D18*
%TO.P,C34,1*%
%TO.N,+5V*%
X124210000Y-80700000D03*
%TO.P,C34,2*%
%TO.N,GND*%
X124210000Y-81660000D03*
%TD*%
%TO.P,C33,1*%
%TO.N,+5V*%
X125820000Y-80770000D03*
%TO.P,C33,2*%
%TO.N,GND*%
X125820000Y-81730000D03*
%TD*%
D19*
%TO.P,C32,1*%
%TO.N,+5V*%
X117235000Y-70810000D03*
%TO.P,C32,2*%
%TO.N,GND*%
X115685000Y-70810000D03*
%TD*%
D16*
%TO.P,J13,1,Pin_1_1*%
%TO.N,GND*%
X133685000Y-76750000D03*
D17*
%TO.P,J13,2,Pin_2_2*%
%TO.N,+5V*%
X133685000Y-79750000D03*
%TD*%
D20*
%TO.N,+5V*%
X140550000Y-76270000D03*
X128003750Y-74626250D03*
X124910000Y-75150000D03*
X140550000Y-76922500D03*
X127550000Y-74172500D03*
X139710000Y-76922500D03*
%TO.N,GND*%
X139180000Y-82890000D03*
X127370000Y-69180000D03*
%TD*%
%TO.N,+5V*%
D21*
X141160000Y-74200000D02*
X141160000Y-74362500D01*
D22*
X133685000Y-79750000D02*
X137350000Y-79750000D01*
D23*
X137350000Y-79750000D02*
X137450000Y-79650000D01*
D24*
X112067500Y-79792500D02*
X117620000Y-79792500D01*
D22*
X124890000Y-70672500D02*
X119097500Y-70672500D01*
X124890000Y-70672500D02*
X128507500Y-70672500D01*
D23*
X128850000Y-69870000D02*
X128840000Y-69860000D01*
D25*
X124930000Y-67350000D02*
X124930000Y-70632500D01*
D21*
X123800000Y-76100000D02*
X121300000Y-79702500D01*
X139710000Y-76922500D02*
X140550000Y-76922500D01*
D23*
X117620000Y-79792500D02*
X117710000Y-79702500D01*
D22*
X128840000Y-69860000D02*
X128840000Y-67350000D01*
D21*
X140550000Y-76270000D02*
X140550000Y-76922500D01*
X108240000Y-80650000D02*
X109097500Y-79792500D01*
D22*
X133685000Y-79750000D02*
X133127500Y-79750000D01*
D21*
X140550000Y-74972500D02*
X140550000Y-76270000D01*
D24*
X117710000Y-79702500D02*
X121300000Y-79702500D01*
D22*
X128003750Y-74626250D02*
X127550000Y-74172500D01*
D23*
X123800000Y-76100000D02*
X123960000Y-76100000D01*
X140380000Y-77092500D02*
X140550000Y-76922500D01*
D22*
X137450000Y-78792500D02*
X137450000Y-79650000D01*
X119097500Y-70672500D02*
X118850000Y-70920000D01*
D23*
X124930000Y-70632500D02*
X124890000Y-70672500D01*
D22*
X133127500Y-79750000D02*
X128003750Y-74626250D01*
X128850000Y-70330000D02*
X128850000Y-69870000D01*
D23*
X121300000Y-79702500D02*
X121597500Y-80000000D01*
D22*
X117345000Y-70920000D02*
X117235000Y-70810000D01*
D21*
X141160000Y-74362500D02*
X140550000Y-74972500D01*
D23*
X121300000Y-79702500D02*
X121692500Y-79702500D01*
D22*
X139320000Y-76922500D02*
X137450000Y-78792500D01*
D25*
X121692500Y-79702500D02*
X122760000Y-80770000D01*
D21*
X109097500Y-79792500D02*
X112067500Y-79792500D01*
D25*
X123960000Y-76100000D02*
X124910000Y-75150000D01*
D21*
X139320000Y-76922500D02*
X139710000Y-76922500D01*
D25*
X122760000Y-80770000D02*
X125820000Y-80770000D01*
D22*
X137450000Y-79650000D02*
X137450000Y-81255000D01*
X118850000Y-70920000D02*
X117345000Y-70920000D01*
D21*
X140070000Y-73110000D02*
X141160000Y-74200000D01*
D22*
X119850000Y-70672500D02*
X123800000Y-76100000D01*
%TO.N,GND*%
D23*
X139095000Y-82805000D02*
X139180000Y-82890000D01*
X137450000Y-82805000D02*
X139095000Y-82805000D01*
%TD*%
%TA.AperFunction,Conductor*%
%TO.N,GND*%
G36*
X127090000Y-68724115D02*
G01*
X127097584Y-68722914D01*
X127262255Y-68669408D01*
X127416524Y-68590804D01*
X127556602Y-68489032D01*
X127627819Y-68417816D01*
X127689142Y-68384331D01*
X127758834Y-68389315D01*
X127814767Y-68431187D01*
X127839184Y-68496651D01*
X127839500Y-68505497D01*
X127839500Y-69548000D01*
X127819815Y-69615039D01*
X127767011Y-69660794D01*
X127715500Y-69672000D01*
X125804500Y-69672000D01*
X125737461Y-69652315D01*
X125691706Y-69599511D01*
X125680500Y-69548000D01*
X125680500Y-68405723D01*
X125686496Y-68385302D01*
X125687711Y-68364053D01*
X125699040Y-68342582D01*
X125700185Y-68338684D01*
X125704182Y-68332838D01*
X125739991Y-68283551D01*
X125795321Y-68240885D01*
X125864934Y-68234906D01*
X125926729Y-68267512D01*
X125940628Y-68283551D01*
X126000967Y-68366602D01*
X126123397Y-68489032D01*
X126263475Y-68590804D01*
X126417744Y-68669408D01*
X126582415Y-68722914D01*
X126582414Y-68722914D01*
X126589999Y-68724115D01*
X126590000Y-68724114D01*
X126590000Y-67665686D01*
X126594394Y-67670080D01*
X126685606Y-67722741D01*
X126787339Y-67750000D01*
X126892661Y-67750000D01*
X126994394Y-67722741D01*
X127085606Y-67670080D01*
X127090000Y-67665686D01*
X127090000Y-68724115D01*
G37*
%TD.AperFunction*%
%TA.AperFunction,Conductor*%
G36*
X149008700Y-65430185D02*
G01*
X149054455Y-65482989D01*
X149064399Y-65552147D01*
X149035374Y-65615703D01*
X149000114Y-65643858D01*
X148685279Y-65812140D01*
X148685261Y-65812151D01*
X148382964Y-66014140D01*
X148382950Y-66014150D01*
X148101893Y-66244807D01*
X147844807Y-66501893D01*
X147614150Y-66782950D01*
X147614140Y-66782964D01*
X147412151Y-67085261D01*
X147412140Y-67085279D01*
X147240756Y-67405916D01*
X147240754Y-67405921D01*
X147101614Y-67741834D01*
X146996067Y-68089776D01*
X146996064Y-68089787D01*
X146925137Y-68446369D01*
X146903170Y-68669408D01*
X146896267Y-68739505D01*
X146889500Y-68808209D01*
X146889500Y-69171790D01*
X146925137Y-69533630D01*
X146996064Y-69890212D01*
X146996067Y-69890223D01*
X146996069Y-69890232D01*
X146996070Y-69890233D01*
X146998426Y-69898001D01*
X147101614Y-70238165D01*
X147180471Y-70428543D01*
X147227178Y-70541304D01*
X147240754Y-70574078D01*
X147240756Y-70574083D01*
X147412140Y-70894720D01*
X147412151Y-70894738D01*
X147614140Y-71197035D01*
X147614150Y-71197049D01*
X147844807Y-71478106D01*
X148101893Y-71735192D01*
X148101898Y-71735196D01*
X148101899Y-71735197D01*
X148382956Y-71965854D01*
X148685268Y-72167853D01*
X148685277Y-72167858D01*
X148685279Y-72167859D01*
X149005916Y-72339243D01*
X149005918Y-72339243D01*
X149005924Y-72339247D01*
X149341836Y-72478386D01*
X149689767Y-72583930D01*
X149689773Y-72583931D01*
X149689776Y-72583932D01*
X149689787Y-72583935D01*
X150046369Y-72654862D01*
X150408206Y-72690500D01*
X150408209Y-72690500D01*
X150771791Y-72690500D01*
X150771794Y-72690500D01*
X151133631Y-72654862D01*
X151203045Y-72641054D01*
X151490212Y-72583935D01*
X151490223Y-72583932D01*
X151490223Y-72583931D01*
X151490233Y-72583930D01*
X151838164Y-72478386D01*
X152174076Y-72339247D01*
X152494732Y-72167853D01*
X152797044Y-71965854D01*
X153078101Y-71735197D01*
X153335197Y-71478101D01*
X153565854Y-71197044D01*
X153767853Y-70894732D01*
X153939247Y-70574076D01*
X154078386Y-70238164D01*
X154136840Y-70045467D01*
X154175137Y-69987030D01*
X154238949Y-69958574D01*
X154308016Y-69969134D01*
X154360410Y-70015358D01*
X154379500Y-70081464D01*
X154379500Y-81895572D01*
X154379184Y-81904418D01*
X154379184Y-81904419D01*
X154364869Y-82104557D01*
X154362351Y-82122068D01*
X154320645Y-82313790D01*
X154315661Y-82330765D01*
X154247093Y-82514605D01*
X154239743Y-82530699D01*
X154145709Y-82702908D01*
X154136144Y-82717791D01*
X154018561Y-82874864D01*
X154006975Y-82888235D01*
X153868235Y-83026975D01*
X153854864Y-83038561D01*
X153697791Y-83156144D01*
X153682908Y-83165709D01*
X153510699Y-83259743D01*
X153494605Y-83267093D01*
X153310765Y-83335661D01*
X153293790Y-83340645D01*
X153102068Y-83382351D01*
X153084557Y-83384869D01*
X152903779Y-83397799D01*
X152884417Y-83399184D01*
X152875572Y-83399500D01*
X138513048Y-83399500D01*
X138446009Y-83379815D01*
X138400254Y-83327011D01*
X138390310Y-83257853D01*
X138395342Y-83236496D01*
X138414855Y-83177606D01*
X138424999Y-83078322D01*
X138425000Y-83078309D01*
X138425000Y-83055000D01*
X137574000Y-83055000D01*
X137506961Y-83035315D01*
X137461206Y-82982511D01*
X137450000Y-82931000D01*
X137450000Y-82679000D01*
X137469685Y-82611961D01*
X137522489Y-82566206D01*
X137574000Y-82555000D01*
X138424999Y-82555000D01*
X138424999Y-82531692D01*
X138424998Y-82531677D01*
X138414855Y-82432392D01*
X138361547Y-82271518D01*
X138361542Y-82271507D01*
X138272575Y-82127271D01*
X138272572Y-82127267D01*
X138263339Y-82118034D01*
X138229854Y-82056711D01*
X138234838Y-81987019D01*
X138263343Y-81942668D01*
X138272968Y-81933044D01*
X138362003Y-81788697D01*
X138415349Y-81627708D01*
X138425500Y-81528345D01*
X138425499Y-81491434D01*
X138427882Y-81467241D01*
X138434279Y-81435087D01*
X138450500Y-81353541D01*
X138450500Y-79551459D01*
X138450500Y-79258282D01*
X138470185Y-79191243D01*
X138486819Y-79170601D01*
X139448102Y-78209319D01*
X139509425Y-78175834D01*
X139535783Y-78173000D01*
X140648422Y-78173000D01*
X140842826Y-78142209D01*
X140881906Y-78129511D01*
X141030025Y-78081384D01*
X141205405Y-77992024D01*
X141364646Y-77876328D01*
X141503828Y-77737146D01*
X141619524Y-77577905D01*
X141708884Y-77402525D01*
X141769709Y-77215326D01*
X141776746Y-77170898D01*
X141800500Y-77020922D01*
X141800500Y-75541836D01*
X141820185Y-75474797D01*
X141836819Y-75454155D01*
X141907485Y-75383489D01*
X142113828Y-75177146D01*
X142229524Y-75017905D01*
X142266328Y-74945672D01*
X142318884Y-74842525D01*
X142370786Y-74682789D01*
X142371798Y-74679676D01*
X142379707Y-74655334D01*
X142379707Y-74655332D01*
X142379709Y-74655327D01*
X142396666Y-74548263D01*
X142410500Y-74460922D01*
X142410500Y-74101578D01*
X142392585Y-73988470D01*
X142384107Y-73934943D01*
X142388875Y-73876543D01*
X142409999Y-73812797D01*
X142420500Y-73710009D01*
X142420500Y-73709986D01*
X143320001Y-73709986D01*
X143330494Y-73812697D01*
X143385641Y-73979119D01*
X143385643Y-73979124D01*
X143477684Y-74128345D01*
X143601654Y-74252315D01*
X143750875Y-74344356D01*
X143750880Y-74344358D01*
X143917302Y-74399505D01*
X143917309Y-74399506D01*
X144020019Y-74409999D01*
X145319999Y-74409999D01*
X145820000Y-74409999D01*
X147119972Y-74409999D01*
X147119986Y-74409998D01*
X147222697Y-74399505D01*
X147389119Y-74344358D01*
X147389124Y-74344356D01*
X147538345Y-74252315D01*
X147662315Y-74128345D01*
X147754356Y-73979124D01*
X147754358Y-73979119D01*
X147809505Y-73812697D01*
X147809506Y-73812690D01*
X147819999Y-73709986D01*
X147820000Y-73709973D01*
X147820000Y-73360000D01*
X145820000Y-73360000D01*
X145820000Y-74409999D01*
X145319999Y-74409999D01*
X145320000Y-74409998D01*
X145320000Y-73360000D01*
X143320001Y-73360000D01*
X143320001Y-73709986D01*
X142420500Y-73709986D01*
X142420499Y-73062189D01*
X142420499Y-72510013D01*
X143320000Y-72510013D01*
X143320000Y-72860000D01*
X145320000Y-72860000D01*
X145820000Y-72860000D01*
X147819999Y-72860000D01*
X147819999Y-72510028D01*
X147819998Y-72510013D01*
X147809505Y-72407302D01*
X147754358Y-72240880D01*
X147754356Y-72240875D01*
X147662315Y-72091654D01*
X147538345Y-71967684D01*
X147389124Y-71875643D01*
X147389119Y-71875641D01*
X147222697Y-71820494D01*
X147222690Y-71820493D01*
X147119986Y-71810000D01*
X145820000Y-71810000D01*
X145820000Y-72860000D01*
X145320000Y-72860000D01*
X145320000Y-71810000D01*
X144020028Y-71810000D01*
X144020012Y-71810001D01*
X143917302Y-71820494D01*
X143750880Y-71875641D01*
X143750875Y-71875643D01*
X143601654Y-71967684D01*
X143477684Y-72091654D01*
X143385643Y-72240875D01*
X143385641Y-72240880D01*
X143330494Y-72407302D01*
X143330493Y-72407309D01*
X143320000Y-72510013D01*
X142420499Y-72510013D01*
X142420499Y-72509998D01*
X142420498Y-72509981D01*
X142409999Y-72407203D01*
X142409998Y-72407200D01*
X142354814Y-72240666D01*
X142262712Y-72091344D01*
X142138656Y-71967288D01*
X142000464Y-71882051D01*
X141989336Y-71875187D01*
X141989331Y-71875185D01*
X141973581Y-71869966D01*
X141822797Y-71820001D01*
X141822795Y-71820000D01*
X141720010Y-71809500D01*
X138619998Y-71809500D01*
X138619981Y-71809501D01*
X138517203Y-71820000D01*
X138517200Y-71820001D01*
X138350668Y-71875185D01*
X138350663Y-71875187D01*
X138201342Y-71967289D01*
X138077289Y-72091342D01*
X137985187Y-72240663D01*
X137985185Y-72240668D01*
X137985115Y-72240880D01*
X137930001Y-72407203D01*
X137930001Y-72407204D01*
X137930000Y-72407204D01*
X137919500Y-72509983D01*
X137919500Y-73710001D01*
X137919501Y-73710018D01*
X137930000Y-73812796D01*
X137930001Y-73812799D01*
X137985115Y-73979119D01*
X137985186Y-73979334D01*
X138077288Y-74128656D01*
X138201344Y-74252712D01*
X138350666Y-74344814D01*
X138517203Y-74399999D01*
X138619991Y-74410500D01*
X139247080Y-74410499D01*
X139274071Y-74418424D01*
X139301790Y-74423221D01*
X139307144Y-74428135D01*
X139314119Y-74430183D01*
X139332541Y-74451443D01*
X139353266Y-74470464D01*
X139355113Y-74477493D01*
X139359874Y-74482987D01*
X139363877Y-74510834D01*
X139371029Y-74538038D01*
X139369259Y-74548263D01*
X139369818Y-74552146D01*
X139365012Y-74572815D01*
X139360349Y-74587167D01*
X139360348Y-74587169D01*
X139330290Y-74679676D01*
X139330290Y-74679677D01*
X139299500Y-74874077D01*
X139299500Y-75553752D01*
X139279815Y-75620791D01*
X139227011Y-75666546D01*
X139194899Y-75676225D01*
X139027172Y-75702791D01*
X138839970Y-75763617D01*
X138664594Y-75852976D01*
X138600215Y-75899751D01*
X138505354Y-75968672D01*
X138505352Y-75968674D01*
X138505351Y-75968674D01*
X138366174Y-76107851D01*
X138366174Y-76107852D01*
X138366172Y-76107854D01*
X138330245Y-76157303D01*
X138250476Y-76267094D01*
X138161117Y-76442472D01*
X138100290Y-76629676D01*
X138088223Y-76705865D01*
X138058293Y-76768999D01*
X138053431Y-76774147D01*
X137427581Y-77399998D01*
X136812220Y-78015359D01*
X136812218Y-78015361D01*
X136777285Y-78050294D01*
X136672859Y-78154719D01*
X136563371Y-78318579D01*
X136563366Y-78318589D01*
X136510037Y-78447336D01*
X136492764Y-78489037D01*
X136492762Y-78489044D01*
X136488432Y-78499500D01*
X136487949Y-78500665D01*
X136458132Y-78650559D01*
X136457932Y-78651496D01*
X136441692Y-78681449D01*
X136425920Y-78711602D01*
X136425088Y-78712075D01*
X136424631Y-78712919D01*
X136394781Y-78729333D01*
X136365204Y-78746177D01*
X136363871Y-78746332D01*
X136363408Y-78746587D01*
X136362323Y-78746512D01*
X136336688Y-78749500D01*
X134735699Y-78749500D01*
X134668660Y-78729815D01*
X134662814Y-78725818D01*
X134600408Y-78680478D01*
X134600407Y-78680477D01*
X134600405Y-78680476D01*
X134543528Y-78651496D01*
X134425029Y-78591117D01*
X134237826Y-78530290D01*
X134043422Y-78499500D01*
X134043417Y-78499500D01*
X133343283Y-78499500D01*
X133276244Y-78479815D01*
X133255602Y-78463181D01*
X133004102Y-78211681D01*
X132970617Y-78150358D01*
X132975601Y-78080666D01*
X133017473Y-78024733D01*
X133082937Y-78000316D01*
X133091783Y-78000000D01*
X133435000Y-78000000D01*
X133435000Y-77194560D01*
X133488147Y-77225245D01*
X133617857Y-77260000D01*
X133752143Y-77260000D01*
X133881853Y-77225245D01*
X133935000Y-77194560D01*
X133935000Y-78000000D01*
X134494973Y-78000000D01*
X134494985Y-77999999D01*
X134597689Y-77989506D01*
X134597696Y-77989505D01*
X134764118Y-77934358D01*
X134764123Y-77934356D01*
X134913344Y-77842315D01*
X135037315Y-77718344D01*
X135129356Y-77569123D01*
X135129358Y-77569118D01*
X135184505Y-77402696D01*
X135184506Y-77402689D01*
X135194999Y-77299985D01*
X135195000Y-77299972D01*
X135195000Y-77000000D01*
X134129560Y-77000000D01*
X134160245Y-76946853D01*
X134195000Y-76817143D01*
X134195000Y-76682857D01*
X134160245Y-76553147D01*
X134129560Y-76500000D01*
X135195000Y-76500000D01*
X135195000Y-76200027D01*
X135194999Y-76200014D01*
X135184506Y-76097310D01*
X135184505Y-76097303D01*
X135129358Y-75930881D01*
X135129356Y-75930876D01*
X135037315Y-75781655D01*
X134913344Y-75657684D01*
X134764123Y-75565643D01*
X134764118Y-75565641D01*
X134597696Y-75510494D01*
X134597689Y-75510493D01*
X134494985Y-75500000D01*
X133935000Y-75500000D01*
X133935000Y-76305439D01*
X133881853Y-76274755D01*
X133752143Y-76240000D01*
X133617857Y-76240000D01*
X133488147Y-76274755D01*
X133435000Y-76305439D01*
X133435000Y-75500000D01*
X132875014Y-75500000D01*
X132772310Y-75510493D01*
X132772303Y-75510494D01*
X132605881Y-75565641D01*
X132605876Y-75565643D01*
X132456655Y-75657684D01*
X132332684Y-75781655D01*
X132240643Y-75930876D01*
X132240641Y-75930881D01*
X132185494Y-76097303D01*
X132185493Y-76097310D01*
X132175000Y-76200014D01*
X132175000Y-76500000D01*
X133240440Y-76500000D01*
X133209755Y-76553147D01*
X133175000Y-76682857D01*
X133175000Y-76817143D01*
X133209755Y-76946853D01*
X133240440Y-77000000D01*
X132175000Y-77000000D01*
X132175000Y-77083217D01*
X132155315Y-77150256D01*
X132102511Y-77196011D01*
X132033353Y-77205955D01*
X131969797Y-77176930D01*
X131963319Y-77170898D01*
X131076967Y-76284546D01*
X128787959Y-73995539D01*
X128787957Y-73995536D01*
X128455202Y-73662781D01*
X134759500Y-73662781D01*
X134759500Y-73837218D01*
X134793527Y-74008283D01*
X134793529Y-74008291D01*
X134860278Y-74169439D01*
X134860283Y-74169448D01*
X134957186Y-74314473D01*
X134957189Y-74314477D01*
X135080522Y-74437810D01*
X135080526Y-74437813D01*
X135225551Y-74534716D01*
X135225557Y-74534719D01*
X135225558Y-74534720D01*
X135386709Y-74601471D01*
X135557781Y-74635499D01*
X135557785Y-74635500D01*
X135557786Y-74635500D01*
X135732215Y-74635500D01*
X135732216Y-74635499D01*
X135903291Y-74601471D01*
X136064442Y-74534720D01*
X136209474Y-74437813D01*
X136332813Y-74314474D01*
X136429720Y-74169442D01*
X136496471Y-74008291D01*
X136530500Y-73837214D01*
X136530500Y-73662786D01*
X136496471Y-73491709D01*
X136441915Y-73360000D01*
X136429721Y-73330560D01*
X136429716Y-73330551D01*
X136332813Y-73185526D01*
X136332810Y-73185522D01*
X136209477Y-73062189D01*
X136209473Y-73062186D01*
X136064448Y-72965283D01*
X136064439Y-72965278D01*
X135903291Y-72898529D01*
X135903283Y-72898527D01*
X135732218Y-72864500D01*
X135732214Y-72864500D01*
X135557786Y-72864500D01*
X135557781Y-72864500D01*
X135386716Y-72898527D01*
X135386708Y-72898529D01*
X135225560Y-72965278D01*
X135225551Y-72965283D01*
X135080526Y-73062186D01*
X135080522Y-73062189D01*
X134957189Y-73185522D01*
X134957186Y-73185526D01*
X134860283Y-73330551D01*
X134860278Y-73330560D01*
X134793529Y-73491708D01*
X134793527Y-73491716D01*
X134759500Y-73662781D01*
X128455202Y-73662781D01*
X128187784Y-73395363D01*
X128187780Y-73395360D01*
X128023920Y-73285872D01*
X128023910Y-73285867D01*
X127841836Y-73210449D01*
X127841828Y-73210447D01*
X127648543Y-73172000D01*
X127648540Y-73172000D01*
X127451460Y-73172000D01*
X127451457Y-73172000D01*
X127258171Y-73210447D01*
X127258163Y-73210449D01*
X127076089Y-73285867D01*
X127076079Y-73285872D01*
X126912219Y-73395360D01*
X126912215Y-73395363D01*
X126772863Y-73534715D01*
X126772860Y-73534719D01*
X126663372Y-73698579D01*
X126663367Y-73698589D01*
X126587949Y-73880663D01*
X126587947Y-73880671D01*
X126549500Y-74073955D01*
X126549500Y-74271044D01*
X126587947Y-74464328D01*
X126587949Y-74464336D01*
X126663367Y-74646410D01*
X126663372Y-74646420D01*
X126772860Y-74810280D01*
X126772863Y-74810284D01*
X127373033Y-75410454D01*
X127373039Y-75410459D01*
X132328593Y-80366014D01*
X132351395Y-80397397D01*
X132355474Y-80405402D01*
X132355476Y-80405405D01*
X132471172Y-80564646D01*
X132610354Y-80703828D01*
X132769595Y-80819524D01*
X132852455Y-80861743D01*
X132944970Y-80908882D01*
X132944972Y-80908882D01*
X132944975Y-80908884D01*
X133045317Y-80941487D01*
X133132173Y-80969709D01*
X133326578Y-81000500D01*
X133326583Y-81000500D01*
X134043422Y-81000500D01*
X134237826Y-80969709D01*
X134425025Y-80908884D01*
X134600405Y-80819524D01*
X134628896Y-80798823D01*
X134662814Y-80774182D01*
X134728620Y-80750702D01*
X134735699Y-80750500D01*
X136325500Y-80750500D01*
X136392539Y-80770185D01*
X136438294Y-80822989D01*
X136449500Y-80874500D01*
X136449500Y-81353545D01*
X136472117Y-81467248D01*
X136474500Y-81491436D01*
X136474500Y-81528336D01*
X136474501Y-81528356D01*
X136484650Y-81627707D01*
X136484651Y-81627710D01*
X136537996Y-81788694D01*
X136538001Y-81788705D01*
X136627029Y-81933040D01*
X136627032Y-81933044D01*
X136636660Y-81942672D01*
X136670145Y-82003995D01*
X136665161Y-82073687D01*
X136651729Y-82099768D01*
X136565901Y-82226812D01*
X136540882Y-82247505D01*
X136516741Y-82269219D01*
X136514113Y-82269646D01*
X136512061Y-82271344D01*
X136479812Y-82275227D01*
X136447778Y-82280440D01*
X136445337Y-82279379D01*
X136442692Y-82279698D01*
X136413461Y-82265529D01*
X136383696Y-82252596D01*
X136381315Y-82249947D01*
X136379819Y-82249222D01*
X136378029Y-82246292D01*
X136360050Y-82226289D01*
X136332813Y-82185526D01*
X136332811Y-82185523D01*
X136209477Y-82062189D01*
X136209473Y-82062186D01*
X136064448Y-81965283D01*
X136064439Y-81965278D01*
X135903291Y-81898529D01*
X135903283Y-81898527D01*
X135732218Y-81864500D01*
X135732214Y-81864500D01*
X135557786Y-81864500D01*
X135557781Y-81864500D01*
X135386716Y-81898527D01*
X135386708Y-81898529D01*
X135225560Y-81965278D01*
X135225551Y-81965283D01*
X135080526Y-82062186D01*
X135080522Y-82062189D01*
X134957189Y-82185522D01*
X134957186Y-82185526D01*
X134860283Y-82330551D01*
X134860278Y-82330560D01*
X134793529Y-82491708D01*
X134793527Y-82491716D01*
X134759500Y-82662781D01*
X134759500Y-82837218D01*
X134793527Y-83008283D01*
X134793529Y-83008291D01*
X134860278Y-83169439D01*
X134860280Y-83169442D01*
X134885114Y-83206609D01*
X134905992Y-83273286D01*
X134887508Y-83340666D01*
X134835529Y-83387357D01*
X134782012Y-83399500D01*
X120089859Y-83399500D01*
X120022820Y-83379815D01*
X119977065Y-83327011D01*
X119967121Y-83257853D01*
X119975298Y-83228047D01*
X120005081Y-83156144D01*
X120041471Y-83068291D01*
X120075500Y-82897214D01*
X120075500Y-82722786D01*
X120041471Y-82551709D01*
X119974720Y-82390558D01*
X119974719Y-82390557D01*
X119974716Y-82390551D01*
X119877813Y-82245526D01*
X119877810Y-82245522D01*
X119754477Y-82122189D01*
X119754473Y-82122186D01*
X119609448Y-82025283D01*
X119609435Y-82025276D01*
X119547581Y-81999656D01*
X119547580Y-81999656D01*
X119500126Y-81980000D01*
X119448291Y-81958529D01*
X119448283Y-81958527D01*
X119277218Y-81924500D01*
X119277214Y-81924500D01*
X119102786Y-81924500D01*
X119102781Y-81924500D01*
X118931716Y-81958527D01*
X118931708Y-81958529D01*
X118770560Y-82025278D01*
X118770551Y-82025283D01*
X118625526Y-82122186D01*
X118625522Y-82122189D01*
X118502189Y-82245522D01*
X118502186Y-82245526D01*
X118405283Y-82390551D01*
X118405278Y-82390560D01*
X118338529Y-82551708D01*
X118338527Y-82551716D01*
X118304500Y-82722781D01*
X118304500Y-82897218D01*
X118338527Y-83068283D01*
X118338529Y-83068291D01*
X118404702Y-83228047D01*
X118412171Y-83297517D01*
X118380896Y-83359996D01*
X118320807Y-83395648D01*
X118290141Y-83399500D01*
X104934428Y-83399500D01*
X104925582Y-83399184D01*
X104903622Y-83397613D01*
X104725442Y-83384869D01*
X104707931Y-83382351D01*
X104516209Y-83340645D01*
X104499234Y-83335661D01*
X104315394Y-83267093D01*
X104299300Y-83259743D01*
X104127091Y-83165709D01*
X104112208Y-83156144D01*
X103955135Y-83038561D01*
X103941764Y-83026975D01*
X103803024Y-82888235D01*
X103791438Y-82874864D01*
X103673855Y-82717791D01*
X103664290Y-82702908D01*
X103614629Y-82611961D01*
X103570253Y-82530694D01*
X103562909Y-82514611D01*
X103494336Y-82330760D01*
X103489354Y-82313790D01*
X103488467Y-82309714D01*
X103447647Y-82122063D01*
X103445130Y-82104556D01*
X103444805Y-82100018D01*
X103430816Y-81904418D01*
X103430500Y-81895572D01*
X103430500Y-78999983D01*
X106939500Y-78999983D01*
X106939500Y-82100001D01*
X106939501Y-82100018D01*
X106950000Y-82202796D01*
X106950001Y-82202799D01*
X107005185Y-82369331D01*
X107005187Y-82369336D01*
X107040069Y-82425888D01*
X107097288Y-82518656D01*
X107221344Y-82642712D01*
X107370666Y-82734814D01*
X107537203Y-82789999D01*
X107639991Y-82800500D01*
X108840008Y-82800499D01*
X108942797Y-82789999D01*
X109109334Y-82734814D01*
X109258656Y-82642712D01*
X109382712Y-82518656D01*
X109474814Y-82369334D01*
X109529999Y-82202797D01*
X109540500Y-82100009D01*
X109540500Y-81910000D01*
X123405496Y-81910000D01*
X123447968Y-82056195D01*
X123530278Y-82195374D01*
X123530285Y-82195383D01*
X123644616Y-82309714D01*
X123644625Y-82309721D01*
X123783804Y-82392031D01*
X123939089Y-82437145D01*
X123960000Y-82438789D01*
X124460000Y-82438789D01*
X124480910Y-82437145D01*
X124636195Y-82392031D01*
X124775374Y-82309721D01*
X124775383Y-82309714D01*
X124889714Y-82195383D01*
X124894499Y-82189215D01*
X124896447Y-82190726D01*
X124938625Y-82151336D01*
X125007365Y-82138824D01*
X125071957Y-82165462D01*
X125101033Y-82199013D01*
X125140279Y-82265375D01*
X125140285Y-82265383D01*
X125254616Y-82379714D01*
X125254625Y-82379721D01*
X125393804Y-82462031D01*
X125549089Y-82507145D01*
X125570000Y-82508789D01*
X126070000Y-82508789D01*
X126090910Y-82507145D01*
X126246195Y-82462031D01*
X126385374Y-82379721D01*
X126385383Y-82379714D01*
X126499714Y-82265383D01*
X126499721Y-82265374D01*
X126582031Y-82126195D01*
X126624504Y-81980000D01*
X126070000Y-81980000D01*
X126070000Y-82508789D01*
X125570000Y-82508789D01*
X125570000Y-81980000D01*
X125001362Y-81980000D01*
X124934323Y-81960315D01*
X124913681Y-81943681D01*
X124880000Y-81910000D01*
X124460000Y-81910000D01*
X124460000Y-82438789D01*
X123960000Y-82438789D01*
X123960000Y-81910000D01*
X123405496Y-81910000D01*
X109540500Y-81910000D01*
X109540499Y-81169336D01*
X109549149Y-81139875D01*
X109555680Y-81109887D01*
X109559421Y-81104890D01*
X109560183Y-81102298D01*
X109576837Y-81081637D01*
X109579175Y-81079300D01*
X109640505Y-81045828D01*
X109666837Y-81043000D01*
X111195572Y-81043000D01*
X111262611Y-81062685D01*
X111268457Y-81066682D01*
X111275623Y-81071888D01*
X111281067Y-81075843D01*
X111406737Y-81139875D01*
X111491503Y-81183066D01*
X111491505Y-81183066D01*
X111491508Y-81183068D01*
X111571531Y-81209069D01*
X111716131Y-81256053D01*
X111949403Y-81293000D01*
X111949408Y-81293000D01*
X117738097Y-81293000D01*
X117971368Y-81256053D01*
X118115970Y-81209068D01*
X118154288Y-81203000D01*
X121418097Y-81203000D01*
X121651368Y-81166053D01*
X121875992Y-81093068D01*
X121892243Y-81084787D01*
X121960908Y-81071888D01*
X122025650Y-81098161D01*
X122036221Y-81107589D01*
X122281586Y-81352954D01*
X122309450Y-81371571D01*
X122351250Y-81399500D01*
X122404505Y-81435084D01*
X122404507Y-81435085D01*
X122404511Y-81435087D01*
X122512942Y-81480000D01*
X122541087Y-81491658D01*
X122541091Y-81491658D01*
X122541092Y-81491659D01*
X122686079Y-81520500D01*
X122686082Y-81520500D01*
X122686083Y-81520500D01*
X122833917Y-81520500D01*
X125437934Y-81520500D01*
X125472528Y-81525423D01*
X125549007Y-81547643D01*
X125585310Y-81550500D01*
X125585318Y-81550500D01*
X126054682Y-81550500D01*
X126054690Y-81550500D01*
X126090993Y-81547643D01*
X126090995Y-81547642D01*
X126090997Y-81547642D01*
X126246389Y-81502496D01*
X126246389Y-81502495D01*
X126246395Y-81502494D01*
X126255233Y-81497267D01*
X126318352Y-81480000D01*
X126624504Y-81480000D01*
X126582031Y-81333803D01*
X126570090Y-81313613D01*
X126552906Y-81245889D01*
X126570089Y-81187369D01*
X126582494Y-81166395D01*
X126627643Y-81010993D01*
X126630500Y-80974690D01*
X126630500Y-80565310D01*
X126627643Y-80529007D01*
X126582494Y-80373605D01*
X126500117Y-80234313D01*
X126500115Y-80234311D01*
X126500112Y-80234307D01*
X126385692Y-80119887D01*
X126385684Y-80119881D01*
X126246393Y-80037505D01*
X126246390Y-80037504D01*
X126090997Y-79992357D01*
X126090991Y-79992356D01*
X126054697Y-79989500D01*
X126054690Y-79989500D01*
X125585310Y-79989500D01*
X125585302Y-79989500D01*
X125549008Y-79992356D01*
X125549005Y-79992357D01*
X125507789Y-80004332D01*
X125472528Y-80014576D01*
X125437934Y-80019500D01*
X124758234Y-80019500D01*
X124695113Y-80002232D01*
X124691026Y-79999815D01*
X124636395Y-79967506D01*
X124636394Y-79967505D01*
X124636393Y-79967505D01*
X124636390Y-79967504D01*
X124480997Y-79922357D01*
X124480991Y-79922356D01*
X124444697Y-79919500D01*
X124444690Y-79919500D01*
X123975310Y-79919500D01*
X123975302Y-79919500D01*
X123939008Y-79922356D01*
X123939002Y-79922357D01*
X123783609Y-79967504D01*
X123783606Y-79967505D01*
X123757100Y-79983181D01*
X123728974Y-79999815D01*
X123724887Y-80002232D01*
X123661766Y-80019500D01*
X123122230Y-80019500D01*
X123092789Y-80010855D01*
X123062803Y-80004332D01*
X123057787Y-80000577D01*
X123055191Y-79999815D01*
X123034549Y-79983181D01*
X122867415Y-79816047D01*
X122833930Y-79754724D01*
X122838914Y-79685032D01*
X122853223Y-79657670D01*
X124883465Y-76732091D01*
X124969007Y-76554818D01*
X125025763Y-76366346D01*
X125052338Y-76171315D01*
X125051315Y-76124125D01*
X125059657Y-76093258D01*
X125066454Y-76062015D01*
X125069030Y-76058572D01*
X125069543Y-76056678D01*
X125087601Y-76033765D01*
X125225297Y-75896069D01*
X125265524Y-75869191D01*
X125289179Y-75859394D01*
X125420289Y-75771789D01*
X125531789Y-75660289D01*
X125619394Y-75529179D01*
X125679737Y-75383497D01*
X125710500Y-75228842D01*
X125710500Y-75071158D01*
X125710500Y-75071155D01*
X125710499Y-75071153D01*
X125685539Y-74945672D01*
X125679737Y-74916503D01*
X125649095Y-74842525D01*
X125619397Y-74770827D01*
X125619390Y-74770814D01*
X125531789Y-74639711D01*
X125531786Y-74639707D01*
X125420292Y-74528213D01*
X125420288Y-74528210D01*
X125289185Y-74440609D01*
X125289172Y-74440602D01*
X125143501Y-74380264D01*
X125143489Y-74380261D01*
X124988845Y-74349500D01*
X124988842Y-74349500D01*
X124831158Y-74349500D01*
X124831155Y-74349500D01*
X124676510Y-74380261D01*
X124676498Y-74380264D01*
X124530827Y-74440602D01*
X124530814Y-74440609D01*
X124399711Y-74528210D01*
X124399707Y-74528213D01*
X124288213Y-74639707D01*
X124288210Y-74639711D01*
X124236882Y-74716529D01*
X124183269Y-74761334D01*
X124113944Y-74770041D01*
X124050917Y-74739886D01*
X124033521Y-74720604D01*
X121958897Y-71869966D01*
X121935364Y-71804179D01*
X121951134Y-71736112D01*
X122001201Y-71687377D01*
X122059156Y-71673000D01*
X128606043Y-71673000D01*
X128736082Y-71647132D01*
X128799335Y-71634551D01*
X128981414Y-71559132D01*
X129145282Y-71449639D01*
X129284639Y-71310282D01*
X129352303Y-71209013D01*
X129386513Y-71174803D01*
X129487782Y-71107139D01*
X129627139Y-70967782D01*
X129736632Y-70803914D01*
X129812051Y-70621835D01*
X129839612Y-70483279D01*
X129850500Y-70428543D01*
X129850500Y-69771457D01*
X129842883Y-69733167D01*
X129840500Y-69708974D01*
X129840500Y-68140235D01*
X129854016Y-68083939D01*
X129859873Y-68072445D01*
X129913402Y-67907701D01*
X129940500Y-67736611D01*
X129940500Y-66963389D01*
X129913402Y-66792299D01*
X129859873Y-66627555D01*
X129781232Y-66473212D01*
X129679414Y-66333072D01*
X129556928Y-66210586D01*
X129416788Y-66108768D01*
X129262445Y-66030127D01*
X129097701Y-65976598D01*
X129097699Y-65976597D01*
X129097698Y-65976597D01*
X128966271Y-65955781D01*
X128926611Y-65949500D01*
X128753389Y-65949500D01*
X128713728Y-65955781D01*
X128582302Y-65976597D01*
X128417552Y-66030128D01*
X128263211Y-66108768D01*
X128186182Y-66164734D01*
X128123072Y-66210586D01*
X128123070Y-66210588D01*
X128123069Y-66210588D01*
X128000585Y-66333072D01*
X127940007Y-66416450D01*
X127884677Y-66459115D01*
X127815063Y-66465093D01*
X127753269Y-66432486D01*
X127739371Y-66416447D01*
X127679036Y-66333401D01*
X127556602Y-66210967D01*
X127416524Y-66109195D01*
X127262257Y-66030591D01*
X127097589Y-65977087D01*
X127097581Y-65977085D01*
X127090000Y-65975884D01*
X127090000Y-67034314D01*
X127085606Y-67029920D01*
X126994394Y-66977259D01*
X126892661Y-66950000D01*
X126787339Y-66950000D01*
X126685606Y-66977259D01*
X126594394Y-67029920D01*
X126590000Y-67034314D01*
X126590000Y-65975884D01*
X126589999Y-65975884D01*
X126582418Y-65977085D01*
X126582410Y-65977087D01*
X126417742Y-66030591D01*
X126263475Y-66109195D01*
X126123397Y-66210967D01*
X126000965Y-66333399D01*
X126000961Y-66333404D01*
X125940627Y-66416448D01*
X125885297Y-66459114D01*
X125815684Y-66465093D01*
X125753889Y-66432488D01*
X125739991Y-66416449D01*
X125739990Y-66416447D01*
X125679414Y-66333072D01*
X125556928Y-66210586D01*
X125416788Y-66108768D01*
X125262445Y-66030127D01*
X125097701Y-65976598D01*
X125097699Y-65976597D01*
X125097698Y-65976597D01*
X124966271Y-65955781D01*
X124926611Y-65949500D01*
X124753389Y-65949500D01*
X124713728Y-65955781D01*
X124582302Y-65976597D01*
X124417552Y-66030128D01*
X124263211Y-66108768D01*
X124123073Y-66210585D01*
X124015166Y-66318492D01*
X123953843Y-66351976D01*
X123884151Y-66346992D01*
X123828218Y-66305120D01*
X123821946Y-66295906D01*
X123782317Y-66231656D01*
X123658345Y-66107684D01*
X123509124Y-66015643D01*
X123509119Y-66015641D01*
X123342697Y-65960494D01*
X123342690Y-65960493D01*
X123239986Y-65950000D01*
X123090000Y-65950000D01*
X123090000Y-67034314D01*
X123085606Y-67029920D01*
X122994394Y-66977259D01*
X122892661Y-66950000D01*
X122787339Y-66950000D01*
X122685606Y-66977259D01*
X122594394Y-67029920D01*
X122590000Y-67034314D01*
X122590000Y-65950000D01*
X122440027Y-65950000D01*
X122440012Y-65950001D01*
X122337302Y-65960494D01*
X122170880Y-66015641D01*
X122170875Y-66015643D01*
X122021654Y-66107684D01*
X121897684Y-66231654D01*
X121805643Y-66380875D01*
X121805641Y-66380880D01*
X121750494Y-66547302D01*
X121750493Y-66547309D01*
X121740000Y-66650013D01*
X121740000Y-67100000D01*
X122524314Y-67100000D01*
X122519920Y-67104394D01*
X122467259Y-67195606D01*
X122440000Y-67297339D01*
X122440000Y-67402661D01*
X122467259Y-67504394D01*
X122519920Y-67595606D01*
X122524314Y-67600000D01*
X121740001Y-67600000D01*
X121740001Y-68049986D01*
X121750494Y-68152697D01*
X121805641Y-68319119D01*
X121805643Y-68319124D01*
X121897684Y-68468345D01*
X122021654Y-68592315D01*
X122170875Y-68684356D01*
X122170880Y-68684358D01*
X122337302Y-68739505D01*
X122337309Y-68739506D01*
X122440019Y-68749999D01*
X122589999Y-68749999D01*
X122590000Y-68749998D01*
X122590000Y-67665686D01*
X122594394Y-67670080D01*
X122685606Y-67722741D01*
X122787339Y-67750000D01*
X122892661Y-67750000D01*
X122994394Y-67722741D01*
X123085606Y-67670080D01*
X123090000Y-67665686D01*
X123090000Y-68749999D01*
X123239972Y-68749999D01*
X123239986Y-68749998D01*
X123342697Y-68739505D01*
X123509119Y-68684358D01*
X123509124Y-68684356D01*
X123658345Y-68592315D01*
X123782315Y-68468345D01*
X123821945Y-68404094D01*
X123838597Y-68389115D01*
X123851762Y-68370995D01*
X123864071Y-68366201D01*
X123873893Y-68357368D01*
X123895999Y-68353770D01*
X123916870Y-68345644D01*
X123929816Y-68348266D01*
X123942855Y-68346145D01*
X123963397Y-68355070D01*
X123985349Y-68359518D01*
X124002147Y-68371907D01*
X124006937Y-68373988D01*
X124013903Y-68380262D01*
X124014505Y-68380847D01*
X124123072Y-68489414D01*
X124135562Y-68498488D01*
X124141918Y-68504665D01*
X124154912Y-68527674D01*
X124171047Y-68548594D01*
X124173199Y-68560054D01*
X124176277Y-68565503D01*
X124175797Y-68573884D01*
X124179500Y-68593592D01*
X124179500Y-69548000D01*
X124159815Y-69615039D01*
X124107011Y-69660794D01*
X124055500Y-69672000D01*
X119938046Y-69672000D01*
X119918747Y-69670489D01*
X119908371Y-69668854D01*
X119832435Y-69671900D01*
X119827466Y-69672000D01*
X118998955Y-69672000D01*
X118902312Y-69691224D01*
X118805667Y-69710447D01*
X118805661Y-69710449D01*
X118752334Y-69732537D01*
X118752334Y-69732538D01*
X118706815Y-69751392D01*
X118623589Y-69785866D01*
X118623579Y-69785871D01*
X118454867Y-69898602D01*
X118388189Y-69919480D01*
X118385976Y-69919500D01*
X117838726Y-69919500D01*
X117773629Y-69901039D01*
X117772166Y-69900136D01*
X117768697Y-69897997D01*
X117661055Y-69862328D01*
X117607709Y-69844651D01*
X117508352Y-69834500D01*
X117508345Y-69834500D01*
X117471434Y-69834500D01*
X117447243Y-69832117D01*
X117412052Y-69825117D01*
X117333542Y-69809500D01*
X117333540Y-69809500D01*
X117136460Y-69809500D01*
X117091913Y-69818360D01*
X117022746Y-69832118D01*
X116998559Y-69834500D01*
X116961663Y-69834500D01*
X116961643Y-69834501D01*
X116862292Y-69844650D01*
X116862289Y-69844651D01*
X116701305Y-69897996D01*
X116701294Y-69898001D01*
X116556959Y-69987029D01*
X116556953Y-69987033D01*
X116547324Y-69996663D01*
X116486000Y-70030146D01*
X116416308Y-70025159D01*
X116371965Y-69996660D01*
X116362732Y-69987427D01*
X116362728Y-69987424D01*
X116218492Y-69898457D01*
X116218481Y-69898452D01*
X116057606Y-69845144D01*
X115958322Y-69835000D01*
X115935000Y-69835000D01*
X115935000Y-71784999D01*
X115958308Y-71784999D01*
X115958322Y-71784998D01*
X116057607Y-71774855D01*
X116218481Y-71721547D01*
X116218492Y-71721542D01*
X116362731Y-71632573D01*
X116371959Y-71623345D01*
X116433279Y-71589856D01*
X116502971Y-71594835D01*
X116547327Y-71623339D01*
X116556955Y-71632967D01*
X116556959Y-71632970D01*
X116701294Y-71721998D01*
X116701297Y-71721999D01*
X116701303Y-71722003D01*
X116770931Y-71745075D01*
X116788887Y-71752638D01*
X116795041Y-71755820D01*
X116871086Y-71806632D01*
X116977745Y-71850811D01*
X117053164Y-71882051D01*
X117246454Y-71920499D01*
X117246457Y-71920500D01*
X117246459Y-71920500D01*
X118948542Y-71920500D01*
X118964540Y-71917317D01*
X119045188Y-71901275D01*
X119141836Y-71882051D01*
X119196278Y-71859500D01*
X119321323Y-71807704D01*
X119390793Y-71800236D01*
X119453272Y-71831512D01*
X119469034Y-71849300D01*
X122364992Y-75828493D01*
X122388525Y-75894280D01*
X122372755Y-75962347D01*
X122366606Y-75972155D01*
X120856169Y-78148696D01*
X120801776Y-78192550D01*
X120754296Y-78202000D01*
X118409718Y-78202000D01*
X118342679Y-78182315D01*
X118296924Y-78129511D01*
X118286980Y-78060353D01*
X118316005Y-77996797D01*
X118344621Y-77972461D01*
X118458344Y-77902315D01*
X118582315Y-77778344D01*
X118674356Y-77629123D01*
X118674358Y-77629118D01*
X118729505Y-77462696D01*
X118729506Y-77462689D01*
X118739999Y-77359985D01*
X118740000Y-77359972D01*
X118740000Y-77060000D01*
X117674560Y-77060000D01*
X117705245Y-77006853D01*
X117740000Y-76877143D01*
X117740000Y-76742857D01*
X117705245Y-76613147D01*
X117674560Y-76560000D01*
X118740000Y-76560000D01*
X118740000Y-76260027D01*
X118739999Y-76260014D01*
X118729506Y-76157310D01*
X118729505Y-76157303D01*
X118674358Y-75990881D01*
X118674356Y-75990876D01*
X118582315Y-75841655D01*
X118458344Y-75717684D01*
X118309123Y-75625643D01*
X118309118Y-75625641D01*
X118142696Y-75570494D01*
X118142689Y-75570493D01*
X118039985Y-75560000D01*
X117480000Y-75560000D01*
X117480000Y-76365439D01*
X117426853Y-76334755D01*
X117297143Y-76300000D01*
X117162857Y-76300000D01*
X117033147Y-76334755D01*
X116980000Y-76365439D01*
X116980000Y-75560000D01*
X116420014Y-75560000D01*
X116317310Y-75570493D01*
X116317303Y-75570494D01*
X116150881Y-75625641D01*
X116150876Y-75625643D01*
X116001655Y-75717684D01*
X115877684Y-75841655D01*
X115785643Y-75990876D01*
X115785641Y-75990881D01*
X115730494Y-76157303D01*
X115730493Y-76157310D01*
X115720000Y-76260014D01*
X115720000Y-76560000D01*
X116785440Y-76560000D01*
X116754755Y-76613147D01*
X116720000Y-76742857D01*
X116720000Y-76877143D01*
X116754755Y-77006853D01*
X116785440Y-77060000D01*
X115720000Y-77060000D01*
X115720000Y-77359985D01*
X115730493Y-77462689D01*
X115730494Y-77462696D01*
X115785641Y-77629118D01*
X115785643Y-77629123D01*
X115877684Y-77778344D01*
X116001655Y-77902315D01*
X116150876Y-77994356D01*
X116150881Y-77994358D01*
X116319684Y-78050294D01*
X116377129Y-78090067D01*
X116403952Y-78154582D01*
X116391637Y-78223358D01*
X116344094Y-78274558D01*
X116280680Y-78292000D01*
X111949403Y-78292000D01*
X111716131Y-78328946D01*
X111491503Y-78401933D01*
X111281063Y-78509159D01*
X111268457Y-78518318D01*
X111202651Y-78541798D01*
X111195572Y-78542000D01*
X109394730Y-78542000D01*
X109327691Y-78522315D01*
X109307049Y-78505681D01*
X109258657Y-78457289D01*
X109258656Y-78457288D01*
X109109334Y-78365186D01*
X108942797Y-78310001D01*
X108942795Y-78310000D01*
X108840010Y-78299500D01*
X107639998Y-78299500D01*
X107639981Y-78299501D01*
X107537203Y-78310000D01*
X107537200Y-78310001D01*
X107370668Y-78365185D01*
X107370663Y-78365187D01*
X107221342Y-78457289D01*
X107097289Y-78581342D01*
X107005187Y-78730663D01*
X107005186Y-78730666D01*
X106950001Y-78897203D01*
X106950001Y-78897204D01*
X106950000Y-78897204D01*
X106939500Y-78999983D01*
X103430500Y-78999983D01*
X103430500Y-76699986D01*
X106940001Y-76699986D01*
X106950494Y-76802697D01*
X107005641Y-76969119D01*
X107005643Y-76969124D01*
X107097684Y-77118345D01*
X107221654Y-77242315D01*
X107370875Y-77334356D01*
X107370880Y-77334358D01*
X107537302Y-77389505D01*
X107537309Y-77389506D01*
X107640019Y-77399999D01*
X107989999Y-77399999D01*
X108490000Y-77399999D01*
X108839972Y-77399999D01*
X108839986Y-77399998D01*
X108942697Y-77389505D01*
X109109119Y-77334358D01*
X109109124Y-77334356D01*
X109258345Y-77242315D01*
X109382315Y-77118345D01*
X109474356Y-76969124D01*
X109474358Y-76969119D01*
X109529505Y-76802697D01*
X109529506Y-76802690D01*
X109539999Y-76699986D01*
X109540000Y-76699973D01*
X109540000Y-75400000D01*
X108490000Y-75400000D01*
X108490000Y-77399999D01*
X107989999Y-77399999D01*
X107990000Y-77399998D01*
X107990000Y-75400000D01*
X106940001Y-75400000D01*
X106940001Y-76699986D01*
X103430500Y-76699986D01*
X103430500Y-70635017D01*
X103450185Y-70567978D01*
X103502989Y-70522223D01*
X103572147Y-70512279D01*
X103635703Y-70541304D01*
X103669060Y-70587563D01*
X103700751Y-70664071D01*
X103700754Y-70664078D01*
X103700756Y-70664083D01*
X103872140Y-70984720D01*
X103872151Y-70984738D01*
X104074140Y-71287035D01*
X104074150Y-71287049D01*
X104304807Y-71568106D01*
X104561893Y-71825192D01*
X104561898Y-71825196D01*
X104561899Y-71825197D01*
X104842956Y-72055854D01*
X105145268Y-72257853D01*
X105145277Y-72257858D01*
X105145279Y-72257859D01*
X105465916Y-72429243D01*
X105465918Y-72429243D01*
X105465924Y-72429247D01*
X105801836Y-72568386D01*
X106149767Y-72673930D01*
X106149773Y-72673931D01*
X106149776Y-72673932D01*
X106149787Y-72673935D01*
X106506369Y-72744862D01*
X106868206Y-72780500D01*
X106868209Y-72780500D01*
X107233803Y-72780500D01*
X107300842Y-72800185D01*
X107346597Y-72852989D01*
X107356541Y-72922147D01*
X107327516Y-72985703D01*
X107298900Y-73010039D01*
X107221654Y-73057684D01*
X107097684Y-73181654D01*
X107005643Y-73330875D01*
X107005641Y-73330880D01*
X106950494Y-73497302D01*
X106950493Y-73497309D01*
X106940000Y-73600013D01*
X106940000Y-74900000D01*
X107990000Y-74900000D01*
X108490000Y-74900000D01*
X109539999Y-74900000D01*
X109539999Y-73722781D01*
X118304500Y-73722781D01*
X118304500Y-73897218D01*
X118338527Y-74068283D01*
X118338529Y-74068291D01*
X118405278Y-74229439D01*
X118405283Y-74229448D01*
X118502186Y-74374473D01*
X118502189Y-74374477D01*
X118625522Y-74497810D01*
X118625526Y-74497813D01*
X118770551Y-74594716D01*
X118770557Y-74594719D01*
X118770558Y-74594720D01*
X118931709Y-74661471D01*
X119102781Y-74695499D01*
X119102785Y-74695500D01*
X119102786Y-74695500D01*
X119277215Y-74695500D01*
X119277216Y-74695499D01*
X119448291Y-74661471D01*
X119609442Y-74594720D01*
X119754474Y-74497813D01*
X119877813Y-74374474D01*
X119974720Y-74229442D01*
X120041471Y-74068291D01*
X120075500Y-73897214D01*
X120075500Y-73722786D01*
X120041471Y-73551709D01*
X119976710Y-73395363D01*
X119974721Y-73390560D01*
X119974716Y-73390551D01*
X119877813Y-73245526D01*
X119877810Y-73245522D01*
X119754477Y-73122189D01*
X119754473Y-73122186D01*
X119609448Y-73025283D01*
X119609439Y-73025278D01*
X119448291Y-72958529D01*
X119448283Y-72958527D01*
X119277218Y-72924500D01*
X119277214Y-72924500D01*
X119102786Y-72924500D01*
X119102781Y-72924500D01*
X118931716Y-72958527D01*
X118931708Y-72958529D01*
X118770560Y-73025278D01*
X118770551Y-73025283D01*
X118625526Y-73122186D01*
X118625522Y-73122189D01*
X118502189Y-73245522D01*
X118502186Y-73245526D01*
X118405283Y-73390551D01*
X118405278Y-73390560D01*
X118338529Y-73551708D01*
X118338527Y-73551716D01*
X118304500Y-73722781D01*
X109539999Y-73722781D01*
X109539999Y-73600028D01*
X109539998Y-73600013D01*
X109529505Y-73497302D01*
X109474358Y-73330880D01*
X109474356Y-73330875D01*
X109382315Y-73181654D01*
X109258345Y-73057684D01*
X109109124Y-72965643D01*
X109109119Y-72965641D01*
X108942697Y-72910494D01*
X108942690Y-72910493D01*
X108839986Y-72900000D01*
X108490000Y-72900000D01*
X108490000Y-74900000D01*
X107990000Y-74900000D01*
X107990000Y-72900220D01*
X107953505Y-72863947D01*
X107942744Y-72844382D01*
X107928125Y-72827511D01*
X107926234Y-72814365D01*
X107919833Y-72802726D01*
X107921358Y-72780450D01*
X107918181Y-72758353D01*
X107923698Y-72746270D01*
X107924606Y-72733020D01*
X107937931Y-72715106D01*
X107947206Y-72694797D01*
X107958481Y-72687479D01*
X107966307Y-72676959D01*
X107986274Y-72669442D01*
X108004922Y-72657340D01*
X108298164Y-72568386D01*
X108634076Y-72429247D01*
X108954732Y-72257853D01*
X109257044Y-72055854D01*
X109538101Y-71825197D01*
X109795197Y-71568101D01*
X110025854Y-71287044D01*
X110145273Y-71108322D01*
X114735001Y-71108322D01*
X114745144Y-71207607D01*
X114798452Y-71368481D01*
X114798457Y-71368492D01*
X114887424Y-71512728D01*
X114887427Y-71512732D01*
X115007267Y-71632572D01*
X115007271Y-71632575D01*
X115151507Y-71721542D01*
X115151518Y-71721547D01*
X115312393Y-71774855D01*
X115411683Y-71784999D01*
X115435000Y-71784998D01*
X115435000Y-71060000D01*
X114735001Y-71060000D01*
X114735001Y-71108322D01*
X110145273Y-71108322D01*
X110227853Y-70984732D01*
X110268579Y-70908540D01*
X110399243Y-70664083D01*
X110399247Y-70664076D01*
X110462373Y-70511677D01*
X114735000Y-70511677D01*
X114735000Y-70560000D01*
X115435000Y-70560000D01*
X115435000Y-69834999D01*
X115411693Y-69835000D01*
X115411674Y-69835001D01*
X115312392Y-69845144D01*
X115151518Y-69898452D01*
X115151507Y-69898457D01*
X115007271Y-69987424D01*
X115007267Y-69987427D01*
X114887427Y-70107267D01*
X114887424Y-70107271D01*
X114798457Y-70251507D01*
X114798452Y-70251518D01*
X114745144Y-70412393D01*
X114735000Y-70511677D01*
X110462373Y-70511677D01*
X110538386Y-70328164D01*
X110643930Y-69980233D01*
X110643932Y-69980223D01*
X110643935Y-69980212D01*
X110714862Y-69623630D01*
X110750500Y-69261790D01*
X110750500Y-68898209D01*
X110729437Y-68684356D01*
X110714862Y-68536369D01*
X110688551Y-68404094D01*
X110643935Y-68179787D01*
X110643932Y-68179776D01*
X110643931Y-68179773D01*
X110643930Y-68179767D01*
X110538386Y-67831836D01*
X110399247Y-67495924D01*
X110351139Y-67405921D01*
X110227859Y-67175279D01*
X110227858Y-67175277D01*
X110227853Y-67175268D01*
X110025854Y-66872956D01*
X109795197Y-66591899D01*
X109795196Y-66591898D01*
X109795192Y-66591893D01*
X109538106Y-66334807D01*
X109257049Y-66104150D01*
X109257048Y-66104149D01*
X109257044Y-66104146D01*
X108954732Y-65902147D01*
X108954727Y-65902144D01*
X108954720Y-65902140D01*
X108634083Y-65730756D01*
X108634078Y-65730754D01*
X108448427Y-65653855D01*
X108436852Y-65649060D01*
X108382450Y-65605220D01*
X108360385Y-65538926D01*
X108377664Y-65471227D01*
X108428801Y-65423616D01*
X108484306Y-65410500D01*
X148941661Y-65410500D01*
X149008700Y-65430185D01*
G37*
%TD.AperFunction*%
%TD*%
M02*
