%TF.GenerationSoftware,KiCad,Pcbnew,10.0.1*%
%TF.CreationDate,2026-07-06T15:25:19+02:00*%
%TF.ProjectId,5V_board,35565f62-6f61-4726-942e-6b696361645f,rev?*%
%TF.SameCoordinates,Original*%
%TF.FileFunction,Legend,Top*%
%TF.FilePolarity,Positive*%
%FSLAX46Y46*%
G04 Gerber Fmt 4.6, Leading zero omitted, Abs format (unit mm)*
G04 Created by KiCad (PCBNEW 10.0.1) date 2026-07-06 15:25:19*
%MOMM*%
%LPD*%
G01*
G04 APERTURE LIST*
G04 Aperture macros list*
%AMRoundRect*
0 Rectangle with rounded corners*
0 $1 Rounding radius*
0 $2 $3 $4 $5 $6 $7 $8 $9 X,Y pos of 4 corners*
0 Add a 4 corners polygon primitive as box body*
4,1,4,$2,$3,$4,$5,$6,$7,$8,$9,$2,$3,0*
0 Add four circle primitives for the rounded corners*
1,1,$1+$1,$2,$3*
1,1,$1+$1,$4,$5*
1,1,$1+$1,$6,$7*
1,1,$1+$1,$8,$9*
0 Add four rect primitives between the rounded corners*
20,1,$1+$1,$2,$3,$4,$5,0*
20,1,$1+$1,$4,$5,$6,$7,0*
20,1,$1+$1,$6,$7,$8,$9,0*
20,1,$1+$1,$8,$9,$2,$3,0*%
G04 Aperture macros list end*
%ADD10C,0.125000*%
%ADD11C,0.300000*%
%ADD12C,0.150000*%
%ADD13C,0.120000*%
%ADD14RoundRect,0.250000X0.550000X-1.500000X0.550000X1.500000X-0.550000X1.500000X-0.550000X-1.500000X0*%
%ADD15RoundRect,0.225000X-0.250000X0.225000X-0.250000X-0.225000X0.250000X-0.225000X0.250000X0.225000X0*%
%ADD16RoundRect,0.250000X-0.350000X-0.650000X0.350000X-0.650000X0.350000X0.650000X-0.350000X0.650000X0*%
%ADD17O,1.200000X1.800000*%
%ADD18C,6.400000*%
%ADD19RoundRect,0.250000X-1.500000X-0.550000X1.500000X-0.550000X1.500000X0.550000X-1.500000X0.550000X0*%
%ADD20C,1.270000*%
%ADD21RoundRect,0.250001X-0.759999X0.499999X-0.759999X-0.499999X0.759999X-0.499999X0.759999X0.499999X0*%
%ADD22O,2.020000X1.500000*%
%ADD23RoundRect,0.140000X-0.170000X0.140000X-0.170000X-0.140000X0.170000X-0.140000X0.170000X0.140000X0*%
%ADD24RoundRect,0.225000X0.225000X0.250000X-0.225000X0.250000X-0.225000X-0.250000X0.225000X-0.250000X0*%
G04 APERTURE END LIST*
D10*
X141614429Y-81957309D02*
X141947762Y-81957309D01*
X142090619Y-82481119D02*
X141614429Y-82481119D01*
X141614429Y-82481119D02*
X141614429Y-81481119D01*
X141614429Y-81481119D02*
X142090619Y-81481119D01*
X142519191Y-82481119D02*
X142519191Y-81481119D01*
X142519191Y-81481119D02*
X142757286Y-81481119D01*
X142757286Y-81481119D02*
X142900143Y-81528738D01*
X142900143Y-81528738D02*
X142995381Y-81623976D01*
X142995381Y-81623976D02*
X143043000Y-81719214D01*
X143043000Y-81719214D02*
X143090619Y-81909690D01*
X143090619Y-81909690D02*
X143090619Y-82052547D01*
X143090619Y-82052547D02*
X143043000Y-82243023D01*
X143043000Y-82243023D02*
X142995381Y-82338261D01*
X142995381Y-82338261D02*
X142900143Y-82433500D01*
X142900143Y-82433500D02*
X142757286Y-82481119D01*
X142757286Y-82481119D02*
X142519191Y-82481119D01*
X143519191Y-81957309D02*
X143852524Y-81957309D01*
X143995381Y-82481119D02*
X143519191Y-82481119D01*
X143519191Y-82481119D02*
X143519191Y-81481119D01*
X143519191Y-81481119D02*
X143995381Y-81481119D01*
X144423953Y-82481119D02*
X144423953Y-81481119D01*
X144423953Y-81481119D02*
X144995381Y-82481119D01*
X144995381Y-82481119D02*
X144995381Y-81481119D01*
X146233477Y-81957309D02*
X146566810Y-81957309D01*
X146709667Y-82481119D02*
X146233477Y-82481119D01*
X146233477Y-82481119D02*
X146233477Y-81481119D01*
X146233477Y-81481119D02*
X146709667Y-81481119D01*
X147614429Y-82481119D02*
X147138239Y-82481119D01*
X147138239Y-82481119D02*
X147138239Y-81481119D01*
X148281096Y-81957309D02*
X147947763Y-81957309D01*
X147947763Y-82481119D02*
X147947763Y-81481119D01*
X147947763Y-81481119D02*
X148423953Y-81481119D01*
X148757287Y-82195404D02*
X149233477Y-82195404D01*
X148662049Y-82481119D02*
X148995382Y-81481119D01*
X148995382Y-81481119D02*
X149328715Y-82481119D01*
X149614430Y-82433500D02*
X149757287Y-82481119D01*
X149757287Y-82481119D02*
X149995382Y-82481119D01*
X149995382Y-82481119D02*
X150090620Y-82433500D01*
X150090620Y-82433500D02*
X150138239Y-82385880D01*
X150138239Y-82385880D02*
X150185858Y-82290642D01*
X150185858Y-82290642D02*
X150185858Y-82195404D01*
X150185858Y-82195404D02*
X150138239Y-82100166D01*
X150138239Y-82100166D02*
X150090620Y-82052547D01*
X150090620Y-82052547D02*
X149995382Y-82004928D01*
X149995382Y-82004928D02*
X149804906Y-81957309D01*
X149804906Y-81957309D02*
X149709668Y-81909690D01*
X149709668Y-81909690D02*
X149662049Y-81862071D01*
X149662049Y-81862071D02*
X149614430Y-81766833D01*
X149614430Y-81766833D02*
X149614430Y-81671595D01*
X149614430Y-81671595D02*
X149662049Y-81576357D01*
X149662049Y-81576357D02*
X149709668Y-81528738D01*
X149709668Y-81528738D02*
X149804906Y-81481119D01*
X149804906Y-81481119D02*
X150043001Y-81481119D01*
X150043001Y-81481119D02*
X150185858Y-81528738D01*
X150566811Y-82433500D02*
X150709668Y-82481119D01*
X150709668Y-82481119D02*
X150947763Y-82481119D01*
X150947763Y-82481119D02*
X151043001Y-82433500D01*
X151043001Y-82433500D02*
X151090620Y-82385880D01*
X151090620Y-82385880D02*
X151138239Y-82290642D01*
X151138239Y-82290642D02*
X151138239Y-82195404D01*
X151138239Y-82195404D02*
X151090620Y-82100166D01*
X151090620Y-82100166D02*
X151043001Y-82052547D01*
X151043001Y-82052547D02*
X150947763Y-82004928D01*
X150947763Y-82004928D02*
X150757287Y-81957309D01*
X150757287Y-81957309D02*
X150662049Y-81909690D01*
X150662049Y-81909690D02*
X150614430Y-81862071D01*
X150614430Y-81862071D02*
X150566811Y-81766833D01*
X150566811Y-81766833D02*
X150566811Y-81671595D01*
X150566811Y-81671595D02*
X150614430Y-81576357D01*
X150614430Y-81576357D02*
X150662049Y-81528738D01*
X150662049Y-81528738D02*
X150757287Y-81481119D01*
X150757287Y-81481119D02*
X150995382Y-81481119D01*
X150995382Y-81481119D02*
X151138239Y-81528738D01*
X151757287Y-82004928D02*
X151757287Y-82481119D01*
X151423954Y-81481119D02*
X151757287Y-82004928D01*
X151757287Y-82004928D02*
X152090620Y-81481119D01*
D11*
G36*
X146574911Y-80077647D02*
G01*
X146604088Y-80106824D01*
X146648795Y-80196237D01*
X146648795Y-80339704D01*
X146604088Y-80429117D01*
X146567083Y-80466122D01*
X146477671Y-80510828D01*
X146091652Y-80510828D01*
X146091652Y-80025114D01*
X146417309Y-80025114D01*
X146574911Y-80077647D01*
G37*
G36*
X146495656Y-79355535D02*
G01*
X146532660Y-79392539D01*
X146577367Y-79481952D01*
X146577367Y-79553989D01*
X146532660Y-79643402D01*
X146495656Y-79680407D01*
X146406242Y-79725114D01*
X146091652Y-79725114D01*
X146091652Y-79310828D01*
X146406242Y-79310828D01*
X146495656Y-79355535D01*
G37*
G36*
X148067084Y-79355535D02*
G01*
X148163350Y-79451801D01*
X148220224Y-79679292D01*
X148220224Y-80142363D01*
X148163350Y-80369854D01*
X148067083Y-80466122D01*
X147977671Y-80510828D01*
X147762777Y-80510828D01*
X147673363Y-80466121D01*
X147577096Y-80369854D01*
X147520224Y-80142364D01*
X147520224Y-79679291D01*
X147577096Y-79451802D01*
X147673363Y-79355534D01*
X147762777Y-79310828D01*
X147977671Y-79310828D01*
X148067084Y-79355535D01*
G37*
G36*
X152289196Y-79363361D02*
G01*
X152389803Y-79463968D01*
X152442982Y-79570327D01*
X152505938Y-79822148D01*
X152505938Y-79999507D01*
X152442982Y-80251328D01*
X152389803Y-80357688D01*
X152289197Y-80458294D01*
X152131595Y-80510828D01*
X151948795Y-80510828D01*
X151948795Y-79310828D01*
X152131598Y-79310828D01*
X152289196Y-79363361D01*
G37*
G36*
X150924228Y-79355535D02*
G01*
X150961232Y-79392539D01*
X151005938Y-79481951D01*
X151005938Y-79625418D01*
X150961231Y-79714831D01*
X150924226Y-79751836D01*
X150834814Y-79796542D01*
X150448795Y-79796542D01*
X150448795Y-79310828D01*
X150834814Y-79310828D01*
X150924228Y-79355535D01*
G37*
G36*
X149447826Y-80082257D02*
G01*
X149149767Y-80082257D01*
X149298796Y-79635169D01*
X149447826Y-80082257D01*
G37*
G36*
X152972605Y-80977495D02*
G01*
X141697115Y-80977495D01*
X141697115Y-79889594D01*
X141863782Y-79889594D01*
X141865964Y-79896825D01*
X141865964Y-79904378D01*
X141874355Y-79924637D01*
X141880689Y-79945626D01*
X141885470Y-79951470D01*
X141888362Y-79958450D01*
X141903866Y-79973953D01*
X141917750Y-79990923D01*
X141924406Y-79994494D01*
X141929748Y-79999835D01*
X141950002Y-80008224D01*
X141969325Y-80018590D01*
X141976842Y-80019341D01*
X141983820Y-80022232D01*
X142005743Y-80022232D01*
X142027562Y-80024414D01*
X142034793Y-80022232D01*
X142042346Y-80022232D01*
X142062605Y-80013840D01*
X142083594Y-80007507D01*
X142089438Y-80002725D01*
X142096418Y-79999834D01*
X142119149Y-79981179D01*
X142173365Y-79926962D01*
X142262777Y-79882257D01*
X142549101Y-79882257D01*
X142638514Y-79926963D01*
X142675517Y-79963967D01*
X142720225Y-80053381D01*
X142720225Y-80339703D01*
X142675517Y-80429117D01*
X142638514Y-80466121D01*
X142549101Y-80510828D01*
X142262777Y-80510828D01*
X142173365Y-80466122D01*
X142119149Y-80411906D01*
X142096418Y-80393251D01*
X142042346Y-80370853D01*
X141983820Y-80370853D01*
X141929748Y-80393250D01*
X141888362Y-80434635D01*
X141865964Y-80488707D01*
X141865964Y-80547233D01*
X141888361Y-80601305D01*
X141907015Y-80624036D01*
X141978443Y-80695465D01*
X141989945Y-80704904D01*
X141992543Y-80707900D01*
X141997057Y-80710741D01*
X142001174Y-80714120D01*
X142004832Y-80715635D01*
X142017429Y-80723564D01*
X142160287Y-80794993D01*
X142187750Y-80805502D01*
X142193125Y-80805883D01*
X142198104Y-80807946D01*
X142227368Y-80810828D01*
X142584510Y-80810828D01*
X142613774Y-80807946D01*
X142618752Y-80805883D01*
X142624128Y-80805502D01*
X142651591Y-80794992D01*
X142794450Y-80723564D01*
X142807044Y-80715635D01*
X142810704Y-80714120D01*
X142814824Y-80710738D01*
X142819335Y-80707899D01*
X142821929Y-80704907D01*
X142833435Y-80695465D01*
X142904863Y-80624036D01*
X142914301Y-80612535D01*
X142917295Y-80609939D01*
X142920135Y-80605426D01*
X142923517Y-80601306D01*
X142925032Y-80597646D01*
X142932960Y-80585053D01*
X143004389Y-80442197D01*
X143014898Y-80414733D01*
X143015279Y-80409358D01*
X143017343Y-80404378D01*
X143020225Y-80375114D01*
X143020225Y-80017971D01*
X143017343Y-79988707D01*
X143015279Y-79983726D01*
X143014898Y-79978352D01*
X143004389Y-79950888D01*
X142932960Y-79808032D01*
X142925032Y-79795438D01*
X142923517Y-79791779D01*
X142920135Y-79787658D01*
X142917295Y-79783146D01*
X142914301Y-79780549D01*
X142904863Y-79769049D01*
X142833435Y-79697620D01*
X142821929Y-79688177D01*
X142819335Y-79685186D01*
X142814824Y-79682346D01*
X142810704Y-79678965D01*
X142807044Y-79677449D01*
X142794450Y-79669521D01*
X142651591Y-79598093D01*
X142624128Y-79587583D01*
X142618752Y-79587201D01*
X142613774Y-79585139D01*
X142584510Y-79582257D01*
X142227368Y-79582257D01*
X142198104Y-79585139D01*
X142193125Y-79587201D01*
X142192617Y-79587237D01*
X142220259Y-79310828D01*
X142798796Y-79310828D01*
X142828060Y-79307946D01*
X142882132Y-79285548D01*
X142923516Y-79244164D01*
X142945914Y-79190092D01*
X142945914Y-79179589D01*
X143149974Y-79179589D01*
X143156494Y-79208262D01*
X143656494Y-80708262D01*
X143668482Y-80735113D01*
X143675504Y-80743210D01*
X143680297Y-80752795D01*
X143694503Y-80765116D01*
X143706829Y-80779328D01*
X143716416Y-80784121D01*
X143724511Y-80791142D01*
X143742353Y-80797089D01*
X143759177Y-80805501D01*
X143769867Y-80806260D01*
X143780035Y-80809650D01*
X143798791Y-80808317D01*
X143817557Y-80809651D01*
X143827727Y-80806260D01*
X143838416Y-80805501D01*
X143855237Y-80797090D01*
X143873081Y-80791142D01*
X143881177Y-80784119D01*
X143890763Y-80779327D01*
X143903086Y-80765118D01*
X143917295Y-80752795D01*
X143922087Y-80743209D01*
X143929110Y-80735113D01*
X143941098Y-80708262D01*
X144441099Y-79208262D01*
X144447619Y-79179588D01*
X144446285Y-79160828D01*
X145791652Y-79160828D01*
X145791652Y-80660828D01*
X145794534Y-80690092D01*
X145816932Y-80744164D01*
X145858316Y-80785548D01*
X145912388Y-80807946D01*
X145941652Y-80810828D01*
X146513081Y-80810828D01*
X146542345Y-80807946D01*
X146547323Y-80805883D01*
X146552699Y-80805502D01*
X146580163Y-80794992D01*
X146723020Y-80723564D01*
X146735613Y-80715636D01*
X146739273Y-80714121D01*
X146743392Y-80710739D01*
X146747906Y-80707899D01*
X146750502Y-80704905D01*
X146762004Y-80695466D01*
X146833433Y-80624037D01*
X146842874Y-80612532D01*
X146845866Y-80609938D01*
X146848704Y-80605428D01*
X146852088Y-80601306D01*
X146853604Y-80597644D01*
X146861531Y-80585053D01*
X146932959Y-80442195D01*
X146943469Y-80414732D01*
X146943850Y-80409356D01*
X146945913Y-80404378D01*
X146948795Y-80375114D01*
X146948795Y-80160828D01*
X146945913Y-80131564D01*
X146943850Y-80126585D01*
X146943469Y-80121210D01*
X146932959Y-80093747D01*
X146861531Y-79950889D01*
X146853604Y-79938297D01*
X146852088Y-79934636D01*
X146848704Y-79930513D01*
X146845866Y-79926004D01*
X146842874Y-79923409D01*
X146833433Y-79911905D01*
X146762004Y-79840476D01*
X146760821Y-79839505D01*
X146762004Y-79838323D01*
X146771444Y-79826820D01*
X146774437Y-79824225D01*
X146777275Y-79819715D01*
X146780659Y-79815593D01*
X146782175Y-79811930D01*
X146790102Y-79799339D01*
X146859358Y-79660828D01*
X147220224Y-79660828D01*
X147220224Y-80160828D01*
X147220726Y-80165931D01*
X147220401Y-80168119D01*
X147222020Y-80179069D01*
X147223106Y-80190092D01*
X147223953Y-80192136D01*
X147224703Y-80197208D01*
X147296131Y-80482922D01*
X147306024Y-80510613D01*
X147312663Y-80519573D01*
X147316931Y-80529877D01*
X147335586Y-80552608D01*
X147478444Y-80695466D01*
X147489948Y-80704907D01*
X147492543Y-80707899D01*
X147497052Y-80710737D01*
X147501175Y-80714121D01*
X147504836Y-80715637D01*
X147517428Y-80723564D01*
X147660286Y-80794992D01*
X147687749Y-80805502D01*
X147693124Y-80805883D01*
X147698103Y-80807946D01*
X147727367Y-80810828D01*
X148013081Y-80810828D01*
X148042345Y-80807946D01*
X148047323Y-80805883D01*
X148052699Y-80805502D01*
X148080163Y-80794992D01*
X148223020Y-80723564D01*
X148235611Y-80715637D01*
X148239274Y-80714121D01*
X148243396Y-80710737D01*
X148247906Y-80707899D01*
X148250501Y-80704906D01*
X148262004Y-80695466D01*
X148315403Y-80642067D01*
X148649974Y-80642067D01*
X148654123Y-80700448D01*
X148680297Y-80752795D01*
X148724511Y-80791142D01*
X148780035Y-80809650D01*
X148838416Y-80805501D01*
X148890763Y-80779327D01*
X148929110Y-80735113D01*
X148941098Y-80708262D01*
X149049767Y-80382257D01*
X149547826Y-80382257D01*
X149656494Y-80708262D01*
X149668482Y-80735113D01*
X149706829Y-80779328D01*
X149759177Y-80805501D01*
X149817557Y-80809651D01*
X149873081Y-80791142D01*
X149917295Y-80752795D01*
X149943469Y-80700448D01*
X149947619Y-80642068D01*
X149941099Y-80613394D01*
X149456909Y-79160828D01*
X150148795Y-79160828D01*
X150148795Y-80660828D01*
X150151677Y-80690092D01*
X150174075Y-80744164D01*
X150215459Y-80785548D01*
X150269531Y-80807946D01*
X150328059Y-80807946D01*
X150382131Y-80785548D01*
X150423515Y-80744164D01*
X150445913Y-80690092D01*
X150448795Y-80660828D01*
X150448795Y-80096542D01*
X150577840Y-80096542D01*
X151033053Y-80746847D01*
X151052196Y-80769169D01*
X151101553Y-80800622D01*
X151159189Y-80810793D01*
X151216331Y-80798134D01*
X151264279Y-80764570D01*
X151295732Y-80715213D01*
X151305903Y-80657577D01*
X151293244Y-80600435D01*
X151278823Y-80574809D01*
X150933871Y-80082020D01*
X150937306Y-80080706D01*
X151080163Y-80009278D01*
X151092756Y-80001350D01*
X151096416Y-79999835D01*
X151100535Y-79996453D01*
X151105049Y-79993613D01*
X151107645Y-79990619D01*
X151119147Y-79981180D01*
X151190576Y-79909751D01*
X151200017Y-79898246D01*
X151203009Y-79895652D01*
X151205847Y-79891142D01*
X151209231Y-79887020D01*
X151210747Y-79883358D01*
X151218674Y-79870767D01*
X151290102Y-79727909D01*
X151300612Y-79700446D01*
X151300993Y-79695070D01*
X151303056Y-79690092D01*
X151305938Y-79660828D01*
X151305938Y-79446542D01*
X151303056Y-79417278D01*
X151300993Y-79412299D01*
X151300612Y-79406924D01*
X151290102Y-79379461D01*
X151218674Y-79236603D01*
X151210745Y-79224008D01*
X151209230Y-79220349D01*
X151205848Y-79216228D01*
X151203009Y-79211718D01*
X151200017Y-79209123D01*
X151190575Y-79197618D01*
X151153784Y-79160828D01*
X151648795Y-79160828D01*
X151648795Y-80660828D01*
X151651677Y-80690092D01*
X151674075Y-80744164D01*
X151715459Y-80785548D01*
X151769531Y-80807946D01*
X151798795Y-80810828D01*
X152155938Y-80810828D01*
X152170743Y-80809369D01*
X152174698Y-80809651D01*
X152179899Y-80808468D01*
X152185202Y-80807946D01*
X152188859Y-80806430D01*
X152203372Y-80803131D01*
X152417658Y-80731703D01*
X152444509Y-80719715D01*
X152448580Y-80716183D01*
X152453560Y-80714121D01*
X152476290Y-80695466D01*
X152619147Y-80552608D01*
X152628585Y-80541106D01*
X152631580Y-80538510D01*
X152634420Y-80533996D01*
X152637802Y-80529877D01*
X152639317Y-80526217D01*
X152647245Y-80513624D01*
X152718674Y-80370768D01*
X152719493Y-80368625D01*
X152720138Y-80367756D01*
X152724522Y-80355484D01*
X152729183Y-80343304D01*
X152729259Y-80342223D01*
X152730031Y-80340065D01*
X152801459Y-80054351D01*
X152802208Y-80049279D01*
X152803056Y-80047235D01*
X152804141Y-80036212D01*
X152805761Y-80025262D01*
X152805435Y-80023074D01*
X152805938Y-80017971D01*
X152805938Y-79803685D01*
X152805435Y-79798581D01*
X152805761Y-79796394D01*
X152804141Y-79785443D01*
X152803056Y-79774421D01*
X152802208Y-79772376D01*
X152801459Y-79767305D01*
X152730031Y-79481591D01*
X152729259Y-79479432D01*
X152729183Y-79478352D01*
X152724522Y-79466171D01*
X152720138Y-79453900D01*
X152719493Y-79453030D01*
X152718674Y-79450888D01*
X152647245Y-79308032D01*
X152639318Y-79295440D01*
X152637802Y-79291778D01*
X152634418Y-79287655D01*
X152631580Y-79283146D01*
X152628587Y-79280550D01*
X152619147Y-79269048D01*
X152476290Y-79126191D01*
X152453559Y-79107536D01*
X152448579Y-79105473D01*
X152444509Y-79101943D01*
X152417658Y-79089954D01*
X152203372Y-79018526D01*
X152188864Y-79015227D01*
X152185202Y-79013710D01*
X152179893Y-79013187D01*
X152174699Y-79012006D01*
X152170749Y-79012286D01*
X152155938Y-79010828D01*
X151798795Y-79010828D01*
X151769531Y-79013710D01*
X151715459Y-79036108D01*
X151674075Y-79077492D01*
X151651677Y-79131564D01*
X151648795Y-79160828D01*
X151153784Y-79160828D01*
X151119146Y-79126190D01*
X151107646Y-79116752D01*
X151105049Y-79113758D01*
X151100532Y-79110915D01*
X151096415Y-79107536D01*
X151092758Y-79106021D01*
X151080163Y-79098093D01*
X150937306Y-79026664D01*
X150909843Y-79016155D01*
X150904468Y-79015773D01*
X150899488Y-79013710D01*
X150870224Y-79010828D01*
X150298795Y-79010828D01*
X150269531Y-79013710D01*
X150215459Y-79036108D01*
X150174075Y-79077492D01*
X150151677Y-79131564D01*
X150148795Y-79160828D01*
X149456909Y-79160828D01*
X149441098Y-79113394D01*
X149429110Y-79086543D01*
X149422087Y-79078446D01*
X149417295Y-79068861D01*
X149403086Y-79056537D01*
X149390763Y-79042329D01*
X149381177Y-79037536D01*
X149373081Y-79030514D01*
X149355237Y-79024565D01*
X149338416Y-79016155D01*
X149327727Y-79015395D01*
X149317557Y-79012005D01*
X149298791Y-79013338D01*
X149280035Y-79012006D01*
X149269867Y-79015395D01*
X149259177Y-79016155D01*
X149242353Y-79024566D01*
X149224511Y-79030514D01*
X149216416Y-79037534D01*
X149206829Y-79042328D01*
X149194503Y-79056539D01*
X149180297Y-79068861D01*
X149175504Y-79078445D01*
X149168482Y-79086543D01*
X149156494Y-79113394D01*
X148656494Y-80613394D01*
X148649974Y-80642067D01*
X148315403Y-80642067D01*
X148404861Y-80552608D01*
X148423516Y-80529877D01*
X148427782Y-80519575D01*
X148434423Y-80510614D01*
X148444316Y-80482923D01*
X148515745Y-80197209D01*
X148516495Y-80192136D01*
X148517342Y-80190092D01*
X148518427Y-80179072D01*
X148520047Y-80168120D01*
X148519721Y-80165931D01*
X148520224Y-80160828D01*
X148520224Y-79660828D01*
X148519721Y-79655724D01*
X148520047Y-79653536D01*
X148518427Y-79642583D01*
X148517342Y-79631564D01*
X148516495Y-79629519D01*
X148515745Y-79624447D01*
X148444316Y-79338733D01*
X148434423Y-79311042D01*
X148427783Y-79302081D01*
X148423516Y-79291778D01*
X148404861Y-79269048D01*
X148262004Y-79126191D01*
X148250502Y-79116751D01*
X148247906Y-79113758D01*
X148243392Y-79110917D01*
X148239273Y-79107536D01*
X148235613Y-79106020D01*
X148223020Y-79098093D01*
X148080163Y-79026664D01*
X148052700Y-79016155D01*
X148047325Y-79015773D01*
X148042345Y-79013710D01*
X148013081Y-79010828D01*
X147727367Y-79010828D01*
X147698103Y-79013710D01*
X147693122Y-79015773D01*
X147687748Y-79016155D01*
X147660284Y-79026664D01*
X147517428Y-79098093D01*
X147504834Y-79106020D01*
X147501175Y-79107536D01*
X147497055Y-79110917D01*
X147492542Y-79113758D01*
X147489945Y-79116752D01*
X147478444Y-79126191D01*
X147335586Y-79269048D01*
X147316931Y-79291778D01*
X147312662Y-79302083D01*
X147306024Y-79311043D01*
X147296131Y-79338734D01*
X147224703Y-79624448D01*
X147223953Y-79629519D01*
X147223106Y-79631564D01*
X147222020Y-79642586D01*
X147220401Y-79653537D01*
X147220726Y-79655724D01*
X147220224Y-79660828D01*
X146859358Y-79660828D01*
X146861531Y-79656483D01*
X146872040Y-79629019D01*
X146872421Y-79623644D01*
X146874485Y-79618664D01*
X146877367Y-79589400D01*
X146877367Y-79446542D01*
X146874485Y-79417278D01*
X146872421Y-79412297D01*
X146872040Y-79406923D01*
X146861531Y-79379459D01*
X146790102Y-79236603D01*
X146782175Y-79224011D01*
X146780659Y-79220349D01*
X146777275Y-79216226D01*
X146774437Y-79211717D01*
X146771444Y-79209121D01*
X146762004Y-79197619D01*
X146690576Y-79126191D01*
X146679074Y-79116751D01*
X146676478Y-79113758D01*
X146671964Y-79110917D01*
X146667845Y-79107536D01*
X146664185Y-79106020D01*
X146651592Y-79098093D01*
X146508734Y-79026664D01*
X146481271Y-79016154D01*
X146475893Y-79015771D01*
X146470916Y-79013710D01*
X146441652Y-79010828D01*
X145941652Y-79010828D01*
X145912388Y-79013710D01*
X145858316Y-79036108D01*
X145816932Y-79077492D01*
X145794534Y-79131564D01*
X145791652Y-79160828D01*
X144446285Y-79160828D01*
X144443469Y-79121208D01*
X144417295Y-79068861D01*
X144373081Y-79030514D01*
X144317557Y-79012005D01*
X144259177Y-79016155D01*
X144206829Y-79042328D01*
X144168482Y-79086543D01*
X144156494Y-79113394D01*
X143798796Y-80186486D01*
X143441098Y-79113394D01*
X143429110Y-79086543D01*
X143390763Y-79042329D01*
X143338416Y-79016155D01*
X143280035Y-79012006D01*
X143224511Y-79030514D01*
X143180297Y-79068861D01*
X143154123Y-79121208D01*
X143149974Y-79179589D01*
X142945914Y-79179589D01*
X142945914Y-79131564D01*
X142923516Y-79077492D01*
X142882132Y-79036108D01*
X142828060Y-79013710D01*
X142798796Y-79010828D01*
X142084510Y-79010828D01*
X142073683Y-79011894D01*
X142070030Y-79011529D01*
X142066462Y-79012605D01*
X142055246Y-79013710D01*
X142034983Y-79022103D01*
X142013998Y-79028435D01*
X142008153Y-79033216D01*
X142001174Y-79036108D01*
X141985668Y-79051613D01*
X141968701Y-79065496D01*
X141965130Y-79072151D01*
X141959790Y-79077492D01*
X141951398Y-79097749D01*
X141941034Y-79117071D01*
X141938819Y-79128118D01*
X141937392Y-79131564D01*
X141937392Y-79135238D01*
X141935254Y-79145903D01*
X141863826Y-79860189D01*
X141863782Y-79889594D01*
X141697115Y-79889594D01*
X141697115Y-78844161D01*
X152972605Y-78844161D01*
X152972605Y-80977495D01*
G37*
D12*
X104249580Y-82254762D02*
X104297200Y-82302381D01*
X104297200Y-82302381D02*
X104344819Y-82445238D01*
X104344819Y-82445238D02*
X104344819Y-82540476D01*
X104344819Y-82540476D02*
X104297200Y-82683333D01*
X104297200Y-82683333D02*
X104201961Y-82778571D01*
X104201961Y-82778571D02*
X104106723Y-82826190D01*
X104106723Y-82826190D02*
X103916247Y-82873809D01*
X103916247Y-82873809D02*
X103773390Y-82873809D01*
X103773390Y-82873809D02*
X103582914Y-82826190D01*
X103582914Y-82826190D02*
X103487676Y-82778571D01*
X103487676Y-82778571D02*
X103392438Y-82683333D01*
X103392438Y-82683333D02*
X103344819Y-82540476D01*
X103344819Y-82540476D02*
X103344819Y-82445238D01*
X103344819Y-82445238D02*
X103392438Y-82302381D01*
X103392438Y-82302381D02*
X103440057Y-82254762D01*
X104440057Y-82064286D02*
X104440057Y-81302381D01*
X104249580Y-80492857D02*
X104297200Y-80540476D01*
X104297200Y-80540476D02*
X104344819Y-80683333D01*
X104344819Y-80683333D02*
X104344819Y-80778571D01*
X104344819Y-80778571D02*
X104297200Y-80921428D01*
X104297200Y-80921428D02*
X104201961Y-81016666D01*
X104201961Y-81016666D02*
X104106723Y-81064285D01*
X104106723Y-81064285D02*
X103916247Y-81111904D01*
X103916247Y-81111904D02*
X103773390Y-81111904D01*
X103773390Y-81111904D02*
X103582914Y-81064285D01*
X103582914Y-81064285D02*
X103487676Y-81016666D01*
X103487676Y-81016666D02*
X103392438Y-80921428D01*
X103392438Y-80921428D02*
X103344819Y-80778571D01*
X103344819Y-80778571D02*
X103344819Y-80683333D01*
X103344819Y-80683333D02*
X103392438Y-80540476D01*
X103392438Y-80540476D02*
X103440057Y-80492857D01*
X104344819Y-80064285D02*
X103344819Y-80064285D01*
X103344819Y-80064285D02*
X104059104Y-79730952D01*
X104059104Y-79730952D02*
X103344819Y-79397619D01*
X103344819Y-79397619D02*
X104344819Y-79397619D01*
X103344819Y-78445238D02*
X103344819Y-78921428D01*
X103344819Y-78921428D02*
X103821009Y-78969047D01*
X103821009Y-78969047D02*
X103773390Y-78921428D01*
X103773390Y-78921428D02*
X103725771Y-78826190D01*
X103725771Y-78826190D02*
X103725771Y-78588095D01*
X103725771Y-78588095D02*
X103773390Y-78492857D01*
X103773390Y-78492857D02*
X103821009Y-78445238D01*
X103821009Y-78445238D02*
X103916247Y-78397619D01*
X103916247Y-78397619D02*
X104154342Y-78397619D01*
X104154342Y-78397619D02*
X104249580Y-78445238D01*
X104249580Y-78445238D02*
X104297200Y-78492857D01*
X104297200Y-78492857D02*
X104344819Y-78588095D01*
X104344819Y-78588095D02*
X104344819Y-78826190D01*
X104344819Y-78826190D02*
X104297200Y-78921428D01*
X104297200Y-78921428D02*
X104249580Y-78969047D01*
X104440057Y-78207143D02*
X104440057Y-77445238D01*
X103821009Y-76873809D02*
X103868628Y-76730952D01*
X103868628Y-76730952D02*
X103916247Y-76683333D01*
X103916247Y-76683333D02*
X104011485Y-76635714D01*
X104011485Y-76635714D02*
X104154342Y-76635714D01*
X104154342Y-76635714D02*
X104249580Y-76683333D01*
X104249580Y-76683333D02*
X104297200Y-76730952D01*
X104297200Y-76730952D02*
X104344819Y-76826190D01*
X104344819Y-76826190D02*
X104344819Y-77207142D01*
X104344819Y-77207142D02*
X103344819Y-77207142D01*
X103344819Y-77207142D02*
X103344819Y-76873809D01*
X103344819Y-76873809D02*
X103392438Y-76778571D01*
X103392438Y-76778571D02*
X103440057Y-76730952D01*
X103440057Y-76730952D02*
X103535295Y-76683333D01*
X103535295Y-76683333D02*
X103630533Y-76683333D01*
X103630533Y-76683333D02*
X103725771Y-76730952D01*
X103725771Y-76730952D02*
X103773390Y-76778571D01*
X103773390Y-76778571D02*
X103821009Y-76873809D01*
X103821009Y-76873809D02*
X103821009Y-77207142D01*
X103344819Y-76207142D02*
X104154342Y-76207142D01*
X104154342Y-76207142D02*
X104249580Y-76159523D01*
X104249580Y-76159523D02*
X104297200Y-76111904D01*
X104297200Y-76111904D02*
X104344819Y-76016666D01*
X104344819Y-76016666D02*
X104344819Y-75826190D01*
X104344819Y-75826190D02*
X104297200Y-75730952D01*
X104297200Y-75730952D02*
X104249580Y-75683333D01*
X104249580Y-75683333D02*
X104154342Y-75635714D01*
X104154342Y-75635714D02*
X103344819Y-75635714D01*
X104344819Y-74683333D02*
X104344819Y-75159523D01*
X104344819Y-75159523D02*
X103344819Y-75159523D01*
X104344819Y-74349999D02*
X103344819Y-74349999D01*
X104344819Y-73778571D02*
X103773390Y-74207142D01*
X103344819Y-73778571D02*
X103916247Y-74349999D01*
X104344819Y-72826190D02*
X104344819Y-73397618D01*
X104344819Y-73111904D02*
X103344819Y-73111904D01*
X103344819Y-73111904D02*
X103487676Y-73207142D01*
X103487676Y-73207142D02*
X103582914Y-73302380D01*
X103582914Y-73302380D02*
X103630533Y-73397618D01*
X142227142Y-69119580D02*
X142179523Y-69167200D01*
X142179523Y-69167200D02*
X142036666Y-69214819D01*
X142036666Y-69214819D02*
X141941428Y-69214819D01*
X141941428Y-69214819D02*
X141798571Y-69167200D01*
X141798571Y-69167200D02*
X141703333Y-69071961D01*
X141703333Y-69071961D02*
X141655714Y-68976723D01*
X141655714Y-68976723D02*
X141608095Y-68786247D01*
X141608095Y-68786247D02*
X141608095Y-68643390D01*
X141608095Y-68643390D02*
X141655714Y-68452914D01*
X141655714Y-68452914D02*
X141703333Y-68357676D01*
X141703333Y-68357676D02*
X141798571Y-68262438D01*
X141798571Y-68262438D02*
X141941428Y-68214819D01*
X141941428Y-68214819D02*
X142036666Y-68214819D01*
X142036666Y-68214819D02*
X142179523Y-68262438D01*
X142179523Y-68262438D02*
X142227142Y-68310057D01*
X142560476Y-68214819D02*
X143179523Y-68214819D01*
X143179523Y-68214819D02*
X142846190Y-68595771D01*
X142846190Y-68595771D02*
X142989047Y-68595771D01*
X142989047Y-68595771D02*
X143084285Y-68643390D01*
X143084285Y-68643390D02*
X143131904Y-68691009D01*
X143131904Y-68691009D02*
X143179523Y-68786247D01*
X143179523Y-68786247D02*
X143179523Y-69024342D01*
X143179523Y-69024342D02*
X143131904Y-69119580D01*
X143131904Y-69119580D02*
X143084285Y-69167200D01*
X143084285Y-69167200D02*
X142989047Y-69214819D01*
X142989047Y-69214819D02*
X142703333Y-69214819D01*
X142703333Y-69214819D02*
X142608095Y-69167200D01*
X142608095Y-69167200D02*
X142560476Y-69119580D01*
X144084285Y-68214819D02*
X143608095Y-68214819D01*
X143608095Y-68214819D02*
X143560476Y-68691009D01*
X143560476Y-68691009D02*
X143608095Y-68643390D01*
X143608095Y-68643390D02*
X143703333Y-68595771D01*
X143703333Y-68595771D02*
X143941428Y-68595771D01*
X143941428Y-68595771D02*
X144036666Y-68643390D01*
X144036666Y-68643390D02*
X144084285Y-68691009D01*
X144084285Y-68691009D02*
X144131904Y-68786247D01*
X144131904Y-68786247D02*
X144131904Y-69024342D01*
X144131904Y-69024342D02*
X144084285Y-69119580D01*
X144084285Y-69119580D02*
X144036666Y-69167200D01*
X144036666Y-69167200D02*
X143941428Y-69214819D01*
X143941428Y-69214819D02*
X143703333Y-69214819D01*
X143703333Y-69214819D02*
X143608095Y-69167200D01*
X143608095Y-69167200D02*
X143560476Y-69119580D01*
X136809819Y-79059523D02*
X137524104Y-79059523D01*
X137524104Y-79059523D02*
X137666961Y-79107142D01*
X137666961Y-79107142D02*
X137762200Y-79202380D01*
X137762200Y-79202380D02*
X137809819Y-79345237D01*
X137809819Y-79345237D02*
X137809819Y-79440475D01*
X137809819Y-78059523D02*
X137809819Y-78630951D01*
X137809819Y-78345237D02*
X136809819Y-78345237D01*
X136809819Y-78345237D02*
X136952676Y-78440475D01*
X136952676Y-78440475D02*
X137047914Y-78535713D01*
X137047914Y-78535713D02*
X137095533Y-78630951D01*
X136809819Y-77726189D02*
X136809819Y-77107142D01*
X136809819Y-77107142D02*
X137190771Y-77440475D01*
X137190771Y-77440475D02*
X137190771Y-77297618D01*
X137190771Y-77297618D02*
X137238390Y-77202380D01*
X137238390Y-77202380D02*
X137286009Y-77154761D01*
X137286009Y-77154761D02*
X137381247Y-77107142D01*
X137381247Y-77107142D02*
X137619342Y-77107142D01*
X137619342Y-77107142D02*
X137714580Y-77154761D01*
X137714580Y-77154761D02*
X137762200Y-77202380D01*
X137762200Y-77202380D02*
X137809819Y-77297618D01*
X137809819Y-77297618D02*
X137809819Y-77583332D01*
X137809819Y-77583332D02*
X137762200Y-77678570D01*
X137762200Y-77678570D02*
X137714580Y-77726189D01*
%TO.C,C_CM5_BULK1*%
D13*
X104830000Y-74440000D02*
X107180000Y-74440000D01*
X104830000Y-80195563D02*
X104830000Y-74440000D01*
X105894437Y-81260000D02*
X104830000Y-80195563D01*
X105894437Y-81260000D02*
X107180000Y-81260000D01*
X105998750Y-81893750D02*
X106786250Y-81893750D01*
X106392500Y-82287500D02*
X106392500Y-81500000D01*
X110585563Y-81260000D02*
X109300000Y-81260000D01*
X110585563Y-81260000D02*
X111650000Y-80195563D01*
X111650000Y-74440000D02*
X109300000Y-74440000D01*
X111650000Y-80195563D02*
X111650000Y-74440000D01*
%TO.C,C31*%
X136940000Y-81889420D02*
X136940000Y-82170580D01*
X137960000Y-81889420D02*
X137960000Y-82170580D01*
%TO.C,J1*%
X120430000Y-65440000D02*
X120430000Y-67740000D01*
X120730000Y-68150000D02*
X121130000Y-68150000D01*
X121130000Y-66140000D02*
X121130000Y-67350000D01*
X121130000Y-67350000D02*
X121530000Y-67350000D01*
X121130000Y-67750000D02*
X121130000Y-69610000D01*
X121530000Y-67350000D02*
X121530000Y-67750000D01*
X121530000Y-67750000D02*
X121130000Y-67750000D01*
X122730000Y-65440000D02*
X120430000Y-65440000D01*
X125840000Y-66140000D02*
X121130000Y-66140000D01*
X125840000Y-66140000D02*
X130550000Y-66140000D01*
X130150000Y-67350000D02*
X130150000Y-67750000D01*
X130150000Y-67750000D02*
X130550000Y-67750000D01*
X130550000Y-66140000D02*
X130550000Y-67350000D01*
X130550000Y-67350000D02*
X130150000Y-67350000D01*
X130550000Y-67750000D02*
X130550000Y-69610000D01*
X130950000Y-68150000D02*
X130550000Y-68150000D01*
X120730000Y-65740000D02*
X130950000Y-65740000D01*
X130950000Y-69610000D01*
X120730000Y-69610000D01*
X120730000Y-65740000D01*
%TO.C,C35*%
X138432500Y-71262500D02*
X139220000Y-71262500D01*
X138826250Y-70868750D02*
X138826250Y-71656250D01*
X139460000Y-70764437D02*
X139460000Y-72050000D01*
X139460000Y-70764437D02*
X140524437Y-69700000D01*
X139460000Y-75455563D02*
X139460000Y-74170000D01*
X139460000Y-75455563D02*
X140524437Y-76520000D01*
X140524437Y-69700000D02*
X146280000Y-69700000D01*
X140524437Y-76520000D02*
X146280000Y-76520000D01*
X146280000Y-69700000D02*
X146280000Y-72050000D01*
X146280000Y-76520000D02*
X146280000Y-74170000D01*
%TO.C,J15*%
X115220000Y-73375000D02*
X115220000Y-83245000D01*
X115220000Y-83245000D02*
X118295000Y-83245000D01*
X118295000Y-73375000D02*
X115220000Y-73375000D01*
X119310000Y-74795000D02*
X119310000Y-81825000D01*
X119310000Y-81825000D02*
X119810000Y-81825000D01*
X119810000Y-74795000D02*
X119310000Y-74795000D01*
X119810000Y-74815000D02*
X119810000Y-74795000D01*
X119810000Y-81825000D02*
X119810000Y-81805000D01*
%TO.C,C34*%
X123850000Y-81072164D02*
X123850000Y-81287836D01*
X124570000Y-81072164D02*
X124570000Y-81287836D01*
%TO.C,C33*%
X125460000Y-81142164D02*
X125460000Y-81357836D01*
X126180000Y-81142164D02*
X126180000Y-81357836D01*
%TO.C,C32*%
X116600580Y-70300000D02*
X116319420Y-70300000D01*
X116600580Y-71320000D02*
X116319420Y-71320000D01*
%TO.C,J13*%
X131675000Y-73315000D02*
X131675000Y-83185000D01*
X131675000Y-83185000D02*
X134750000Y-83185000D01*
X134750000Y-73315000D02*
X131675000Y-73315000D01*
X135765000Y-74735000D02*
X135765000Y-81765000D01*
X135765000Y-81765000D02*
X136265000Y-81765000D01*
X136265000Y-74735000D02*
X135765000Y-74735000D01*
X136265000Y-74755000D02*
X136265000Y-74735000D01*
X136265000Y-81765000D02*
X136265000Y-81745000D01*
%TD*%
%LPC*%
D14*
%TO.C,C_CM5_BULK1*%
X108240000Y-80550000D03*
X108240000Y-75150000D03*
%TD*%
D15*
%TO.C,C31*%
X137450000Y-81255000D03*
X137450000Y-82805000D03*
%TD*%
D16*
%TO.C,J1*%
X122840000Y-67350000D03*
D17*
X124840000Y-67350000D03*
X126840000Y-67350000D03*
X128840000Y-67350000D03*
%TD*%
D18*
%TO.C,H2*%
X150590000Y-68990000D03*
%TD*%
%TO.C,H1*%
X107050000Y-69080000D03*
%TD*%
D19*
%TO.C,C35*%
X140170000Y-73110000D03*
X145570000Y-73110000D03*
%TD*%
D20*
%TO.C,J15*%
X119190000Y-73810000D03*
X119190000Y-82810000D03*
D21*
X117230000Y-76810000D03*
D22*
X117230000Y-79810000D03*
%TD*%
D23*
%TO.C,C34*%
X124210000Y-80700000D03*
X124210000Y-81660000D03*
%TD*%
%TO.C,C33*%
X125820000Y-80770000D03*
X125820000Y-81730000D03*
%TD*%
D24*
%TO.C,C32*%
X117235000Y-70810000D03*
X115685000Y-70810000D03*
%TD*%
D20*
%TO.C,J13*%
X135645000Y-73750000D03*
X135645000Y-82750000D03*
D21*
X133685000Y-76750000D03*
D22*
X133685000Y-79750000D03*
%TD*%
%LPD*%
M02*
