%TF.GenerationSoftware,KiCad,Pcbnew,10.0.1*%
%TF.CreationDate,2026-05-31T00:01:00+02:00*%
%TF.ProjectId,Main_PCB_STAR_D,4d61696e-5f50-4434-925f-535441525f44,rev?*%
%TF.SameCoordinates,Original*%
%TF.FileFunction,Component,L1,Top*%
%TF.FilePolarity,Positive*%
%FSLAX46Y46*%
G04 Gerber Fmt 4.6, Leading zero omitted, Abs format (unit mm)*
G04 Created by KiCad (PCBNEW 10.0.1) date 2026-05-31 00:01:00*
%MOMM*%
%LPD*%
G01*
G04 APERTURE LIST*
%TA.AperFunction,ComponentMain*%
%ADD10C,0.300000*%
%TD*%
%TA.AperFunction,ComponentOutline,Courtyard*%
%ADD11C,0.100000*%
%TD*%
%TA.AperFunction,ComponentPin*%
%ADD12P,0.360000X4X0.000000*%
%TD*%
%TA.AperFunction,ComponentPin*%
%ADD13C,0.100000*%
%TD*%
G04 APERTURE END LIST*
D10*
%TO.C,J15*%
%TO.CFtp,AMASS_XT30U-F_1x02_P5.0mm_Vertical*%
%TO.CVal,Conn_01x02_Pin*%
%TO.CLbN,Connector_AMASS*%
%TO.CMnt,TH*%
%TO.CRot,-90*%
X158000000Y-123950000D03*
D11*
X159797529Y-120855000D02*
X161095000Y-122551692D01*
X161095000Y-132045000D01*
X154905000Y-132045000D01*
X154905000Y-122551692D01*
X156202471Y-120855000D01*
X159797529Y-120855000D01*
D12*
%TO.P,J15,1,Pin_1_1*%
X158000000Y-123950000D03*
D13*
%TO.P,J15,2,Pin_2_2*%
X158000000Y-128950000D03*
%TD*%
D10*
%TO.C,C10*%
%TO.CFtp,C_0402_1005Metric*%
%TO.CVal,1uF 0402*%
%TO.CLbN,Capacitor_SMD*%
%TO.CMnt,SMD*%
%TO.CRot,180*%
X179520000Y-106400000D03*
D11*
X180425000Y-105945000D02*
X180425000Y-106855000D01*
X178615000Y-106855000D01*
X178615000Y-105945000D01*
X180425000Y-105945000D01*
D12*
%TO.P,C10,1*%
X180000000Y-106400000D03*
D13*
%TO.P,C10,2*%
X179040000Y-106400000D03*
%TD*%
D10*
%TO.C,J_HEATER1*%
%TO.CFtp,AMASS_XT30U-F_1x02_P5.0mm_Vertical*%
%TO.CVal,Conn_01x02_Pin*%
%TO.CLbN,Connector_AMASS*%
%TO.CMnt,TH*%
%TO.CRot,90*%
X205100000Y-100300000D03*
D11*
X208195000Y-92205000D02*
X208195000Y-101698307D01*
X206897529Y-103395000D01*
X203302471Y-103395000D01*
X202005000Y-101698307D01*
X202005000Y-92205000D01*
X208195000Y-92205000D01*
D12*
%TO.P,J_HEATER1,1,Pin_1_1*%
X205100000Y-100300000D03*
D13*
%TO.P,J_HEATER1,2,Pin_2_2*%
X205100000Y-95300000D03*
%TD*%
D10*
%TO.C,R_PD3*%
%TO.CFtp,R_0402_1005Metric*%
%TO.CVal,100kR 0402*%
%TO.CLbN,Resistor_SMD*%
%TO.CMnt,SMD*%
%TO.CRot,-90*%
X215800000Y-104950000D03*
D11*
X216265000Y-104025000D02*
X216265000Y-105875000D01*
X215335000Y-105875000D01*
X215335000Y-104025000D01*
X216265000Y-104025000D01*
D12*
%TO.P,R_PD3,1*%
X215800000Y-104440000D03*
D13*
%TO.P,R_PD3,2*%
X215800000Y-105460000D03*
%TD*%
D10*
%TO.C,Q9*%
%TO.CFtp,SOT95P237X112-3N*%
%TO.CVal,IRLML6344TRPBF*%
%TO.CLbN,IRLML6344TRPBF*%
%TO.CMnt,SMD*%
%TO.CRot,-90*%
X218250000Y-104250000D03*
D11*
X220015000Y-102305000D02*
X220015000Y-106195000D01*
X216485000Y-106195000D01*
X216485000Y-102305000D01*
X220015000Y-102305000D01*
D12*
%TO.P,Q9,1,G_1*%
X219200000Y-103200000D03*
D13*
%TO.P,Q9,2,S_2*%
X217300000Y-103200000D03*
%TO.P,Q9,3,D_3*%
X218250000Y-105300000D03*
%TD*%
D10*
%TO.C,SW1*%
%TO.CFtp,SW_Tactile_SPST_NO_Straight_CK_PTS636Sx25SMTRLFS*%
%TO.CVal,SW_SPST*%
%TO.CLbN,Button_Switch_SMD*%
%TO.CMnt,SMD*%
%TO.CRot,-90*%
X151320000Y-108310000D03*
D11*
X152065000Y-103565000D02*
X152065000Y-105015000D01*
X153415000Y-105015000D01*
X153415000Y-111605000D01*
X152065000Y-111605000D01*
X152065000Y-113055000D01*
X150575000Y-113055000D01*
X150575000Y-111605000D01*
X149225000Y-111605000D01*
X149225000Y-105015000D01*
X150575000Y-105015000D01*
X150575000Y-103565000D01*
X152065000Y-103565000D01*
D12*
%TO.P,SW1,1,A_1*%
X151320000Y-104435000D03*
D13*
%TO.P,SW1,2,B_2*%
X151320000Y-112185000D03*
%TD*%
D10*
%TO.C,TP1*%
%TO.CFtp,TestPoint_Pad_1.0x1.0mm*%
%TO.CVal,TestPoint*%
%TO.CLbN,TestPoint*%
%TO.CMnt,Other*%
%TO.CRot,0*%
X210490000Y-114360000D03*
D11*
X211485000Y-113365000D02*
X211485000Y-115355000D01*
X209495000Y-115355000D01*
X209495000Y-113365000D01*
X211485000Y-113365000D01*
D12*
%TO.P,TP1,1,1_1*%
X210490000Y-114360000D03*
%TD*%
D10*
%TO.C,R10*%
%TO.CFtp,R_0402_1005Metric*%
%TO.CVal,120R 0402*%
%TO.CLbN,Resistor_SMD*%
%TO.CMnt,SMD*%
%TO.CRot,-90*%
X170110000Y-107700000D03*
D11*
X170575000Y-106775000D02*
X170575000Y-108625000D01*
X169645000Y-108625000D01*
X169645000Y-106775000D01*
X170575000Y-106775000D01*
D12*
%TO.P,R10,1*%
X170110000Y-107190000D03*
D13*
%TO.P,R10,2*%
X170110000Y-108210000D03*
%TD*%
D10*
%TO.C,R_G2*%
%TO.CFtp,R_0402_1005Metric*%
%TO.CVal,100R 0402*%
%TO.CLbN,Resistor_SMD*%
%TO.CMnt,SMD*%
%TO.CRot,-90*%
X207680000Y-109100000D03*
D11*
X208145000Y-108175000D02*
X208145000Y-110025000D01*
X207215000Y-110025000D01*
X207215000Y-108175000D01*
X208145000Y-108175000D01*
D12*
%TO.P,R_G2,1*%
X207680000Y-108590000D03*
D13*
%TO.P,R_G2,2*%
X207680000Y-109610000D03*
%TD*%
D10*
%TO.C,R_I2C_SCL2*%
%TO.CFtp,R_0402_1005Metric*%
%TO.CVal,4K7 0402*%
%TO.CLbN,Resistor_SMD*%
%TO.CMnt,SMD*%
%TO.CRot,180*%
X215540000Y-122320000D03*
D11*
X216465000Y-121855000D02*
X216465000Y-122785000D01*
X214615000Y-122785000D01*
X214615000Y-121855000D01*
X216465000Y-121855000D01*
D12*
%TO.P,R_I2C_SCL2,1*%
X216050000Y-122320000D03*
D13*
%TO.P,R_I2C_SCL2,2*%
X215030000Y-122320000D03*
%TD*%
D10*
%TO.C,TP15*%
%TO.CFtp,TestPoint_Pad_1.0x1.0mm*%
%TO.CVal,TestPoint*%
%TO.CLbN,TestPoint*%
%TO.CMnt,Other*%
%TO.CRot,0*%
X153350000Y-113360000D03*
D11*
X154345000Y-112365000D02*
X154345000Y-114355000D01*
X152355000Y-114355000D01*
X152355000Y-112365000D01*
X154345000Y-112365000D01*
D12*
%TO.P,TP15,1,1_1*%
X153350000Y-113360000D03*
%TD*%
D10*
%TO.C,R7*%
%TO.CFtp,R_0402_1005Metric*%
%TO.CVal,400R 0402*%
%TO.CLbN,Resistor_SMD*%
%TO.CMnt,SMD*%
%TO.CRot,90*%
X177480000Y-105620000D03*
D11*
X177945000Y-104695000D02*
X177945000Y-106545000D01*
X177015000Y-106545000D01*
X177015000Y-104695000D01*
X177945000Y-104695000D01*
D12*
%TO.P,R7,1*%
X177480000Y-106130000D03*
D13*
%TO.P,R7,2*%
X177480000Y-105110000D03*
%TD*%
D10*
%TO.C,R16*%
%TO.CFtp,R_0402_1005Metric*%
%TO.CVal,22R 0402*%
%TO.CLbN,Resistor_SMD*%
%TO.CMnt,SMD*%
%TO.CRot,-90*%
X183160000Y-102325000D03*
D11*
X183625000Y-101400000D02*
X183625000Y-103250000D01*
X182695000Y-103250000D01*
X182695000Y-101400000D01*
X183625000Y-101400000D01*
D12*
%TO.P,R16,1*%
X183160000Y-101815000D03*
D13*
%TO.P,R16,2*%
X183160000Y-102835000D03*
%TD*%
D10*
%TO.C,C1*%
%TO.CFtp,C_0402_1005Metric*%
%TO.CVal,1uF 0402*%
%TO.CLbN,Capacitor_SMD*%
%TO.CMnt,SMD*%
%TO.CRot,90*%
X190930000Y-107590000D03*
D11*
X191385000Y-106685000D02*
X191385000Y-108495000D01*
X190475000Y-108495000D01*
X190475000Y-106685000D01*
X191385000Y-106685000D01*
D12*
%TO.P,C1,1*%
X190930000Y-108070000D03*
D13*
%TO.P,C1,2*%
X190930000Y-107110000D03*
%TD*%
D10*
%TO.C,C8*%
%TO.CFtp,C_0402_1005Metric*%
%TO.CVal,10nF 0402*%
%TO.CLbN,Capacitor_SMD*%
%TO.CMnt,SMD*%
%TO.CRot,0*%
X188130000Y-114490000D03*
D11*
X189035000Y-114035000D02*
X189035000Y-114945000D01*
X187225000Y-114945000D01*
X187225000Y-114035000D01*
X189035000Y-114035000D01*
D12*
%TO.P,C8,1*%
X187650000Y-114490000D03*
D13*
%TO.P,C8,2*%
X188610000Y-114490000D03*
%TD*%
D10*
%TO.C,C35*%
%TO.CFtp,C_0402_1005Metric*%
%TO.CVal,100nF 0402*%
%TO.CLbN,Capacitor_SMD*%
%TO.CMnt,SMD*%
%TO.CRot,90*%
X169450000Y-114020000D03*
D11*
X169905000Y-113115000D02*
X169905000Y-114925000D01*
X168995000Y-114925000D01*
X168995000Y-113115000D01*
X169905000Y-113115000D01*
D12*
%TO.P,C35,1*%
X169450000Y-114500000D03*
D13*
%TO.P,C35,2*%
X169450000Y-113540000D03*
%TD*%
D10*
%TO.C,C4*%
%TO.CFtp,C_0402_1005Metric*%
%TO.CVal,12pF 0402*%
%TO.CLbN,Capacitor_SMD*%
%TO.CMnt,SMD*%
%TO.CRot,90*%
X181970000Y-117580000D03*
D11*
X182425000Y-116675000D02*
X182425000Y-118485000D01*
X181515000Y-118485000D01*
X181515000Y-116675000D01*
X182425000Y-116675000D01*
D12*
%TO.P,C4,1*%
X181970000Y-118060000D03*
D13*
%TO.P,C4,2*%
X181970000Y-117100000D03*
%TD*%
D10*
%TO.C,D2*%
%TO.CFtp,LED_0805_2012Metric*%
%TO.CVal,KT-0805Y*%
%TO.CLbN,LED_SMD*%
%TO.CMnt,SMD*%
%TO.CRot,0*%
X224750000Y-116370000D03*
D11*
X226425000Y-115425000D02*
X226425000Y-117315000D01*
X223075000Y-117315000D01*
X223075000Y-115425000D01*
X226425000Y-115425000D01*
D12*
%TO.P,D2,1,K_1*%
X223812500Y-116370000D03*
D13*
%TO.P,D2,2,A_2*%
X225687500Y-116370000D03*
%TD*%
D10*
%TO.C,TP14*%
%TO.CFtp,TestPoint_Pad_1.0x1.0mm*%
%TO.CVal,TestPoint*%
%TO.CLbN,TestPoint*%
%TO.CMnt,Other*%
%TO.CRot,0*%
X154500000Y-111180000D03*
D11*
X155495000Y-110185000D02*
X155495000Y-112175000D01*
X153505000Y-112175000D01*
X153505000Y-110185000D01*
X155495000Y-110185000D01*
D12*
%TO.P,TP14,1,1_1*%
X154500000Y-111180000D03*
%TD*%
D10*
%TO.C,J6*%
%TO.CFtp,AMASS_XT30U-F_1x02_P5.0mm_Vertical*%
%TO.CVal,Conn_01x02_Pin*%
%TO.CLbN,Connector_AMASS*%
%TO.CMnt,TH*%
%TO.CRot,180*%
X235800000Y-119300000D03*
D11*
X237198307Y-116205000D02*
X238895000Y-117502470D01*
X238895000Y-121097529D01*
X237198307Y-122395000D01*
X227705000Y-122395000D01*
X227705000Y-116205000D01*
X237198307Y-116205000D01*
D12*
%TO.P,J6,1,Pin_1_1*%
X235800000Y-119300000D03*
D13*
%TO.P,J6,2,Pin_2_2*%
X230800000Y-119300000D03*
%TD*%
D10*
%TO.C,C30*%
%TO.CFtp,C_0402_1005Metric*%
%TO.CVal,100nF 0402*%
%TO.CLbN,Capacitor_SMD*%
%TO.CMnt,SMD*%
%TO.CRot,90*%
X225660000Y-109535000D03*
D11*
X226115000Y-108630000D02*
X226115000Y-110440000D01*
X225205000Y-110440000D01*
X225205000Y-108630000D01*
X226115000Y-108630000D01*
D12*
%TO.P,C30,1*%
X225660000Y-110015000D03*
D13*
%TO.P,C30,2*%
X225660000Y-109055000D03*
%TD*%
D10*
%TO.C,C20*%
%TO.CFtp,C_0402_1005Metric*%
%TO.CVal,100nF 0402*%
%TO.CLbN,Capacitor_SMD*%
%TO.CMnt,SMD*%
%TO.CRot,-90*%
X190940000Y-105710000D03*
D11*
X191395000Y-104805000D02*
X191395000Y-106615000D01*
X190485000Y-106615000D01*
X190485000Y-104805000D01*
X191395000Y-104805000D01*
D12*
%TO.P,C20,1*%
X190940000Y-105230000D03*
D13*
%TO.P,C20,2*%
X190940000Y-106190000D03*
%TD*%
D10*
%TO.C,L3*%
%TO.CFtp,L_0402_1005Metric*%
%TO.CVal,4.7nH 0402*%
%TO.CLbN,Inductor_SMD*%
%TO.CMnt,SMD*%
%TO.CRot,0*%
X189350000Y-112460000D03*
D11*
X190275000Y-111995000D02*
X190275000Y-112925000D01*
X188425000Y-112925000D01*
X188425000Y-111995000D01*
X190275000Y-111995000D01*
D12*
%TO.P,L3,1,1_1*%
X188865000Y-112460000D03*
D13*
%TO.P,L3,2,2_2*%
X189835000Y-112460000D03*
%TD*%
D10*
%TO.C,IC5*%
%TO.CFtp,SOIC127P600X175-16N*%
%TO.CVal,ULN2003ADR*%
%TO.CLbN,ULN2003ADR*%
%TO.CMnt,SMD*%
%TO.CRot,90*%
X217225000Y-116912000D03*
D11*
X222470000Y-113192000D02*
X222470000Y-120632000D01*
X211980000Y-120632000D01*
X211980000Y-113192000D01*
X222470000Y-113192000D01*
D12*
%TO.P,IC5,1,1B_1*%
X212780000Y-119624000D03*
D13*
%TO.P,IC5,2,2B_2*%
X214050000Y-119624000D03*
%TO.P,IC5,3,3B_3*%
X215320000Y-119624000D03*
%TO.P,IC5,4,4B_4*%
X216590000Y-119624000D03*
%TO.P,IC5,5,5B_5*%
X217860000Y-119624000D03*
%TO.P,IC5,6,6B_6*%
X219130000Y-119624000D03*
%TO.P,IC5,7,7B_7*%
X220400000Y-119624000D03*
%TO.P,IC5,8,E_8*%
X221670000Y-119624000D03*
%TO.P,IC5,9,COM_9*%
X221670000Y-114200000D03*
%TO.P,IC5,10,7C_10*%
X220400000Y-114200000D03*
%TO.P,IC5,11,6C_11*%
X219130000Y-114200000D03*
%TO.P,IC5,12,5C_12*%
X217860000Y-114200000D03*
%TO.P,IC5,13,4C_13*%
X216590000Y-114200000D03*
%TO.P,IC5,14,3C_14*%
X215320000Y-114200000D03*
%TO.P,IC5,15,2C_15*%
X214050000Y-114200000D03*
%TO.P,IC5,16,1C_16*%
X212780000Y-114200000D03*
%TD*%
D10*
%TO.C,R9*%
%TO.CFtp,R_0402_1005Metric*%
%TO.CVal,0.2R 1206*%
%TO.CLbN,Resistor_SMD*%
%TO.CMnt,SMD*%
%TO.CRot,0*%
X197220000Y-116790000D03*
D11*
X198145000Y-116325000D02*
X198145000Y-117255000D01*
X196295000Y-117255000D01*
X196295000Y-116325000D01*
X198145000Y-116325000D01*
D12*
%TO.P,R9,1*%
X196710000Y-116790000D03*
D13*
%TO.P,R9,2*%
X197730000Y-116790000D03*
%TD*%
D10*
%TO.C,H3*%
%TO.CFtp,MountingHole_2.2mm_M2_DIN965_Pad*%
%TO.CVal,MountingHole_Pad*%
%TO.CLbN,MountingHole*%
%TO.CMnt,Other*%
%TO.CRot,0*%
X152050000Y-129250000D03*
D11*
X152342418Y-127122501D02*
X152629388Y-127182134D01*
X152905567Y-127280288D01*
X153165804Y-127415132D01*
X153405260Y-127584158D01*
X153619470Y-127784216D01*
X153804443Y-128011579D01*
X153956734Y-128262009D01*
X154073504Y-128530843D01*
X154152584Y-128813083D01*
X154192500Y-129103490D01*
X154194999Y-129250000D01*
X154192500Y-129396509D01*
X154152584Y-129686916D01*
X154073504Y-129969156D01*
X153956734Y-130237990D01*
X153804443Y-130488420D01*
X153619470Y-130715783D01*
X153405260Y-130915841D01*
X153165804Y-131084867D01*
X152905567Y-131219711D01*
X152629388Y-131317865D01*
X152342418Y-131377498D01*
X152050000Y-131397500D01*
X151757581Y-131377498D01*
X151470611Y-131317865D01*
X151194432Y-131219711D01*
X150934195Y-131084867D01*
X150694739Y-130915841D01*
X150480529Y-130715783D01*
X150295556Y-130488420D01*
X150143265Y-130237990D01*
X150026495Y-129969156D01*
X149947415Y-129686916D01*
X149907506Y-129396553D01*
X149907506Y-129103446D01*
X149947415Y-128813083D01*
X150026495Y-128530843D01*
X150143265Y-128262009D01*
X150295556Y-128011579D01*
X150480529Y-127784216D01*
X150694739Y-127584158D01*
X150934195Y-127415132D01*
X151194432Y-127280288D01*
X151470611Y-127182134D01*
X151757581Y-127122501D01*
X152050000Y-127102499D01*
X152342418Y-127122501D01*
D12*
%TO.P,H3,1,1_1*%
X152050000Y-129250000D03*
%TD*%
D10*
%TO.C,J12*%
%TO.CFtp,AMASS_XT30U-F_1x02_P5.0mm_Vertical*%
%TO.CVal,Conn_01x02_Pin*%
%TO.CLbN,Connector_AMASS*%
%TO.CMnt,TH*%
%TO.CRot,180*%
X235950000Y-112300000D03*
D11*
X237348307Y-109205000D02*
X239045000Y-110502470D01*
X239045000Y-114097529D01*
X237348307Y-115395000D01*
X227855000Y-115395000D01*
X227855000Y-109205000D01*
X237348307Y-109205000D01*
D12*
%TO.P,J12,1,Pin_1_1*%
X235950000Y-112300000D03*
D13*
%TO.P,J12,2,Pin_2_2*%
X230950000Y-112300000D03*
%TD*%
D10*
%TO.C,C21*%
%TO.CFtp,C_0402_1005Metric*%
%TO.CVal,100nF 0402*%
%TO.CLbN,Capacitor_SMD*%
%TO.CMnt,SMD*%
%TO.CRot,180*%
X192750000Y-109020000D03*
D11*
X193655000Y-108565000D02*
X193655000Y-109475000D01*
X191845000Y-109475000D01*
X191845000Y-108565000D01*
X193655000Y-108565000D01*
D12*
%TO.P,C21,1*%
X193230000Y-109020000D03*
D13*
%TO.P,C21,2*%
X192270000Y-109020000D03*
%TD*%
D10*
%TO.C,C27*%
%TO.CFtp,C_0402_1005Metric*%
%TO.CVal,100nF 0402*%
%TO.CLbN,Capacitor_SMD*%
%TO.CMnt,SMD*%
%TO.CRot,0*%
X230800000Y-125150000D03*
D11*
X231705000Y-124695000D02*
X231705000Y-125605000D01*
X229895000Y-125605000D01*
X229895000Y-124695000D01*
X231705000Y-124695000D01*
D12*
%TO.P,C27,1*%
X230320000Y-125150000D03*
D13*
%TO.P,C27,2*%
X231280000Y-125150000D03*
%TD*%
D10*
%TO.C,R11*%
%TO.CFtp,R_0402_1005Metric*%
%TO.CVal,0.2R 1206*%
%TO.CLbN,Resistor_SMD*%
%TO.CMnt,SMD*%
%TO.CRot,0*%
X197260000Y-118360000D03*
D11*
X198185000Y-117895000D02*
X198185000Y-118825000D01*
X196335000Y-118825000D01*
X196335000Y-117895000D01*
X198185000Y-117895000D01*
D12*
%TO.P,R11,1*%
X196750000Y-118360000D03*
D13*
%TO.P,R11,2*%
X197770000Y-118360000D03*
%TD*%
D10*
%TO.C,C23*%
%TO.CFtp,C_0603_1608Metric*%
%TO.CVal,10uF 0603*%
%TO.CLbN,Capacitor_SMD*%
%TO.CMnt,SMD*%
%TO.CRot,0*%
X231300000Y-123850000D03*
D11*
X232775000Y-123125000D02*
X232775000Y-124575000D01*
X229825000Y-124575000D01*
X229825000Y-123125000D01*
X232775000Y-123125000D01*
D12*
%TO.P,C23,1*%
X230525000Y-123850000D03*
D13*
%TO.P,C23,2*%
X232075000Y-123850000D03*
%TD*%
D10*
%TO.C,R_ADC_POT1*%
%TO.CFtp,R_0402_1005Metric*%
%TO.CVal,1kR 0402*%
%TO.CLbN,Resistor_SMD*%
%TO.CMnt,SMD*%
%TO.CRot,0*%
X194310000Y-102070000D03*
D11*
X195235000Y-101605000D02*
X195235000Y-102535000D01*
X193385000Y-102535000D01*
X193385000Y-101605000D01*
X195235000Y-101605000D01*
D12*
%TO.P,R_ADC_POT1,1*%
X193800000Y-102070000D03*
D13*
%TO.P,R_ADC_POT1,2*%
X194820000Y-102070000D03*
%TD*%
D10*
%TO.C,R13*%
%TO.CFtp,R_0402_1005Metric*%
%TO.CVal,22kR 0402*%
%TO.CLbN,Resistor_SMD*%
%TO.CMnt,SMD*%
%TO.CRot,-90*%
X207950000Y-114310000D03*
D11*
X208415000Y-113385000D02*
X208415000Y-115235000D01*
X207485000Y-115235000D01*
X207485000Y-113385000D01*
X208415000Y-113385000D01*
D12*
%TO.P,R13,1*%
X207950000Y-113800000D03*
D13*
%TO.P,R13,2*%
X207950000Y-114820000D03*
%TD*%
D10*
%TO.C,R12*%
%TO.CFtp,R_0402_1005Metric*%
%TO.CVal,10kR 0402*%
%TO.CLbN,Resistor_SMD*%
%TO.CMnt,SMD*%
%TO.CRot,90*%
X208950000Y-114300000D03*
D11*
X209415000Y-113375000D02*
X209415000Y-115225000D01*
X208485000Y-115225000D01*
X208485000Y-113375000D01*
X209415000Y-113375000D01*
D12*
%TO.P,R12,1*%
X208950000Y-114810000D03*
D13*
%TO.P,R12,2*%
X208950000Y-113790000D03*
%TD*%
D10*
%TO.C,C26*%
%TO.CFtp,C_0402_1005Metric*%
%TO.CVal,0.1uF*%
%TO.CLbN,Capacitor_SMD*%
%TO.CMnt,SMD*%
%TO.CRot,90*%
X198600000Y-107620000D03*
D11*
X199055000Y-106715000D02*
X199055000Y-108525000D01*
X198145000Y-108525000D01*
X198145000Y-106715000D01*
X199055000Y-106715000D01*
D12*
%TO.P,C26,1*%
X198600000Y-108100000D03*
D13*
%TO.P,C26,2*%
X198600000Y-107140000D03*
%TD*%
D10*
%TO.C,J1*%
%TO.CFtp,JST_EH_S5B-EH_1x05_P2.50mm_Horizontal*%
%TO.CVal,Conn_01x05_Pin*%
%TO.CLbN,Connector_JST*%
%TO.CMnt,TH*%
%TO.CRot,180*%
X207850000Y-124840000D03*
D11*
X210845000Y-122845000D02*
X210845000Y-132035000D01*
X194855000Y-132035000D01*
X194855000Y-122845000D01*
X210845000Y-122845000D01*
D12*
%TO.P,J1,1,Pin_1_1*%
X207850000Y-124840000D03*
D13*
%TO.P,J1,2,Pin_2_2*%
X205350000Y-124840000D03*
%TO.P,J1,3,Pin_3_3*%
X202850000Y-124840000D03*
%TO.P,J1,4,Pin_4_4*%
X200350000Y-124840000D03*
%TO.P,J1,5,Pin_5_5*%
X197850000Y-124840000D03*
%TD*%
D10*
%TO.C,R17*%
%TO.CFtp,R_0402_1005Metric*%
%TO.CVal,22R 0402*%
%TO.CLbN,Resistor_SMD*%
%TO.CMnt,SMD*%
%TO.CRot,-90*%
X182160000Y-102325000D03*
D11*
X182625000Y-101400000D02*
X182625000Y-103250000D01*
X181695000Y-103250000D01*
X181695000Y-101400000D01*
X182625000Y-101400000D01*
D12*
%TO.P,R17,1*%
X182160000Y-101815000D03*
D13*
%TO.P,R17,2*%
X182160000Y-102835000D03*
%TD*%
D10*
%TO.C,R18*%
%TO.CFtp,R_0402_1005Metric*%
%TO.CVal,2kR 0402*%
%TO.CLbN,Resistor_SMD*%
%TO.CMnt,SMD*%
%TO.CRot,-90*%
X226997500Y-114290000D03*
D11*
X227462500Y-113365000D02*
X227462500Y-115215000D01*
X226532500Y-115215000D01*
X226532500Y-113365000D01*
X227462500Y-113365000D01*
D12*
%TO.P,R18,1*%
X226997500Y-113780000D03*
D13*
%TO.P,R18,2*%
X226997500Y-114800000D03*
%TD*%
D10*
%TO.C,J13*%
%TO.CFtp,AMASS_XT30U-F_1x02_P5.0mm_Vertical*%
%TO.CVal,Conn_01x02_Pin*%
%TO.CLbN,Connector_AMASS*%
%TO.CMnt,TH*%
%TO.CRot,180*%
X235950000Y-105450000D03*
D11*
X237348307Y-102355000D02*
X239045000Y-103652470D01*
X239045000Y-107247529D01*
X237348307Y-108545000D01*
X227855000Y-108545000D01*
X227855000Y-102355000D01*
X237348307Y-102355000D01*
D12*
%TO.P,J13,1,Pin_1_1*%
X235950000Y-105450000D03*
D13*
%TO.P,J13,2,Pin_2_2*%
X230950000Y-105450000D03*
%TD*%
D10*
%TO.C,U2*%
%TO.CFtp,Bosch_LGA-8_2.5x2.5mm_P0.65mm_ClockwisePinNumbering*%
%TO.CVal,BME280*%
%TO.CLbN,Package_LGA*%
%TO.CMnt,SMD*%
%TO.CRot,90*%
X196485000Y-106705000D03*
D11*
X198020000Y-105300000D02*
X198020000Y-108110000D01*
X194950000Y-108110000D01*
X194950000Y-105300000D01*
X198020000Y-105300000D01*
D12*
%TO.P,U2,1,GND_1*%
X195460000Y-107680000D03*
D13*
%TO.P,U2,2,CSB_2*%
X195460000Y-107030000D03*
%TO.P,U2,3,SDI_3*%
X195460000Y-106380000D03*
%TO.P,U2,4,SCK_4*%
X195460000Y-105730000D03*
%TO.P,U2,5,SDO_5*%
X197510000Y-105730000D03*
%TO.P,U2,6,VDDIO_6*%
X197510000Y-106380000D03*
%TO.P,U2,7,GND_7*%
X197510000Y-107030000D03*
%TO.P,U2,8,VDD_8*%
X197510000Y-107680000D03*
%TD*%
D10*
%TO.C,SW2*%
%TO.CFtp,SW_Tactile_SPST_NO_Straight_CK_PTS636Sx25SMTRLFS*%
%TO.CVal,SW_SPST*%
%TO.CLbN,Button_Switch_SMD*%
%TO.CMnt,SMD*%
%TO.CRot,90*%
X151350000Y-117965000D03*
D11*
X152095000Y-113220000D02*
X152095000Y-114670000D01*
X153445000Y-114670000D01*
X153445000Y-121260000D01*
X152095000Y-121260000D01*
X152095000Y-122710000D01*
X150605000Y-122710000D01*
X150605000Y-121260000D01*
X149255000Y-121260000D01*
X149255000Y-114670000D01*
X150605000Y-114670000D01*
X150605000Y-113220000D01*
X152095000Y-113220000D01*
D12*
%TO.P,SW2,1,A_1*%
X151350000Y-121840000D03*
D13*
%TO.P,SW2,2,B_2*%
X151350000Y-114090000D03*
%TD*%
D10*
%TO.C,J3*%
%TO.CFtp,JST_EH_S4B-EH_1x04_P2.50mm_Horizontal*%
%TO.CVal,Conn_01x04_Pin*%
%TO.CLbN,Connector_JST*%
%TO.CMnt,TH*%
%TO.CRot,180*%
X191580000Y-124817500D03*
D11*
X194575000Y-122822500D02*
X194575000Y-132012500D01*
X181085000Y-132012500D01*
X181085000Y-122822500D01*
X194575000Y-122822500D01*
D12*
%TO.P,J3,1,Pin_1_1*%
X191580000Y-124817500D03*
D13*
%TO.P,J3,2,Pin_2_2*%
X189080000Y-124817500D03*
%TO.P,J3,3,Pin_3_3*%
X186580000Y-124817500D03*
%TO.P,J3,4,Pin_4_4*%
X184080000Y-124817500D03*
%TD*%
D10*
%TO.C,C29*%
%TO.CFtp,C_0402_1005Metric*%
%TO.CVal,100nF*%
%TO.CLbN,Capacitor_SMD*%
%TO.CMnt,SMD*%
%TO.CRot,0*%
X226550000Y-106550000D03*
D11*
X227455000Y-106095000D02*
X227455000Y-107005000D01*
X225645000Y-107005000D01*
X225645000Y-106095000D01*
X227455000Y-106095000D01*
D12*
%TO.P,C29,1*%
X226070000Y-106550000D03*
D13*
%TO.P,C29,2*%
X227030000Y-106550000D03*
%TD*%
D10*
%TO.C,TP5*%
%TO.CFtp,TestPoint_Pad_1.0x1.0mm*%
%TO.CVal,TestPoint*%
%TO.CLbN,TestPoint*%
%TO.CMnt,Other*%
%TO.CRot,0*%
X154510000Y-117870000D03*
D11*
X155505000Y-116875000D02*
X155505000Y-118865000D01*
X153515000Y-118865000D01*
X153515000Y-116875000D01*
X155505000Y-116875000D01*
D12*
%TO.P,TP5,1,1_1*%
X154510000Y-117870000D03*
%TD*%
D10*
%TO.C,J8*%
%TO.CFtp,JST_EH_S2B-EH_1x02_P2.50mm_Horizontal*%
%TO.CVal,Conn_01x02*%
%TO.CLbN,Connector_JST*%
%TO.CMnt,TH*%
%TO.CRot,0*%
X172180000Y-99542500D03*
D11*
X177675000Y-92347500D02*
X177675000Y-101537500D01*
X169185000Y-101537500D01*
X169185000Y-92347500D01*
X177675000Y-92347500D01*
D12*
%TO.P,J8,1,Pin_1_1*%
X172180000Y-99542500D03*
D13*
%TO.P,J8,2,Pin_2_2*%
X174680000Y-99542500D03*
%TD*%
D10*
%TO.C,R3*%
%TO.CFtp,R_0402_1005Metric*%
%TO.CVal,47kR 0402*%
%TO.CLbN,Resistor_SMD*%
%TO.CMnt,SMD*%
%TO.CRot,180*%
X197210000Y-113750000D03*
D11*
X198135000Y-113285000D02*
X198135000Y-114215000D01*
X196285000Y-114215000D01*
X196285000Y-113285000D01*
X198135000Y-113285000D01*
D12*
%TO.P,R3,1*%
X197720000Y-113750000D03*
D13*
%TO.P,R3,2*%
X196700000Y-113750000D03*
%TD*%
D10*
%TO.C,IC4*%
%TO.CFtp,SOP65P640X120-25N*%
%TO.CVal,DRV8834PWP*%
%TO.CLbN,DRV8834PWP*%
%TO.CMnt,SMD*%
%TO.CRot,0*%
X203472000Y-117385000D03*
D11*
X207392000Y-113190000D02*
X207392000Y-121580000D01*
X199552000Y-121580000D01*
X199552000Y-113190000D01*
X207392000Y-113190000D01*
D12*
%TO.P,IC4,1,NSLEEP_1*%
X200534000Y-113810000D03*
D13*
%TO.P,IC4,2,BDECAY_2*%
X200534000Y-114460000D03*
%TO.P,IC4,3,ADECAY_3*%
X200534000Y-115110000D03*
%TO.P,IC4,4,AOUT1_4*%
X200534000Y-115760000D03*
%TO.P,IC4,5,AISEN_5*%
X200534000Y-116410000D03*
%TO.P,IC4,6,AOUT2_6*%
X200534000Y-117060000D03*
%TO.P,IC4,7,BOUT2_7*%
X200534000Y-117710000D03*
%TO.P,IC4,8,BISEN_8*%
X200534000Y-118360000D03*
%TO.P,IC4,9,BOUT1_9*%
X200534000Y-119010000D03*
%TO.P,IC4,10,NENBL_/_AENBL_10*%
X200534000Y-119660000D03*
%TO.P,IC4,11,STEP_/_BENBL_11*%
X200534000Y-120310000D03*
%TO.P,IC4,12,DIR_/_BPHASE_12*%
X200534000Y-120960000D03*
%TO.P,IC4,13,M0_/_APHASE_13*%
X206410000Y-120960000D03*
%TO.P,IC4,14,M1_14*%
X206410000Y-120310000D03*
%TO.P,IC4,15,CONFIG_15*%
X206410000Y-119660000D03*
%TO.P,IC4,16,NFAULT_16*%
X206410000Y-119010000D03*
%TO.P,IC4,17,VCP_17*%
X206410000Y-118360000D03*
%TO.P,IC4,18,VM_1_18*%
X206410000Y-117710000D03*
%TO.P,IC4,19,VM_2_19*%
X206410000Y-117060000D03*
%TO.P,IC4,20,VINT_20*%
X206410000Y-116410000D03*
%TO.P,IC4,21,GND_1_21*%
X206410000Y-115760000D03*
%TO.P,IC4,22,AVREF_22*%
X206410000Y-115110000D03*
%TO.P,IC4,23,BVREF_23*%
X206410000Y-114460000D03*
%TO.P,IC4,24,VREFO_24*%
X206410000Y-113810000D03*
%TO.P,IC4,25,GND_2_25*%
X203472000Y-117385000D03*
%TD*%
D10*
%TO.C,AE1*%
%TO.CFtp,U.FL_Molex_MCRF_73412-0110_Vertical*%
%TO.CVal,Antenna_Chip*%
%TO.CLbN,Connector_Coaxial*%
%TO.CMnt,SMD*%
%TO.CRot,-90*%
X192790000Y-113075000D03*
D11*
X195385000Y-110580000D02*
X195385000Y-115570000D01*
X190395000Y-115570000D01*
X190395000Y-110580000D01*
X195385000Y-110580000D01*
D12*
%TO.P,AE1,1,FEED_1*%
X191290000Y-113075000D03*
D13*
%TO.P,AE1,2,PCB_Trace_2*%
X192790000Y-111600000D03*
X194290000Y-113075000D03*
X192790000Y-114550000D03*
%TD*%
D10*
%TO.C,R_I2C_SCL1*%
%TO.CFtp,R_0402_1005Metric*%
%TO.CVal,4K7 0402*%
%TO.CLbN,Resistor_SMD*%
%TO.CMnt,SMD*%
%TO.CRot,180*%
X222980000Y-122310000D03*
D11*
X223905000Y-121845000D02*
X223905000Y-122775000D01*
X222055000Y-122775000D01*
X222055000Y-121845000D01*
X223905000Y-121845000D01*
D12*
%TO.P,R_I2C_SCL1,1*%
X223490000Y-122310000D03*
D13*
%TO.P,R_I2C_SCL1,2*%
X222470000Y-122310000D03*
%TD*%
D10*
%TO.C,TP11*%
%TO.CFtp,TestPoint_Pad_1.0x1.0mm*%
%TO.CVal,TestPoint*%
%TO.CLbN,TestPoint*%
%TO.CMnt,Other*%
%TO.CRot,0*%
X153710000Y-103410000D03*
D11*
X154705000Y-102415000D02*
X154705000Y-104405000D01*
X152715000Y-104405000D01*
X152715000Y-102415000D01*
X154705000Y-102415000D01*
D12*
%TO.P,TP11,1,1_1*%
X153710000Y-103410000D03*
%TD*%
D10*
%TO.C,R_G1*%
%TO.CFtp,R_0402_1005Metric*%
%TO.CVal,100R 0402*%
%TO.CLbN,Resistor_SMD*%
%TO.CMnt,SMD*%
%TO.CRot,-90*%
X205850000Y-104490000D03*
D11*
X206315000Y-103565000D02*
X206315000Y-105415000D01*
X205385000Y-105415000D01*
X205385000Y-103565000D01*
X206315000Y-103565000D01*
D12*
%TO.P,R_G1,1*%
X205850000Y-103980000D03*
D13*
%TO.P,R_G1,2*%
X205850000Y-105000000D03*
%TD*%
D10*
%TO.C,D1*%
%TO.CFtp,D_SOD-123*%
%TO.CVal,MBR0520*%
%TO.CLbN,Diode_SMD*%
%TO.CMnt,SMD*%
%TO.CRot,180*%
X188337500Y-102790000D03*
D11*
X190682500Y-101645000D02*
X190682500Y-103935000D01*
X185992500Y-103935000D01*
X185992500Y-101645000D01*
X190682500Y-101645000D01*
D12*
%TO.P,D1,1,K_1*%
X189987500Y-102790000D03*
D13*
%TO.P,D1,2,A_2*%
X186687500Y-102790000D03*
%TD*%
D10*
%TO.C,L1*%
%TO.CFtp,L_0402_1005Metric*%
%TO.CVal,2.0nH 0402*%
%TO.CLbN,Inductor_SMD*%
%TO.CMnt,SMD*%
%TO.CRot,180*%
X189350000Y-110440000D03*
D11*
X190275000Y-109975000D02*
X190275000Y-110905000D01*
X188425000Y-110905000D01*
X188425000Y-109975000D01*
X190275000Y-109975000D01*
D12*
%TO.P,L1,1,1_1*%
X189835000Y-110440000D03*
D13*
%TO.P,L1,2,2_2*%
X188865000Y-110440000D03*
%TD*%
D10*
%TO.C,J7*%
%TO.CFtp,JST_EH_S6B-EH_1x06_P2.50mm_Horizontal*%
%TO.CVal,Conn_01x06_Pin*%
%TO.CLbN,Connector_JST*%
%TO.CMnt,TH*%
%TO.CRot,180*%
X177700000Y-124840000D03*
D11*
X180695000Y-122845000D02*
X180695000Y-132035000D01*
X162205000Y-132035000D01*
X162205000Y-122845000D01*
X180695000Y-122845000D01*
D12*
%TO.P,J7,1,Pin_1_1*%
X177700000Y-124840000D03*
D13*
%TO.P,J7,2,Pin_2_2*%
X175200000Y-124840000D03*
%TO.P,J7,3,Pin_3_3*%
X172700000Y-124840000D03*
%TO.P,J7,4,Pin_4_4*%
X170200000Y-124840000D03*
%TO.P,J7,5,Pin_5_5*%
X167700000Y-124840000D03*
%TO.P,J7,6,Pin_6_6*%
X165200000Y-124840000D03*
%TD*%
D10*
%TO.C,C17*%
%TO.CFtp,C_0402_1005Metric*%
%TO.CVal,100nF 0402*%
%TO.CLbN,Capacitor_SMD*%
%TO.CMnt,SMD*%
%TO.CRot,0*%
X196230000Y-102070000D03*
D11*
X197135000Y-101615000D02*
X197135000Y-102525000D01*
X195325000Y-102525000D01*
X195325000Y-101615000D01*
X197135000Y-101615000D01*
D12*
%TO.P,C17,1*%
X195750000Y-102070000D03*
D13*
%TO.P,C17,2*%
X196710000Y-102070000D03*
%TD*%
D10*
%TO.C,R6*%
%TO.CFtp,R_0402_1005Metric*%
%TO.CVal,51kR 0402*%
%TO.CLbN,Resistor_SMD*%
%TO.CMnt,SMD*%
%TO.CRot,0*%
X197210000Y-114770000D03*
D11*
X198135000Y-114305000D02*
X198135000Y-115235000D01*
X196285000Y-115235000D01*
X196285000Y-114305000D01*
X198135000Y-114305000D01*
D12*
%TO.P,R6,1*%
X196700000Y-114770000D03*
D13*
%TO.P,R6,2*%
X197720000Y-114770000D03*
%TD*%
D10*
%TO.C,TP12*%
%TO.CFtp,TestPoint_Pad_1.0x1.0mm*%
%TO.CVal,TestPoint*%
%TO.CLbN,TestPoint*%
%TO.CMnt,Other*%
%TO.CRot,0*%
X154500000Y-106630000D03*
D11*
X155495000Y-105635000D02*
X155495000Y-107625000D01*
X153505000Y-107625000D01*
X153505000Y-105635000D01*
X155495000Y-105635000D01*
D12*
%TO.P,TP12,1,1_1*%
X154500000Y-106630000D03*
%TD*%
D10*
%TO.C,J_HEATER3*%
%TO.CFtp,AMASS_XT30U-F_1x02_P5.0mm_Vertical*%
%TO.CVal,Conn_01x02_Pin*%
%TO.CLbN,Connector_AMASS*%
%TO.CMnt,TH*%
%TO.CRot,90*%
X222750000Y-100350000D03*
D11*
X225845000Y-92255000D02*
X225845000Y-101748307D01*
X224547529Y-103445000D01*
X220952471Y-103445000D01*
X219655000Y-101748307D01*
X219655000Y-92255000D01*
X225845000Y-92255000D01*
D12*
%TO.P,J_HEATER3,1,Pin_1_1*%
X222750000Y-100350000D03*
D13*
%TO.P,J_HEATER3,2,Pin_2_2*%
X222750000Y-95350000D03*
%TD*%
D10*
%TO.C,C14*%
%TO.CFtp,C_0402_1005Metric*%
%TO.CVal,15pF 0402*%
%TO.CLbN,Capacitor_SMD*%
%TO.CMnt,SMD*%
%TO.CRot,180*%
X189360000Y-113460000D03*
D11*
X190265000Y-113005000D02*
X190265000Y-113915000D01*
X188455000Y-113915000D01*
X188455000Y-113005000D01*
X190265000Y-113005000D01*
D12*
%TO.P,C14,1*%
X189840000Y-113460000D03*
D13*
%TO.P,C14,2*%
X188880000Y-113460000D03*
%TD*%
D10*
%TO.C,J9*%
%TO.CFtp,JST_XH_B5B-XH-A_1x05_P2.50mm_Vertical*%
%TO.CVal,Conn_01x05*%
%TO.CLbN,Connector_JST*%
%TO.CMnt,TH*%
%TO.CRot,0*%
X212100000Y-109100000D03*
D11*
X225045000Y-106255000D02*
X225045000Y-112995000D01*
X209155000Y-112995000D01*
X209155000Y-106255000D01*
X225045000Y-106255000D01*
D12*
%TO.P,J9,1,Pin_1_1*%
X212100000Y-109100000D03*
D13*
%TO.P,J9,2,Pin_2_2*%
X214600000Y-109100000D03*
%TO.P,J9,3,Pin_3_3*%
X217100000Y-109100000D03*
%TO.P,J9,4,Pin_4_4*%
X219600000Y-109100000D03*
%TO.P,J9,5,Pin_5_5*%
X222100000Y-109100000D03*
%TD*%
D10*
%TO.C,H1*%
%TO.CFtp,MountingHole_2.2mm_M2_DIN965_Pad*%
%TO.CVal,MountingHole_Pad*%
%TO.CLbN,MountingHole*%
%TO.CMnt,Other*%
%TO.CRot,0*%
X152000000Y-95250000D03*
D11*
X152292418Y-93122501D02*
X152579388Y-93182134D01*
X152855567Y-93280288D01*
X153115804Y-93415132D01*
X153355260Y-93584158D01*
X153569470Y-93784216D01*
X153754443Y-94011579D01*
X153906734Y-94262009D01*
X154023504Y-94530843D01*
X154102584Y-94813083D01*
X154142500Y-95103490D01*
X154144999Y-95250000D01*
X154142500Y-95396509D01*
X154102584Y-95686916D01*
X154023504Y-95969156D01*
X153906734Y-96237990D01*
X153754443Y-96488420D01*
X153569470Y-96715783D01*
X153355260Y-96915841D01*
X153115804Y-97084867D01*
X152855567Y-97219711D01*
X152579388Y-97317865D01*
X152292418Y-97377498D01*
X152000000Y-97397500D01*
X151707581Y-97377498D01*
X151420611Y-97317865D01*
X151144432Y-97219711D01*
X150884195Y-97084867D01*
X150644739Y-96915841D01*
X150430529Y-96715783D01*
X150245556Y-96488420D01*
X150093265Y-96237990D01*
X149976495Y-95969156D01*
X149897415Y-95686916D01*
X149857506Y-95396553D01*
X149857506Y-95103446D01*
X149897415Y-94813083D01*
X149976495Y-94530843D01*
X150093265Y-94262009D01*
X150245556Y-94011579D01*
X150430529Y-93784216D01*
X150644739Y-93584158D01*
X150884195Y-93415132D01*
X151144432Y-93280288D01*
X151420611Y-93182134D01*
X151707581Y-93122501D01*
X152000000Y-93102499D01*
X152292418Y-93122501D01*
D12*
%TO.P,H1,1,1_1*%
X152000000Y-95250000D03*
%TD*%
D10*
%TO.C,TP16*%
%TO.CFtp,TestPoint_Pad_1.0x1.0mm*%
%TO.CVal,TestPoint*%
%TO.CLbN,TestPoint*%
%TO.CMnt,Other*%
%TO.CRot,0*%
X154500000Y-115780000D03*
D11*
X155495000Y-114785000D02*
X155495000Y-116775000D01*
X153505000Y-116775000D01*
X153505000Y-114785000D01*
X155495000Y-114785000D01*
D12*
%TO.P,TP16,1,1_1*%
X154500000Y-115780000D03*
%TD*%
D10*
%TO.C,C2*%
%TO.CFtp,C_0402_1005Metric*%
%TO.CVal,12pF 0402*%
%TO.CLbN,Capacitor_SMD*%
%TO.CMnt,SMD*%
%TO.CRot,0*%
X187720000Y-116460000D03*
D11*
X188625000Y-116005000D02*
X188625000Y-116915000D01*
X186815000Y-116915000D01*
X186815000Y-116005000D01*
X188625000Y-116005000D01*
D12*
%TO.P,C2,1*%
X187240000Y-116460000D03*
D13*
%TO.P,C2,2*%
X188200000Y-116460000D03*
%TD*%
D10*
%TO.C,C25*%
%TO.CFtp,C_0402_1005Metric*%
%TO.CVal,0.1uF*%
%TO.CLbN,Capacitor_SMD*%
%TO.CMnt,SMD*%
%TO.CRot,90*%
X198580000Y-105720000D03*
D11*
X199035000Y-104815000D02*
X199035000Y-106625000D01*
X198125000Y-106625000D01*
X198125000Y-104815000D01*
X199035000Y-104815000D01*
D12*
%TO.P,C25,1*%
X198580000Y-106200000D03*
D13*
%TO.P,C25,2*%
X198580000Y-105240000D03*
%TD*%
D10*
%TO.C,C3*%
%TO.CFtp,C_0402_1005Metric*%
%TO.CVal,10uF 0402*%
%TO.CLbN,Capacitor_SMD*%
%TO.CMnt,SMD*%
%TO.CRot,180*%
X190770000Y-109030000D03*
D11*
X191675000Y-108575000D02*
X191675000Y-109485000D01*
X189865000Y-109485000D01*
X189865000Y-108575000D01*
X191675000Y-108575000D01*
D12*
%TO.P,C3,1*%
X191250000Y-109030000D03*
D13*
%TO.P,C3,2*%
X190290000Y-109030000D03*
%TD*%
D10*
%TO.C,C16*%
%TO.CFtp,C_0402_1005Metric*%
%TO.CVal,2.2uF 0603*%
%TO.CLbN,Capacitor_SMD*%
%TO.CMnt,SMD*%
%TO.CRot,-90*%
X207910000Y-120620000D03*
D11*
X208365000Y-119715000D02*
X208365000Y-121525000D01*
X207455000Y-121525000D01*
X207455000Y-119715000D01*
X208365000Y-119715000D01*
D12*
%TO.P,C16,1*%
X207910000Y-120140000D03*
D13*
%TO.P,C16,2*%
X207910000Y-121100000D03*
%TD*%
D10*
%TO.C,J2*%
%TO.CFtp,JST_GH_BM09B-GHS-TBT_1x09-1MP_P1.25mm_Vertical*%
%TO.CVal,Conn_01x09*%
%TO.CLbN,Connector_JST*%
%TO.CMnt,SMD*%
%TO.CRot,-90*%
X158810000Y-111210000D03*
D11*
X162105000Y-103365000D02*
X162105000Y-105355000D01*
X161805000Y-105355000D01*
X161805000Y-117065000D01*
X162105000Y-117065000D01*
X162105000Y-119055000D01*
X158315000Y-119055000D01*
X158315000Y-118955000D01*
X156565000Y-118955000D01*
X156565000Y-117005000D01*
X155515000Y-117005000D01*
X155515000Y-105415000D01*
X156565000Y-105415000D01*
X156565000Y-103465000D01*
X158315000Y-103465000D01*
X158315000Y-103365000D01*
X162105000Y-103365000D01*
D12*
%TO.P,J2,1,Pin_1_1*%
X156860000Y-106210000D03*
D13*
%TO.P,J2,2,Pin_2_2*%
X156860000Y-107460000D03*
%TO.P,J2,3,Pin_3_3*%
X156860000Y-108710000D03*
%TO.P,J2,4,Pin_4_4*%
X156860000Y-109960000D03*
%TO.P,J2,5,Pin_5_5*%
X156860000Y-111210000D03*
%TO.P,J2,6,Pin_6_6*%
X156860000Y-112460000D03*
%TO.P,J2,7,Pin_7_7*%
X156860000Y-113710000D03*
%TO.P,J2,8,Pin_8_8*%
X156860000Y-114960000D03*
%TO.P,J2,9,Pin_9_9*%
X156860000Y-116210000D03*
%TO.P,J2,MP*%
X160210000Y-104360000D03*
X160210000Y-118060000D03*
%TD*%
D10*
%TO.C,H4*%
%TO.CFtp,MountingHole_2.2mm_M2_DIN965_Pad*%
%TO.CVal,MountingHole_Pad*%
%TO.CLbN,MountingHole*%
%TO.CMnt,Other*%
%TO.CRot,0*%
X236000000Y-129250000D03*
D11*
X236292418Y-127122501D02*
X236579388Y-127182134D01*
X236855567Y-127280288D01*
X237115804Y-127415132D01*
X237355260Y-127584158D01*
X237569470Y-127784216D01*
X237754443Y-128011579D01*
X237906734Y-128262009D01*
X238023504Y-128530843D01*
X238102584Y-128813083D01*
X238142500Y-129103490D01*
X238144999Y-129250000D01*
X238142500Y-129396509D01*
X238102584Y-129686916D01*
X238023504Y-129969156D01*
X237906734Y-130237990D01*
X237754443Y-130488420D01*
X237569470Y-130715783D01*
X237355260Y-130915841D01*
X237115804Y-131084867D01*
X236855567Y-131219711D01*
X236579388Y-131317865D01*
X236292418Y-131377498D01*
X236000000Y-131397500D01*
X235707581Y-131377498D01*
X235420611Y-131317865D01*
X235144432Y-131219711D01*
X234884195Y-131084867D01*
X234644739Y-130915841D01*
X234430529Y-130715783D01*
X234245556Y-130488420D01*
X234093265Y-130237990D01*
X233976495Y-129969156D01*
X233897415Y-129686916D01*
X233857506Y-129396553D01*
X233857506Y-129103446D01*
X233897415Y-128813083D01*
X233976495Y-128530843D01*
X234093265Y-128262009D01*
X234245556Y-128011579D01*
X234430529Y-127784216D01*
X234644739Y-127584158D01*
X234884195Y-127415132D01*
X235144432Y-127280288D01*
X235420611Y-127182134D01*
X235707581Y-127122501D01*
X236000000Y-127102499D01*
X236292418Y-127122501D01*
D12*
%TO.P,H4,1,1_1*%
X236000000Y-129250000D03*
%TD*%
D10*
%TO.C,IC2*%
%TO.CFtp,WSON-8-1EP_6x5mm_P1.27mm_EP3.4x4.3mm*%
%TO.CVal,W25Q01JVZEIQ*%
%TO.CLbN,Package_SON*%
%TO.CMnt,SMD*%
%TO.CRot,180*%
X174050000Y-112475000D03*
D11*
X177295000Y-109730000D02*
X177295000Y-110070000D01*
X177375000Y-110070000D01*
X177375000Y-114880000D01*
X177295000Y-114880000D01*
X177295000Y-115220000D01*
X170805000Y-115220000D01*
X170805000Y-114880000D01*
X170725000Y-114880000D01*
X170725000Y-110070000D01*
X170805000Y-110070000D01*
X170805000Y-109730000D01*
X177295000Y-109730000D01*
D12*
%TO.P,IC2,1,~{CS}_1*%
X176750000Y-114380000D03*
D13*
%TO.P,IC2,2,DO_(IO1)_2*%
X176750000Y-113110000D03*
%TO.P,IC2,3,~{WP_(IO2)}_3*%
X176750000Y-111840000D03*
%TO.P,IC2,4,GND_4*%
X176750000Y-110570000D03*
%TO.P,IC2,5,DI_(IO0)_5*%
X171350000Y-110570000D03*
%TO.P,IC2,6,CLK_6*%
X171350000Y-111840000D03*
%TO.P,IC2,7,~{HOLD_OR_}/RESET_(IO3)_7*%
X171350000Y-113110000D03*
%TO.P,IC2,8,VCC_8*%
X171350000Y-114380000D03*
%TO.P,IC2,9,EP_9*%
X174050000Y-112475000D03*
%TD*%
D10*
%TO.C,R8*%
%TO.CFtp,R_0402_1005Metric*%
%TO.CVal,51kR 0402*%
%TO.CLbN,Resistor_SMD*%
%TO.CMnt,SMD*%
%TO.CRot,0*%
X197220000Y-115780000D03*
D11*
X198145000Y-115315000D02*
X198145000Y-116245000D01*
X196295000Y-116245000D01*
X196295000Y-115315000D01*
X198145000Y-115315000D01*
D12*
%TO.P,R8,1*%
X196710000Y-115780000D03*
D13*
%TO.P,R8,2*%
X197730000Y-115780000D03*
%TD*%
D10*
%TO.C,R5*%
%TO.CFtp,R_0402_1005Metric*%
%TO.CVal,10kR 0402*%
%TO.CLbN,Resistor_SMD*%
%TO.CMnt,SMD*%
%TO.CRot,90*%
X152640000Y-122270000D03*
D11*
X153105000Y-121345000D02*
X153105000Y-123195000D01*
X152175000Y-123195000D01*
X152175000Y-121345000D01*
X153105000Y-121345000D01*
D12*
%TO.P,R5,1*%
X152640000Y-122780000D03*
D13*
%TO.P,R5,2*%
X152640000Y-121760000D03*
%TD*%
D10*
%TO.C,TP13*%
%TO.CFtp,TestPoint_Pad_1.0x1.0mm*%
%TO.CVal,TestPoint*%
%TO.CLbN,TestPoint*%
%TO.CMnt,Other*%
%TO.CRot,0*%
X154500000Y-108860000D03*
D11*
X155495000Y-107865000D02*
X155495000Y-109855000D01*
X153505000Y-109855000D01*
X153505000Y-107865000D01*
X155495000Y-107865000D01*
D12*
%TO.P,TP13,1,1_1*%
X154500000Y-108860000D03*
%TD*%
D10*
%TO.C,R_PD1*%
%TO.CFtp,R_0402_1005Metric*%
%TO.CVal,100kR 0402*%
%TO.CLbN,Resistor_SMD*%
%TO.CMnt,SMD*%
%TO.CRot,90*%
X195840000Y-109230000D03*
D11*
X196305000Y-108305000D02*
X196305000Y-110155000D01*
X195375000Y-110155000D01*
X195375000Y-108305000D01*
X196305000Y-108305000D01*
D12*
%TO.P,R_PD1,1*%
X195840000Y-109740000D03*
D13*
%TO.P,R_PD1,2*%
X195840000Y-108720000D03*
%TD*%
D10*
%TO.C,C34*%
%TO.CFtp,C_0402_1005Metric*%
%TO.CVal,100nF 0402*%
%TO.CLbN,Capacitor_SMD*%
%TO.CMnt,SMD*%
%TO.CRot,90*%
X153000000Y-124300000D03*
D11*
X153455000Y-123395000D02*
X153455000Y-125205000D01*
X152545000Y-125205000D01*
X152545000Y-123395000D01*
X153455000Y-123395000D01*
D12*
%TO.P,C34,1*%
X153000000Y-124780000D03*
D13*
%TO.P,C34,2*%
X153000000Y-123820000D03*
%TD*%
D10*
%TO.C,C12*%
%TO.CFtp,C_0402_1005Metric*%
%TO.CVal,10nF 0603*%
%TO.CLbN,Capacitor_SMD*%
%TO.CMnt,SMD*%
%TO.CRot,-90*%
X207950000Y-117810000D03*
D11*
X208405000Y-116905000D02*
X208405000Y-118715000D01*
X207495000Y-118715000D01*
X207495000Y-116905000D01*
X208405000Y-116905000D01*
D12*
%TO.P,C12,1*%
X207950000Y-117330000D03*
D13*
%TO.P,C12,2*%
X207950000Y-118290000D03*
%TD*%
D10*
%TO.C,U1*%
%TO.CFtp,QFN-56-1EP_7x7mm_P0.4mm_EP4x4mm*%
%TO.CVal,ESP32-S3*%
%TO.CLbN,Package_DFN_QFN*%
%TO.CMnt,SMD*%
%TO.CRot,180*%
X184250000Y-109865000D03*
D11*
X187195000Y-105770000D02*
X187195000Y-106120000D01*
X187995000Y-106120000D01*
X187995000Y-106920000D01*
X188345000Y-106920000D01*
X188345000Y-112810000D01*
X187995000Y-112810000D01*
X187995000Y-113610000D01*
X187195000Y-113610000D01*
X187195000Y-113960000D01*
X181305000Y-113960000D01*
X181305000Y-113610000D01*
X180505000Y-113610000D01*
X180505000Y-112810000D01*
X180155000Y-112810000D01*
X180155000Y-106920000D01*
X180505000Y-106920000D01*
X180505000Y-106120000D01*
X181305000Y-106120000D01*
X181305000Y-105770000D01*
X187195000Y-105770000D01*
D12*
%TO.P,U1,1,LNA_IN_1*%
X187700000Y-112465000D03*
D13*
%TO.P,U1,2,VDD3P3_2*%
X187700000Y-112065000D03*
%TO.P,U1,3,VDD3P3_3*%
X187700000Y-111665000D03*
%TO.P,U1,4,CHIP_PU_4*%
X187700000Y-111265000D03*
%TO.P,U1,5,GPIO0_5*%
X187700000Y-110865000D03*
%TO.P,U1,6,GPIO1_6*%
X187700000Y-110465000D03*
%TO.P,U1,7,GPIO2_7*%
X187700000Y-110065000D03*
%TO.P,U1,8,GPIO3_8*%
X187700000Y-109665000D03*
%TO.P,U1,9,GPIO4_9*%
X187700000Y-109265000D03*
%TO.P,U1,10,GPIO5_10*%
X187700000Y-108865000D03*
%TO.P,U1,11,GPIO6_11*%
X187700000Y-108465000D03*
%TO.P,U1,12,GPIO7_12*%
X187700000Y-108065000D03*
%TO.P,U1,13,GPIO8_13*%
X187700000Y-107665000D03*
%TO.P,U1,14,GPIO9_14*%
X187700000Y-107265000D03*
%TO.P,U1,15,GPIO10_15*%
X186850000Y-106415000D03*
%TO.P,U1,16,GPIO11_16*%
X186450000Y-106415000D03*
%TO.P,U1,17,GPIO12_17*%
X186050000Y-106415000D03*
%TO.P,U1,18,GPIO13_18*%
X185650000Y-106415000D03*
%TO.P,U1,19,GPIO14_19*%
X185250000Y-106415000D03*
%TO.P,U1,20,VDD3P3_RTC_20*%
X184850000Y-106415000D03*
%TO.P,U1,21,XTAL_32K_P_21*%
X184450000Y-106415000D03*
%TO.P,U1,22,XTAL_32K_N_22*%
X184050000Y-106415000D03*
%TO.P,U1,23,GPIO17_23*%
X183650000Y-106415000D03*
%TO.P,U1,24,GPIO18_24*%
X183250000Y-106415000D03*
%TO.P,U1,25,GPIO19/USB_D-_25*%
X182850000Y-106415000D03*
%TO.P,U1,26,GPIO20/USB_D+_26*%
X182450000Y-106415000D03*
%TO.P,U1,27,GPIO21_27*%
X182050000Y-106415000D03*
%TO.P,U1,28,SPICS1_28*%
X181650000Y-106415000D03*
%TO.P,U1,29,VDD_SPI_29*%
X180800000Y-107265000D03*
%TO.P,U1,30,SPIHD_30*%
X180800000Y-107665000D03*
%TO.P,U1,31,SPIWP_31*%
X180800000Y-108065000D03*
%TO.P,U1,32,SPICS0_32*%
X180800000Y-108465000D03*
%TO.P,U1,33,SPICLK_33*%
X180800000Y-108865000D03*
%TO.P,U1,34,SPIQ_34*%
X180800000Y-109265000D03*
%TO.P,U1,35,SPID_35*%
X180800000Y-109665000D03*
%TO.P,U1,36,SPICLK_N_36*%
X180800000Y-110065000D03*
%TO.P,U1,37,SPICLK_P_37*%
X180800000Y-110465000D03*
%TO.P,U1,38,GPIO33_38*%
X180800000Y-110865000D03*
%TO.P,U1,39,GPIO34_39*%
X180800000Y-111265000D03*
%TO.P,U1,40,GPIO35_40*%
X180800000Y-111665000D03*
%TO.P,U1,41,GPIO36_41*%
X180800000Y-112065000D03*
%TO.P,U1,42,GPIO37_42*%
X180800000Y-112465000D03*
%TO.P,U1,43,GPIO38_43*%
X181650000Y-113315000D03*
%TO.P,U1,44,MTCK_44*%
X182050000Y-113315000D03*
%TO.P,U1,45,MTDO_45*%
X182450000Y-113315000D03*
%TO.P,U1,46,VDD3P3_CPU_46*%
X182850000Y-113315000D03*
%TO.P,U1,47,MTDI_47*%
X183250000Y-113315000D03*
%TO.P,U1,48,MTMS_48*%
X183650000Y-113315000D03*
%TO.P,U1,49,U0TXD_49*%
X184050000Y-113315000D03*
%TO.P,U1,50,U0RXD_50*%
X184450000Y-113315000D03*
%TO.P,U1,51,GPIO45_51*%
X184850000Y-113315000D03*
%TO.P,U1,52,GPIO46_52*%
X185250000Y-113315000D03*
%TO.P,U1,53,XTAL_N_53*%
X185650000Y-113315000D03*
%TO.P,U1,54,XTAL_P_54*%
X186050000Y-113315000D03*
%TO.P,U1,55,VDDA_55*%
X186450000Y-113315000D03*
%TO.P,U1,56,VDDA_56*%
X186850000Y-113315000D03*
%TO.P,U1,57,GND_57*%
X184250000Y-109865000D03*
%TD*%
D10*
%TO.C,Q8*%
%TO.CFtp,SOT95P237X112-3N*%
%TO.CVal,IRLML6344TRPBF*%
%TO.CLbN,IRLML6344TRPBF*%
%TO.CMnt,SMD*%
%TO.CRot,0*%
X209450000Y-104450000D03*
D11*
X211395000Y-102685000D02*
X211395000Y-106215000D01*
X207505000Y-106215000D01*
X207505000Y-102685000D01*
X211395000Y-102685000D01*
D12*
%TO.P,Q8,1,G_1*%
X208400000Y-103500000D03*
D13*
%TO.P,Q8,2,S_2*%
X208400000Y-105400000D03*
%TO.P,Q8,3,D_3*%
X210500000Y-104450000D03*
%TD*%
D10*
%TO.C,R_PD2*%
%TO.CFtp,R_0402_1005Metric*%
%TO.CVal,100kR 0402*%
%TO.CLbN,Resistor_SMD*%
%TO.CMnt,SMD*%
%TO.CRot,-90*%
X205950000Y-106540000D03*
D11*
X206415000Y-105615000D02*
X206415000Y-107465000D01*
X205485000Y-107465000D01*
X205485000Y-105615000D01*
X206415000Y-105615000D01*
D12*
%TO.P,R_PD2,1*%
X205950000Y-106030000D03*
D13*
%TO.P,R_PD2,2*%
X205950000Y-107050000D03*
%TD*%
D10*
%TO.C,C15*%
%TO.CFtp,C_0402_1005Metric*%
%TO.CVal,100nF 0402*%
%TO.CLbN,Capacitor_SMD*%
%TO.CMnt,SMD*%
%TO.CRot,-90*%
X153640000Y-122240000D03*
D11*
X154095000Y-121335000D02*
X154095000Y-123145000D01*
X153185000Y-123145000D01*
X153185000Y-121335000D01*
X154095000Y-121335000D01*
D12*
%TO.P,C15,1*%
X153640000Y-121760000D03*
D13*
%TO.P,C15,2*%
X153640000Y-122720000D03*
%TD*%
D10*
%TO.C,IC1*%
%TO.CFtp,QFN65P500X500X80-21N*%
%TO.CVal,MAX31865ATP+*%
%TO.CLbN,MAX31865ATP+*%
%TO.CMnt,SMD*%
%TO.CRot,180*%
X173850000Y-104940000D03*
D11*
X176945000Y-101845000D02*
X176945000Y-108035000D01*
X170755000Y-108035000D01*
X170755000Y-101845000D01*
X176945000Y-101845000D01*
D12*
%TO.P,IC1,1,BIAS_1*%
X176200000Y-106240000D03*
D13*
%TO.P,IC1,2,REFIN+_2*%
X176200000Y-105590000D03*
%TO.P,IC1,3,REFIN-_3*%
X176200000Y-104940000D03*
%TO.P,IC1,4,ISENSOR_4*%
X176200000Y-104290000D03*
%TO.P,IC1,5,FORCE+_5*%
X176200000Y-103640000D03*
%TO.P,IC1,6,FORCE2_6*%
X175150000Y-102590000D03*
%TO.P,IC1,7,RTDIN+_7*%
X174500000Y-102590000D03*
%TO.P,IC1,8,RTDIN-_8*%
X173850000Y-102590000D03*
%TO.P,IC1,9,FORCE-_9*%
X173200000Y-102590000D03*
%TO.P,IC1,10,GND2_10*%
X172550000Y-102590000D03*
%TO.P,IC1,11,SDI_11*%
X171500000Y-103640000D03*
%TO.P,IC1,12,SCLK_12*%
X171500000Y-104290000D03*
%TO.P,IC1,13,~{CS}_13*%
X171500000Y-104940000D03*
%TO.P,IC1,14,SDO_14*%
X171500000Y-105590000D03*
%TO.P,IC1,15,DGND_15*%
X171500000Y-106240000D03*
%TO.P,IC1,16,GND1_16*%
X172550000Y-107290000D03*
%TO.P,IC1,17,N.C._17*%
X173200000Y-107290000D03*
%TO.P,IC1,18,~{DRDY}_18*%
X173850000Y-107290000D03*
%TO.P,IC1,19,DVDD_19*%
X174500000Y-107290000D03*
%TO.P,IC1,20,VDD_20*%
X175150000Y-107290000D03*
%TO.P,IC1,21,EP_21*%
X173850000Y-104940000D03*
%TD*%
D10*
%TO.C,C9*%
%TO.CFtp,C_0402_1005Metric*%
%TO.CVal,100nF 0402*%
%TO.CLbN,Capacitor_SMD*%
%TO.CMnt,SMD*%
%TO.CRot,90*%
X184820000Y-104800000D03*
D11*
X185275000Y-103895000D02*
X185275000Y-105705000D01*
X184365000Y-105705000D01*
X184365000Y-103895000D01*
X185275000Y-103895000D01*
D12*
%TO.P,C9,1*%
X184820000Y-105280000D03*
D13*
%TO.P,C9,2*%
X184820000Y-104320000D03*
%TD*%
D10*
%TO.C,J14*%
%TO.CFtp,JST_EH_S3B-EH_1x03_P2.50mm_Horizontal*%
%TO.CVal,Conn_01x03*%
%TO.CLbN,Connector_JST*%
%TO.CMnt,TH*%
%TO.CRot,0*%
X230050000Y-99832500D03*
D11*
X238045000Y-92637500D02*
X238045000Y-101827500D01*
X227055000Y-101827500D01*
X227055000Y-92637500D01*
X238045000Y-92637500D01*
D12*
%TO.P,J14,1,Pin_1_1*%
X230050000Y-99832500D03*
D13*
%TO.P,J14,2,Pin_2_2*%
X232550000Y-99832500D03*
%TO.P,J14,3,Pin_3_3*%
X235050000Y-99832500D03*
%TD*%
D10*
%TO.C,Q7*%
%TO.CFtp,SOT95P237X112-3N*%
%TO.CVal,IRLML6344TRPBF*%
%TO.CLbN,IRLML6344TRPBF*%
%TO.CMnt,SMD*%
%TO.CRot,-90*%
X203480000Y-105500000D03*
D11*
X205245000Y-103555000D02*
X205245000Y-107445000D01*
X201715000Y-107445000D01*
X201715000Y-103555000D01*
X205245000Y-103555000D01*
D12*
%TO.P,Q7,1,G_1*%
X204430000Y-104450000D03*
D13*
%TO.P,Q7,2,S_2*%
X202530000Y-104450000D03*
%TO.P,Q7,3,D_3*%
X203480000Y-106550000D03*
%TD*%
D10*
%TO.C,J5*%
%TO.CFtp,JST_PH_S4B-PH-K_1x04_P2.00mm_Horizontal*%
%TO.CVal,Conn_01x04*%
%TO.CLbN,Connector_JST*%
%TO.CMnt,TH*%
%TO.CRot,180*%
X166620000Y-99100000D03*
D11*
X169065000Y-92355000D02*
X169065000Y-100945000D01*
X158175000Y-100945000D01*
X158175000Y-92355000D01*
X169065000Y-92355000D01*
D12*
%TO.P,J5,1,Pin_1_1*%
X166620000Y-99100000D03*
D13*
%TO.P,J5,2,Pin_2_2*%
X164620000Y-99100000D03*
%TO.P,J5,3,Pin_3_3*%
X162620000Y-99100000D03*
%TO.P,J5,4,Pin_4_4*%
X160620000Y-99100000D03*
%TD*%
D10*
%TO.C,D4*%
%TO.CFtp,LED_0805_2012Metric*%
%TO.CVal,KT-0805Y*%
%TO.CLbN,LED_SMD*%
%TO.CMnt,SMD*%
%TO.CRot,0*%
X224752500Y-118430000D03*
D11*
X226427500Y-117485000D02*
X226427500Y-119375000D01*
X223077500Y-119375000D01*
X223077500Y-117485000D01*
X226427500Y-117485000D01*
D12*
%TO.P,D4,1,K_1*%
X223815000Y-118430000D03*
D13*
%TO.P,D4,2,A_2*%
X225690000Y-118430000D03*
%TD*%
D10*
%TO.C,C24*%
%TO.CFtp,C_0402_1005Metric*%
%TO.CVal,100nF 0402*%
%TO.CLbN,Capacitor_SMD*%
%TO.CMnt,SMD*%
%TO.CRot,90*%
X177860000Y-102620000D03*
D11*
X178315000Y-101715000D02*
X178315000Y-103525000D01*
X177405000Y-103525000D01*
X177405000Y-101715000D01*
X178315000Y-101715000D01*
D12*
%TO.P,C24,1*%
X177860000Y-103100000D03*
D13*
%TO.P,C24,2*%
X177860000Y-102140000D03*
%TD*%
D10*
%TO.C,R14*%
%TO.CFtp,R_0402_1005Metric*%
%TO.CVal,5.1kR 0402*%
%TO.CLbN,Resistor_SMD*%
%TO.CMnt,SMD*%
%TO.CRot,180*%
X180680000Y-101870000D03*
D11*
X181605000Y-101405000D02*
X181605000Y-102335000D01*
X179755000Y-102335000D01*
X179755000Y-101405000D01*
X181605000Y-101405000D01*
D12*
%TO.P,R14,1*%
X181190000Y-101870000D03*
D13*
%TO.P,R14,2*%
X180170000Y-101870000D03*
%TD*%
D10*
%TO.C,Y1*%
%TO.CFtp,Crystal_SMD_3225-4Pin_3.2x2.5mm*%
%TO.CVal,40MHz 3225 9pF*%
%TO.CLbN,Crystal*%
%TO.CMnt,SMD*%
%TO.CRot,180*%
X184630000Y-116770000D03*
D11*
X186725000Y-115025000D02*
X186725000Y-118515000D01*
X182535000Y-118515000D01*
X182535000Y-115025000D01*
X186725000Y-115025000D01*
D12*
%TO.P,Y1,1,1_1*%
X185730000Y-115920000D03*
D13*
%TO.P,Y1,2,2_2*%
X183530000Y-115920000D03*
%TO.P,Y1,3,3_3*%
X183530000Y-117620000D03*
%TO.P,Y1,4,4_4*%
X185730000Y-117620000D03*
%TD*%
D10*
%TO.C,C5*%
%TO.CFtp,C_0402_1005Metric*%
%TO.CVal,100nF 0402*%
%TO.CLbN,Capacitor_SMD*%
%TO.CMnt,SMD*%
%TO.CRot,180*%
X191280000Y-110040000D03*
D11*
X192185000Y-109585000D02*
X192185000Y-110495000D01*
X190375000Y-110495000D01*
X190375000Y-109585000D01*
X192185000Y-109585000D01*
D12*
%TO.P,C5,1*%
X191760000Y-110040000D03*
D13*
%TO.P,C5,2*%
X190800000Y-110040000D03*
%TD*%
D10*
%TO.C,R19*%
%TO.CFtp,R_0402_1005Metric*%
%TO.CVal,2kR 0402*%
%TO.CLbN,Resistor_SMD*%
%TO.CMnt,SMD*%
%TO.CRot,90*%
X226980000Y-118420000D03*
D11*
X227445000Y-117495000D02*
X227445000Y-119345000D01*
X226515000Y-119345000D01*
X226515000Y-117495000D01*
X227445000Y-117495000D01*
D12*
%TO.P,R19,1*%
X226980000Y-118930000D03*
D13*
%TO.P,R19,2*%
X226980000Y-117910000D03*
%TD*%
D10*
%TO.C,C31*%
%TO.CFtp,C_0603_1608Metric*%
%TO.CVal,10uF 0603*%
%TO.CLbN,Capacitor_SMD*%
%TO.CMnt,SMD*%
%TO.CRot,90*%
X226850000Y-104350000D03*
D11*
X227575000Y-102875000D02*
X227575000Y-105825000D01*
X226125000Y-105825000D01*
X226125000Y-102875000D01*
X227575000Y-102875000D01*
D12*
%TO.P,C31,1*%
X226850000Y-105125000D03*
D13*
%TO.P,C31,2*%
X226850000Y-103575000D03*
%TD*%
D10*
%TO.C,C22*%
%TO.CFtp,C_0402_1005Metric*%
%TO.CVal,100nF 0402*%
%TO.CLbN,Capacitor_SMD*%
%TO.CMnt,SMD*%
%TO.CRot,180*%
X167820000Y-103150000D03*
D11*
X168725000Y-102695000D02*
X168725000Y-103605000D01*
X166915000Y-103605000D01*
X166915000Y-102695000D01*
X168725000Y-102695000D01*
D12*
%TO.P,C22,1*%
X168300000Y-103150000D03*
D13*
%TO.P,C22,2*%
X167340000Y-103150000D03*
%TD*%
D10*
%TO.C,C6*%
%TO.CFtp,C_0402_1005Metric*%
%TO.CVal,1uF 0402*%
%TO.CLbN,Capacitor_SMD*%
%TO.CMnt,SMD*%
%TO.CRot,0*%
X188120000Y-115470000D03*
D11*
X189025000Y-115015000D02*
X189025000Y-115925000D01*
X187215000Y-115925000D01*
X187215000Y-115015000D01*
X189025000Y-115015000D01*
D12*
%TO.P,C6,1*%
X187640000Y-115470000D03*
D13*
%TO.P,C6,2*%
X188600000Y-115470000D03*
%TD*%
D10*
%TO.C,C33*%
%TO.CFtp,C_0402_1005Metric*%
%TO.CVal,100nF 0402*%
%TO.CLbN,Capacitor_SMD*%
%TO.CMnt,SMD*%
%TO.CRot,90*%
X226550000Y-101890000D03*
D11*
X227005000Y-100985000D02*
X227005000Y-102795000D01*
X226095000Y-102795000D01*
X226095000Y-100985000D01*
X227005000Y-100985000D01*
D12*
%TO.P,C33,1*%
X226550000Y-102370000D03*
D13*
%TO.P,C33,2*%
X226550000Y-101410000D03*
%TD*%
D10*
%TO.C,C19*%
%TO.CFtp,C_0402_1005Metric*%
%TO.CVal,100nF 0402*%
%TO.CLbN,Capacitor_SMD*%
%TO.CMnt,SMD*%
%TO.CRot,0*%
X175800000Y-108600000D03*
D11*
X176705000Y-108145000D02*
X176705000Y-109055000D01*
X174895000Y-109055000D01*
X174895000Y-108145000D01*
X176705000Y-108145000D01*
D12*
%TO.P,C19,1*%
X175320000Y-108600000D03*
D13*
%TO.P,C19,2*%
X176280000Y-108600000D03*
%TD*%
D10*
%TO.C,J10*%
%TO.CFtp,USB_C_Receptacle_GCT_USB4105-xx-A_16P_TopMnt_Horizontal*%
%TO.CVal,TYPE-C 16PIN 2MD(073)*%
%TO.CLbN,Connector_USB*%
%TO.CMnt,SMD*%
%TO.CRot,180*%
X183160000Y-96580000D03*
D11*
X188475000Y-92405000D02*
X188475000Y-101335000D01*
X177845000Y-101335000D01*
X177845000Y-92405000D01*
X188475000Y-92405000D01*
D12*
%TO.P,J10,A1,GND_A1*%
X186360000Y-100260000D03*
D13*
%TO.P,J10,*%
X186050000Y-99185000D03*
X180270000Y-99185000D03*
%TO.P,J10,A4,VBUS_A4*%
X185560000Y-100260000D03*
%TO.P,J10,A5,CC1_A5*%
X184410000Y-100260000D03*
%TO.P,J10,A6,D+_A6*%
X183410000Y-100260000D03*
%TO.P,J10,A7,D-_A7*%
X182910000Y-100260000D03*
%TO.P,J10,A8,SBU1_A8*%
X181910000Y-100260000D03*
%TO.P,J10,A9,VBUS_A9*%
X180760000Y-100260000D03*
%TO.P,J10,A12,GND_A12*%
X179960000Y-100260000D03*
%TO.P,J10,B1,GND_B1*%
X179960000Y-100260000D03*
%TO.P,J10,B4,VBUS_B4*%
X180760000Y-100260000D03*
%TO.P,J10,B5,CC2_B5*%
X181410000Y-100260000D03*
%TO.P,J10,B6,D+_B6*%
X182410000Y-100260000D03*
%TO.P,J10,B7,D-_B7*%
X183910000Y-100260000D03*
%TO.P,J10,B8,SBU2_B8*%
X184910000Y-100260000D03*
%TO.P,J10,B9,VBUS_B9*%
X185560000Y-100260000D03*
%TO.P,J10,B12,GND_B12*%
X186360000Y-100260000D03*
%TO.P,J10,S1,SHIELD_S1*%
X187480000Y-99685000D03*
X187480000Y-95505000D03*
X178840000Y-99685000D03*
X178840000Y-95505000D03*
%TD*%
D10*
%TO.C,TP18*%
%TO.CFtp,TestPoint_Pad_1.0x1.0mm*%
%TO.CVal,TestPoint*%
%TO.CLbN,TestPoint*%
%TO.CMnt,Other*%
%TO.CRot,0*%
X150350000Y-124050000D03*
D11*
X151345000Y-123055000D02*
X151345000Y-125045000D01*
X149355000Y-125045000D01*
X149355000Y-123055000D01*
X151345000Y-123055000D01*
D12*
%TO.P,TP18,1,1_1*%
X150350000Y-124050000D03*
%TD*%
D10*
%TO.C,C11*%
%TO.CFtp,C_0402_1005Metric*%
%TO.CVal,0.1uF 0402*%
%TO.CLbN,Capacitor_SMD*%
%TO.CMnt,SMD*%
%TO.CRot,180*%
X179510000Y-105400000D03*
D11*
X180415000Y-104945000D02*
X180415000Y-105855000D01*
X178605000Y-105855000D01*
X178605000Y-104945000D01*
X180415000Y-104945000D01*
D12*
%TO.P,C11,1*%
X179990000Y-105400000D03*
D13*
%TO.P,C11,2*%
X179030000Y-105400000D03*
%TD*%
D10*
%TO.C,R1*%
%TO.CFtp,R_0402_1005Metric*%
%TO.CVal,10kR 0402*%
%TO.CLbN,Resistor_SMD*%
%TO.CMnt,SMD*%
%TO.CRot,-90*%
X150000000Y-103690000D03*
D11*
X150465000Y-102765000D02*
X150465000Y-104615000D01*
X149535000Y-104615000D01*
X149535000Y-102765000D01*
X150465000Y-102765000D01*
D12*
%TO.P,R1,1*%
X150000000Y-103180000D03*
D13*
%TO.P,R1,2*%
X150000000Y-104200000D03*
%TD*%
D10*
%TO.C,C13*%
%TO.CFtp,C_0402_1005Metric*%
%TO.CVal,0.1uF 0402*%
%TO.CLbN,Capacitor_SMD*%
%TO.CMnt,SMD*%
%TO.CRot,180*%
X179250000Y-114750000D03*
D11*
X180155000Y-114295000D02*
X180155000Y-115205000D01*
X178345000Y-115205000D01*
X178345000Y-114295000D01*
X180155000Y-114295000D01*
D12*
%TO.P,C13,1*%
X179730000Y-114750000D03*
D13*
%TO.P,C13,2*%
X178770000Y-114750000D03*
%TD*%
D10*
%TO.C,C7*%
%TO.CFtp,C_0402_1005Metric*%
%TO.CVal,100nF 0402*%
%TO.CLbN,Capacitor_SMD*%
%TO.CMnt,SMD*%
%TO.CRot,180*%
X189360000Y-111430000D03*
D11*
X190265000Y-110975000D02*
X190265000Y-111885000D01*
X188455000Y-111885000D01*
X188455000Y-110975000D01*
X190265000Y-110975000D01*
D12*
%TO.P,C7,1*%
X189840000Y-111430000D03*
D13*
%TO.P,C7,2*%
X188880000Y-111430000D03*
%TD*%
D10*
%TO.C,U4*%
%TO.CFtp,LGA-14_3x2.5mm_P0.5mm_LayoutBorder3x4y*%
%TO.CVal,LSM6DSM*%
%TO.CLbN,Package_LGA*%
%TO.CMnt,SMD*%
%TO.CRot,-90*%
X192975000Y-106745000D03*
D11*
X194470000Y-105000000D02*
X194470000Y-108490000D01*
X191480000Y-108490000D01*
X191480000Y-105000000D01*
X194470000Y-105000000D01*
D12*
%TO.P,U4,1,SDO/SA0_1*%
X193725000Y-105582500D03*
D13*
%TO.P,U4,2,SDX_2*%
X193225000Y-105582500D03*
%TO.P,U4,3,SCX_3*%
X192725000Y-105582500D03*
%TO.P,U4,4,INT1_4*%
X192225000Y-105582500D03*
%TO.P,U4,5,VDDIO_5*%
X192062500Y-106245000D03*
%TO.P,U4,6,GND_6*%
X192062500Y-106745000D03*
%TO.P,U4,7,GND_7*%
X192062500Y-107245000D03*
%TO.P,U4,8,VDD_8*%
X192225000Y-107907500D03*
%TO.P,U4,9,INT2_9*%
X192725000Y-107907500D03*
%TO.P,U4,10,OCS_Aux_10*%
X193225000Y-107907500D03*
%TO.P,U4,11,SDO_Aux_11*%
X193725000Y-107907500D03*
%TO.P,U4,12,CS_12*%
X193887500Y-107245000D03*
%TO.P,U4,13,SCL_13*%
X193887500Y-106745000D03*
%TO.P,U4,14,SDA_14*%
X193887500Y-106245000D03*
%TD*%
D10*
%TO.C,C18*%
%TO.CFtp,C_0402_1005Metric*%
%TO.CVal,100nF 0402*%
%TO.CLbN,Capacitor_SMD*%
%TO.CMnt,SMD*%
%TO.CRot,0*%
X173910000Y-108600000D03*
D11*
X174815000Y-108145000D02*
X174815000Y-109055000D01*
X173005000Y-109055000D01*
X173005000Y-108145000D01*
X174815000Y-108145000D01*
D12*
%TO.P,C18,1*%
X173430000Y-108600000D03*
D13*
%TO.P,C18,2*%
X174390000Y-108600000D03*
%TD*%
D10*
%TO.C,D3*%
%TO.CFtp,LED_0805_2012Metric*%
%TO.CVal,KT-0805Y*%
%TO.CLbN,LED_SMD*%
%TO.CMnt,SMD*%
%TO.CRot,0*%
X224750000Y-114300000D03*
D11*
X226425000Y-113355000D02*
X226425000Y-115245000D01*
X223075000Y-115245000D01*
X223075000Y-113355000D01*
X226425000Y-113355000D01*
D12*
%TO.P,D3,1,K_1*%
X223812500Y-114300000D03*
D13*
%TO.P,D3,2,A_2*%
X225687500Y-114300000D03*
%TD*%
D10*
%TO.C,C28*%
%TO.CFtp,C_0603_1608Metric*%
%TO.CVal,10uF 0603*%
%TO.CLbN,Capacitor_SMD*%
%TO.CMnt,SMD*%
%TO.CRot,90*%
X226930000Y-109145000D03*
D11*
X227655000Y-107670000D02*
X227655000Y-110620000D01*
X226205000Y-110620000D01*
X226205000Y-107670000D01*
X227655000Y-107670000D01*
D12*
%TO.P,C28,1*%
X226930000Y-109920000D03*
D13*
%TO.P,C28,2*%
X226930000Y-108370000D03*
%TD*%
D10*
%TO.C,J_HEATER2*%
%TO.CFtp,AMASS_XT30U-F_1x02_P5.0mm_Vertical*%
%TO.CVal,Conn_01x02_Pin*%
%TO.CLbN,Connector_AMASS*%
%TO.CMnt,TH*%
%TO.CRot,90*%
X213800000Y-100300000D03*
D11*
X216895000Y-92205000D02*
X216895000Y-101698307D01*
X215597529Y-103395000D01*
X212002471Y-103395000D01*
X210705000Y-101698307D01*
X210705000Y-92205000D01*
X216895000Y-92205000D01*
D12*
%TO.P,J_HEATER2,1,Pin_1_1*%
X213800000Y-100300000D03*
D13*
%TO.P,J_HEATER2,2,Pin_2_2*%
X213800000Y-95300000D03*
%TD*%
D10*
%TO.C,R15*%
%TO.CFtp,R_0402_1005Metric*%
%TO.CVal,5.1kR 0402*%
%TO.CLbN,Resistor_SMD*%
%TO.CMnt,SMD*%
%TO.CRot,-90*%
X184190000Y-102330000D03*
D11*
X184655000Y-101405000D02*
X184655000Y-103255000D01*
X183725000Y-103255000D01*
X183725000Y-101405000D01*
X184655000Y-101405000D01*
D12*
%TO.P,R15,1*%
X184190000Y-101820000D03*
D13*
%TO.P,R15,2*%
X184190000Y-102840000D03*
%TD*%
D10*
%TO.C,IC3*%
%TO.CFtp,SOIC127P600X175-14N*%
%TO.CVal,ISL83491IBZ-T*%
%TO.CLbN,ISL83491IBZ-T*%
%TO.CMnt,SMD*%
%TO.CRot,0*%
X165850000Y-108280000D03*
D11*
X169545000Y-103710000D02*
X169545000Y-112850000D01*
X162155000Y-112850000D01*
X162155000Y-103710000D01*
X169545000Y-103710000D01*
D12*
%TO.P,IC3,1,NC_1_1*%
X163150000Y-104470000D03*
D13*
%TO.P,IC3,2,RO_2*%
X163150000Y-105740000D03*
%TO.P,IC3,3,~{RE}_3*%
X163150000Y-107010000D03*
%TO.P,IC3,4,DE_4*%
X163150000Y-108280000D03*
%TO.P,IC3,5,DI_5*%
X163150000Y-109550000D03*
%TO.P,IC3,6,GND_1_6*%
X163150000Y-110820000D03*
%TO.P,IC3,7,GND_2_7*%
X163150000Y-112090000D03*
%TO.P,IC3,8,NC_2_8*%
X168550000Y-112090000D03*
%TO.P,IC3,9,Y_9*%
X168550000Y-110820000D03*
%TO.P,IC3,10,Z_10*%
X168550000Y-109550000D03*
%TO.P,IC3,11,B_11*%
X168550000Y-108280000D03*
%TO.P,IC3,12,A_12*%
X168550000Y-107010000D03*
%TO.P,IC3,13,VCC_1_13*%
X168550000Y-105740000D03*
%TO.P,IC3,14,VCC_2_14*%
X168550000Y-104470000D03*
%TD*%
D10*
%TO.C,J11*%
%TO.CFtp,JST_EH_S3B-EH_1x03_P2.50mm_Horizontal*%
%TO.CVal,Conn_01x03*%
%TO.CLbN,Connector_JST*%
%TO.CMnt,TH*%
%TO.CRot,0*%
X191670000Y-99542500D03*
D11*
X199665000Y-92347500D02*
X199665000Y-101537500D01*
X188675000Y-101537500D01*
X188675000Y-92347500D01*
X199665000Y-92347500D01*
D12*
%TO.P,J11,1,Pin_1_1*%
X191670000Y-99542500D03*
D13*
%TO.P,J11,2,Pin_2_2*%
X194170000Y-99542500D03*
%TO.P,J11,3,Pin_3_3*%
X196670000Y-99542500D03*
%TD*%
D10*
%TO.C,R2*%
%TO.CFtp,R_0402_1005Metric*%
%TO.CVal,2R 0402*%
%TO.CLbN,Resistor_SMD*%
%TO.CMnt,SMD*%
%TO.CRot,0*%
X186230000Y-114500000D03*
D11*
X187155000Y-114035000D02*
X187155000Y-114965000D01*
X185305000Y-114965000D01*
X185305000Y-114035000D01*
X187155000Y-114035000D01*
D12*
%TO.P,R2,1*%
X185720000Y-114500000D03*
D13*
%TO.P,R2,2*%
X186740000Y-114500000D03*
%TD*%
D10*
%TO.C,J4*%
%TO.CFtp,JST_EH_S6B-EH_1x06_P2.50mm_Horizontal*%
%TO.CVal,Conn_01x06_Pin*%
%TO.CLbN,Connector_JST*%
%TO.CMnt,TH*%
%TO.CRot,180*%
X226720000Y-124887500D03*
D11*
X229715000Y-122892500D02*
X229715000Y-132082500D01*
X211225000Y-132082500D01*
X211225000Y-122892500D01*
X229715000Y-122892500D01*
D12*
%TO.P,J4,1,Pin_1_1*%
X226720000Y-124887500D03*
D13*
%TO.P,J4,2,Pin_2_2*%
X224220000Y-124887500D03*
%TO.P,J4,3,Pin_3_3*%
X221720000Y-124887500D03*
%TO.P,J4,4,Pin_4_4*%
X219220000Y-124887500D03*
%TO.P,J4,5,Pin_5_5*%
X216720000Y-124887500D03*
%TO.P,J4,6,Pin_6_6*%
X214220000Y-124887500D03*
%TD*%
D10*
%TO.C,C32*%
%TO.CFtp,C_0603_1608Metric*%
%TO.CVal,10uF 0603*%
%TO.CLbN,Capacitor_SMD*%
%TO.CMnt,SMD*%
%TO.CRot,127*%
X161451839Y-121306315D03*
D11*
X162918527Y-122047986D02*
X161760505Y-122920619D01*
X159985150Y-120564643D01*
X161143172Y-119692010D01*
X162918527Y-122047986D01*
D12*
%TO.P,C32,1*%
X161918246Y-121925258D03*
D13*
%TO.P,C32,2*%
X160985432Y-120687372D03*
%TD*%
D10*
%TO.C,R_G3*%
%TO.CFtp,R_0402_1005Metric*%
%TO.CVal,100R 0402*%
%TO.CLbN,Resistor_SMD*%
%TO.CMnt,SMD*%
%TO.CRot,-90*%
X220850000Y-105200000D03*
D11*
X221315000Y-104275000D02*
X221315000Y-106125000D01*
X220385000Y-106125000D01*
X220385000Y-104275000D01*
X221315000Y-104275000D01*
D12*
%TO.P,R_G3,1*%
X220850000Y-104690000D03*
D13*
%TO.P,R_G3,2*%
X220850000Y-105710000D03*
%TD*%
D10*
%TO.C,R4*%
%TO.CFtp,R_0402_1005Metric*%
%TO.CVal,1kR 0402*%
%TO.CLbN,Resistor_SMD*%
%TO.CMnt,SMD*%
%TO.CRot,-90*%
X226987500Y-116370000D03*
D11*
X227452500Y-115445000D02*
X227452500Y-117295000D01*
X226522500Y-117295000D01*
X226522500Y-115445000D01*
X227452500Y-115445000D01*
D12*
%TO.P,R4,1*%
X226987500Y-115860000D03*
D13*
%TO.P,R4,2*%
X226987500Y-116880000D03*
%TD*%
M02*
