%TF.GenerationSoftware,KiCad,Pcbnew,10.0.1*%
%TF.CreationDate,2026-08-01T20:51:21+02:00*%
%TF.ProjectId,Pressure_sensor_board,50726573-7375-4726-955f-73656e736f72,rev?*%
%TF.SameCoordinates,Original*%
%TF.FileFunction,Copper,L1,Top*%
%TF.FilePolarity,Positive*%
%FSLAX46Y46*%
G04 Gerber Fmt 4.6, Leading zero omitted, Abs format (unit mm)*
G04 Created by KiCad (PCBNEW 10.0.1) date 2026-08-01 20:51:21*
%MOMM*%
%LPD*%
G01*
G04 APERTURE LIST*
G04 Aperture macros list*
%AMRoundRect*
0 Rectangle with rounded corners*
0 $1 Rounding radius*
0 $2 $3 $4 $5 $6 $7 $8 $9 X,Y pos of 4 corners*
0 Add a 4 corners polygon primitive as box body*
4,1,4,$2,$3,$4,$5,$6,$7,$8,$9,$2,$3,0*
0 Add four circle primitives for the rounded corners*
1,1,$1+$1,$2,$3*
1,1,$1+$1,$4,$5*
1,1,$1+$1,$6,$7*
1,1,$1+$1,$8,$9*
0 Add four rect primitives between the rounded corners*
20,1,$1+$1,$2,$3,$4,$5,0*
20,1,$1+$1,$4,$5,$6,$7,0*
20,1,$1+$1,$6,$7,$8,$9,0*
20,1,$1+$1,$8,$9,$2,$3,0*%
G04 Aperture macros list end*
%TA.AperFunction,SMDPad,CuDef*%
%ADD10C,1.500000*%
%TD*%
%TA.AperFunction,ComponentPad*%
%ADD11RoundRect,0.250000X0.350000X0.650000X-0.350000X0.650000X-0.350000X-0.650000X0.350000X-0.650000X0*%
%TD*%
%TA.AperFunction,ComponentPad*%
%ADD12O,1.200000X1.800000*%
%TD*%
%TA.AperFunction,ComponentPad*%
%ADD13C,1.251000*%
%TD*%
%TA.AperFunction,SMDPad,CuDef*%
%ADD14RoundRect,0.225000X0.250000X-0.225000X0.250000X0.225000X-0.250000X0.225000X-0.250000X-0.225000X0*%
%TD*%
%TA.AperFunction,ViaPad*%
%ADD15C,0.600000*%
%TD*%
%TA.AperFunction,Conductor*%
%ADD16C,0.200000*%
%TD*%
G04 APERTURE END LIST*
D10*
%TO.P,TP3,1,1_1*%
%TO.N,SPI_SCK*%
X157680000Y-99890000D03*
%TD*%
%TO.P,TP1,1,1_1*%
%TO.N,GND*%
X154760000Y-100540000D03*
%TD*%
D11*
%TO.P,J1,1,Pin_1_1*%
%TO.N,GND*%
X150690000Y-100700000D03*
D12*
%TO.P,J1,2,Pin_2_2*%
%TO.N,+3.3V*%
X148690000Y-100700000D03*
%TO.P,J1,3,Pin_3_3*%
%TO.N,SPI_SCK*%
X146690000Y-100700000D03*
%TO.P,J1,4,Pin_4_4*%
%TO.N,SPI_MISO*%
X144690000Y-100700000D03*
%TO.P,J1,5,Pin_5_5*%
%TO.N,CS_ABP*%
X142690000Y-100700000D03*
%TD*%
D10*
%TO.P,TP4,1,1_1*%
%TO.N,SPI_MISO*%
X156320000Y-96230000D03*
%TD*%
D13*
%TO.P,IC1,1,GND_1*%
%TO.N,GND*%
X152535500Y-90960000D03*
%TO.P,IC1,2,VSUPPLY_2*%
%TO.N,+3.3V*%
X152535500Y-93500000D03*
%TO.P,IC1,3,SS_3*%
%TO.N,CS_ABP*%
X152535500Y-96040000D03*
%TO.P,IC1,4,NC_4*%
%TO.N,unconnected-(IC1-NC-Pad4)*%
X141285500Y-96040000D03*
%TO.P,IC1,5,MISO_5*%
%TO.N,SPI_MISO*%
X141285500Y-93500000D03*
%TO.P,IC1,6,SCLK_6*%
%TO.N,SPI_SCK*%
X141285500Y-90960000D03*
%TD*%
D10*
%TO.P,TP2,1,1_1*%
%TO.N,+3.3V*%
X136180000Y-97310000D03*
%TD*%
%TO.P,TP5,1,1_1*%
%TO.N,CS_ABP*%
X137900000Y-100550000D03*
%TD*%
D14*
%TO.P,C1,1*%
%TO.N,GND*%
X138750000Y-95225000D03*
%TO.P,C1,2*%
%TO.N,+3.3V*%
X138750000Y-93675000D03*
%TD*%
D15*
%TO.N,SPI_SCK*%
X145920000Y-99080000D03*
X147490000Y-102220000D03*
X146570000Y-102670000D03*
X145920000Y-90910000D03*
%TO.N,GND*%
X152150000Y-100120000D03*
%TO.N,+3.3V*%
X146520000Y-93090000D03*
X135810000Y-93320000D03*
X150570000Y-98760000D03*
X150660000Y-93600000D03*
X148113241Y-99373985D03*
X146570988Y-98615008D03*
X135850000Y-95990000D03*
X148410000Y-98740000D03*
%TO.N,SPI_MISO*%
X145130000Y-93550000D03*
X145145903Y-98878062D03*
%TO.N,CS_ABP*%
X142720000Y-96130000D03*
X142670000Y-99210000D03*
%TD*%
%TO.N,SPI_SCK*%
D16*
X147490000Y-101500000D02*
X146690000Y-100700000D01*
X145870000Y-90960000D02*
X145920000Y-90910000D01*
X141285500Y-90960000D02*
X145870000Y-90960000D01*
X147490000Y-102220000D02*
X147490000Y-101500000D01*
X145920000Y-99080000D02*
X145920000Y-99930000D01*
X156720000Y-102670000D02*
X146570000Y-102670000D01*
X145920000Y-99930000D02*
X146690000Y-100700000D01*
X157680000Y-101710000D02*
X156720000Y-102670000D01*
X157680000Y-99890000D02*
X157680000Y-101710000D01*
%TO.N,+3.3V*%
X138750000Y-93290000D02*
X138750000Y-93675000D01*
X150550000Y-98780000D02*
X148450000Y-98780000D01*
X148410000Y-98740000D02*
X146695980Y-98740000D01*
X136165000Y-93675000D02*
X138750000Y-93675000D01*
X152535500Y-93500000D02*
X150760000Y-93500000D01*
X150570000Y-98760000D02*
X150550000Y-98780000D01*
X139465500Y-92574500D02*
X138750000Y-93290000D01*
X136180000Y-97310000D02*
X136180000Y-96320000D01*
X146695980Y-98740000D02*
X146570988Y-98615008D01*
X136180000Y-96320000D02*
X135850000Y-95990000D01*
X146004500Y-92574500D02*
X139465500Y-92574500D01*
X148450000Y-98780000D02*
X148410000Y-98740000D01*
X148113241Y-100123241D02*
X148690000Y-100700000D01*
X148113241Y-99373985D02*
X148113241Y-100123241D01*
X135810000Y-93320000D02*
X136165000Y-93675000D01*
X150760000Y-93500000D02*
X150660000Y-93600000D01*
X146520000Y-93090000D02*
X146004500Y-92574500D01*
%TO.N,SPI_MISO*%
X156320000Y-96230000D02*
X155200000Y-96230000D01*
X144690000Y-99333965D02*
X144690000Y-100700000D01*
X145145903Y-98878062D02*
X144690000Y-99333965D01*
X141285500Y-93500000D02*
X145080000Y-93500000D01*
X155200000Y-96230000D02*
X153750000Y-97680000D01*
X145080000Y-93500000D02*
X145130000Y-93550000D01*
X153750000Y-97680000D02*
X146343965Y-97680000D01*
X146343965Y-97680000D02*
X145145903Y-98878062D01*
%TO.N,CS_ABP*%
X142810000Y-96040000D02*
X142720000Y-96130000D01*
X152535500Y-96040000D02*
X142810000Y-96040000D01*
X142540000Y-100550000D02*
X142690000Y-100700000D01*
X137900000Y-100550000D02*
X142540000Y-100550000D01*
X142670000Y-100680000D02*
X142690000Y-100700000D01*
X142670000Y-99210000D02*
X142670000Y-100680000D01*
%TD*%
%TA.AperFunction,Conductor*%
%TO.N,GND*%
G36*
X158852539Y-88255185D02*
G01*
X158898294Y-88307989D01*
X158909500Y-88359500D01*
X158909500Y-99073150D01*
X158889815Y-99140189D01*
X158837011Y-99185944D01*
X158767853Y-99195888D01*
X158704297Y-99166863D01*
X158685183Y-99146036D01*
X158633832Y-99075360D01*
X158633828Y-99075354D01*
X158494646Y-98936172D01*
X158335405Y-98820476D01*
X158295042Y-98799910D01*
X158160029Y-98731117D01*
X157972826Y-98670290D01*
X157778422Y-98639500D01*
X157778417Y-98639500D01*
X157581583Y-98639500D01*
X157581578Y-98639500D01*
X157387173Y-98670290D01*
X157199970Y-98731117D01*
X157024594Y-98820476D01*
X156933741Y-98886485D01*
X156865354Y-98936172D01*
X156865352Y-98936174D01*
X156865351Y-98936174D01*
X156726174Y-99075351D01*
X156726174Y-99075352D01*
X156726172Y-99075354D01*
X156685630Y-99131155D01*
X156610476Y-99234594D01*
X156521117Y-99409970D01*
X156460290Y-99597173D01*
X156429500Y-99791577D01*
X156429500Y-99988422D01*
X156460290Y-100182826D01*
X156521117Y-100370029D01*
X156607722Y-100540000D01*
X156610476Y-100545405D01*
X156726172Y-100704646D01*
X156865354Y-100843828D01*
X157024595Y-100959524D01*
X157028386Y-100962278D01*
X157071051Y-101017608D01*
X157079500Y-101062596D01*
X157079500Y-101409903D01*
X157059815Y-101476942D01*
X157043181Y-101497584D01*
X156507584Y-102033181D01*
X156446261Y-102066666D01*
X156419903Y-102069500D01*
X149471874Y-102069500D01*
X149404835Y-102049815D01*
X149359080Y-101997011D01*
X149349136Y-101927853D01*
X149378161Y-101864297D01*
X149398989Y-101845182D01*
X149406928Y-101839414D01*
X149529414Y-101716928D01*
X149626227Y-101583677D01*
X154069873Y-101583677D01*
X154069873Y-101583678D01*
X154104858Y-101609096D01*
X154280164Y-101698418D01*
X154467294Y-101759221D01*
X154661618Y-101790000D01*
X154858382Y-101790000D01*
X155052705Y-101759221D01*
X155239835Y-101698418D01*
X155415143Y-101609095D01*
X155450125Y-101583678D01*
X155450126Y-101583678D01*
X154760001Y-100893553D01*
X154760000Y-100893553D01*
X154069873Y-101583677D01*
X149626227Y-101583677D01*
X149631232Y-101576788D01*
X149709873Y-101422445D01*
X149763402Y-101257701D01*
X149790500Y-101086611D01*
X149790500Y-100441617D01*
X153510000Y-100441617D01*
X153510000Y-100638382D01*
X153540778Y-100832705D01*
X153601581Y-101019835D01*
X153690905Y-101195145D01*
X153716319Y-101230125D01*
X153716320Y-101230125D01*
X154406446Y-100540000D01*
X154406446Y-100539999D01*
X155113553Y-100539999D01*
X155113553Y-100540001D01*
X155803678Y-101230126D01*
X155803678Y-101230125D01*
X155829095Y-101195143D01*
X155918418Y-101019835D01*
X155979221Y-100832705D01*
X156010000Y-100638382D01*
X156010000Y-100441617D01*
X155979221Y-100247294D01*
X155918418Y-100060164D01*
X155829096Y-99884858D01*
X155803678Y-99849873D01*
X155803677Y-99849873D01*
X155113553Y-100539999D01*
X154406446Y-100539999D01*
X153716320Y-99849872D01*
X153716320Y-99849873D01*
X153690902Y-99884859D01*
X153690899Y-99884863D01*
X153601582Y-100060161D01*
X153540778Y-100247294D01*
X153510000Y-100441617D01*
X149790500Y-100441617D01*
X149790500Y-100313389D01*
X149763402Y-100142299D01*
X149709873Y-99977555D01*
X149631232Y-99823212D01*
X149529414Y-99683072D01*
X149438523Y-99592181D01*
X149405038Y-99530858D01*
X149410022Y-99461166D01*
X149451894Y-99405233D01*
X149517358Y-99380816D01*
X149526204Y-99380500D01*
X150020166Y-99380500D01*
X150087205Y-99400185D01*
X150089057Y-99401398D01*
X150190814Y-99469390D01*
X150190827Y-99469397D01*
X150296412Y-99513131D01*
X150336503Y-99529737D01*
X150491153Y-99560499D01*
X150491156Y-99560500D01*
X150491158Y-99560500D01*
X150648844Y-99560500D01*
X150648845Y-99560499D01*
X150803497Y-99529737D01*
X150884171Y-99496320D01*
X154069872Y-99496320D01*
X154760000Y-100186446D01*
X154760001Y-100186446D01*
X155450125Y-99496320D01*
X155450125Y-99496319D01*
X155415145Y-99470905D01*
X155239835Y-99381581D01*
X155052705Y-99320778D01*
X154858382Y-99290000D01*
X154661618Y-99290000D01*
X154467294Y-99320778D01*
X154280161Y-99381582D01*
X154104863Y-99470899D01*
X154104859Y-99470902D01*
X154069873Y-99496320D01*
X154069872Y-99496320D01*
X150884171Y-99496320D01*
X150916166Y-99483067D01*
X150949172Y-99469397D01*
X150949172Y-99469396D01*
X150949179Y-99469394D01*
X150965082Y-99458768D01*
X150992457Y-99440477D01*
X151033541Y-99413025D01*
X151080289Y-99381789D01*
X151191789Y-99270289D01*
X151279394Y-99139179D01*
X151282719Y-99131153D01*
X151339735Y-98993501D01*
X151339737Y-98993497D01*
X151370500Y-98838842D01*
X151370500Y-98681158D01*
X151370500Y-98681155D01*
X151370499Y-98681153D01*
X151352012Y-98588213D01*
X151339737Y-98526503D01*
X151308856Y-98451950D01*
X151301388Y-98382484D01*
X151332663Y-98320004D01*
X151392752Y-98284352D01*
X151423418Y-98280500D01*
X153663331Y-98280500D01*
X153663347Y-98280501D01*
X153670943Y-98280501D01*
X153829054Y-98280501D01*
X153829057Y-98280501D01*
X153981785Y-98239577D01*
X154049601Y-98200423D01*
X154118716Y-98160520D01*
X154230520Y-98048716D01*
X154230520Y-98048714D01*
X154240724Y-98038511D01*
X154240728Y-98038506D01*
X155212699Y-97066535D01*
X155274022Y-97033050D01*
X155343714Y-97038034D01*
X155388061Y-97066535D01*
X155505354Y-97183828D01*
X155664595Y-97299524D01*
X155747455Y-97341743D01*
X155839970Y-97388882D01*
X155839972Y-97388882D01*
X155839975Y-97388884D01*
X155940317Y-97421487D01*
X156027173Y-97449709D01*
X156221578Y-97480500D01*
X156221583Y-97480500D01*
X156418422Y-97480500D01*
X156612826Y-97449709D01*
X156800025Y-97388884D01*
X156975405Y-97299524D01*
X157134646Y-97183828D01*
X157273828Y-97044646D01*
X157389524Y-96885405D01*
X157478884Y-96710025D01*
X157539709Y-96522826D01*
X157544060Y-96495354D01*
X157570500Y-96328422D01*
X157570500Y-96131577D01*
X157539709Y-95937173D01*
X157511487Y-95850317D01*
X157478884Y-95749975D01*
X157478882Y-95749972D01*
X157478882Y-95749970D01*
X157413194Y-95621050D01*
X157389524Y-95574595D01*
X157273828Y-95415354D01*
X157134646Y-95276172D01*
X156975405Y-95160476D01*
X156800029Y-95071117D01*
X156612826Y-95010290D01*
X156418422Y-94979500D01*
X156418417Y-94979500D01*
X156221583Y-94979500D01*
X156221578Y-94979500D01*
X156027173Y-95010290D01*
X155839970Y-95071117D01*
X155664594Y-95160476D01*
X155624647Y-95189500D01*
X155505354Y-95276172D01*
X155505352Y-95276174D01*
X155505351Y-95276174D01*
X155366173Y-95415352D01*
X155247722Y-95578385D01*
X155192391Y-95621050D01*
X155147404Y-95629499D01*
X155120943Y-95629499D01*
X155044579Y-95649961D01*
X154968214Y-95670423D01*
X154968209Y-95670426D01*
X154831290Y-95749475D01*
X154831282Y-95749481D01*
X153537584Y-97043181D01*
X153510656Y-97057884D01*
X153484838Y-97074477D01*
X153478637Y-97075368D01*
X153476261Y-97076666D01*
X153449903Y-97079500D01*
X153387767Y-97079500D01*
X153320728Y-97059815D01*
X153274973Y-97007011D01*
X153265029Y-96937853D01*
X153294054Y-96874297D01*
X153300086Y-96867819D01*
X153337935Y-96829970D01*
X153394365Y-96773540D01*
X153498542Y-96630153D01*
X153579005Y-96472234D01*
X153616716Y-96356172D01*
X153633773Y-96303676D01*
X153633773Y-96303675D01*
X153633774Y-96303672D01*
X153661500Y-96128618D01*
X153661500Y-95951382D01*
X153633774Y-95776328D01*
X153633773Y-95776324D01*
X153633773Y-95776323D01*
X153579006Y-95607768D01*
X153579004Y-95607765D01*
X153573829Y-95597607D01*
X153498542Y-95449847D01*
X153394365Y-95306460D01*
X153269040Y-95181135D01*
X153125653Y-95076958D01*
X152967734Y-94996495D01*
X152967731Y-94996493D01*
X152799174Y-94941726D01*
X152682469Y-94923242D01*
X152624118Y-94914000D01*
X152446882Y-94914000D01*
X152388530Y-94923242D01*
X152271826Y-94941726D01*
X152271823Y-94941726D01*
X152103268Y-94996493D01*
X152103265Y-94996495D01*
X151945346Y-95076958D01*
X151863538Y-95136395D01*
X151801960Y-95181135D01*
X151801958Y-95181137D01*
X151801957Y-95181137D01*
X151676637Y-95306457D01*
X151676632Y-95306463D01*
X151617113Y-95388385D01*
X151561783Y-95431051D01*
X151516795Y-95439500D01*
X143165071Y-95439500D01*
X143105361Y-95421967D01*
X143104553Y-95423479D01*
X143099181Y-95420607D01*
X143099179Y-95420606D01*
X143099176Y-95420605D01*
X143099171Y-95420602D01*
X142953501Y-95360264D01*
X142953489Y-95360261D01*
X142798845Y-95329500D01*
X142798842Y-95329500D01*
X142641158Y-95329500D01*
X142641155Y-95329500D01*
X142486510Y-95360261D01*
X142486498Y-95360264D01*
X142343870Y-95419342D01*
X142274400Y-95426811D01*
X142211921Y-95395535D01*
X142196100Y-95377667D01*
X142183454Y-95360261D01*
X142144365Y-95306460D01*
X142019040Y-95181135D01*
X141875653Y-95076958D01*
X141717734Y-94996495D01*
X141717731Y-94996493D01*
X141549174Y-94941726D01*
X141432469Y-94923242D01*
X141374118Y-94914000D01*
X141196882Y-94914000D01*
X141138530Y-94923242D01*
X141021826Y-94941726D01*
X141021823Y-94941726D01*
X140853268Y-94996493D01*
X140853265Y-94996495D01*
X140695346Y-95076958D01*
X140613538Y-95136395D01*
X140551960Y-95181135D01*
X140551958Y-95181137D01*
X140551957Y-95181137D01*
X140426637Y-95306457D01*
X140426637Y-95306458D01*
X140426635Y-95306460D01*
X140387546Y-95360261D01*
X140322458Y-95449846D01*
X140241995Y-95607765D01*
X140241993Y-95607768D01*
X140187226Y-95776323D01*
X140187226Y-95776326D01*
X140187226Y-95776328D01*
X140159500Y-95951382D01*
X140159500Y-96128618D01*
X140166798Y-96174694D01*
X140187226Y-96303673D01*
X140187226Y-96303676D01*
X140241993Y-96472231D01*
X140241995Y-96472234D01*
X140322458Y-96630153D01*
X140426635Y-96773540D01*
X140551960Y-96898865D01*
X140695347Y-97003042D01*
X140853266Y-97083505D01*
X140853268Y-97083506D01*
X140966888Y-97120423D01*
X141021828Y-97138274D01*
X141196882Y-97166000D01*
X141196883Y-97166000D01*
X141374117Y-97166000D01*
X141374118Y-97166000D01*
X141549172Y-97138274D01*
X141549175Y-97138273D01*
X141549176Y-97138273D01*
X141717731Y-97083506D01*
X141717731Y-97083505D01*
X141717734Y-97083505D01*
X141875653Y-97003042D01*
X142019040Y-96898865D01*
X142111622Y-96806282D01*
X142172941Y-96772800D01*
X142242633Y-96777784D01*
X142268190Y-96790863D01*
X142340821Y-96839394D01*
X142340823Y-96839395D01*
X142340827Y-96839397D01*
X142484398Y-96898865D01*
X142486503Y-96899737D01*
X142634331Y-96929142D01*
X142641153Y-96930499D01*
X142641156Y-96930500D01*
X142641158Y-96930500D01*
X142798844Y-96930500D01*
X142798845Y-96930499D01*
X142953497Y-96899737D01*
X143099179Y-96839394D01*
X143230289Y-96751789D01*
X143305260Y-96676817D01*
X143366581Y-96643334D01*
X143392940Y-96640500D01*
X151516795Y-96640500D01*
X151583834Y-96660185D01*
X151617113Y-96691615D01*
X151676632Y-96773536D01*
X151676637Y-96773542D01*
X151770914Y-96867819D01*
X151804399Y-96929142D01*
X151799415Y-96998834D01*
X151757543Y-97054767D01*
X151692079Y-97079184D01*
X151683233Y-97079500D01*
X146430635Y-97079500D01*
X146430619Y-97079499D01*
X146423023Y-97079499D01*
X146264908Y-97079499D01*
X146188544Y-97099961D01*
X146112179Y-97120423D01*
X146112174Y-97120426D01*
X145975255Y-97199475D01*
X145975247Y-97199481D01*
X145131242Y-98043487D01*
X145069919Y-98076972D01*
X145067753Y-98077423D01*
X144912411Y-98108323D01*
X144912401Y-98108326D01*
X144766730Y-98168664D01*
X144766717Y-98168671D01*
X144635614Y-98256272D01*
X144635610Y-98256275D01*
X144524116Y-98367769D01*
X144524113Y-98367773D01*
X144436512Y-98498876D01*
X144436505Y-98498889D01*
X144376167Y-98644560D01*
X144376164Y-98644570D01*
X144345265Y-98799910D01*
X144338554Y-98813759D01*
X144336849Y-98826331D01*
X144322041Y-98847839D01*
X144318004Y-98856173D01*
X144314809Y-98859919D01*
X144209480Y-98965249D01*
X144182613Y-99011785D01*
X144176942Y-99021605D01*
X144176941Y-99021608D01*
X144130424Y-99102178D01*
X144130423Y-99102180D01*
X144089499Y-99254908D01*
X144089499Y-99254910D01*
X144089499Y-99412814D01*
X144069814Y-99479853D01*
X144038386Y-99513131D01*
X143973072Y-99560585D01*
X143850588Y-99683069D01*
X143850581Y-99683078D01*
X143790317Y-99766023D01*
X143771821Y-99780285D01*
X143756421Y-99797847D01*
X143744670Y-99801221D01*
X143734987Y-99808689D01*
X143711714Y-99810687D01*
X143689266Y-99817135D01*
X143677555Y-99813620D01*
X143665374Y-99814667D01*
X143644716Y-99803767D01*
X143622344Y-99797054D01*
X143610291Y-99785602D01*
X143603579Y-99782061D01*
X143595808Y-99773784D01*
X143592587Y-99770022D01*
X143529414Y-99683072D01*
X143451021Y-99604679D01*
X143447908Y-99601043D01*
X143435469Y-99573373D01*
X143420934Y-99546754D01*
X143421286Y-99541824D01*
X143419260Y-99537316D01*
X143423754Y-99507317D01*
X143425918Y-99477062D01*
X143427522Y-99472985D01*
X143439737Y-99443497D01*
X143470500Y-99288842D01*
X143470500Y-99131158D01*
X143470500Y-99131155D01*
X143470499Y-99131153D01*
X143443117Y-98993497D01*
X143439737Y-98976503D01*
X143439735Y-98976498D01*
X143379397Y-98830827D01*
X143379390Y-98830814D01*
X143291789Y-98699711D01*
X143291786Y-98699707D01*
X143180292Y-98588213D01*
X143180288Y-98588210D01*
X143049185Y-98500609D01*
X143049172Y-98500602D01*
X142903501Y-98440264D01*
X142903489Y-98440261D01*
X142748845Y-98409500D01*
X142748842Y-98409500D01*
X142591158Y-98409500D01*
X142591155Y-98409500D01*
X142436510Y-98440261D01*
X142436498Y-98440264D01*
X142290827Y-98500602D01*
X142290814Y-98500609D01*
X142159711Y-98588210D01*
X142159707Y-98588213D01*
X142048213Y-98699707D01*
X142048210Y-98699711D01*
X141960609Y-98830814D01*
X141960602Y-98830827D01*
X141900264Y-98976498D01*
X141900261Y-98976510D01*
X141869500Y-99131153D01*
X141869500Y-99288846D01*
X141900260Y-99443488D01*
X141900261Y-99443489D01*
X141900263Y-99443497D01*
X141924176Y-99501229D01*
X141931644Y-99570697D01*
X141900368Y-99633176D01*
X141897297Y-99636358D01*
X141850592Y-99683064D01*
X141850590Y-99683066D01*
X141748770Y-99823207D01*
X141748766Y-99823214D01*
X141730000Y-99860046D01*
X141718918Y-99881795D01*
X141670947Y-99932590D01*
X141608435Y-99949500D01*
X139072596Y-99949500D01*
X139005557Y-99929815D01*
X138972278Y-99898386D01*
X138962450Y-99884859D01*
X138853828Y-99735354D01*
X138714646Y-99596172D01*
X138555405Y-99480476D01*
X138548705Y-99477062D01*
X138380029Y-99391117D01*
X138192826Y-99330290D01*
X137998422Y-99299500D01*
X137998417Y-99299500D01*
X137801583Y-99299500D01*
X137801578Y-99299500D01*
X137607173Y-99330290D01*
X137419970Y-99391117D01*
X137244594Y-99480476D01*
X137166362Y-99537316D01*
X137085354Y-99596172D01*
X137085352Y-99596174D01*
X137085351Y-99596174D01*
X136946174Y-99735351D01*
X136946174Y-99735352D01*
X136946172Y-99735354D01*
X136905323Y-99791577D01*
X136830476Y-99894594D01*
X136741117Y-100069970D01*
X136680290Y-100257173D01*
X136649500Y-100451577D01*
X136649500Y-100648422D01*
X136680290Y-100842826D01*
X136741117Y-101030029D01*
X136825247Y-101195143D01*
X136830476Y-101205405D01*
X136946172Y-101364646D01*
X137085354Y-101503828D01*
X137244595Y-101619524D01*
X137272959Y-101633976D01*
X137419970Y-101708882D01*
X137419972Y-101708882D01*
X137419975Y-101708884D01*
X137520317Y-101741487D01*
X137607173Y-101769709D01*
X137801578Y-101800500D01*
X137801583Y-101800500D01*
X137998422Y-101800500D01*
X138192826Y-101769709D01*
X138380025Y-101708884D01*
X138555405Y-101619524D01*
X138714646Y-101503828D01*
X138853828Y-101364646D01*
X138969524Y-101205405D01*
X138969524Y-101205403D01*
X138972278Y-101201614D01*
X139027608Y-101158949D01*
X139072596Y-101150500D01*
X141493713Y-101150500D01*
X141560752Y-101170185D01*
X141606507Y-101222989D01*
X141616185Y-101255098D01*
X141616598Y-101257701D01*
X141670127Y-101422445D01*
X141748768Y-101576788D01*
X141850586Y-101716928D01*
X141973072Y-101839414D01*
X142113212Y-101941232D01*
X142267555Y-102019873D01*
X142432299Y-102073402D01*
X142603389Y-102100500D01*
X142603390Y-102100500D01*
X142776610Y-102100500D01*
X142776611Y-102100500D01*
X142947701Y-102073402D01*
X143112445Y-102019873D01*
X143266788Y-101941232D01*
X143406928Y-101839414D01*
X143529414Y-101716928D01*
X143589682Y-101633975D01*
X143645012Y-101591311D01*
X143714626Y-101585332D01*
X143776421Y-101617938D01*
X143790315Y-101633973D01*
X143850586Y-101716928D01*
X143973072Y-101839414D01*
X144113212Y-101941232D01*
X144267555Y-102019873D01*
X144432299Y-102073402D01*
X144603389Y-102100500D01*
X144603390Y-102100500D01*
X144776610Y-102100500D01*
X144776611Y-102100500D01*
X144947701Y-102073402D01*
X145112445Y-102019873D01*
X145266788Y-101941232D01*
X145406928Y-101839414D01*
X145529414Y-101716928D01*
X145589682Y-101633975D01*
X145645012Y-101591311D01*
X145714626Y-101585332D01*
X145776421Y-101617938D01*
X145790315Y-101633973D01*
X145850586Y-101716928D01*
X145973072Y-101839414D01*
X146026728Y-101878398D01*
X146069394Y-101933726D01*
X146075373Y-102003340D01*
X146042768Y-102065135D01*
X146041525Y-102066396D01*
X145948210Y-102159711D01*
X145860609Y-102290814D01*
X145860602Y-102290827D01*
X145800264Y-102436498D01*
X145800261Y-102436510D01*
X145769500Y-102591153D01*
X145769500Y-102748846D01*
X145800261Y-102903489D01*
X145800264Y-102903501D01*
X145860602Y-103049172D01*
X145860609Y-103049185D01*
X145948210Y-103180288D01*
X145948213Y-103180292D01*
X146059707Y-103291786D01*
X146059711Y-103291789D01*
X146190814Y-103379390D01*
X146190827Y-103379397D01*
X146336498Y-103439735D01*
X146336503Y-103439737D01*
X146491153Y-103470499D01*
X146491156Y-103470500D01*
X146491158Y-103470500D01*
X146648844Y-103470500D01*
X146648845Y-103470499D01*
X146803497Y-103439737D01*
X146949179Y-103379394D01*
X146949185Y-103379390D01*
X147080875Y-103291398D01*
X147147553Y-103270520D01*
X147149766Y-103270500D01*
X156633331Y-103270500D01*
X156633347Y-103270501D01*
X156640943Y-103270501D01*
X156799054Y-103270501D01*
X156799057Y-103270501D01*
X156951785Y-103229577D01*
X157001904Y-103200639D01*
X157088716Y-103150520D01*
X157200520Y-103038716D01*
X157200520Y-103038714D01*
X157210728Y-103028507D01*
X157210730Y-103028504D01*
X158038506Y-102200728D01*
X158038511Y-102200724D01*
X158048714Y-102190520D01*
X158048716Y-102190520D01*
X158160520Y-102078716D01*
X158217214Y-101980519D01*
X158239577Y-101941785D01*
X158280501Y-101789057D01*
X158280501Y-101630943D01*
X158280501Y-101623348D01*
X158280500Y-101623330D01*
X158280500Y-101062596D01*
X158300185Y-100995557D01*
X158331614Y-100962278D01*
X158335403Y-100959524D01*
X158335405Y-100959524D01*
X158494646Y-100843828D01*
X158633828Y-100704646D01*
X158685183Y-100633962D01*
X158740512Y-100591298D01*
X158810126Y-100585319D01*
X158871921Y-100617925D01*
X158906278Y-100678764D01*
X158909500Y-100706849D01*
X158909500Y-107110500D01*
X158889815Y-107177539D01*
X158837011Y-107223294D01*
X158785500Y-107234500D01*
X135034500Y-107234500D01*
X134967461Y-107214815D01*
X134921706Y-107162011D01*
X134910500Y-107110500D01*
X134910500Y-104943713D01*
X135719500Y-104943713D01*
X135719500Y-105156286D01*
X135752753Y-105366239D01*
X135818444Y-105568414D01*
X135914951Y-105757820D01*
X136039890Y-105929786D01*
X136190213Y-106080109D01*
X136362179Y-106205048D01*
X136362181Y-106205049D01*
X136362184Y-106205051D01*
X136551588Y-106301557D01*
X136753757Y-106367246D01*
X136963713Y-106400500D01*
X136963714Y-106400500D01*
X137176286Y-106400500D01*
X137176287Y-106400500D01*
X137386243Y-106367246D01*
X137588412Y-106301557D01*
X137777816Y-106205051D01*
X137799789Y-106189086D01*
X137949786Y-106080109D01*
X137949788Y-106080106D01*
X137949792Y-106080104D01*
X138100104Y-105929792D01*
X138100106Y-105929788D01*
X138100109Y-105929786D01*
X138225048Y-105757820D01*
X138225047Y-105757820D01*
X138225051Y-105757816D01*
X138321557Y-105568412D01*
X138387246Y-105366243D01*
X138420500Y-105156287D01*
X138420500Y-104943713D01*
X138409413Y-104873713D01*
X155349500Y-104873713D01*
X155349500Y-105086287D01*
X155382754Y-105296243D01*
X155405498Y-105366243D01*
X155448444Y-105498414D01*
X155544951Y-105687820D01*
X155669890Y-105859786D01*
X155820213Y-106010109D01*
X155992179Y-106135048D01*
X155992181Y-106135049D01*
X155992184Y-106135051D01*
X156181588Y-106231557D01*
X156383757Y-106297246D01*
X156593713Y-106330500D01*
X156593714Y-106330500D01*
X156806286Y-106330500D01*
X156806287Y-106330500D01*
X157016243Y-106297246D01*
X157218412Y-106231557D01*
X157407816Y-106135051D01*
X157483445Y-106080104D01*
X157579786Y-106010109D01*
X157579788Y-106010106D01*
X157579792Y-106010104D01*
X157730104Y-105859792D01*
X157730106Y-105859788D01*
X157730109Y-105859786D01*
X157855048Y-105687820D01*
X157855047Y-105687820D01*
X157855051Y-105687816D01*
X157951557Y-105498412D01*
X158017246Y-105296243D01*
X158050500Y-105086287D01*
X158050500Y-104873713D01*
X158017246Y-104663757D01*
X157951557Y-104461588D01*
X157855051Y-104272184D01*
X157855049Y-104272181D01*
X157855048Y-104272179D01*
X157730109Y-104100213D01*
X157579786Y-103949890D01*
X157407820Y-103824951D01*
X157218414Y-103728444D01*
X157218413Y-103728443D01*
X157218412Y-103728443D01*
X157016243Y-103662754D01*
X157016241Y-103662753D01*
X157016240Y-103662753D01*
X156854957Y-103637208D01*
X156806287Y-103629500D01*
X156593713Y-103629500D01*
X156545042Y-103637208D01*
X156383760Y-103662753D01*
X156181585Y-103728444D01*
X155992179Y-103824951D01*
X155820213Y-103949890D01*
X155669890Y-104100213D01*
X155544951Y-104272179D01*
X155448444Y-104461585D01*
X155382753Y-104663760D01*
X155349500Y-104873713D01*
X138409413Y-104873713D01*
X138387246Y-104733757D01*
X138321557Y-104531588D01*
X138225051Y-104342184D01*
X138225049Y-104342181D01*
X138225048Y-104342179D01*
X138100109Y-104170213D01*
X137949786Y-104019890D01*
X137777820Y-103894951D01*
X137588414Y-103798444D01*
X137588413Y-103798443D01*
X137588412Y-103798443D01*
X137386243Y-103732754D01*
X137386241Y-103732753D01*
X137386240Y-103732753D01*
X137224957Y-103707208D01*
X137176287Y-103699500D01*
X136963713Y-103699500D01*
X136915042Y-103707208D01*
X136753760Y-103732753D01*
X136551585Y-103798444D01*
X136362179Y-103894951D01*
X136190213Y-104019890D01*
X136039890Y-104170213D01*
X135914951Y-104342179D01*
X135818444Y-104531585D01*
X135752753Y-104733760D01*
X135719500Y-104943713D01*
X134910500Y-104943713D01*
X134910500Y-98071794D01*
X134930185Y-98004755D01*
X134982989Y-97959000D01*
X135052147Y-97949056D01*
X135115703Y-97978081D01*
X135134815Y-97998905D01*
X135226172Y-98124646D01*
X135365354Y-98263828D01*
X135524595Y-98379524D01*
X135583427Y-98409500D01*
X135699970Y-98468882D01*
X135699972Y-98468882D01*
X135699975Y-98468884D01*
X135792280Y-98498876D01*
X135887173Y-98529709D01*
X136081578Y-98560500D01*
X136081583Y-98560500D01*
X136278422Y-98560500D01*
X136472826Y-98529709D01*
X136482696Y-98526502D01*
X136660025Y-98468884D01*
X136835405Y-98379524D01*
X136994646Y-98263828D01*
X137133828Y-98124646D01*
X137249524Y-97965405D01*
X137338884Y-97790025D01*
X137399709Y-97602826D01*
X137430500Y-97408422D01*
X137430500Y-97211577D01*
X137399709Y-97017173D01*
X137371487Y-96930317D01*
X137338884Y-96829975D01*
X137338882Y-96829972D01*
X137338882Y-96829970D01*
X137277767Y-96710025D01*
X137249524Y-96654595D01*
X137133828Y-96495354D01*
X136994646Y-96356172D01*
X136899377Y-96286954D01*
X136835400Y-96240472D01*
X136820864Y-96233066D01*
X136770068Y-96185092D01*
X136764641Y-96174694D01*
X136760150Y-96164998D01*
X136756431Y-96151116D01*
X136739577Y-96088216D01*
X136663810Y-95956982D01*
X136661464Y-95951917D01*
X136659769Y-95940564D01*
X136652208Y-95917028D01*
X136651689Y-95917132D01*
X136650791Y-95912618D01*
X136650579Y-95911958D01*
X136650500Y-95911163D01*
X136650500Y-95911158D01*
X136619737Y-95756503D01*
X136617031Y-95749970D01*
X136559397Y-95610827D01*
X136559390Y-95610814D01*
X136484225Y-95498322D01*
X137775001Y-95498322D01*
X137785144Y-95597607D01*
X137838452Y-95758481D01*
X137838457Y-95758492D01*
X137927424Y-95902728D01*
X137927427Y-95902732D01*
X138047267Y-96022572D01*
X138047271Y-96022575D01*
X138191507Y-96111542D01*
X138191518Y-96111547D01*
X138352393Y-96164855D01*
X138451683Y-96174999D01*
X139000000Y-96174999D01*
X139048308Y-96174999D01*
X139048322Y-96174998D01*
X139147607Y-96164855D01*
X139308481Y-96111547D01*
X139308492Y-96111542D01*
X139452728Y-96022575D01*
X139452732Y-96022572D01*
X139572572Y-95902732D01*
X139572575Y-95902728D01*
X139661542Y-95758492D01*
X139661547Y-95758481D01*
X139714855Y-95597606D01*
X139724999Y-95498322D01*
X139725000Y-95498309D01*
X139725000Y-95475000D01*
X139000000Y-95475000D01*
X139000000Y-96174999D01*
X138451683Y-96174999D01*
X138499999Y-96174998D01*
X138500000Y-96174998D01*
X138500000Y-95475000D01*
X137775001Y-95475000D01*
X137775001Y-95498322D01*
X136484225Y-95498322D01*
X136480354Y-95492529D01*
X136471789Y-95479710D01*
X136360292Y-95368213D01*
X136360288Y-95368210D01*
X136229185Y-95280609D01*
X136229172Y-95280602D01*
X136083501Y-95220264D01*
X136083489Y-95220261D01*
X135928845Y-95189500D01*
X135928842Y-95189500D01*
X135771158Y-95189500D01*
X135771155Y-95189500D01*
X135616510Y-95220261D01*
X135616498Y-95220264D01*
X135470827Y-95280602D01*
X135470814Y-95280609D01*
X135339711Y-95368210D01*
X135339707Y-95368213D01*
X135228213Y-95479707D01*
X135228210Y-95479711D01*
X135137602Y-95615315D01*
X135083989Y-95660120D01*
X135014664Y-95668827D01*
X134951637Y-95638672D01*
X134914918Y-95579229D01*
X134910500Y-95546424D01*
X134910500Y-93823439D01*
X134930185Y-93756400D01*
X134982989Y-93710645D01*
X135052147Y-93700701D01*
X135115703Y-93729726D01*
X135137602Y-93754548D01*
X135188210Y-93830288D01*
X135188213Y-93830292D01*
X135299707Y-93941786D01*
X135299711Y-93941789D01*
X135430814Y-94029390D01*
X135430827Y-94029397D01*
X135576498Y-94089735D01*
X135576503Y-94089737D01*
X135731158Y-94120500D01*
X135731847Y-94120637D01*
X135773591Y-94137237D01*
X135785441Y-94144677D01*
X135796284Y-94155520D01*
X135874194Y-94200501D01*
X135933215Y-94234577D01*
X136085943Y-94275501D01*
X136085946Y-94275501D01*
X136251653Y-94275501D01*
X136251669Y-94275500D01*
X137809996Y-94275500D01*
X137813682Y-94276582D01*
X137817428Y-94275723D01*
X137846944Y-94286349D01*
X137877035Y-94295185D01*
X137880599Y-94298465D01*
X137883167Y-94299390D01*
X137892085Y-94309037D01*
X137908407Y-94324060D01*
X137912232Y-94329049D01*
X137927032Y-94353044D01*
X137942427Y-94368439D01*
X137947390Y-94374913D01*
X137957153Y-94400203D01*
X137970145Y-94423995D01*
X137969550Y-94432313D01*
X137972554Y-94440094D01*
X137967094Y-94466646D01*
X137965161Y-94493687D01*
X137959829Y-94501983D01*
X137958483Y-94508532D01*
X137950125Y-94517082D01*
X137936663Y-94538031D01*
X137927428Y-94547265D01*
X137927424Y-94547271D01*
X137838457Y-94691507D01*
X137838452Y-94691518D01*
X137785144Y-94852393D01*
X137775000Y-94951677D01*
X137775000Y-94975000D01*
X139724999Y-94975000D01*
X139724999Y-94951692D01*
X139724998Y-94951677D01*
X139714855Y-94852392D01*
X139661547Y-94691518D01*
X139661542Y-94691507D01*
X139572575Y-94547271D01*
X139572572Y-94547267D01*
X139563339Y-94538034D01*
X139529854Y-94476711D01*
X139534838Y-94407019D01*
X139563343Y-94362668D01*
X139572968Y-94353044D01*
X139662003Y-94208697D01*
X139715349Y-94047708D01*
X139725500Y-93948345D01*
X139725499Y-93401656D01*
X139717515Y-93323501D01*
X139716300Y-93311601D01*
X139719102Y-93296528D01*
X139716920Y-93281353D01*
X139725357Y-93262876D01*
X139729070Y-93242908D01*
X139739576Y-93231742D01*
X139745945Y-93217797D01*
X139763032Y-93206815D01*
X139776951Y-93192024D01*
X139792703Y-93187747D01*
X139804723Y-93180023D01*
X139839658Y-93175000D01*
X140051754Y-93175000D01*
X140118793Y-93194685D01*
X140164548Y-93247489D01*
X140174492Y-93316647D01*
X140174227Y-93318397D01*
X140159500Y-93411381D01*
X140159500Y-93411382D01*
X140159500Y-93588618D01*
X140173363Y-93676145D01*
X140187226Y-93763673D01*
X140187226Y-93763676D01*
X140241993Y-93932231D01*
X140241995Y-93932234D01*
X140322458Y-94090153D01*
X140426635Y-94233540D01*
X140551960Y-94358865D01*
X140695347Y-94463042D01*
X140853266Y-94543505D01*
X140853268Y-94543506D01*
X141010490Y-94594590D01*
X141021828Y-94598274D01*
X141196882Y-94626000D01*
X141196883Y-94626000D01*
X141374117Y-94626000D01*
X141374118Y-94626000D01*
X141549172Y-94598274D01*
X141549175Y-94598273D01*
X141549176Y-94598273D01*
X141717731Y-94543506D01*
X141717731Y-94543505D01*
X141717734Y-94543505D01*
X141875653Y-94463042D01*
X142019040Y-94358865D01*
X142144365Y-94233540D01*
X142203887Y-94151615D01*
X142259217Y-94108949D01*
X142304205Y-94100500D01*
X144497060Y-94100500D01*
X144564099Y-94120185D01*
X144584742Y-94136820D01*
X144619707Y-94171786D01*
X144619711Y-94171789D01*
X144750814Y-94259390D01*
X144750827Y-94259397D01*
X144896498Y-94319735D01*
X144896503Y-94319737D01*
X145051153Y-94350499D01*
X145051156Y-94350500D01*
X145051158Y-94350500D01*
X145208844Y-94350500D01*
X145208845Y-94350499D01*
X145363497Y-94319737D01*
X145509179Y-94259394D01*
X145640289Y-94171789D01*
X145751789Y-94060289D01*
X145839394Y-93929179D01*
X145889020Y-93809370D01*
X145932858Y-93754971D01*
X145999152Y-93732905D01*
X146066851Y-93750184D01*
X146072470Y-93753724D01*
X146140814Y-93799390D01*
X146140827Y-93799397D01*
X146223163Y-93833501D01*
X146286503Y-93859737D01*
X146441153Y-93890499D01*
X146441156Y-93890500D01*
X146441158Y-93890500D01*
X146598844Y-93890500D01*
X146598845Y-93890499D01*
X146753497Y-93859737D01*
X146899179Y-93799394D01*
X147030289Y-93711789D01*
X147141789Y-93600289D01*
X147194666Y-93521153D01*
X149859500Y-93521153D01*
X149859500Y-93678846D01*
X149890261Y-93833489D01*
X149890264Y-93833501D01*
X149950602Y-93979172D01*
X149950609Y-93979185D01*
X150038210Y-94110288D01*
X150038213Y-94110292D01*
X150149707Y-94221786D01*
X150149711Y-94221789D01*
X150280814Y-94309390D01*
X150280827Y-94309397D01*
X150386202Y-94353044D01*
X150426503Y-94369737D01*
X150579665Y-94400203D01*
X150581153Y-94400499D01*
X150581156Y-94400500D01*
X150581158Y-94400500D01*
X150738844Y-94400500D01*
X150738845Y-94400499D01*
X150893497Y-94369737D01*
X151039179Y-94309394D01*
X151170289Y-94221789D01*
X151255260Y-94136817D01*
X151282191Y-94122111D01*
X151308005Y-94105523D01*
X151314204Y-94104631D01*
X151316581Y-94103334D01*
X151342940Y-94100500D01*
X151516795Y-94100500D01*
X151583834Y-94120185D01*
X151617113Y-94151615D01*
X151658591Y-94208705D01*
X151676635Y-94233540D01*
X151801960Y-94358865D01*
X151945347Y-94463042D01*
X152103266Y-94543505D01*
X152103268Y-94543506D01*
X152260490Y-94594590D01*
X152271828Y-94598274D01*
X152446882Y-94626000D01*
X152446883Y-94626000D01*
X152624117Y-94626000D01*
X152624118Y-94626000D01*
X152799172Y-94598274D01*
X152799175Y-94598273D01*
X152799176Y-94598273D01*
X152967731Y-94543506D01*
X152967731Y-94543505D01*
X152967734Y-94543505D01*
X153125653Y-94463042D01*
X153269040Y-94358865D01*
X153394365Y-94233540D01*
X153498542Y-94090153D01*
X153579005Y-93932234D01*
X153592565Y-93890500D01*
X153633773Y-93763676D01*
X153633773Y-93763675D01*
X153633774Y-93763672D01*
X153661500Y-93588618D01*
X153661500Y-93411382D01*
X153633774Y-93236328D01*
X153633773Y-93236324D01*
X153633773Y-93236323D01*
X153579006Y-93067768D01*
X153579004Y-93067765D01*
X153576231Y-93062321D01*
X153498542Y-92909847D01*
X153394365Y-92766460D01*
X153269040Y-92641135D01*
X153125653Y-92536958D01*
X152967734Y-92456495D01*
X152967731Y-92456493D01*
X152799174Y-92401726D01*
X152665801Y-92380602D01*
X152624118Y-92374000D01*
X152446882Y-92374000D01*
X152405199Y-92380602D01*
X152271826Y-92401726D01*
X152271823Y-92401726D01*
X152103268Y-92456493D01*
X152103265Y-92456495D01*
X151945346Y-92536958D01*
X151863538Y-92596395D01*
X151801960Y-92641135D01*
X151801958Y-92641137D01*
X151801957Y-92641137D01*
X151676637Y-92766457D01*
X151676632Y-92766463D01*
X151617113Y-92848385D01*
X151561783Y-92891051D01*
X151516795Y-92899500D01*
X151085316Y-92899500D01*
X151037864Y-92890061D01*
X150893501Y-92830264D01*
X150893489Y-92830261D01*
X150738845Y-92799500D01*
X150738842Y-92799500D01*
X150581158Y-92799500D01*
X150581155Y-92799500D01*
X150426510Y-92830261D01*
X150426498Y-92830264D01*
X150280827Y-92890602D01*
X150280814Y-92890609D01*
X150149711Y-92978210D01*
X150149707Y-92978213D01*
X150038213Y-93089707D01*
X150038210Y-93089711D01*
X149950609Y-93220814D01*
X149950602Y-93220827D01*
X149890264Y-93366498D01*
X149890261Y-93366510D01*
X149859500Y-93521153D01*
X147194666Y-93521153D01*
X147229394Y-93469179D01*
X147229709Y-93468417D01*
X147230044Y-93467611D01*
X147230044Y-93467610D01*
X147253334Y-93411382D01*
X147289737Y-93323497D01*
X147320500Y-93168842D01*
X147320500Y-93011158D01*
X147320500Y-93011155D01*
X147320499Y-93011153D01*
X147300348Y-92909847D01*
X147289737Y-92856503D01*
X147286780Y-92849365D01*
X147229397Y-92710827D01*
X147229390Y-92710814D01*
X147141789Y-92579711D01*
X147141786Y-92579707D01*
X147030292Y-92468213D01*
X147030288Y-92468210D01*
X146899185Y-92380609D01*
X146899172Y-92380602D01*
X146753501Y-92320264D01*
X146753491Y-92320261D01*
X146598149Y-92289361D01*
X146581392Y-92280595D01*
X146562914Y-92276576D01*
X146537877Y-92257833D01*
X146536238Y-92256976D01*
X146534660Y-92255425D01*
X146492090Y-92212855D01*
X146492088Y-92212852D01*
X146373217Y-92093981D01*
X146373216Y-92093980D01*
X146353067Y-92082347D01*
X146295228Y-92048954D01*
X146295225Y-92048953D01*
X146286404Y-92043860D01*
X146236285Y-92014923D01*
X146083557Y-91973999D01*
X145925443Y-91973999D01*
X145917847Y-91973999D01*
X145917831Y-91974000D01*
X142163267Y-91974000D01*
X142146662Y-91969124D01*
X142129355Y-91969273D01*
X142113831Y-91959484D01*
X142096228Y-91954315D01*
X142084896Y-91941237D01*
X142070254Y-91932004D01*
X142062487Y-91915376D01*
X142050473Y-91901511D01*
X142048010Y-91884382D01*
X142040685Y-91868700D01*
X142043140Y-91850515D01*
X142040529Y-91832353D01*
X142047753Y-91816352D01*
X142050035Y-91799458D01*
X142065591Y-91776846D01*
X142068861Y-91769605D01*
X142072080Y-91765824D01*
X142144365Y-91693540D01*
X142206694Y-91607750D01*
X142209799Y-91604105D01*
X142235186Y-91587479D01*
X142259217Y-91568949D01*
X142265197Y-91567825D01*
X142268250Y-91565827D01*
X142276204Y-91565758D01*
X142304205Y-91560500D01*
X145415065Y-91560500D01*
X145482104Y-91580185D01*
X145483909Y-91581366D01*
X145540821Y-91619394D01*
X145540823Y-91619395D01*
X145540827Y-91619397D01*
X145686498Y-91679735D01*
X145686503Y-91679737D01*
X145841153Y-91710499D01*
X145841156Y-91710500D01*
X145841158Y-91710500D01*
X145998844Y-91710500D01*
X145998845Y-91710499D01*
X146153497Y-91679737D01*
X146299179Y-91619394D01*
X146430289Y-91531789D01*
X146541789Y-91420289D01*
X146629394Y-91289179D01*
X146689737Y-91143497D01*
X146720500Y-90988842D01*
X146720500Y-90871421D01*
X151410000Y-90871421D01*
X151410000Y-91048578D01*
X151437714Y-91223556D01*
X151492456Y-91392039D01*
X151492457Y-91392042D01*
X151572886Y-91549890D01*
X151580953Y-91560992D01*
X151580954Y-91560993D01*
X152170500Y-90971447D01*
X152170500Y-91008053D01*
X152195374Y-91100885D01*
X152243427Y-91184116D01*
X152311384Y-91252073D01*
X152394615Y-91300126D01*
X152487447Y-91325000D01*
X152524053Y-91325000D01*
X151934506Y-91914545D01*
X151945610Y-91922614D01*
X151945616Y-91922617D01*
X152103447Y-92003037D01*
X152103460Y-92003043D01*
X152271943Y-92057785D01*
X152446922Y-92085500D01*
X152624078Y-92085500D01*
X152799056Y-92057785D01*
X152967539Y-92003043D01*
X152967542Y-92003042D01*
X153125387Y-91922615D01*
X153125392Y-91922612D01*
X153136492Y-91914546D01*
X153136493Y-91914545D01*
X152546948Y-91325000D01*
X152583553Y-91325000D01*
X152676385Y-91300126D01*
X152759616Y-91252073D01*
X152827573Y-91184116D01*
X152875626Y-91100885D01*
X152900500Y-91008053D01*
X152900500Y-90971447D01*
X153490045Y-91560993D01*
X153490046Y-91560992D01*
X153498112Y-91549892D01*
X153498115Y-91549887D01*
X153578542Y-91392042D01*
X153578543Y-91392039D01*
X153633285Y-91223556D01*
X153661000Y-91048578D01*
X153661000Y-90871421D01*
X153633285Y-90696443D01*
X153578543Y-90527960D01*
X153578537Y-90527947D01*
X153498117Y-90370116D01*
X153498112Y-90370108D01*
X153490045Y-90359006D01*
X152900500Y-90948551D01*
X152900500Y-90911947D01*
X152875626Y-90819115D01*
X152827573Y-90735884D01*
X152759616Y-90667927D01*
X152676385Y-90619874D01*
X152583553Y-90595000D01*
X152546947Y-90595000D01*
X152878234Y-90263713D01*
X155419500Y-90263713D01*
X155419500Y-90476286D01*
X155451210Y-90676498D01*
X155452754Y-90686243D01*
X155512922Y-90871421D01*
X155518444Y-90888414D01*
X155614951Y-91077820D01*
X155739890Y-91249786D01*
X155890213Y-91400109D01*
X156062179Y-91525048D01*
X156062181Y-91525049D01*
X156062184Y-91525051D01*
X156251588Y-91621557D01*
X156453757Y-91687246D01*
X156663713Y-91720500D01*
X156663714Y-91720500D01*
X156876286Y-91720500D01*
X156876287Y-91720500D01*
X157086243Y-91687246D01*
X157288412Y-91621557D01*
X157477816Y-91525051D01*
X157519112Y-91495048D01*
X157649786Y-91400109D01*
X157649788Y-91400106D01*
X157649792Y-91400104D01*
X157800104Y-91249792D01*
X157800106Y-91249788D01*
X157800109Y-91249786D01*
X157925048Y-91077820D01*
X157925047Y-91077820D01*
X157925051Y-91077816D01*
X158021557Y-90888412D01*
X158087246Y-90686243D01*
X158120500Y-90476287D01*
X158120500Y-90263713D01*
X158087246Y-90053757D01*
X158021557Y-89851588D01*
X157925051Y-89662184D01*
X157925049Y-89662181D01*
X157925048Y-89662179D01*
X157800109Y-89490213D01*
X157649786Y-89339890D01*
X157477820Y-89214951D01*
X157288414Y-89118444D01*
X157288413Y-89118443D01*
X157288412Y-89118443D01*
X157086243Y-89052754D01*
X157086241Y-89052753D01*
X157086240Y-89052753D01*
X156924957Y-89027208D01*
X156876287Y-89019500D01*
X156663713Y-89019500D01*
X156615042Y-89027208D01*
X156453760Y-89052753D01*
X156251585Y-89118444D01*
X156062179Y-89214951D01*
X155890213Y-89339890D01*
X155739890Y-89490213D01*
X155614951Y-89662179D01*
X155518444Y-89851585D01*
X155452753Y-90053760D01*
X155419500Y-90263713D01*
X152878234Y-90263713D01*
X153136493Y-90005454D01*
X153136492Y-90005453D01*
X153125390Y-89997386D01*
X152967542Y-89916957D01*
X152967539Y-89916956D01*
X152799056Y-89862214D01*
X152624078Y-89834500D01*
X152446922Y-89834500D01*
X152271943Y-89862214D01*
X152103460Y-89916956D01*
X152103447Y-89916962D01*
X151945621Y-89997379D01*
X151945612Y-89997385D01*
X151934506Y-90005453D01*
X152524054Y-90595000D01*
X152487447Y-90595000D01*
X152394615Y-90619874D01*
X152311384Y-90667927D01*
X152243427Y-90735884D01*
X152195374Y-90819115D01*
X152170500Y-90911947D01*
X152170500Y-90948553D01*
X151580953Y-90359006D01*
X151572885Y-90370112D01*
X151572879Y-90370121D01*
X151492462Y-90527947D01*
X151492456Y-90527960D01*
X151437714Y-90696443D01*
X151410000Y-90871421D01*
X146720500Y-90871421D01*
X146720500Y-90831158D01*
X146720500Y-90831155D01*
X146720499Y-90831153D01*
X146718104Y-90819115D01*
X146689737Y-90676503D01*
X146681345Y-90656243D01*
X146629397Y-90530827D01*
X146629390Y-90530814D01*
X146541789Y-90399711D01*
X146541786Y-90399707D01*
X146430292Y-90288213D01*
X146430288Y-90288210D01*
X146299185Y-90200609D01*
X146299172Y-90200602D01*
X146218706Y-90167273D01*
X146153501Y-90140264D01*
X146153489Y-90140261D01*
X145998845Y-90109500D01*
X145998842Y-90109500D01*
X145841158Y-90109500D01*
X145841155Y-90109500D01*
X145686510Y-90140261D01*
X145686498Y-90140264D01*
X145540827Y-90200602D01*
X145540814Y-90200609D01*
X145409711Y-90288210D01*
X145409707Y-90288213D01*
X145374742Y-90323180D01*
X145313420Y-90356666D01*
X145287060Y-90359500D01*
X142304205Y-90359500D01*
X142237166Y-90339815D01*
X142203887Y-90308385D01*
X142171431Y-90263713D01*
X142144365Y-90226460D01*
X142019040Y-90101135D01*
X141875653Y-89996958D01*
X141717734Y-89916495D01*
X141717731Y-89916493D01*
X141549174Y-89861726D01*
X141432469Y-89843242D01*
X141374118Y-89834000D01*
X141196882Y-89834000D01*
X141138530Y-89843242D01*
X141021826Y-89861726D01*
X141021823Y-89861726D01*
X140853268Y-89916493D01*
X140853265Y-89916495D01*
X140695346Y-89996958D01*
X140658461Y-90023757D01*
X140551960Y-90101135D01*
X140551958Y-90101137D01*
X140551957Y-90101137D01*
X140426637Y-90226457D01*
X140426637Y-90226458D01*
X140426635Y-90226460D01*
X140399569Y-90263713D01*
X140322458Y-90369846D01*
X140241995Y-90527765D01*
X140241993Y-90527768D01*
X140187226Y-90696323D01*
X140187226Y-90696326D01*
X140159500Y-90871382D01*
X140159500Y-91048617D01*
X140187226Y-91223673D01*
X140187226Y-91223676D01*
X140241993Y-91392231D01*
X140241995Y-91392234D01*
X140322458Y-91550153D01*
X140426635Y-91693540D01*
X140426637Y-91693542D01*
X140495414Y-91762319D01*
X140528899Y-91823642D01*
X140523915Y-91893334D01*
X140482043Y-91949267D01*
X140416579Y-91973684D01*
X140407733Y-91974000D01*
X139552170Y-91974000D01*
X139552154Y-91973999D01*
X139544558Y-91973999D01*
X139386443Y-91973999D01*
X139246236Y-92011567D01*
X139233711Y-92014924D01*
X139096787Y-92093977D01*
X139096782Y-92093981D01*
X138499118Y-92691644D01*
X138437795Y-92725129D01*
X138424040Y-92727321D01*
X138352291Y-92734651D01*
X138352289Y-92734651D01*
X138191305Y-92787996D01*
X138191294Y-92788001D01*
X138046959Y-92877029D01*
X138046955Y-92877032D01*
X137927031Y-92996956D01*
X137915535Y-93015596D01*
X137863588Y-93062321D01*
X137809996Y-93074500D01*
X136657619Y-93074500D01*
X136590580Y-93054815D01*
X136544825Y-93002011D01*
X136543058Y-92997952D01*
X136519394Y-92940821D01*
X136519392Y-92940819D01*
X136519392Y-92940817D01*
X136431789Y-92809711D01*
X136431786Y-92809707D01*
X136320292Y-92698213D01*
X136320288Y-92698210D01*
X136189185Y-92610609D01*
X136189172Y-92610602D01*
X136043501Y-92550264D01*
X136043489Y-92550261D01*
X135888845Y-92519500D01*
X135888842Y-92519500D01*
X135731158Y-92519500D01*
X135731155Y-92519500D01*
X135576510Y-92550261D01*
X135576498Y-92550264D01*
X135430827Y-92610602D01*
X135430814Y-92610609D01*
X135299711Y-92698210D01*
X135299707Y-92698213D01*
X135188213Y-92809707D01*
X135188210Y-92809711D01*
X135137602Y-92885451D01*
X135083989Y-92930256D01*
X135014664Y-92938963D01*
X134951637Y-92908808D01*
X134914918Y-92849365D01*
X134910500Y-92816560D01*
X134910500Y-90233713D01*
X135719500Y-90233713D01*
X135719500Y-90446286D01*
X135746993Y-90619874D01*
X135752754Y-90656243D01*
X135765778Y-90696328D01*
X135818444Y-90858414D01*
X135914951Y-91047820D01*
X136039890Y-91219786D01*
X136190213Y-91370109D01*
X136362179Y-91495048D01*
X136362181Y-91495049D01*
X136362184Y-91495051D01*
X136551588Y-91591557D01*
X136753757Y-91657246D01*
X136963713Y-91690500D01*
X136963714Y-91690500D01*
X137176286Y-91690500D01*
X137176287Y-91690500D01*
X137386243Y-91657246D01*
X137588412Y-91591557D01*
X137777816Y-91495051D01*
X137880718Y-91420289D01*
X137949786Y-91370109D01*
X137949788Y-91370106D01*
X137949792Y-91370104D01*
X138100104Y-91219792D01*
X138100106Y-91219788D01*
X138100109Y-91219786D01*
X138225048Y-91047820D01*
X138225047Y-91047820D01*
X138225051Y-91047816D01*
X138321557Y-90858412D01*
X138387246Y-90656243D01*
X138420500Y-90446287D01*
X138420500Y-90233713D01*
X138387246Y-90023757D01*
X138321557Y-89821588D01*
X138225051Y-89632184D01*
X138225049Y-89632181D01*
X138225048Y-89632179D01*
X138100109Y-89460213D01*
X137949786Y-89309890D01*
X137777820Y-89184951D01*
X137588414Y-89088444D01*
X137588413Y-89088443D01*
X137588412Y-89088443D01*
X137386243Y-89022754D01*
X137386241Y-89022753D01*
X137386240Y-89022753D01*
X137224957Y-88997208D01*
X137176287Y-88989500D01*
X136963713Y-88989500D01*
X136915042Y-88997208D01*
X136753760Y-89022753D01*
X136551585Y-89088444D01*
X136362179Y-89184951D01*
X136190213Y-89309890D01*
X136039890Y-89460213D01*
X135914951Y-89632179D01*
X135818444Y-89821585D01*
X135752753Y-90023760D01*
X135719500Y-90233713D01*
X134910500Y-90233713D01*
X134910500Y-88359500D01*
X134930185Y-88292461D01*
X134982989Y-88246706D01*
X135034500Y-88235500D01*
X158785500Y-88235500D01*
X158852539Y-88255185D01*
G37*
%TD.AperFunction*%
%TD*%
M02*
