%TF.GenerationSoftware,KiCad,Pcbnew,10.0.1*%
%TF.CreationDate,2026-08-01T20:51:21+02:00*%
%TF.ProjectId,Pressure_sensor_board,50726573-7375-4726-955f-73656e736f72,rev?*%
%TF.SameCoordinates,Original*%
%TF.FileFunction,Legend,Bot*%
%TF.FilePolarity,Positive*%
%FSLAX46Y46*%
G04 Gerber Fmt 4.6, Leading zero omitted, Abs format (unit mm)*
G04 Created by KiCad (PCBNEW 10.0.1) date 2026-08-01 20:51:21*
%MOMM*%
%LPD*%
G01*
G04 APERTURE LIST*
G04 Aperture macros list*
%AMRoundRect*
0 Rectangle with rounded corners*
0 $1 Rounding radius*
0 $2 $3 $4 $5 $6 $7 $8 $9 X,Y pos of 4 corners*
0 Add a 4 corners polygon primitive as box body*
4,1,4,$2,$3,$4,$5,$6,$7,$8,$9,$2,$3,0*
0 Add four circle primitives for the rounded corners*
1,1,$1+$1,$2,$3*
1,1,$1+$1,$4,$5*
1,1,$1+$1,$6,$7*
1,1,$1+$1,$8,$9*
0 Add four rect primitives between the rounded corners*
20,1,$1+$1,$2,$3,$4,$5,0*
20,1,$1+$1,$4,$5,$6,$7,0*
20,1,$1+$1,$6,$7,$8,$9,0*
20,1,$1+$1,$8,$9,$2,$3,0*%
G04 Aperture macros list end*
%ADD10C,0.125000*%
%ADD11C,2.200000*%
%ADD12RoundRect,0.250000X0.350000X0.650000X-0.350000X0.650000X-0.350000X-0.650000X0.350000X-0.650000X0*%
%ADD13O,1.200000X1.800000*%
%ADD14C,1.251000*%
G04 APERTURE END LIST*
D10*
G36*
X144333261Y-105078651D02*
G01*
X144229498Y-105099404D01*
X144229498Y-105095158D01*
X144237392Y-105079369D01*
X144253180Y-105071476D01*
X144318910Y-105071476D01*
X144333261Y-105078651D01*
G37*
G36*
X146333261Y-105078651D02*
G01*
X146229498Y-105099404D01*
X146229498Y-105095158D01*
X146237392Y-105079369D01*
X146253180Y-105071476D01*
X146318910Y-105071476D01*
X146333261Y-105078651D01*
G37*
G36*
X147618974Y-105078651D02*
G01*
X147515211Y-105099404D01*
X147515211Y-105095158D01*
X147523105Y-105079369D01*
X147538893Y-105071476D01*
X147604623Y-105071476D01*
X147618974Y-105078651D01*
G37*
G36*
X148915689Y-105084152D02*
G01*
X148925153Y-105093616D01*
X148937829Y-105118967D01*
X148937829Y-105232317D01*
X148925153Y-105257668D01*
X148915689Y-105267133D01*
X148890337Y-105279809D01*
X148848417Y-105279809D01*
X148823065Y-105267133D01*
X148813601Y-105257669D01*
X148800925Y-105232317D01*
X148800925Y-105118968D01*
X148813601Y-105093616D01*
X148823065Y-105084151D01*
X148848417Y-105071476D01*
X148890337Y-105071476D01*
X148915689Y-105084152D01*
G37*
G36*
X150109426Y-105158842D02*
G01*
X150115630Y-105165045D01*
X150128305Y-105190395D01*
X150128305Y-105232317D01*
X150115629Y-105257668D01*
X150106165Y-105267133D01*
X150080813Y-105279809D01*
X149967591Y-105279809D01*
X149967591Y-105142904D01*
X150061614Y-105142904D01*
X150109426Y-105158842D01*
G37*
G36*
X150082355Y-104917485D02*
G01*
X150091821Y-104926951D01*
X150104496Y-104952300D01*
X150104496Y-104970412D01*
X150091820Y-104995762D01*
X150082355Y-105005228D01*
X150057004Y-105017904D01*
X149967591Y-105017904D01*
X149967591Y-104904809D01*
X150057004Y-104904809D01*
X150082355Y-104917485D01*
G37*
G36*
X150558546Y-105084152D02*
G01*
X150568010Y-105093616D01*
X150580686Y-105118967D01*
X150580686Y-105232317D01*
X150568010Y-105257668D01*
X150558546Y-105267133D01*
X150533194Y-105279809D01*
X150491274Y-105279809D01*
X150465922Y-105267133D01*
X150456458Y-105257669D01*
X150443782Y-105232317D01*
X150443782Y-105118968D01*
X150456458Y-105093616D01*
X150465922Y-105084151D01*
X150491274Y-105071476D01*
X150533194Y-105071476D01*
X150558546Y-105084152D01*
G37*
G36*
X151009258Y-105279809D02*
G01*
X150919845Y-105279809D01*
X150904057Y-105271915D01*
X150896163Y-105256126D01*
X150896163Y-105238015D01*
X150904057Y-105222226D01*
X150919845Y-105214333D01*
X151009258Y-105214333D01*
X151009258Y-105279809D01*
G37*
G36*
X151771163Y-105279809D02*
G01*
X151705560Y-105279809D01*
X151680208Y-105267133D01*
X151670744Y-105257669D01*
X151658068Y-105232317D01*
X151658068Y-105118968D01*
X151670744Y-105093616D01*
X151680208Y-105084151D01*
X151705560Y-105071476D01*
X151771163Y-105071476D01*
X151771163Y-105279809D01*
G37*
G36*
X143582357Y-104917485D02*
G01*
X143591822Y-104926950D01*
X143604497Y-104952300D01*
X143604497Y-104994222D01*
X143591822Y-105019572D01*
X143582357Y-105029037D01*
X143557005Y-105041714D01*
X143443783Y-105041714D01*
X143443783Y-104904809D01*
X143557005Y-104904809D01*
X143582357Y-104917485D01*
G37*
G36*
X143985450Y-104474837D02*
G01*
X143919847Y-104474837D01*
X143894495Y-104462161D01*
X143885031Y-104452697D01*
X143872355Y-104427345D01*
X143872355Y-104313996D01*
X143885031Y-104288644D01*
X143894495Y-104279179D01*
X143919847Y-104266504D01*
X143985450Y-104266504D01*
X143985450Y-104474837D01*
G37*
G36*
X144428499Y-104273679D02*
G01*
X144324736Y-104294432D01*
X144324736Y-104290186D01*
X144332630Y-104274397D01*
X144348418Y-104266504D01*
X144414148Y-104266504D01*
X144428499Y-104273679D01*
G37*
G36*
X146699735Y-104474837D02*
G01*
X146610322Y-104474837D01*
X146594534Y-104466943D01*
X146586640Y-104451154D01*
X146586640Y-104433043D01*
X146594534Y-104417254D01*
X146610322Y-104409361D01*
X146699735Y-104409361D01*
X146699735Y-104474837D01*
G37*
G36*
X151958663Y-105467309D02*
G01*
X143256283Y-105467309D01*
X143256283Y-104842309D01*
X143318783Y-104842309D01*
X143318783Y-105342309D01*
X143323541Y-105366227D01*
X143357365Y-105400051D01*
X143405201Y-105400051D01*
X143439025Y-105366227D01*
X143443783Y-105342309D01*
X143443783Y-105166714D01*
X143571759Y-105166714D01*
X143574830Y-105166102D01*
X143576190Y-105166556D01*
X143585846Y-105163911D01*
X143595677Y-105161956D01*
X143596691Y-105160941D01*
X143599710Y-105160115D01*
X143647329Y-105136305D01*
X143655237Y-105130166D01*
X143663571Y-105124599D01*
X143687381Y-105100790D01*
X143692945Y-105092462D01*
X143699090Y-105084545D01*
X143722899Y-105036927D01*
X143723725Y-105033907D01*
X143724739Y-105032894D01*
X143726693Y-105023066D01*
X143729339Y-105013406D01*
X143728886Y-105012047D01*
X143729497Y-105008976D01*
X143818783Y-105008976D01*
X143818783Y-105342309D01*
X143823541Y-105366227D01*
X143857365Y-105400051D01*
X143905201Y-105400051D01*
X143939025Y-105366227D01*
X143943783Y-105342309D01*
X143943783Y-105118967D01*
X143956459Y-105093615D01*
X143965924Y-105084150D01*
X143973417Y-105080404D01*
X144104498Y-105080404D01*
X144104498Y-105270880D01*
X144105108Y-105273948D01*
X144104655Y-105275309D01*
X144107301Y-105284974D01*
X144109256Y-105294798D01*
X144110269Y-105295811D01*
X144111096Y-105298830D01*
X144134905Y-105346450D01*
X144142534Y-105356281D01*
X144143591Y-105359450D01*
X144147118Y-105362187D01*
X144149856Y-105365715D01*
X144153024Y-105366771D01*
X144162857Y-105374402D01*
X144210475Y-105398211D01*
X144213494Y-105399037D01*
X144214508Y-105400051D01*
X144224335Y-105402005D01*
X144233996Y-105404651D01*
X144235354Y-105404198D01*
X144238426Y-105404809D01*
X144333664Y-105404809D01*
X144336733Y-105404198D01*
X144338094Y-105404652D01*
X144347760Y-105402004D01*
X144357582Y-105400051D01*
X144358595Y-105399037D01*
X144361614Y-105398211D01*
X144409233Y-105374402D01*
X144428498Y-105359450D01*
X144443625Y-105314071D01*
X144422233Y-105271285D01*
X144376853Y-105256158D01*
X144353332Y-105262598D01*
X144318910Y-105279809D01*
X144253180Y-105279809D01*
X144237392Y-105271915D01*
X144229498Y-105256126D01*
X144229498Y-105226879D01*
X144417350Y-105189309D01*
X144425880Y-105185765D01*
X144429011Y-105185765D01*
X144431235Y-105183540D01*
X144439870Y-105179953D01*
X144449964Y-105164812D01*
X144462835Y-105151941D01*
X144464659Y-105142768D01*
X144466404Y-105140152D01*
X144465790Y-105137084D01*
X144467593Y-105128023D01*
X144467593Y-105080404D01*
X144533069Y-105080404D01*
X144533069Y-105104214D01*
X144533679Y-105107283D01*
X144533226Y-105108644D01*
X144535873Y-105118310D01*
X144537827Y-105128132D01*
X144538840Y-105129145D01*
X144539667Y-105132164D01*
X144563476Y-105179783D01*
X144571105Y-105189613D01*
X144572162Y-105192783D01*
X144575691Y-105195522D01*
X144578428Y-105199048D01*
X144581594Y-105200103D01*
X144591428Y-105207735D01*
X144639046Y-105231544D01*
X144642065Y-105232370D01*
X144643079Y-105233384D01*
X144652906Y-105235338D01*
X144662567Y-105237984D01*
X144663925Y-105237531D01*
X144666997Y-105238142D01*
X144723672Y-105238142D01*
X144739460Y-105246036D01*
X144745929Y-105258975D01*
X144739460Y-105271914D01*
X144723672Y-105279809D01*
X144657942Y-105279809D01*
X144623519Y-105262598D01*
X144599999Y-105256157D01*
X144554619Y-105271284D01*
X144533226Y-105314070D01*
X144548353Y-105359450D01*
X144567619Y-105374402D01*
X144615237Y-105398211D01*
X144618256Y-105399037D01*
X144619270Y-105400051D01*
X144629097Y-105402005D01*
X144638758Y-105404651D01*
X144640116Y-105404198D01*
X144643188Y-105404809D01*
X144738426Y-105404809D01*
X144741495Y-105404198D01*
X144742856Y-105404652D01*
X144752522Y-105402004D01*
X144762344Y-105400051D01*
X144763357Y-105399037D01*
X144766376Y-105398211D01*
X144813995Y-105374402D01*
X144823827Y-105366771D01*
X144826995Y-105365715D01*
X144829732Y-105362187D01*
X144833260Y-105359450D01*
X144834315Y-105356282D01*
X144841947Y-105346450D01*
X144865756Y-105298830D01*
X144866582Y-105295811D01*
X144867596Y-105294798D01*
X144869551Y-105284966D01*
X144872196Y-105275309D01*
X144871743Y-105273950D01*
X144872354Y-105270880D01*
X144872354Y-105247071D01*
X144871743Y-105243999D01*
X144872196Y-105242641D01*
X144869550Y-105232980D01*
X144867596Y-105223153D01*
X144866582Y-105222139D01*
X144865756Y-105219120D01*
X144841947Y-105171502D01*
X144834316Y-105161670D01*
X144833261Y-105158503D01*
X144829734Y-105155766D01*
X144826995Y-105152236D01*
X144823824Y-105151179D01*
X144813996Y-105143551D01*
X144766377Y-105119741D01*
X144763358Y-105118914D01*
X144762344Y-105117900D01*
X144752513Y-105115944D01*
X144742857Y-105113300D01*
X144741497Y-105113753D01*
X144738426Y-105113142D01*
X144681751Y-105113142D01*
X144665963Y-105105248D01*
X144659493Y-105092309D01*
X144665963Y-105079369D01*
X144681751Y-105071476D01*
X144723672Y-105071476D01*
X144758094Y-105088687D01*
X144781615Y-105095127D01*
X144825783Y-105080404D01*
X144937831Y-105080404D01*
X144937831Y-105104214D01*
X144938441Y-105107283D01*
X144937988Y-105108644D01*
X144940635Y-105118310D01*
X144942589Y-105128132D01*
X144943602Y-105129145D01*
X144944429Y-105132164D01*
X144968238Y-105179783D01*
X144975867Y-105189613D01*
X144976924Y-105192783D01*
X144980453Y-105195522D01*
X144983190Y-105199048D01*
X144986356Y-105200103D01*
X144996190Y-105207735D01*
X145043808Y-105231544D01*
X145046827Y-105232370D01*
X145047841Y-105233384D01*
X145057668Y-105235338D01*
X145067329Y-105237984D01*
X145068687Y-105237531D01*
X145071759Y-105238142D01*
X145128434Y-105238142D01*
X145144222Y-105246036D01*
X145150691Y-105258975D01*
X145144222Y-105271914D01*
X145128434Y-105279809D01*
X145062704Y-105279809D01*
X145028281Y-105262598D01*
X145004761Y-105256157D01*
X144959381Y-105271284D01*
X144937988Y-105314070D01*
X144953115Y-105359450D01*
X144972381Y-105374402D01*
X145019999Y-105398211D01*
X145023018Y-105399037D01*
X145024032Y-105400051D01*
X145033859Y-105402005D01*
X145043520Y-105404651D01*
X145044878Y-105404198D01*
X145047950Y-105404809D01*
X145143188Y-105404809D01*
X145146257Y-105404198D01*
X145147618Y-105404652D01*
X145157284Y-105402004D01*
X145167106Y-105400051D01*
X145168119Y-105399037D01*
X145171138Y-105398211D01*
X145218757Y-105374402D01*
X145228589Y-105366771D01*
X145231757Y-105365715D01*
X145234494Y-105362187D01*
X145238022Y-105359450D01*
X145239077Y-105356282D01*
X145246709Y-105346450D01*
X145270518Y-105298830D01*
X145271344Y-105295811D01*
X145272358Y-105294798D01*
X145274313Y-105284966D01*
X145276958Y-105275309D01*
X145276505Y-105273950D01*
X145277116Y-105270880D01*
X145277116Y-105247071D01*
X145276505Y-105243999D01*
X145276958Y-105242641D01*
X145274312Y-105232980D01*
X145272358Y-105223153D01*
X145271344Y-105222139D01*
X145270518Y-105219120D01*
X145246709Y-105171502D01*
X145239078Y-105161670D01*
X145238023Y-105158503D01*
X145234496Y-105155766D01*
X145231757Y-105152236D01*
X145228586Y-105151179D01*
X145218758Y-105143551D01*
X145171139Y-105119741D01*
X145168120Y-105118914D01*
X145167106Y-105117900D01*
X145157275Y-105115944D01*
X145147619Y-105113300D01*
X145146259Y-105113753D01*
X145143188Y-105113142D01*
X145086513Y-105113142D01*
X145070725Y-105105248D01*
X145064255Y-105092309D01*
X145070725Y-105079369D01*
X145086513Y-105071476D01*
X145128434Y-105071476D01*
X145162856Y-105088687D01*
X145186377Y-105095127D01*
X145231757Y-105080000D01*
X145253149Y-105037214D01*
X145243736Y-105008976D01*
X145366402Y-105008976D01*
X145366402Y-105270880D01*
X145367012Y-105273951D01*
X145366560Y-105275310D01*
X145369205Y-105284970D01*
X145371160Y-105294798D01*
X145372173Y-105295811D01*
X145373000Y-105298831D01*
X145396810Y-105346451D01*
X145404439Y-105356280D01*
X145405496Y-105359450D01*
X145409025Y-105362189D01*
X145411763Y-105365716D01*
X145414930Y-105366771D01*
X145424762Y-105374402D01*
X145472380Y-105398211D01*
X145475399Y-105399037D01*
X145476413Y-105400051D01*
X145486240Y-105402005D01*
X145495901Y-105404651D01*
X145497259Y-105404198D01*
X145500331Y-105404809D01*
X145571759Y-105404809D01*
X145574828Y-105404198D01*
X145576189Y-105404652D01*
X145585855Y-105402004D01*
X145595677Y-105400051D01*
X145596690Y-105399037D01*
X145599709Y-105398211D01*
X145611523Y-105392304D01*
X145619270Y-105400051D01*
X145667106Y-105400051D01*
X145700930Y-105366227D01*
X145705688Y-105342309D01*
X145705688Y-105008976D01*
X145818783Y-105008976D01*
X145818783Y-105342309D01*
X145823541Y-105366227D01*
X145857365Y-105400051D01*
X145905201Y-105400051D01*
X145939025Y-105366227D01*
X145943783Y-105342309D01*
X145943783Y-105118967D01*
X145956459Y-105093615D01*
X145965924Y-105084150D01*
X145973417Y-105080404D01*
X146104498Y-105080404D01*
X146104498Y-105270880D01*
X146105108Y-105273948D01*
X146104655Y-105275309D01*
X146107301Y-105284974D01*
X146109256Y-105294798D01*
X146110269Y-105295811D01*
X146111096Y-105298830D01*
X146134905Y-105346450D01*
X146142534Y-105356281D01*
X146143591Y-105359450D01*
X146147118Y-105362187D01*
X146149856Y-105365715D01*
X146153024Y-105366771D01*
X146162857Y-105374402D01*
X146210475Y-105398211D01*
X146213494Y-105399037D01*
X146214508Y-105400051D01*
X146224335Y-105402005D01*
X146233996Y-105404651D01*
X146235354Y-105404198D01*
X146238426Y-105404809D01*
X146333664Y-105404809D01*
X146336733Y-105404198D01*
X146338094Y-105404652D01*
X146347760Y-105402004D01*
X146357582Y-105400051D01*
X146358595Y-105399037D01*
X146361614Y-105398211D01*
X146409233Y-105374402D01*
X146428498Y-105359450D01*
X146443625Y-105314071D01*
X146422233Y-105271285D01*
X146376853Y-105256158D01*
X146353332Y-105262598D01*
X146318910Y-105279809D01*
X146253180Y-105279809D01*
X146237392Y-105271915D01*
X146229498Y-105256126D01*
X146229498Y-105226879D01*
X146417350Y-105189309D01*
X146425880Y-105185765D01*
X146429011Y-105185765D01*
X146431235Y-105183540D01*
X146439870Y-105179953D01*
X146449964Y-105164812D01*
X146462835Y-105151941D01*
X146464659Y-105142768D01*
X146466404Y-105140152D01*
X146465790Y-105137084D01*
X146467593Y-105128023D01*
X146467593Y-105080404D01*
X146466981Y-105077332D01*
X146467435Y-105075973D01*
X146464789Y-105066311D01*
X146462835Y-105056486D01*
X146461821Y-105055472D01*
X146460995Y-105052453D01*
X146437184Y-105004834D01*
X146429554Y-104995003D01*
X146428498Y-104991835D01*
X146424970Y-104989096D01*
X146422232Y-104985569D01*
X146419063Y-104984513D01*
X146409233Y-104976883D01*
X146361614Y-104953074D01*
X146358595Y-104952247D01*
X146357582Y-104951234D01*
X146347760Y-104949280D01*
X146338094Y-104946633D01*
X146336733Y-104947086D01*
X146333664Y-104946476D01*
X146238426Y-104946476D01*
X146235354Y-104947086D01*
X146233996Y-104946634D01*
X146224335Y-104949279D01*
X146214508Y-104951234D01*
X146213494Y-104952247D01*
X146210475Y-104953074D01*
X146162857Y-104976883D01*
X146153023Y-104984514D01*
X146149857Y-104985570D01*
X146147120Y-104989095D01*
X146143591Y-104991835D01*
X146142534Y-104995004D01*
X146134905Y-105004835D01*
X146111096Y-105052454D01*
X146110269Y-105055472D01*
X146109256Y-105056486D01*
X146107302Y-105066307D01*
X146104655Y-105075974D01*
X146105108Y-105077334D01*
X146104498Y-105080404D01*
X145973417Y-105080404D01*
X145991275Y-105071476D01*
X146024140Y-105071476D01*
X146048058Y-105066718D01*
X146081882Y-105032894D01*
X146081882Y-104985058D01*
X146048058Y-104951234D01*
X146024140Y-104946476D01*
X145976521Y-104946476D01*
X145973449Y-104947086D01*
X145972091Y-104946634D01*
X145962430Y-104949279D01*
X145952603Y-104951234D01*
X145951589Y-104952247D01*
X145948570Y-104953074D01*
X145920884Y-104966917D01*
X145905201Y-104951234D01*
X145857365Y-104951234D01*
X145823541Y-104985058D01*
X145818783Y-105008976D01*
X145705688Y-105008976D01*
X145700930Y-104985058D01*
X145667106Y-104951234D01*
X145619270Y-104951234D01*
X145585446Y-104985058D01*
X145580688Y-105008976D01*
X145580688Y-105267967D01*
X145557005Y-105279809D01*
X145515085Y-105279809D01*
X145499297Y-105271915D01*
X145491402Y-105256125D01*
X145491402Y-105008976D01*
X145486644Y-104985058D01*
X145452820Y-104951234D01*
X145404984Y-104951234D01*
X145371160Y-104985058D01*
X145366402Y-105008976D01*
X145243736Y-105008976D01*
X145238022Y-104991835D01*
X145218757Y-104976883D01*
X145171138Y-104953074D01*
X145168119Y-104952247D01*
X145167106Y-104951234D01*
X145157284Y-104949280D01*
X145147618Y-104946633D01*
X145146257Y-104947086D01*
X145143188Y-104946476D01*
X145071759Y-104946476D01*
X145068687Y-104947086D01*
X145067329Y-104946634D01*
X145057668Y-104949279D01*
X145047841Y-104951234D01*
X145046827Y-104952247D01*
X145043808Y-104953074D01*
X144996190Y-104976883D01*
X144986356Y-104984514D01*
X144983190Y-104985570D01*
X144980453Y-104989095D01*
X144976924Y-104991835D01*
X144975867Y-104995004D01*
X144968238Y-105004835D01*
X144944429Y-105052454D01*
X144943602Y-105055472D01*
X144942589Y-105056486D01*
X144940635Y-105066307D01*
X144937988Y-105075974D01*
X144938441Y-105077334D01*
X144937831Y-105080404D01*
X144825783Y-105080404D01*
X144826995Y-105080000D01*
X144848387Y-105037214D01*
X144833260Y-104991835D01*
X144813995Y-104976883D01*
X144766376Y-104953074D01*
X144763357Y-104952247D01*
X144762344Y-104951234D01*
X144752522Y-104949280D01*
X144742856Y-104946633D01*
X144741495Y-104947086D01*
X144738426Y-104946476D01*
X144666997Y-104946476D01*
X144663925Y-104947086D01*
X144662567Y-104946634D01*
X144652906Y-104949279D01*
X144643079Y-104951234D01*
X144642065Y-104952247D01*
X144639046Y-104953074D01*
X144591428Y-104976883D01*
X144581594Y-104984514D01*
X144578428Y-104985570D01*
X144575691Y-104989095D01*
X144572162Y-104991835D01*
X144571105Y-104995004D01*
X144563476Y-105004835D01*
X144539667Y-105052454D01*
X144538840Y-105055472D01*
X144537827Y-105056486D01*
X144535873Y-105066307D01*
X144533226Y-105075974D01*
X144533679Y-105077334D01*
X144533069Y-105080404D01*
X144467593Y-105080404D01*
X144466981Y-105077332D01*
X144467435Y-105075973D01*
X144464789Y-105066311D01*
X144462835Y-105056486D01*
X144461821Y-105055472D01*
X144460995Y-105052453D01*
X144437184Y-105004834D01*
X144429554Y-104995003D01*
X144428498Y-104991835D01*
X144424970Y-104989096D01*
X144422232Y-104985569D01*
X144419063Y-104984513D01*
X144409233Y-104976883D01*
X144361614Y-104953074D01*
X144358595Y-104952247D01*
X144357582Y-104951234D01*
X144347760Y-104949280D01*
X144338094Y-104946633D01*
X144336733Y-104947086D01*
X144333664Y-104946476D01*
X144238426Y-104946476D01*
X144235354Y-104947086D01*
X144233996Y-104946634D01*
X144224335Y-104949279D01*
X144214508Y-104951234D01*
X144213494Y-104952247D01*
X144210475Y-104953074D01*
X144162857Y-104976883D01*
X144153023Y-104984514D01*
X144149857Y-104985570D01*
X144147120Y-104989095D01*
X144143591Y-104991835D01*
X144142534Y-104995004D01*
X144134905Y-105004835D01*
X144111096Y-105052454D01*
X144110269Y-105055472D01*
X144109256Y-105056486D01*
X144107302Y-105066307D01*
X144104655Y-105075974D01*
X144105108Y-105077334D01*
X144104498Y-105080404D01*
X143973417Y-105080404D01*
X143991275Y-105071476D01*
X144024140Y-105071476D01*
X144048058Y-105066718D01*
X144081882Y-105032894D01*
X144081882Y-104985058D01*
X144048058Y-104951234D01*
X144024140Y-104946476D01*
X143976521Y-104946476D01*
X143973449Y-104947086D01*
X143972091Y-104946634D01*
X143962430Y-104949279D01*
X143952603Y-104951234D01*
X143951589Y-104952247D01*
X143948570Y-104953074D01*
X143920884Y-104966917D01*
X143905201Y-104951234D01*
X143857365Y-104951234D01*
X143823541Y-104985058D01*
X143818783Y-105008976D01*
X143729497Y-105008976D01*
X143729497Y-104937547D01*
X146914021Y-104937547D01*
X146914021Y-104985166D01*
X146914631Y-104988235D01*
X146914178Y-104989596D01*
X146916825Y-104999262D01*
X146918779Y-105009084D01*
X146919792Y-105010097D01*
X146920619Y-105013116D01*
X146944428Y-105060735D01*
X146950571Y-105068650D01*
X146956136Y-105076979D01*
X146979946Y-105100789D01*
X146988272Y-105106352D01*
X146996190Y-105112497D01*
X147043808Y-105136306D01*
X147050409Y-105138113D01*
X147056600Y-105141038D01*
X147145183Y-105163184D01*
X147177594Y-105179389D01*
X147187059Y-105188855D01*
X147199735Y-105214205D01*
X147199735Y-105232317D01*
X147187059Y-105257667D01*
X147177594Y-105267133D01*
X147152243Y-105279809D01*
X147058092Y-105279809D01*
X146996285Y-105259207D01*
X146972090Y-105256158D01*
X146929305Y-105277550D01*
X146914179Y-105322931D01*
X146935571Y-105365716D01*
X146956757Y-105377793D01*
X147028185Y-105401602D01*
X147038128Y-105402855D01*
X147047949Y-105404809D01*
X147166997Y-105404809D01*
X147170066Y-105404198D01*
X147171427Y-105404652D01*
X147181093Y-105402004D01*
X147190915Y-105400051D01*
X147191928Y-105399037D01*
X147194947Y-105398211D01*
X147242566Y-105374402D01*
X147250480Y-105368259D01*
X147258811Y-105362693D01*
X147282620Y-105338883D01*
X147288187Y-105330549D01*
X147294326Y-105322641D01*
X147318137Y-105275022D01*
X147318963Y-105272002D01*
X147319977Y-105270989D01*
X147321931Y-105261163D01*
X147324577Y-105251502D01*
X147324123Y-105250142D01*
X147324735Y-105247071D01*
X147324735Y-105199452D01*
X147324123Y-105196380D01*
X147324577Y-105195021D01*
X147321931Y-105185359D01*
X147319977Y-105175534D01*
X147318963Y-105174520D01*
X147318137Y-105171501D01*
X147294326Y-105123882D01*
X147288187Y-105115973D01*
X147282620Y-105107640D01*
X147258811Y-105083830D01*
X147253684Y-105080404D01*
X147390211Y-105080404D01*
X147390211Y-105270880D01*
X147390821Y-105273948D01*
X147390368Y-105275309D01*
X147393014Y-105284974D01*
X147394969Y-105294798D01*
X147395982Y-105295811D01*
X147396809Y-105298830D01*
X147420618Y-105346450D01*
X147428247Y-105356281D01*
X147429304Y-105359450D01*
X147432831Y-105362187D01*
X147435569Y-105365715D01*
X147438737Y-105366771D01*
X147448570Y-105374402D01*
X147496188Y-105398211D01*
X147499207Y-105399037D01*
X147500221Y-105400051D01*
X147510048Y-105402005D01*
X147519709Y-105404651D01*
X147521067Y-105404198D01*
X147524139Y-105404809D01*
X147619377Y-105404809D01*
X147622446Y-105404198D01*
X147623807Y-105404652D01*
X147633473Y-105402004D01*
X147643295Y-105400051D01*
X147644308Y-105399037D01*
X147647327Y-105398211D01*
X147694946Y-105374402D01*
X147714211Y-105359450D01*
X147729338Y-105314071D01*
X147707946Y-105271285D01*
X147662566Y-105256158D01*
X147639045Y-105262598D01*
X147604623Y-105279809D01*
X147538893Y-105279809D01*
X147523105Y-105271915D01*
X147515211Y-105256126D01*
X147515211Y-105226879D01*
X147703063Y-105189309D01*
X147711593Y-105185765D01*
X147714724Y-105185765D01*
X147716948Y-105183540D01*
X147725583Y-105179953D01*
X147735677Y-105164812D01*
X147748548Y-105151941D01*
X147750372Y-105142768D01*
X147752117Y-105140152D01*
X147751503Y-105137084D01*
X147753306Y-105128023D01*
X147753306Y-105080404D01*
X147752694Y-105077332D01*
X147753148Y-105075973D01*
X147750502Y-105066311D01*
X147748548Y-105056486D01*
X147747534Y-105055472D01*
X147746708Y-105052453D01*
X147724968Y-105008976D01*
X147842591Y-105008976D01*
X147842591Y-105342309D01*
X147847349Y-105366227D01*
X147881173Y-105400051D01*
X147929009Y-105400051D01*
X147962833Y-105366227D01*
X147967591Y-105342309D01*
X147967591Y-105083317D01*
X147991274Y-105071476D01*
X148033194Y-105071476D01*
X148048983Y-105079370D01*
X148056877Y-105095157D01*
X148056877Y-105342309D01*
X148061635Y-105366227D01*
X148095459Y-105400051D01*
X148143295Y-105400051D01*
X148177119Y-105366227D01*
X148181877Y-105342309D01*
X148181877Y-105080404D01*
X148271163Y-105080404D01*
X148271163Y-105104214D01*
X148271773Y-105107283D01*
X148271320Y-105108644D01*
X148273967Y-105118310D01*
X148275921Y-105128132D01*
X148276934Y-105129145D01*
X148277761Y-105132164D01*
X148301570Y-105179783D01*
X148309199Y-105189613D01*
X148310256Y-105192783D01*
X148313785Y-105195522D01*
X148316522Y-105199048D01*
X148319688Y-105200103D01*
X148329522Y-105207735D01*
X148377140Y-105231544D01*
X148380159Y-105232370D01*
X148381173Y-105233384D01*
X148391000Y-105235338D01*
X148400661Y-105237984D01*
X148402019Y-105237531D01*
X148405091Y-105238142D01*
X148461766Y-105238142D01*
X148477554Y-105246036D01*
X148484023Y-105258975D01*
X148477554Y-105271914D01*
X148461766Y-105279809D01*
X148396036Y-105279809D01*
X148361613Y-105262598D01*
X148338093Y-105256157D01*
X148292713Y-105271284D01*
X148271320Y-105314070D01*
X148286447Y-105359450D01*
X148305713Y-105374402D01*
X148353331Y-105398211D01*
X148356350Y-105399037D01*
X148357364Y-105400051D01*
X148367191Y-105402005D01*
X148376852Y-105404651D01*
X148378210Y-105404198D01*
X148381282Y-105404809D01*
X148476520Y-105404809D01*
X148479589Y-105404198D01*
X148480950Y-105404652D01*
X148490616Y-105402004D01*
X148500438Y-105400051D01*
X148501451Y-105399037D01*
X148504470Y-105398211D01*
X148552089Y-105374402D01*
X148561921Y-105366771D01*
X148565089Y-105365715D01*
X148567826Y-105362187D01*
X148571354Y-105359450D01*
X148572409Y-105356282D01*
X148580041Y-105346450D01*
X148603850Y-105298830D01*
X148604676Y-105295811D01*
X148605690Y-105294798D01*
X148607645Y-105284966D01*
X148610290Y-105275309D01*
X148609837Y-105273950D01*
X148610448Y-105270880D01*
X148610448Y-105247071D01*
X148609837Y-105243999D01*
X148610290Y-105242641D01*
X148607644Y-105232980D01*
X148605690Y-105223153D01*
X148604676Y-105222139D01*
X148603850Y-105219120D01*
X148580041Y-105171502D01*
X148572410Y-105161670D01*
X148571355Y-105158503D01*
X148567828Y-105155766D01*
X148565089Y-105152236D01*
X148561918Y-105151179D01*
X148552090Y-105143551D01*
X148504471Y-105119741D01*
X148501452Y-105118914D01*
X148500438Y-105117900D01*
X148490607Y-105115944D01*
X148480951Y-105113300D01*
X148479591Y-105113753D01*
X148476520Y-105113142D01*
X148419845Y-105113142D01*
X148404057Y-105105248D01*
X148403540Y-105104214D01*
X148675925Y-105104214D01*
X148675925Y-105247071D01*
X148676535Y-105250140D01*
X148676082Y-105251501D01*
X148678729Y-105261167D01*
X148680683Y-105270989D01*
X148681696Y-105272002D01*
X148682523Y-105275021D01*
X148706332Y-105322640D01*
X148712475Y-105330555D01*
X148718040Y-105338884D01*
X148741850Y-105362694D01*
X148750176Y-105368257D01*
X148758094Y-105374402D01*
X148805712Y-105398211D01*
X148808731Y-105399037D01*
X148809745Y-105400051D01*
X148819572Y-105402005D01*
X148829233Y-105404651D01*
X148830591Y-105404198D01*
X148833663Y-105404809D01*
X148905091Y-105404809D01*
X148908160Y-105404198D01*
X148909521Y-105404652D01*
X148919187Y-105402004D01*
X148929009Y-105400051D01*
X148930022Y-105399037D01*
X148933041Y-105398211D01*
X148980660Y-105374402D01*
X148988575Y-105368258D01*
X148996904Y-105362694D01*
X149020714Y-105338884D01*
X149026277Y-105330557D01*
X149032422Y-105322640D01*
X149056231Y-105275022D01*
X149057057Y-105272002D01*
X149058071Y-105270989D01*
X149060025Y-105261161D01*
X149062671Y-105251501D01*
X149062218Y-105250142D01*
X149062829Y-105247071D01*
X149062829Y-105104214D01*
X149062218Y-105101142D01*
X149062671Y-105099784D01*
X149060025Y-105090123D01*
X149058071Y-105080296D01*
X149057057Y-105079282D01*
X149056231Y-105076263D01*
X149032422Y-105028645D01*
X149026277Y-105020727D01*
X149020714Y-105012401D01*
X149017289Y-105008976D01*
X149152115Y-105008976D01*
X149152115Y-105342309D01*
X149156873Y-105366227D01*
X149190697Y-105400051D01*
X149238533Y-105400051D01*
X149272357Y-105366227D01*
X149277115Y-105342309D01*
X149277115Y-105118967D01*
X149289791Y-105093615D01*
X149299256Y-105084150D01*
X149324607Y-105071476D01*
X149357472Y-105071476D01*
X149381390Y-105066718D01*
X149415214Y-105032894D01*
X149415214Y-104985058D01*
X149381390Y-104951234D01*
X149357472Y-104946476D01*
X149309853Y-104946476D01*
X149306781Y-104947086D01*
X149305423Y-104946634D01*
X149295762Y-104949279D01*
X149285935Y-104951234D01*
X149284921Y-104952247D01*
X149281902Y-104953074D01*
X149254216Y-104966917D01*
X149238533Y-104951234D01*
X149190697Y-104951234D01*
X149156873Y-104985058D01*
X149152115Y-105008976D01*
X149017289Y-105008976D01*
X148996904Y-104988591D01*
X148988575Y-104983026D01*
X148980660Y-104976883D01*
X148933041Y-104953074D01*
X148930022Y-104952247D01*
X148929009Y-104951234D01*
X148919187Y-104949280D01*
X148909521Y-104946633D01*
X148908160Y-104947086D01*
X148905091Y-104946476D01*
X148833663Y-104946476D01*
X148830591Y-104947086D01*
X148829233Y-104946634D01*
X148819572Y-104949279D01*
X148809745Y-104951234D01*
X148808731Y-104952247D01*
X148805712Y-104953074D01*
X148758094Y-104976883D01*
X148750176Y-104983027D01*
X148741850Y-104988591D01*
X148718040Y-105012401D01*
X148712475Y-105020729D01*
X148706332Y-105028645D01*
X148682523Y-105076264D01*
X148681696Y-105079282D01*
X148680683Y-105080296D01*
X148678729Y-105090117D01*
X148676082Y-105099784D01*
X148676535Y-105101144D01*
X148675925Y-105104214D01*
X148403540Y-105104214D01*
X148397587Y-105092309D01*
X148404057Y-105079369D01*
X148419845Y-105071476D01*
X148461766Y-105071476D01*
X148496188Y-105088687D01*
X148519709Y-105095127D01*
X148565089Y-105080000D01*
X148586481Y-105037214D01*
X148571354Y-104991835D01*
X148552089Y-104976883D01*
X148504470Y-104953074D01*
X148501451Y-104952247D01*
X148500438Y-104951234D01*
X148490616Y-104949280D01*
X148480950Y-104946633D01*
X148479589Y-104947086D01*
X148476520Y-104946476D01*
X148405091Y-104946476D01*
X148402019Y-104947086D01*
X148400661Y-104946634D01*
X148391000Y-104949279D01*
X148381173Y-104951234D01*
X148380159Y-104952247D01*
X148377140Y-104953074D01*
X148329522Y-104976883D01*
X148319688Y-104984514D01*
X148316522Y-104985570D01*
X148313785Y-104989095D01*
X148310256Y-104991835D01*
X148309199Y-104995004D01*
X148301570Y-105004835D01*
X148277761Y-105052454D01*
X148276934Y-105055472D01*
X148275921Y-105056486D01*
X148273967Y-105066307D01*
X148271320Y-105075974D01*
X148271773Y-105077334D01*
X148271163Y-105080404D01*
X148181877Y-105080404D01*
X148181265Y-105077332D01*
X148181719Y-105075973D01*
X148179073Y-105066311D01*
X148177119Y-105056486D01*
X148176105Y-105055472D01*
X148175279Y-105052453D01*
X148151468Y-105004834D01*
X148143838Y-104995003D01*
X148142782Y-104991835D01*
X148139254Y-104989096D01*
X148136516Y-104985569D01*
X148133347Y-104984513D01*
X148123517Y-104976883D01*
X148075898Y-104953074D01*
X148072879Y-104952247D01*
X148071866Y-104951234D01*
X148062044Y-104949280D01*
X148052378Y-104946633D01*
X148051017Y-104947086D01*
X148047948Y-104946476D01*
X147976520Y-104946476D01*
X147973448Y-104947086D01*
X147972090Y-104946634D01*
X147962429Y-104949279D01*
X147952602Y-104951234D01*
X147951588Y-104952247D01*
X147948569Y-104953074D01*
X147936755Y-104958980D01*
X147929009Y-104951234D01*
X147881173Y-104951234D01*
X147847349Y-104985058D01*
X147842591Y-105008976D01*
X147724968Y-105008976D01*
X147722897Y-105004834D01*
X147715267Y-104995003D01*
X147714211Y-104991835D01*
X147710683Y-104989096D01*
X147707945Y-104985569D01*
X147704776Y-104984513D01*
X147694946Y-104976883D01*
X147647327Y-104953074D01*
X147644308Y-104952247D01*
X147643295Y-104951234D01*
X147633473Y-104949280D01*
X147623807Y-104946633D01*
X147622446Y-104947086D01*
X147619377Y-104946476D01*
X147524139Y-104946476D01*
X147521067Y-104947086D01*
X147519709Y-104946634D01*
X147510048Y-104949279D01*
X147500221Y-104951234D01*
X147499207Y-104952247D01*
X147496188Y-104953074D01*
X147448570Y-104976883D01*
X147438736Y-104984514D01*
X147435570Y-104985570D01*
X147432833Y-104989095D01*
X147429304Y-104991835D01*
X147428247Y-104995004D01*
X147420618Y-105004835D01*
X147396809Y-105052454D01*
X147395982Y-105055472D01*
X147394969Y-105056486D01*
X147393015Y-105066307D01*
X147390368Y-105075974D01*
X147390821Y-105077334D01*
X147390211Y-105080404D01*
X147253684Y-105080404D01*
X147250480Y-105078263D01*
X147242566Y-105072121D01*
X147194947Y-105048312D01*
X147188345Y-105046504D01*
X147182156Y-105043580D01*
X147093571Y-105021433D01*
X147061161Y-105005228D01*
X147051697Y-104995764D01*
X147039021Y-104970412D01*
X147039021Y-104952301D01*
X147051696Y-104926949D01*
X147061162Y-104917484D01*
X147086512Y-104904809D01*
X147180663Y-104904809D01*
X147242471Y-104925412D01*
X147266666Y-104928461D01*
X147309450Y-104907069D01*
X147324578Y-104861688D01*
X147314888Y-104842309D01*
X149842591Y-104842309D01*
X149842591Y-105342309D01*
X149847349Y-105366227D01*
X149881173Y-105400051D01*
X149905091Y-105404809D01*
X150095567Y-105404809D01*
X150098636Y-105404198D01*
X150099997Y-105404652D01*
X150109663Y-105402004D01*
X150119485Y-105400051D01*
X150120498Y-105399037D01*
X150123517Y-105398211D01*
X150171136Y-105374402D01*
X150179051Y-105368258D01*
X150187380Y-105362694D01*
X150211190Y-105338884D01*
X150216753Y-105330557D01*
X150222898Y-105322640D01*
X150246707Y-105275022D01*
X150247533Y-105272002D01*
X150248547Y-105270989D01*
X150250501Y-105261161D01*
X150253147Y-105251501D01*
X150252694Y-105250142D01*
X150253305Y-105247071D01*
X150253305Y-105175642D01*
X150252694Y-105172570D01*
X150253147Y-105171212D01*
X150250501Y-105161551D01*
X150248547Y-105151724D01*
X150247533Y-105150710D01*
X150246707Y-105147691D01*
X150224968Y-105104214D01*
X150318782Y-105104214D01*
X150318782Y-105247071D01*
X150319392Y-105250140D01*
X150318939Y-105251501D01*
X150321586Y-105261167D01*
X150323540Y-105270989D01*
X150324553Y-105272002D01*
X150325380Y-105275021D01*
X150349189Y-105322640D01*
X150355332Y-105330555D01*
X150360897Y-105338884D01*
X150384707Y-105362694D01*
X150393033Y-105368257D01*
X150400951Y-105374402D01*
X150448569Y-105398211D01*
X150451588Y-105399037D01*
X150452602Y-105400051D01*
X150462429Y-105402005D01*
X150472090Y-105404651D01*
X150473448Y-105404198D01*
X150476520Y-105404809D01*
X150547948Y-105404809D01*
X150551017Y-105404198D01*
X150552378Y-105404652D01*
X150562044Y-105402004D01*
X150571866Y-105400051D01*
X150572879Y-105399037D01*
X150575898Y-105398211D01*
X150623517Y-105374402D01*
X150631432Y-105368258D01*
X150639761Y-105362694D01*
X150663571Y-105338884D01*
X150669134Y-105330557D01*
X150675279Y-105322640D01*
X150699088Y-105275022D01*
X150699914Y-105272002D01*
X150700928Y-105270989D01*
X150702882Y-105261161D01*
X150705528Y-105251501D01*
X150705075Y-105250142D01*
X150705686Y-105247071D01*
X150705686Y-105223261D01*
X150771163Y-105223261D01*
X150771163Y-105270880D01*
X150771773Y-105273948D01*
X150771320Y-105275309D01*
X150773966Y-105284974D01*
X150775921Y-105294798D01*
X150776934Y-105295811D01*
X150777761Y-105298830D01*
X150801570Y-105346450D01*
X150809199Y-105356281D01*
X150810256Y-105359450D01*
X150813783Y-105362187D01*
X150816521Y-105365715D01*
X150819689Y-105366771D01*
X150829522Y-105374402D01*
X150877140Y-105398211D01*
X150880159Y-105399037D01*
X150881173Y-105400051D01*
X150891000Y-105402005D01*
X150900661Y-105404651D01*
X150902019Y-105404198D01*
X150905091Y-105404809D01*
X151024139Y-105404809D01*
X151027208Y-105404198D01*
X151028569Y-105404652D01*
X151038235Y-105402004D01*
X151048057Y-105400051D01*
X151095676Y-105400051D01*
X151129500Y-105366227D01*
X151134258Y-105342309D01*
X151134258Y-105080404D01*
X151133646Y-105077332D01*
X151134100Y-105075973D01*
X151131454Y-105066311D01*
X151129500Y-105056486D01*
X151128486Y-105055472D01*
X151127660Y-105052453D01*
X151105920Y-105008976D01*
X151247353Y-105008976D01*
X151247353Y-105342309D01*
X151252111Y-105366227D01*
X151285935Y-105400051D01*
X151333771Y-105400051D01*
X151367595Y-105366227D01*
X151372353Y-105342309D01*
X151372353Y-105118967D01*
X151379730Y-105104214D01*
X151533068Y-105104214D01*
X151533068Y-105247071D01*
X151533678Y-105250140D01*
X151533225Y-105251501D01*
X151535872Y-105261167D01*
X151537826Y-105270989D01*
X151538839Y-105272002D01*
X151539666Y-105275021D01*
X151563475Y-105322640D01*
X151569618Y-105330555D01*
X151575183Y-105338884D01*
X151598993Y-105362694D01*
X151607319Y-105368257D01*
X151615237Y-105374402D01*
X151662855Y-105398211D01*
X151665874Y-105399037D01*
X151666888Y-105400051D01*
X151676715Y-105402005D01*
X151686376Y-105404651D01*
X151687734Y-105404198D01*
X151690806Y-105404809D01*
X151786044Y-105404809D01*
X151789113Y-105404198D01*
X151790474Y-105404652D01*
X151800140Y-105402004D01*
X151809962Y-105400051D01*
X151857581Y-105400051D01*
X151891405Y-105366227D01*
X151896163Y-105342309D01*
X151896163Y-104842309D01*
X151891405Y-104818391D01*
X151857581Y-104784567D01*
X151809745Y-104784567D01*
X151775921Y-104818391D01*
X151771163Y-104842309D01*
X151771163Y-104946476D01*
X151690806Y-104946476D01*
X151687734Y-104947086D01*
X151686376Y-104946634D01*
X151676715Y-104949279D01*
X151666888Y-104951234D01*
X151665874Y-104952247D01*
X151662855Y-104953074D01*
X151615237Y-104976883D01*
X151607319Y-104983027D01*
X151598993Y-104988591D01*
X151575183Y-105012401D01*
X151569618Y-105020729D01*
X151563475Y-105028645D01*
X151539666Y-105076264D01*
X151538839Y-105079282D01*
X151537826Y-105080296D01*
X151535872Y-105090117D01*
X151533225Y-105099784D01*
X151533678Y-105101144D01*
X151533068Y-105104214D01*
X151379730Y-105104214D01*
X151385029Y-105093615D01*
X151394494Y-105084150D01*
X151419845Y-105071476D01*
X151452710Y-105071476D01*
X151476628Y-105066718D01*
X151510452Y-105032894D01*
X151510452Y-104985058D01*
X151476628Y-104951234D01*
X151452710Y-104946476D01*
X151405091Y-104946476D01*
X151402019Y-104947086D01*
X151400661Y-104946634D01*
X151391000Y-104949279D01*
X151381173Y-104951234D01*
X151380159Y-104952247D01*
X151377140Y-104953074D01*
X151349454Y-104966917D01*
X151333771Y-104951234D01*
X151285935Y-104951234D01*
X151252111Y-104985058D01*
X151247353Y-105008976D01*
X151105920Y-105008976D01*
X151103849Y-105004834D01*
X151096219Y-104995003D01*
X151095163Y-104991835D01*
X151091635Y-104989096D01*
X151088897Y-104985569D01*
X151085728Y-104984513D01*
X151075898Y-104976883D01*
X151028279Y-104953074D01*
X151025260Y-104952247D01*
X151024247Y-104951234D01*
X151014425Y-104949280D01*
X151004759Y-104946633D01*
X151003398Y-104947086D01*
X151000329Y-104946476D01*
X150905091Y-104946476D01*
X150902019Y-104947086D01*
X150900661Y-104946634D01*
X150891000Y-104949279D01*
X150881173Y-104951234D01*
X150880159Y-104952247D01*
X150877140Y-104953074D01*
X150829522Y-104976883D01*
X150810256Y-104991835D01*
X150795129Y-105037215D01*
X150816522Y-105080001D01*
X150861902Y-105095128D01*
X150885422Y-105088687D01*
X150919845Y-105071476D01*
X150985575Y-105071476D01*
X151001364Y-105079370D01*
X151006346Y-105089333D01*
X150905091Y-105089333D01*
X150902019Y-105089943D01*
X150900661Y-105089491D01*
X150891000Y-105092136D01*
X150881173Y-105094091D01*
X150880159Y-105095104D01*
X150877140Y-105095931D01*
X150829522Y-105119740D01*
X150819688Y-105127371D01*
X150816522Y-105128427D01*
X150813785Y-105131952D01*
X150810256Y-105134692D01*
X150809199Y-105137861D01*
X150801570Y-105147692D01*
X150777761Y-105195311D01*
X150776934Y-105198329D01*
X150775921Y-105199343D01*
X150773967Y-105209164D01*
X150771320Y-105218831D01*
X150771773Y-105220191D01*
X150771163Y-105223261D01*
X150705686Y-105223261D01*
X150705686Y-105104214D01*
X150705075Y-105101142D01*
X150705528Y-105099784D01*
X150702882Y-105090123D01*
X150700928Y-105080296D01*
X150699914Y-105079282D01*
X150699088Y-105076263D01*
X150675279Y-105028645D01*
X150669134Y-105020727D01*
X150663571Y-105012401D01*
X150639761Y-104988591D01*
X150631432Y-104983026D01*
X150623517Y-104976883D01*
X150575898Y-104953074D01*
X150572879Y-104952247D01*
X150571866Y-104951234D01*
X150562044Y-104949280D01*
X150552378Y-104946633D01*
X150551017Y-104947086D01*
X150547948Y-104946476D01*
X150476520Y-104946476D01*
X150473448Y-104947086D01*
X150472090Y-104946634D01*
X150462429Y-104949279D01*
X150452602Y-104951234D01*
X150451588Y-104952247D01*
X150448569Y-104953074D01*
X150400951Y-104976883D01*
X150393033Y-104983027D01*
X150384707Y-104988591D01*
X150360897Y-105012401D01*
X150355332Y-105020729D01*
X150349189Y-105028645D01*
X150325380Y-105076264D01*
X150324553Y-105079282D01*
X150323540Y-105080296D01*
X150321586Y-105090117D01*
X150318939Y-105099784D01*
X150319392Y-105101144D01*
X150318782Y-105104214D01*
X150224968Y-105104214D01*
X150222898Y-105100073D01*
X150216753Y-105092155D01*
X150211189Y-105083828D01*
X150194284Y-105066924D01*
X150199087Y-105060736D01*
X150222898Y-105013117D01*
X150223724Y-105010097D01*
X150224738Y-105009084D01*
X150226692Y-104999258D01*
X150229338Y-104989597D01*
X150228884Y-104988237D01*
X150229496Y-104985166D01*
X150229496Y-104937547D01*
X150228884Y-104934475D01*
X150229338Y-104933116D01*
X150226692Y-104923454D01*
X150224738Y-104913629D01*
X150223724Y-104912615D01*
X150222898Y-104909596D01*
X150199087Y-104861977D01*
X150192946Y-104854065D01*
X150187380Y-104845734D01*
X150163571Y-104821925D01*
X150155239Y-104816358D01*
X150147328Y-104810218D01*
X150099709Y-104786408D01*
X150096690Y-104785581D01*
X150095676Y-104784567D01*
X150085845Y-104782611D01*
X150076189Y-104779967D01*
X150074829Y-104780420D01*
X150071758Y-104779809D01*
X149905091Y-104779809D01*
X149881173Y-104784567D01*
X149847349Y-104818391D01*
X149842591Y-104842309D01*
X147314888Y-104842309D01*
X147303186Y-104818904D01*
X147282000Y-104806826D01*
X147210570Y-104783016D01*
X147200631Y-104781763D01*
X147190806Y-104779809D01*
X147071759Y-104779809D01*
X147068687Y-104780420D01*
X147067328Y-104779967D01*
X147057666Y-104782612D01*
X147047841Y-104784567D01*
X147046827Y-104785580D01*
X147043808Y-104786407D01*
X146996189Y-104810218D01*
X146988280Y-104816356D01*
X146979947Y-104821924D01*
X146956137Y-104845733D01*
X146950570Y-104854063D01*
X146944428Y-104861978D01*
X146920619Y-104909597D01*
X146919792Y-104912615D01*
X146918779Y-104913629D01*
X146916825Y-104923450D01*
X146914178Y-104933117D01*
X146914631Y-104934477D01*
X146914021Y-104937547D01*
X143729497Y-104937547D01*
X143728886Y-104934475D01*
X143729339Y-104933117D01*
X143726693Y-104923456D01*
X143724739Y-104913629D01*
X143723725Y-104912615D01*
X143722899Y-104909596D01*
X143699090Y-104861978D01*
X143692945Y-104854060D01*
X143687381Y-104845733D01*
X143663571Y-104821924D01*
X143655237Y-104816356D01*
X143647329Y-104810218D01*
X143599710Y-104786408D01*
X143596691Y-104785581D01*
X143595677Y-104784567D01*
X143585846Y-104782611D01*
X143576190Y-104779967D01*
X143574830Y-104780420D01*
X143571759Y-104779809D01*
X143381283Y-104779809D01*
X143357365Y-104784567D01*
X143323541Y-104818391D01*
X143318783Y-104842309D01*
X143256283Y-104842309D01*
X143256283Y-104037337D01*
X143318783Y-104037337D01*
X143318783Y-104537337D01*
X143323541Y-104561255D01*
X143357365Y-104595079D01*
X143381283Y-104599837D01*
X143619378Y-104599837D01*
X143643296Y-104595079D01*
X143677120Y-104561255D01*
X143677120Y-104513419D01*
X143643296Y-104479595D01*
X143619378Y-104474837D01*
X143443783Y-104474837D01*
X143443783Y-104337932D01*
X143547950Y-104337932D01*
X143571868Y-104333174D01*
X143605692Y-104299350D01*
X143605692Y-104299242D01*
X143747355Y-104299242D01*
X143747355Y-104442099D01*
X143747965Y-104445168D01*
X143747512Y-104446529D01*
X143750159Y-104456195D01*
X143752113Y-104466017D01*
X143753126Y-104467030D01*
X143753953Y-104470049D01*
X143777762Y-104517668D01*
X143783905Y-104525583D01*
X143789470Y-104533912D01*
X143813280Y-104557722D01*
X143821606Y-104563285D01*
X143829524Y-104569430D01*
X143877142Y-104593239D01*
X143880161Y-104594065D01*
X143881175Y-104595079D01*
X143891002Y-104597033D01*
X143900663Y-104599679D01*
X143902021Y-104599226D01*
X143905093Y-104599837D01*
X144000331Y-104599837D01*
X144003400Y-104599226D01*
X144004761Y-104599680D01*
X144014427Y-104597032D01*
X144024249Y-104595079D01*
X144071868Y-104595079D01*
X144105692Y-104561255D01*
X144110450Y-104537337D01*
X144110450Y-104275432D01*
X144199736Y-104275432D01*
X144199736Y-104465908D01*
X144200346Y-104468976D01*
X144199893Y-104470337D01*
X144202539Y-104480002D01*
X144204494Y-104489826D01*
X144205507Y-104490839D01*
X144206334Y-104493858D01*
X144230143Y-104541478D01*
X144237772Y-104551309D01*
X144238829Y-104554478D01*
X144242356Y-104557215D01*
X144245094Y-104560743D01*
X144248262Y-104561799D01*
X144258095Y-104569430D01*
X144305713Y-104593239D01*
X144308732Y-104594065D01*
X144309746Y-104595079D01*
X144319573Y-104597033D01*
X144329234Y-104599679D01*
X144330592Y-104599226D01*
X144333664Y-104599837D01*
X144428902Y-104599837D01*
X144431971Y-104599226D01*
X144433332Y-104599680D01*
X144442998Y-104597032D01*
X144452820Y-104595079D01*
X144453833Y-104594065D01*
X144456852Y-104593239D01*
X144504471Y-104569430D01*
X144523736Y-104554478D01*
X144538863Y-104509099D01*
X144517471Y-104466313D01*
X144472091Y-104451186D01*
X144448570Y-104457626D01*
X144414148Y-104474837D01*
X144348418Y-104474837D01*
X144332630Y-104466943D01*
X144324736Y-104451154D01*
X144324736Y-104421907D01*
X144512588Y-104384337D01*
X144521118Y-104380793D01*
X144524249Y-104380793D01*
X144526473Y-104378568D01*
X144535108Y-104374981D01*
X144545202Y-104359840D01*
X144558073Y-104346969D01*
X144559897Y-104337796D01*
X144561642Y-104335180D01*
X144561028Y-104332112D01*
X144562831Y-104323051D01*
X144562831Y-104275432D01*
X144562219Y-104272360D01*
X144562673Y-104271001D01*
X144560027Y-104261339D01*
X144558073Y-104251514D01*
X144557059Y-104250500D01*
X144556233Y-104247481D01*
X144534493Y-104204004D01*
X144652116Y-104204004D01*
X144652116Y-104537337D01*
X144656874Y-104561255D01*
X144690698Y-104595079D01*
X144738534Y-104595079D01*
X144772358Y-104561255D01*
X144777116Y-104537337D01*
X144777116Y-104278345D01*
X144800799Y-104266504D01*
X144842719Y-104266504D01*
X144858508Y-104274398D01*
X144866402Y-104290185D01*
X144866402Y-104537337D01*
X144871160Y-104561255D01*
X144904984Y-104595079D01*
X144952820Y-104595079D01*
X144986644Y-104561255D01*
X144991402Y-104537337D01*
X144991402Y-104275432D01*
X144990790Y-104272360D01*
X144991244Y-104271001D01*
X144988598Y-104261339D01*
X144986644Y-104251514D01*
X144985630Y-104250500D01*
X144984804Y-104247481D01*
X144960993Y-104199862D01*
X144953363Y-104190031D01*
X144952307Y-104186863D01*
X144948779Y-104184124D01*
X144946041Y-104180597D01*
X144942872Y-104179541D01*
X144933042Y-104171911D01*
X144885423Y-104148102D01*
X144882404Y-104147275D01*
X144881391Y-104146262D01*
X144871569Y-104144308D01*
X144861903Y-104141661D01*
X144860542Y-104142114D01*
X144857473Y-104141504D01*
X144786045Y-104141504D01*
X144782973Y-104142114D01*
X144781615Y-104141662D01*
X144771954Y-104144307D01*
X144762127Y-104146262D01*
X144761113Y-104147275D01*
X144758094Y-104148102D01*
X144746280Y-104154008D01*
X144738534Y-104146262D01*
X144690698Y-104146262D01*
X144656874Y-104180086D01*
X144652116Y-104204004D01*
X144534493Y-104204004D01*
X144532422Y-104199862D01*
X144524792Y-104190031D01*
X144523736Y-104186863D01*
X144520208Y-104184124D01*
X144517470Y-104180597D01*
X144514301Y-104179541D01*
X144504471Y-104171911D01*
X144456852Y-104148102D01*
X144453833Y-104147275D01*
X144452820Y-104146262D01*
X144442998Y-104144308D01*
X144433332Y-104141661D01*
X144431971Y-104142114D01*
X144428902Y-104141504D01*
X144333664Y-104141504D01*
X144330592Y-104142114D01*
X144329234Y-104141662D01*
X144319573Y-104144307D01*
X144309746Y-104146262D01*
X144308732Y-104147275D01*
X144305713Y-104148102D01*
X144258095Y-104171911D01*
X144248261Y-104179542D01*
X144245095Y-104180598D01*
X144242358Y-104184123D01*
X144238829Y-104186863D01*
X144237772Y-104190032D01*
X144230143Y-104199863D01*
X144206334Y-104247482D01*
X144205507Y-104250500D01*
X144204494Y-104251514D01*
X144202540Y-104261335D01*
X144199893Y-104271002D01*
X144200346Y-104272362D01*
X144199736Y-104275432D01*
X144110450Y-104275432D01*
X144110450Y-104037337D01*
X145485449Y-104037337D01*
X145485449Y-104537337D01*
X145490207Y-104561255D01*
X145524031Y-104595079D01*
X145547949Y-104599837D01*
X145786044Y-104599837D01*
X145809962Y-104595079D01*
X145843786Y-104561255D01*
X145843786Y-104513419D01*
X145809962Y-104479595D01*
X145786044Y-104474837D01*
X145610449Y-104474837D01*
X145610449Y-104337932D01*
X145714616Y-104337932D01*
X145738534Y-104333174D01*
X145772358Y-104299350D01*
X145772358Y-104251514D01*
X145738534Y-104217690D01*
X145714616Y-104212932D01*
X145610449Y-104212932D01*
X145610449Y-104099837D01*
X145786044Y-104099837D01*
X145809962Y-104095079D01*
X145843786Y-104061255D01*
X145843786Y-104037337D01*
X145937830Y-104037337D01*
X145937830Y-104465908D01*
X145938440Y-104468979D01*
X145937988Y-104470338D01*
X145940633Y-104479998D01*
X145942588Y-104489826D01*
X145943601Y-104490839D01*
X145944428Y-104493859D01*
X145968238Y-104541479D01*
X145975867Y-104551308D01*
X145976924Y-104554478D01*
X145980453Y-104557217D01*
X145983191Y-104560744D01*
X145986358Y-104561799D01*
X145996190Y-104569430D01*
X146043808Y-104593239D01*
X146067329Y-104599679D01*
X146112709Y-104584552D01*
X146134101Y-104541766D01*
X146118974Y-104496387D01*
X146099709Y-104481435D01*
X146070725Y-104466943D01*
X146062830Y-104451153D01*
X146062830Y-104180086D01*
X146133065Y-104180086D01*
X146133065Y-104227922D01*
X146166889Y-104261746D01*
X146190807Y-104266504D01*
X146199735Y-104266504D01*
X146199735Y-104537337D01*
X146204493Y-104561255D01*
X146238317Y-104595079D01*
X146286153Y-104595079D01*
X146319977Y-104561255D01*
X146324735Y-104537337D01*
X146324735Y-104418289D01*
X146461640Y-104418289D01*
X146461640Y-104465908D01*
X146462250Y-104468976D01*
X146461797Y-104470337D01*
X146464443Y-104480002D01*
X146466398Y-104489826D01*
X146467411Y-104490839D01*
X146468238Y-104493858D01*
X146492047Y-104541478D01*
X146499676Y-104551309D01*
X146500733Y-104554478D01*
X146504260Y-104557215D01*
X146506998Y-104560743D01*
X146510166Y-104561799D01*
X146519999Y-104569430D01*
X146567617Y-104593239D01*
X146570636Y-104594065D01*
X146571650Y-104595079D01*
X146581477Y-104597033D01*
X146591138Y-104599679D01*
X146592496Y-104599226D01*
X146595568Y-104599837D01*
X146714616Y-104599837D01*
X146717685Y-104599226D01*
X146719046Y-104599680D01*
X146728712Y-104597032D01*
X146738534Y-104595079D01*
X146786153Y-104595079D01*
X146819977Y-104561255D01*
X146824735Y-104537337D01*
X146824735Y-104275432D01*
X146914021Y-104275432D01*
X146914021Y-104299242D01*
X146914631Y-104302311D01*
X146914178Y-104303672D01*
X146916825Y-104313338D01*
X146918779Y-104323160D01*
X146919792Y-104324173D01*
X146920619Y-104327192D01*
X146944428Y-104374811D01*
X146952057Y-104384641D01*
X146953114Y-104387811D01*
X146956643Y-104390550D01*
X146959380Y-104394076D01*
X146962546Y-104395131D01*
X146972380Y-104402763D01*
X147019998Y-104426572D01*
X147023017Y-104427398D01*
X147024031Y-104428412D01*
X147033858Y-104430366D01*
X147043519Y-104433012D01*
X147044877Y-104432559D01*
X147047949Y-104433170D01*
X147104624Y-104433170D01*
X147120412Y-104441064D01*
X147126881Y-104454003D01*
X147120412Y-104466942D01*
X147104624Y-104474837D01*
X147038894Y-104474837D01*
X147004471Y-104457626D01*
X146980951Y-104451185D01*
X146935571Y-104466312D01*
X146914178Y-104509098D01*
X146929305Y-104554478D01*
X146948571Y-104569430D01*
X146996189Y-104593239D01*
X146999208Y-104594065D01*
X147000222Y-104595079D01*
X147010049Y-104597033D01*
X147019710Y-104599679D01*
X147021068Y-104599226D01*
X147024140Y-104599837D01*
X147119378Y-104599837D01*
X147122447Y-104599226D01*
X147123808Y-104599680D01*
X147133474Y-104597032D01*
X147143296Y-104595079D01*
X147144309Y-104594065D01*
X147147328Y-104593239D01*
X147194947Y-104569430D01*
X147204779Y-104561799D01*
X147207947Y-104560743D01*
X147210684Y-104557215D01*
X147214212Y-104554478D01*
X147215267Y-104551310D01*
X147222899Y-104541478D01*
X147246708Y-104493858D01*
X147247534Y-104490839D01*
X147248548Y-104489826D01*
X147250503Y-104479994D01*
X147253148Y-104470337D01*
X147252695Y-104468978D01*
X147253306Y-104465908D01*
X147253306Y-104442099D01*
X147252695Y-104439027D01*
X147253148Y-104437669D01*
X147250502Y-104428008D01*
X147248548Y-104418181D01*
X147247534Y-104417167D01*
X147246708Y-104414148D01*
X147222899Y-104366530D01*
X147215268Y-104356698D01*
X147214213Y-104353531D01*
X147210686Y-104350794D01*
X147207947Y-104347264D01*
X147204776Y-104346207D01*
X147194948Y-104338579D01*
X147147329Y-104314769D01*
X147144310Y-104313942D01*
X147143296Y-104312928D01*
X147133465Y-104310972D01*
X147123809Y-104308328D01*
X147122449Y-104308781D01*
X147119378Y-104308170D01*
X147062703Y-104308170D01*
X147046915Y-104300276D01*
X147040445Y-104287337D01*
X147046915Y-104274397D01*
X147062703Y-104266504D01*
X147104624Y-104266504D01*
X147139046Y-104283715D01*
X147162567Y-104290155D01*
X147206735Y-104275432D01*
X147318783Y-104275432D01*
X147318783Y-104299242D01*
X147319393Y-104302311D01*
X147318940Y-104303672D01*
X147321587Y-104313338D01*
X147323541Y-104323160D01*
X147324554Y-104324173D01*
X147325381Y-104327192D01*
X147349190Y-104374811D01*
X147356819Y-104384641D01*
X147357876Y-104387811D01*
X147361405Y-104390550D01*
X147364142Y-104394076D01*
X147367308Y-104395131D01*
X147377142Y-104402763D01*
X147424760Y-104426572D01*
X147427779Y-104427398D01*
X147428793Y-104428412D01*
X147438620Y-104430366D01*
X147448281Y-104433012D01*
X147449639Y-104432559D01*
X147452711Y-104433170D01*
X147509386Y-104433170D01*
X147525174Y-104441064D01*
X147531643Y-104454003D01*
X147525174Y-104466942D01*
X147509386Y-104474837D01*
X147443656Y-104474837D01*
X147409233Y-104457626D01*
X147385713Y-104451185D01*
X147340333Y-104466312D01*
X147318940Y-104509098D01*
X147334067Y-104554478D01*
X147353333Y-104569430D01*
X147400951Y-104593239D01*
X147403970Y-104594065D01*
X147404984Y-104595079D01*
X147414811Y-104597033D01*
X147424472Y-104599679D01*
X147425830Y-104599226D01*
X147428902Y-104599837D01*
X147524140Y-104599837D01*
X147527209Y-104599226D01*
X147528570Y-104599680D01*
X147538236Y-104597032D01*
X147548058Y-104595079D01*
X147549071Y-104594065D01*
X147552090Y-104593239D01*
X147599709Y-104569430D01*
X147609541Y-104561799D01*
X147612709Y-104560743D01*
X147615446Y-104557215D01*
X147618974Y-104554478D01*
X147620029Y-104551310D01*
X147627661Y-104541478D01*
X147651470Y-104493858D01*
X147652296Y-104490839D01*
X147653310Y-104489826D01*
X147655265Y-104479994D01*
X147657910Y-104470337D01*
X147657457Y-104468978D01*
X147658068Y-104465908D01*
X147658068Y-104442099D01*
X147657457Y-104439027D01*
X147657910Y-104437669D01*
X147655264Y-104428008D01*
X147653310Y-104418181D01*
X147652296Y-104417167D01*
X147651470Y-104414148D01*
X147627661Y-104366530D01*
X147620030Y-104356698D01*
X147618975Y-104353531D01*
X147615448Y-104350794D01*
X147612709Y-104347264D01*
X147609538Y-104346207D01*
X147599710Y-104338579D01*
X147552091Y-104314769D01*
X147549072Y-104313942D01*
X147548058Y-104312928D01*
X147538227Y-104310972D01*
X147528571Y-104308328D01*
X147527211Y-104308781D01*
X147524140Y-104308170D01*
X147467465Y-104308170D01*
X147451677Y-104300276D01*
X147445207Y-104287337D01*
X147451677Y-104274397D01*
X147467465Y-104266504D01*
X147509386Y-104266504D01*
X147543808Y-104283715D01*
X147567329Y-104290155D01*
X147612709Y-104275028D01*
X147634101Y-104232242D01*
X147623653Y-104200900D01*
X147699812Y-104200900D01*
X147703376Y-104225025D01*
X147814469Y-104536084D01*
X147780398Y-104621262D01*
X147772833Y-104628827D01*
X147734284Y-104648103D01*
X147715019Y-104663055D01*
X147699893Y-104708435D01*
X147721286Y-104751220D01*
X147766666Y-104766346D01*
X147790186Y-104759905D01*
X147837805Y-104736095D01*
X147845713Y-104729956D01*
X147854047Y-104724389D01*
X147877857Y-104700580D01*
X147878150Y-104700141D01*
X147878393Y-104700037D01*
X147884846Y-104690119D01*
X147891406Y-104680303D01*
X147891406Y-104680039D01*
X147891694Y-104679597D01*
X147939313Y-104560548D01*
X147939530Y-104559379D01*
X147940142Y-104558358D01*
X148059189Y-104225025D01*
X148062752Y-104200901D01*
X148042275Y-104157671D01*
X147997226Y-104141582D01*
X147953996Y-104162059D01*
X147941471Y-104182984D01*
X147881282Y-104351511D01*
X147821094Y-104182983D01*
X147808569Y-104162059D01*
X147765339Y-104141581D01*
X147720290Y-104157670D01*
X147699812Y-104200900D01*
X147623653Y-104200900D01*
X147618974Y-104186863D01*
X147599709Y-104171911D01*
X147552090Y-104148102D01*
X147549071Y-104147275D01*
X147548058Y-104146262D01*
X147538236Y-104144308D01*
X147528570Y-104141661D01*
X147527209Y-104142114D01*
X147524140Y-104141504D01*
X147452711Y-104141504D01*
X147449639Y-104142114D01*
X147448281Y-104141662D01*
X147438620Y-104144307D01*
X147428793Y-104146262D01*
X147427779Y-104147275D01*
X147424760Y-104148102D01*
X147377142Y-104171911D01*
X147367308Y-104179542D01*
X147364142Y-104180598D01*
X147361405Y-104184123D01*
X147357876Y-104186863D01*
X147356819Y-104190032D01*
X147349190Y-104199863D01*
X147325381Y-104247482D01*
X147324554Y-104250500D01*
X147323541Y-104251514D01*
X147321587Y-104261335D01*
X147318940Y-104271002D01*
X147319393Y-104272362D01*
X147318783Y-104275432D01*
X147206735Y-104275432D01*
X147207947Y-104275028D01*
X147229339Y-104232242D01*
X147214212Y-104186863D01*
X147194947Y-104171911D01*
X147147328Y-104148102D01*
X147144309Y-104147275D01*
X147143296Y-104146262D01*
X147133474Y-104144308D01*
X147123808Y-104141661D01*
X147122447Y-104142114D01*
X147119378Y-104141504D01*
X147047949Y-104141504D01*
X147044877Y-104142114D01*
X147043519Y-104141662D01*
X147033858Y-104144307D01*
X147024031Y-104146262D01*
X147023017Y-104147275D01*
X147019998Y-104148102D01*
X146972380Y-104171911D01*
X146962546Y-104179542D01*
X146959380Y-104180598D01*
X146956643Y-104184123D01*
X146953114Y-104186863D01*
X146952057Y-104190032D01*
X146944428Y-104199863D01*
X146920619Y-104247482D01*
X146919792Y-104250500D01*
X146918779Y-104251514D01*
X146916825Y-104261335D01*
X146914178Y-104271002D01*
X146914631Y-104272362D01*
X146914021Y-104275432D01*
X146824735Y-104275432D01*
X146824123Y-104272360D01*
X146824577Y-104271001D01*
X146821931Y-104261339D01*
X146819977Y-104251514D01*
X146818963Y-104250500D01*
X146818137Y-104247481D01*
X146794326Y-104199862D01*
X146786696Y-104190031D01*
X146785640Y-104186863D01*
X146782112Y-104184124D01*
X146779374Y-104180597D01*
X146776205Y-104179541D01*
X146766375Y-104171911D01*
X146718756Y-104148102D01*
X146715737Y-104147275D01*
X146714724Y-104146262D01*
X146704902Y-104144308D01*
X146695236Y-104141661D01*
X146693875Y-104142114D01*
X146690806Y-104141504D01*
X146595568Y-104141504D01*
X146592496Y-104142114D01*
X146591138Y-104141662D01*
X146581477Y-104144307D01*
X146571650Y-104146262D01*
X146570636Y-104147275D01*
X146567617Y-104148102D01*
X146519999Y-104171911D01*
X146500733Y-104186863D01*
X146485606Y-104232243D01*
X146506999Y-104275029D01*
X146552379Y-104290156D01*
X146575899Y-104283715D01*
X146610322Y-104266504D01*
X146676052Y-104266504D01*
X146691841Y-104274398D01*
X146696823Y-104284361D01*
X146595568Y-104284361D01*
X146592496Y-104284971D01*
X146591138Y-104284519D01*
X146581477Y-104287164D01*
X146571650Y-104289119D01*
X146570636Y-104290132D01*
X146567617Y-104290959D01*
X146519999Y-104314768D01*
X146510165Y-104322399D01*
X146506999Y-104323455D01*
X146504262Y-104326980D01*
X146500733Y-104329720D01*
X146499676Y-104332889D01*
X146492047Y-104342720D01*
X146468238Y-104390339D01*
X146467411Y-104393357D01*
X146466398Y-104394371D01*
X146464444Y-104404192D01*
X146461797Y-104413859D01*
X146462250Y-104415219D01*
X146461640Y-104418289D01*
X146324735Y-104418289D01*
X146324735Y-104266504D01*
X146381283Y-104266504D01*
X146405201Y-104261746D01*
X146439025Y-104227922D01*
X146439025Y-104180086D01*
X146405201Y-104146262D01*
X146381283Y-104141504D01*
X146324735Y-104141504D01*
X146324735Y-104123519D01*
X146332630Y-104107730D01*
X146348417Y-104099837D01*
X146381283Y-104099837D01*
X146405201Y-104095079D01*
X146439025Y-104061255D01*
X146439025Y-104013419D01*
X146405201Y-103979595D01*
X146381283Y-103974837D01*
X146333664Y-103974837D01*
X146330592Y-103975448D01*
X146329233Y-103974995D01*
X146319571Y-103977640D01*
X146309746Y-103979595D01*
X146308732Y-103980608D01*
X146305713Y-103981435D01*
X146258094Y-104005246D01*
X146248264Y-104012874D01*
X146245096Y-104013931D01*
X146242357Y-104017459D01*
X146238829Y-104020198D01*
X146237772Y-104023366D01*
X146230144Y-104033196D01*
X146206334Y-104080815D01*
X146205507Y-104083833D01*
X146204493Y-104084848D01*
X146202537Y-104094678D01*
X146199893Y-104104335D01*
X146200346Y-104105694D01*
X146199735Y-104108766D01*
X146199735Y-104141504D01*
X146190807Y-104141504D01*
X146166889Y-104146262D01*
X146133065Y-104180086D01*
X146062830Y-104180086D01*
X146062830Y-104037337D01*
X146058072Y-104013419D01*
X146024248Y-103979595D01*
X145976412Y-103979595D01*
X145942588Y-104013419D01*
X145937830Y-104037337D01*
X145843786Y-104037337D01*
X145843786Y-104013419D01*
X145809962Y-103979595D01*
X145786044Y-103974837D01*
X145547949Y-103974837D01*
X145524031Y-103979595D01*
X145490207Y-104013419D01*
X145485449Y-104037337D01*
X144110450Y-104037337D01*
X144105692Y-104013419D01*
X144071868Y-103979595D01*
X144024032Y-103979595D01*
X143990208Y-104013419D01*
X143985450Y-104037337D01*
X143985450Y-104141504D01*
X143905093Y-104141504D01*
X143902021Y-104142114D01*
X143900663Y-104141662D01*
X143891002Y-104144307D01*
X143881175Y-104146262D01*
X143880161Y-104147275D01*
X143877142Y-104148102D01*
X143829524Y-104171911D01*
X143821606Y-104178055D01*
X143813280Y-104183619D01*
X143789470Y-104207429D01*
X143783905Y-104215757D01*
X143777762Y-104223673D01*
X143753953Y-104271292D01*
X143753126Y-104274310D01*
X143752113Y-104275324D01*
X143750159Y-104285145D01*
X143747512Y-104294812D01*
X143747965Y-104296172D01*
X143747355Y-104299242D01*
X143605692Y-104299242D01*
X143605692Y-104251514D01*
X143571868Y-104217690D01*
X143547950Y-104212932D01*
X143443783Y-104212932D01*
X143443783Y-104099837D01*
X143619378Y-104099837D01*
X143643296Y-104095079D01*
X143677120Y-104061255D01*
X143677120Y-104013419D01*
X143643296Y-103979595D01*
X143619378Y-103974837D01*
X143381283Y-103974837D01*
X143357365Y-103979595D01*
X143323541Y-104013419D01*
X143318783Y-104037337D01*
X143256283Y-104037337D01*
X143256283Y-103912337D01*
X151958663Y-103912337D01*
X151958663Y-105467309D01*
G37*
%LPC*%
D11*
%TO.C,H3*%
X156700000Y-104980000D03*
%TD*%
D12*
%TO.C,J1*%
X150690000Y-100700000D03*
D13*
X148690000Y-100700000D03*
X146690000Y-100700000D03*
X144690000Y-100700000D03*
X142690000Y-100700000D03*
%TD*%
D14*
%TO.C,IC1*%
X152535500Y-90960000D03*
X152535500Y-93500000D03*
X152535500Y-96040000D03*
X141285500Y-96040000D03*
X141285500Y-93500000D03*
X141285500Y-90960000D03*
%TD*%
D11*
%TO.C,H2*%
X156770000Y-90370000D03*
%TD*%
%TO.C,H1*%
X137070000Y-90340000D03*
%TD*%
%TO.C,H4*%
X137070000Y-105050000D03*
%TD*%
%LPD*%
M02*
