%TF.GenerationSoftware,KiCad,Pcbnew,10.0.1*%
%TF.CreationDate,2026-08-01T20:51:21+02:00*%
%TF.ProjectId,Pressure_sensor_board,50726573-7375-4726-955f-73656e736f72,rev?*%
%TF.SameCoordinates,Original*%
%TF.FileFunction,Legend,Top*%
%TF.FilePolarity,Positive*%
%FSLAX46Y46*%
G04 Gerber Fmt 4.6, Leading zero omitted, Abs format (unit mm)*
G04 Created by KiCad (PCBNEW 10.0.1) date 2026-08-01 20:51:21*
%MOMM*%
%LPD*%
G01*
G04 APERTURE LIST*
G04 Aperture macros list*
%AMRoundRect*
0 Rectangle with rounded corners*
0 $1 Rounding radius*
0 $2 $3 $4 $5 $6 $7 $8 $9 X,Y pos of 4 corners*
0 Add a 4 corners polygon primitive as box body*
4,1,4,$2,$3,$4,$5,$6,$7,$8,$9,$2,$3,0*
0 Add four circle primitives for the rounded corners*
1,1,$1+$1,$2,$3*
1,1,$1+$1,$4,$5*
1,1,$1+$1,$6,$7*
1,1,$1+$1,$8,$9*
0 Add four rect primitives between the rounded corners*
20,1,$1+$1,$2,$3,$4,$5,0*
20,1,$1+$1,$4,$5,$6,$7,0*
20,1,$1+$1,$6,$7,$8,$9,0*
20,1,$1+$1,$8,$9,$2,$3,0*%
G04 Aperture macros list end*
%ADD10C,0.150000*%
%ADD11C,0.254000*%
%ADD12C,0.120000*%
%ADD13C,0.100000*%
%ADD14C,0.000000*%
%ADD15C,0.200000*%
%ADD16C,1.500000*%
%ADD17C,2.200000*%
%ADD18RoundRect,0.250000X0.350000X0.650000X-0.350000X0.650000X-0.350000X-0.650000X0.350000X-0.650000X0*%
%ADD19O,1.200000X1.800000*%
%ADD20C,1.251000*%
%ADD21RoundRect,0.225000X0.250000X-0.225000X0.250000X0.225000X-0.250000X0.225000X-0.250000X-0.225000X0*%
G04 APERTURE END LIST*
D10*
X153498095Y-98346819D02*
X154069523Y-98346819D01*
X153783809Y-99346819D02*
X153783809Y-98346819D01*
X154402857Y-99346819D02*
X154402857Y-98346819D01*
X154402857Y-98346819D02*
X154783809Y-98346819D01*
X154783809Y-98346819D02*
X154879047Y-98394438D01*
X154879047Y-98394438D02*
X154926666Y-98442057D01*
X154926666Y-98442057D02*
X154974285Y-98537295D01*
X154974285Y-98537295D02*
X154974285Y-98680152D01*
X154974285Y-98680152D02*
X154926666Y-98775390D01*
X154926666Y-98775390D02*
X154879047Y-98823009D01*
X154879047Y-98823009D02*
X154783809Y-98870628D01*
X154783809Y-98870628D02*
X154402857Y-98870628D01*
X155926666Y-99346819D02*
X155355238Y-99346819D01*
X155640952Y-99346819D02*
X155640952Y-98346819D01*
X155640952Y-98346819D02*
X155545714Y-98489676D01*
X155545714Y-98489676D02*
X155450476Y-98584914D01*
X155450476Y-98584914D02*
X155355238Y-98632533D01*
X139166666Y-101884819D02*
X139166666Y-102599104D01*
X139166666Y-102599104D02*
X139119047Y-102741961D01*
X139119047Y-102741961D02*
X139023809Y-102837200D01*
X139023809Y-102837200D02*
X138880952Y-102884819D01*
X138880952Y-102884819D02*
X138785714Y-102884819D01*
X140166666Y-102884819D02*
X139595238Y-102884819D01*
X139880952Y-102884819D02*
X139880952Y-101884819D01*
X139880952Y-101884819D02*
X139785714Y-102027676D01*
X139785714Y-102027676D02*
X139690476Y-102122914D01*
X139690476Y-102122914D02*
X139595238Y-102170533D01*
X155058095Y-94036819D02*
X155629523Y-94036819D01*
X155343809Y-95036819D02*
X155343809Y-94036819D01*
X155962857Y-95036819D02*
X155962857Y-94036819D01*
X155962857Y-94036819D02*
X156343809Y-94036819D01*
X156343809Y-94036819D02*
X156439047Y-94084438D01*
X156439047Y-94084438D02*
X156486666Y-94132057D01*
X156486666Y-94132057D02*
X156534285Y-94227295D01*
X156534285Y-94227295D02*
X156534285Y-94370152D01*
X156534285Y-94370152D02*
X156486666Y-94465390D01*
X156486666Y-94465390D02*
X156439047Y-94513009D01*
X156439047Y-94513009D02*
X156343809Y-94560628D01*
X156343809Y-94560628D02*
X155962857Y-94560628D01*
X157391428Y-94370152D02*
X157391428Y-95036819D01*
X157153333Y-93989200D02*
X156915238Y-94703485D01*
X156915238Y-94703485D02*
X157534285Y-94703485D01*
D11*
X147484818Y-94439762D02*
X146214818Y-94439762D01*
X147363865Y-93109285D02*
X147424342Y-93169761D01*
X147424342Y-93169761D02*
X147484818Y-93351190D01*
X147484818Y-93351190D02*
X147484818Y-93472142D01*
X147484818Y-93472142D02*
X147424342Y-93653571D01*
X147424342Y-93653571D02*
X147303389Y-93774523D01*
X147303389Y-93774523D02*
X147182437Y-93835000D01*
X147182437Y-93835000D02*
X146940532Y-93895476D01*
X146940532Y-93895476D02*
X146759103Y-93895476D01*
X146759103Y-93895476D02*
X146517199Y-93835000D01*
X146517199Y-93835000D02*
X146396246Y-93774523D01*
X146396246Y-93774523D02*
X146275294Y-93653571D01*
X146275294Y-93653571D02*
X146214818Y-93472142D01*
X146214818Y-93472142D02*
X146214818Y-93351190D01*
X146214818Y-93351190D02*
X146275294Y-93169761D01*
X146275294Y-93169761D02*
X146335770Y-93109285D01*
X147484818Y-91899761D02*
X147484818Y-92625476D01*
X147484818Y-92262619D02*
X146214818Y-92262619D01*
X146214818Y-92262619D02*
X146396246Y-92383571D01*
X146396246Y-92383571D02*
X146517199Y-92504523D01*
X146517199Y-92504523D02*
X146577675Y-92625476D01*
D10*
X136638095Y-98356819D02*
X137209523Y-98356819D01*
X136923809Y-99356819D02*
X136923809Y-98356819D01*
X137542857Y-99356819D02*
X137542857Y-98356819D01*
X137542857Y-98356819D02*
X137923809Y-98356819D01*
X137923809Y-98356819D02*
X138019047Y-98404438D01*
X138019047Y-98404438D02*
X138066666Y-98452057D01*
X138066666Y-98452057D02*
X138114285Y-98547295D01*
X138114285Y-98547295D02*
X138114285Y-98690152D01*
X138114285Y-98690152D02*
X138066666Y-98785390D01*
X138066666Y-98785390D02*
X138019047Y-98833009D01*
X138019047Y-98833009D02*
X137923809Y-98880628D01*
X137923809Y-98880628D02*
X137542857Y-98880628D01*
X139019047Y-98356819D02*
X138542857Y-98356819D01*
X138542857Y-98356819D02*
X138495238Y-98833009D01*
X138495238Y-98833009D02*
X138542857Y-98785390D01*
X138542857Y-98785390D02*
X138638095Y-98737771D01*
X138638095Y-98737771D02*
X138876190Y-98737771D01*
X138876190Y-98737771D02*
X138971428Y-98785390D01*
X138971428Y-98785390D02*
X139019047Y-98833009D01*
X139019047Y-98833009D02*
X139066666Y-98928247D01*
X139066666Y-98928247D02*
X139066666Y-99166342D01*
X139066666Y-99166342D02*
X139019047Y-99261580D01*
X139019047Y-99261580D02*
X138971428Y-99309200D01*
X138971428Y-99309200D02*
X138876190Y-99356819D01*
X138876190Y-99356819D02*
X138638095Y-99356819D01*
X138638095Y-99356819D02*
X138542857Y-99309200D01*
X138542857Y-99309200D02*
X138495238Y-99261580D01*
%TO.C,TP3*%
D12*
X158630000Y-99890000D02*
G75*
G02*
X156730000Y-99890000I-950000J0D01*
G01*
X156730000Y-99890000D02*
G75*
G02*
X158630000Y-99890000I950000J0D01*
G01*
%TO.C,TP1*%
X155710000Y-100540000D02*
G75*
G02*
X153810000Y-100540000I-950000J0D01*
G01*
X153810000Y-100540000D02*
G75*
G02*
X155710000Y-100540000I950000J0D01*
G01*
%TO.C,J1*%
X140580000Y-100700000D02*
X140580000Y-106810000D01*
X140580000Y-106810000D02*
X146690000Y-106810000D01*
X140680000Y-100200000D02*
X140680000Y-100700000D01*
X140680000Y-100700000D02*
X140580000Y-100700000D01*
X141030000Y-102800000D02*
X141030000Y-106810000D01*
X141180000Y-99290000D02*
X140680000Y-100200000D01*
X142190000Y-99290000D02*
X141180000Y-99290000D01*
X142390000Y-99540000D02*
X142190000Y-99290000D01*
X142440000Y-105850000D02*
X142440000Y-102800000D01*
X142690000Y-106100000D02*
X142440000Y-105850000D01*
X142940000Y-102800000D02*
X142940000Y-105850000D01*
X142940000Y-105850000D02*
X142690000Y-106100000D01*
X142990000Y-99540000D02*
X142390000Y-99540000D01*
X143190000Y-99290000D02*
X142990000Y-99540000D01*
X144190000Y-99290000D02*
X143190000Y-99290000D01*
X144390000Y-99540000D02*
X144190000Y-99290000D01*
X144440000Y-105850000D02*
X144440000Y-102800000D01*
X144690000Y-106100000D02*
X144440000Y-105850000D01*
X144940000Y-102800000D02*
X144940000Y-105850000D01*
X144940000Y-105850000D02*
X144690000Y-106100000D01*
X144990000Y-99540000D02*
X144390000Y-99540000D01*
X145190000Y-99290000D02*
X144990000Y-99540000D01*
X146190000Y-99290000D02*
X145190000Y-99290000D01*
X146390000Y-99540000D02*
X146190000Y-99290000D01*
X146440000Y-105850000D02*
X146440000Y-102800000D01*
X146690000Y-106100000D02*
X146440000Y-105850000D01*
X146940000Y-102800000D02*
X146940000Y-105850000D01*
X146940000Y-105850000D02*
X146690000Y-106100000D01*
X146990000Y-99540000D02*
X146390000Y-99540000D01*
X147190000Y-99290000D02*
X146990000Y-99540000D01*
X148190000Y-99290000D02*
X147190000Y-99290000D01*
X148390000Y-99540000D02*
X148190000Y-99290000D01*
X148440000Y-105850000D02*
X148440000Y-102800000D01*
X148690000Y-106100000D02*
X148440000Y-105850000D01*
X148940000Y-102800000D02*
X148940000Y-105850000D01*
X148940000Y-105850000D02*
X148690000Y-106100000D01*
X148990000Y-99540000D02*
X148390000Y-99540000D01*
X149190000Y-99290000D02*
X148990000Y-99540000D01*
X150190000Y-99290000D02*
X149190000Y-99290000D01*
X150390000Y-99540000D02*
X150190000Y-99290000D01*
X150440000Y-105850000D02*
X150440000Y-102800000D01*
X150690000Y-106100000D02*
X150440000Y-105850000D01*
X150800000Y-98990000D02*
X153100000Y-98990000D01*
X150940000Y-102800000D02*
X150940000Y-105850000D01*
X150940000Y-105850000D02*
X150690000Y-106100000D01*
X150990000Y-99540000D02*
X150390000Y-99540000D01*
X150990000Y-99540000D02*
X151190000Y-99290000D01*
X151190000Y-99290000D02*
X152200000Y-99290000D01*
X152200000Y-99290000D02*
X152700000Y-100200000D01*
X152350000Y-102800000D02*
X141030000Y-102800000D01*
X152350000Y-106810000D02*
X152350000Y-102800000D01*
X152700000Y-100200000D02*
X152700000Y-100700000D01*
X152700000Y-100700000D02*
X152800000Y-100700000D01*
X152800000Y-100700000D02*
X152800000Y-106810000D01*
X152800000Y-106810000D02*
X146690000Y-106810000D01*
X153100000Y-98990000D02*
X153100000Y-101290000D01*
%TO.C,TP4*%
X157270000Y-96230000D02*
G75*
G02*
X155370000Y-96230000I-950000J0D01*
G01*
X155370000Y-96230000D02*
G75*
G02*
X157270000Y-96230000I950000J0D01*
G01*
%TO.C,IC1*%
D13*
D14*
X141410500Y-89500000D02*
X141410499Y-89500000D01*
X141410499Y-89500000D01*
X141410499Y-89500000D01*
X141410499Y-89500000D01*
X141410499Y-89500000D01*
X141410499Y-89500000D01*
X141410499Y-89500000D01*
X141410499Y-89499999D01*
X141410499Y-89499999D01*
X141410499Y-89499999D01*
X141410499Y-89499999D01*
X141410499Y-89499999D01*
X141410500Y-89499999D01*
X141410500Y-89499999D01*
X141410500Y-89499999D01*
X141410500Y-89499999D01*
X141410500Y-89499999D01*
X141410500Y-89499999D01*
X141410500Y-89499999D01*
X141410500Y-89499999D01*
X141410500Y-89499999D01*
X141410500Y-89499999D01*
X141410500Y-89499999D01*
X141410500Y-89499999D01*
X141410501Y-89499999D01*
X141410501Y-89499999D01*
X141410501Y-89499999D01*
X141410501Y-89499999D01*
X141410501Y-89499999D01*
X141410501Y-89499999D01*
X141410501Y-89500000D01*
X141410501Y-89500000D01*
X141410501Y-89500000D01*
X141410501Y-89500000D01*
X141410501Y-89500000D01*
X141410501Y-89500000D01*
X141410501Y-89500000D01*
X141410500Y-89500000D01*
X141410500Y-89500000D02*
X141410501Y-89500000D01*
X141410501Y-89500000D01*
X141410501Y-89500000D01*
X141410501Y-89500000D01*
X141410501Y-89500000D01*
X141410501Y-89500000D01*
X141410501Y-89500001D01*
X141410501Y-89500001D01*
X141410501Y-89500001D01*
X141410501Y-89500001D01*
X141410501Y-89500001D01*
X141410501Y-89500001D01*
X141410501Y-89500001D01*
X141410500Y-89500001D01*
X141410500Y-89500001D01*
X141410500Y-89500001D01*
X141410500Y-89500001D01*
X141410500Y-89500001D01*
X141410500Y-89500001D01*
X141410500Y-89500001D01*
X141410500Y-89500001D01*
X141410500Y-89500001D01*
X141410500Y-89500001D01*
X141410500Y-89500001D01*
X141410500Y-89500001D01*
X141410499Y-89500001D01*
X141410499Y-89500001D01*
X141410499Y-89500001D01*
X141410499Y-89500001D01*
X141410499Y-89500001D01*
X141410499Y-89500001D01*
X141410499Y-89500000D01*
X141410499Y-89500000D01*
X141410499Y-89500000D01*
X141410499Y-89500000D01*
X141410499Y-89500000D01*
X141410499Y-89500000D01*
X141410500Y-89500000D01*
D13*
D14*
X141410500Y-89500000D02*
X141410499Y-89500000D01*
X141410499Y-89500000D01*
X141410499Y-89500000D01*
X141410499Y-89500000D01*
X141410499Y-89500000D01*
X141410499Y-89500000D01*
X141410499Y-89500000D01*
X141410499Y-89499999D01*
X141410499Y-89499999D01*
X141410499Y-89499999D01*
X141410499Y-89499999D01*
X141410499Y-89499999D01*
X141410500Y-89499999D01*
X141410500Y-89499999D01*
X141410500Y-89499999D01*
X141410500Y-89499999D01*
X141410500Y-89499999D01*
X141410500Y-89499999D01*
X141410500Y-89499999D01*
X141410500Y-89499999D01*
X141410500Y-89499999D01*
X141410500Y-89499999D01*
X141410500Y-89499999D01*
X141410500Y-89499999D01*
X141410501Y-89499999D01*
X141410501Y-89499999D01*
X141410501Y-89499999D01*
X141410501Y-89499999D01*
X141410501Y-89499999D01*
X141410501Y-89499999D01*
X141410501Y-89500000D01*
X141410501Y-89500000D01*
X141410501Y-89500000D01*
X141410501Y-89500000D01*
X141410501Y-89500000D01*
X141410501Y-89500000D01*
X141410501Y-89500000D01*
X141410500Y-89500000D01*
X141410500Y-89500000D02*
X141410501Y-89500000D01*
X141410501Y-89500000D01*
X141410501Y-89500000D01*
X141410501Y-89500000D01*
X141410501Y-89500000D01*
X141410501Y-89500000D01*
X141410501Y-89500001D01*
X141410501Y-89500001D01*
X141410501Y-89500001D01*
X141410501Y-89500001D01*
X141410501Y-89500001D01*
X141410501Y-89500001D01*
X141410501Y-89500001D01*
X141410500Y-89500001D01*
X141410500Y-89500001D01*
X141410500Y-89500001D01*
X141410500Y-89500001D01*
X141410500Y-89500001D01*
X141410500Y-89500001D01*
X141410500Y-89500001D01*
X141410500Y-89500001D01*
X141410500Y-89500001D01*
X141410500Y-89500001D01*
X141410500Y-89500001D01*
X141410500Y-89500001D01*
X141410499Y-89500001D01*
X141410499Y-89500001D01*
X141410499Y-89500001D01*
X141410499Y-89500001D01*
X141410499Y-89500001D01*
X141410499Y-89500001D01*
X141410499Y-89500000D01*
X141410499Y-89500000D01*
X141410499Y-89500000D01*
X141410499Y-89500000D01*
X141410499Y-89500000D01*
X141410499Y-89500000D01*
X141410500Y-89500000D01*
D13*
X141410500Y-89500000D02*
X141410500Y-89750000D01*
X141410500Y-89500000D02*
X152410500Y-89500000D01*
X141410500Y-89750000D02*
X141410500Y-89500000D01*
D14*
X141410500Y-89750000D02*
X141410499Y-89750000D01*
X141410499Y-89750000D01*
X141410499Y-89750000D01*
X141410499Y-89750000D01*
X141410499Y-89750000D01*
X141410499Y-89750000D01*
X141410499Y-89750000D01*
X141410499Y-89749999D01*
X141410499Y-89749999D01*
X141410499Y-89749999D01*
X141410499Y-89749999D01*
X141410499Y-89749999D01*
X141410500Y-89749999D01*
X141410500Y-89749999D01*
X141410500Y-89749999D01*
X141410500Y-89749999D01*
X141410500Y-89749999D01*
X141410500Y-89749999D01*
X141410500Y-89749999D01*
X141410500Y-89749999D01*
X141410500Y-89749999D01*
X141410500Y-89749999D01*
X141410500Y-89749999D01*
X141410500Y-89749999D01*
X141410501Y-89749999D01*
X141410501Y-89749999D01*
X141410501Y-89749999D01*
X141410501Y-89749999D01*
X141410501Y-89749999D01*
X141410501Y-89749999D01*
X141410501Y-89750000D01*
X141410501Y-89750000D01*
X141410501Y-89750000D01*
X141410501Y-89750000D01*
X141410501Y-89750000D01*
X141410501Y-89750000D01*
X141410501Y-89750000D01*
X141410500Y-89750000D01*
X141410500Y-89750000D02*
X141410501Y-89750000D01*
X141410501Y-89750000D01*
X141410501Y-89750000D01*
X141410501Y-89750000D01*
X141410501Y-89750000D01*
X141410501Y-89750000D01*
X141410501Y-89750001D01*
X141410501Y-89750001D01*
X141410501Y-89750001D01*
X141410501Y-89750001D01*
X141410501Y-89750001D01*
X141410501Y-89750001D01*
X141410501Y-89750001D01*
X141410500Y-89750001D01*
X141410500Y-89750001D01*
X141410500Y-89750001D01*
X141410500Y-89750001D01*
X141410500Y-89750001D01*
X141410500Y-89750001D01*
X141410500Y-89750001D01*
X141410500Y-89750001D01*
X141410500Y-89750001D01*
X141410500Y-89750001D01*
X141410500Y-89750001D01*
X141410500Y-89750001D01*
X141410499Y-89750001D01*
X141410499Y-89750001D01*
X141410499Y-89750001D01*
X141410499Y-89750001D01*
X141410499Y-89750001D01*
X141410499Y-89750001D01*
X141410499Y-89750000D01*
X141410499Y-89750000D01*
X141410499Y-89750000D01*
X141410499Y-89750000D01*
X141410499Y-89750000D01*
X141410499Y-89750000D01*
X141410500Y-89750000D01*
D13*
D14*
X141410500Y-97250000D02*
X141410499Y-97250000D01*
X141410499Y-97250000D01*
X141410499Y-97250000D01*
X141410499Y-97250000D01*
X141410499Y-97250000D01*
X141410499Y-97250000D01*
X141410499Y-97250000D01*
X141410499Y-97249999D01*
X141410499Y-97249999D01*
X141410499Y-97249999D01*
X141410499Y-97249999D01*
X141410499Y-97249999D01*
X141410500Y-97249999D01*
X141410500Y-97249999D01*
X141410500Y-97249999D01*
X141410500Y-97249999D01*
X141410500Y-97249999D01*
X141410500Y-97249999D01*
X141410500Y-97249999D01*
X141410500Y-97249999D01*
X141410500Y-97249999D01*
X141410500Y-97249999D01*
X141410500Y-97249999D01*
X141410500Y-97249999D01*
X141410501Y-97249999D01*
X141410501Y-97249999D01*
X141410501Y-97249999D01*
X141410501Y-97249999D01*
X141410501Y-97249999D01*
X141410501Y-97249999D01*
X141410501Y-97250000D01*
X141410501Y-97250000D01*
X141410501Y-97250000D01*
X141410501Y-97250000D01*
X141410501Y-97250000D01*
X141410501Y-97250000D01*
X141410501Y-97250000D01*
X141410500Y-97250000D01*
X141410500Y-97250000D02*
X141410501Y-97250000D01*
X141410501Y-97250000D01*
X141410501Y-97250000D01*
X141410501Y-97250000D01*
X141410501Y-97250000D01*
X141410501Y-97250000D01*
X141410501Y-97250001D01*
X141410501Y-97250001D01*
X141410501Y-97250001D01*
X141410501Y-97250001D01*
X141410501Y-97250001D01*
X141410501Y-97250001D01*
X141410501Y-97250001D01*
X141410500Y-97250001D01*
X141410500Y-97250001D01*
X141410500Y-97250001D01*
X141410500Y-97250001D01*
X141410500Y-97250001D01*
X141410500Y-97250001D01*
X141410500Y-97250001D01*
X141410500Y-97250001D01*
X141410500Y-97250001D01*
X141410500Y-97250001D01*
X141410500Y-97250001D01*
X141410500Y-97250001D01*
X141410499Y-97250001D01*
X141410499Y-97250001D01*
X141410499Y-97250001D01*
X141410499Y-97250001D01*
X141410499Y-97250001D01*
X141410499Y-97250001D01*
X141410499Y-97250000D01*
X141410499Y-97250000D01*
X141410499Y-97250000D01*
X141410499Y-97250000D01*
X141410499Y-97250000D01*
X141410499Y-97250000D01*
X141410500Y-97250000D01*
D13*
X141410500Y-97250000D02*
X141410500Y-97500000D01*
X141410500Y-97500000D02*
X141410500Y-97250000D01*
D14*
X141410500Y-97500000D02*
X141410499Y-97500000D01*
X141410499Y-97500000D01*
X141410499Y-97500000D01*
X141410499Y-97500000D01*
X141410499Y-97500000D01*
X141410499Y-97500000D01*
X141410499Y-97500000D01*
X141410499Y-97499999D01*
X141410499Y-97499999D01*
X141410499Y-97499999D01*
X141410499Y-97499999D01*
X141410499Y-97499999D01*
X141410500Y-97499999D01*
X141410500Y-97499999D01*
X141410500Y-97499999D01*
X141410500Y-97499999D01*
X141410500Y-97499999D01*
X141410500Y-97499999D01*
X141410500Y-97499999D01*
X141410500Y-97499999D01*
X141410500Y-97499999D01*
X141410500Y-97499999D01*
X141410500Y-97499999D01*
X141410500Y-97499999D01*
X141410501Y-97499999D01*
X141410501Y-97499999D01*
X141410501Y-97499999D01*
X141410501Y-97499999D01*
X141410501Y-97499999D01*
X141410501Y-97499999D01*
X141410501Y-97500000D01*
X141410501Y-97500000D01*
X141410501Y-97500000D01*
X141410501Y-97500000D01*
X141410501Y-97500000D01*
X141410501Y-97500000D01*
X141410501Y-97500000D01*
X141410500Y-97500000D01*
X141410500Y-97500000D02*
X141410501Y-97500000D01*
X141410501Y-97500000D01*
X141410501Y-97500000D01*
X141410501Y-97500000D01*
X141410501Y-97500000D01*
X141410501Y-97500000D01*
X141410501Y-97500001D01*
X141410501Y-97500001D01*
X141410501Y-97500001D01*
X141410501Y-97500001D01*
X141410501Y-97500001D01*
X141410501Y-97500001D01*
X141410501Y-97500001D01*
X141410500Y-97500001D01*
X141410500Y-97500001D01*
X141410500Y-97500001D01*
X141410500Y-97500001D01*
X141410500Y-97500001D01*
X141410500Y-97500001D01*
X141410500Y-97500001D01*
X141410500Y-97500001D01*
X141410500Y-97500001D01*
X141410500Y-97500001D01*
X141410500Y-97500001D01*
X141410500Y-97500001D01*
X141410499Y-97500001D01*
X141410499Y-97500001D01*
X141410499Y-97500001D01*
X141410499Y-97500001D01*
X141410499Y-97500001D01*
X141410499Y-97500001D01*
X141410499Y-97500000D01*
X141410499Y-97500000D01*
X141410499Y-97500000D01*
X141410499Y-97500000D01*
X141410499Y-97500000D01*
X141410499Y-97500000D01*
X141410500Y-97500000D01*
D13*
D14*
X141410500Y-97500000D02*
X141410499Y-97500000D01*
X141410499Y-97500000D01*
X141410499Y-97500000D01*
X141410499Y-97500000D01*
X141410499Y-97500000D01*
X141410499Y-97500000D01*
X141410499Y-97500000D01*
X141410499Y-97499999D01*
X141410499Y-97499999D01*
X141410499Y-97499999D01*
X141410499Y-97499999D01*
X141410499Y-97499999D01*
X141410500Y-97499999D01*
X141410500Y-97499999D01*
X141410500Y-97499999D01*
X141410500Y-97499999D01*
X141410500Y-97499999D01*
X141410500Y-97499999D01*
X141410500Y-97499999D01*
X141410500Y-97499999D01*
X141410500Y-97499999D01*
X141410500Y-97499999D01*
X141410500Y-97499999D01*
X141410500Y-97499999D01*
X141410501Y-97499999D01*
X141410501Y-97499999D01*
X141410501Y-97499999D01*
X141410501Y-97499999D01*
X141410501Y-97499999D01*
X141410501Y-97499999D01*
X141410501Y-97500000D01*
X141410501Y-97500000D01*
X141410501Y-97500000D01*
X141410501Y-97500000D01*
X141410501Y-97500000D01*
X141410501Y-97500000D01*
X141410501Y-97500000D01*
X141410500Y-97500000D01*
X141410500Y-97500000D02*
X141410501Y-97500000D01*
X141410501Y-97500000D01*
X141410501Y-97500000D01*
X141410501Y-97500000D01*
X141410501Y-97500000D01*
X141410501Y-97500000D01*
X141410501Y-97500001D01*
X141410501Y-97500001D01*
X141410501Y-97500001D01*
X141410501Y-97500001D01*
X141410501Y-97500001D01*
X141410501Y-97500001D01*
X141410501Y-97500001D01*
X141410500Y-97500001D01*
X141410500Y-97500001D01*
X141410500Y-97500001D01*
X141410500Y-97500001D01*
X141410500Y-97500001D01*
X141410500Y-97500001D01*
X141410500Y-97500001D01*
X141410500Y-97500001D01*
X141410500Y-97500001D01*
X141410500Y-97500001D01*
X141410500Y-97500001D01*
X141410500Y-97500001D01*
X141410499Y-97500001D01*
X141410499Y-97500001D01*
X141410499Y-97500001D01*
X141410499Y-97500001D01*
X141410499Y-97500001D01*
X141410499Y-97500001D01*
X141410499Y-97500000D01*
X141410499Y-97500000D01*
X141410499Y-97500000D01*
X141410499Y-97500000D01*
X141410499Y-97500000D01*
X141410499Y-97500000D01*
X141410500Y-97500000D01*
D13*
X141410500Y-97500000D02*
X152410500Y-97500000D01*
X152410500Y-89500000D02*
X141410500Y-89500000D01*
D14*
X152410500Y-89500000D02*
X152410499Y-89500000D01*
X152410499Y-89500000D01*
X152410499Y-89500000D01*
X152410499Y-89500000D01*
X152410499Y-89500000D01*
X152410499Y-89500000D01*
X152410499Y-89500000D01*
X152410499Y-89499999D01*
X152410499Y-89499999D01*
X152410499Y-89499999D01*
X152410499Y-89499999D01*
X152410499Y-89499999D01*
X152410500Y-89499999D01*
X152410500Y-89499999D01*
X152410500Y-89499999D01*
X152410500Y-89499999D01*
X152410500Y-89499999D01*
X152410500Y-89499999D01*
X152410500Y-89499999D01*
X152410500Y-89499999D01*
X152410500Y-89499999D01*
X152410500Y-89499999D01*
X152410500Y-89499999D01*
X152410500Y-89499999D01*
X152410501Y-89499999D01*
X152410501Y-89499999D01*
X152410501Y-89499999D01*
X152410501Y-89499999D01*
X152410501Y-89499999D01*
X152410501Y-89499999D01*
X152410501Y-89500000D01*
X152410501Y-89500000D01*
X152410501Y-89500000D01*
X152410501Y-89500000D01*
X152410501Y-89500000D01*
X152410501Y-89500000D01*
X152410501Y-89500000D01*
X152410500Y-89500000D01*
X152410500Y-89500000D02*
X152410501Y-89500000D01*
X152410501Y-89500000D01*
X152410501Y-89500000D01*
X152410501Y-89500000D01*
X152410501Y-89500000D01*
X152410501Y-89500000D01*
X152410501Y-89500001D01*
X152410501Y-89500001D01*
X152410501Y-89500001D01*
X152410501Y-89500001D01*
X152410501Y-89500001D01*
X152410501Y-89500001D01*
X152410501Y-89500001D01*
X152410500Y-89500001D01*
X152410500Y-89500001D01*
X152410500Y-89500001D01*
X152410500Y-89500001D01*
X152410500Y-89500001D01*
X152410500Y-89500001D01*
X152410500Y-89500001D01*
X152410500Y-89500001D01*
X152410500Y-89500001D01*
X152410500Y-89500001D01*
X152410500Y-89500001D01*
X152410500Y-89500001D01*
X152410499Y-89500001D01*
X152410499Y-89500001D01*
X152410499Y-89500001D01*
X152410499Y-89500001D01*
X152410499Y-89500001D01*
X152410499Y-89500001D01*
X152410499Y-89500000D01*
X152410499Y-89500000D01*
X152410499Y-89500000D01*
X152410499Y-89500000D01*
X152410499Y-89500000D01*
X152410499Y-89500000D01*
X152410500Y-89500000D01*
D13*
D14*
X152410500Y-89500000D02*
X152410499Y-89500000D01*
X152410499Y-89500000D01*
X152410499Y-89500000D01*
X152410499Y-89500000D01*
X152410499Y-89500000D01*
X152410499Y-89500000D01*
X152410499Y-89500000D01*
X152410499Y-89499999D01*
X152410499Y-89499999D01*
X152410499Y-89499999D01*
X152410499Y-89499999D01*
X152410499Y-89499999D01*
X152410500Y-89499999D01*
X152410500Y-89499999D01*
X152410500Y-89499999D01*
X152410500Y-89499999D01*
X152410500Y-89499999D01*
X152410500Y-89499999D01*
X152410500Y-89499999D01*
X152410500Y-89499999D01*
X152410500Y-89499999D01*
X152410500Y-89499999D01*
X152410500Y-89499999D01*
X152410500Y-89499999D01*
X152410501Y-89499999D01*
X152410501Y-89499999D01*
X152410501Y-89499999D01*
X152410501Y-89499999D01*
X152410501Y-89499999D01*
X152410501Y-89499999D01*
X152410501Y-89500000D01*
X152410501Y-89500000D01*
X152410501Y-89500000D01*
X152410501Y-89500000D01*
X152410501Y-89500000D01*
X152410501Y-89500000D01*
X152410501Y-89500000D01*
X152410500Y-89500000D01*
X152410500Y-89500000D02*
X152410501Y-89500000D01*
X152410501Y-89500000D01*
X152410501Y-89500000D01*
X152410501Y-89500000D01*
X152410501Y-89500000D01*
X152410501Y-89500000D01*
X152410501Y-89500001D01*
X152410501Y-89500001D01*
X152410501Y-89500001D01*
X152410501Y-89500001D01*
X152410501Y-89500001D01*
X152410501Y-89500001D01*
X152410501Y-89500001D01*
X152410500Y-89500001D01*
X152410500Y-89500001D01*
X152410500Y-89500001D01*
X152410500Y-89500001D01*
X152410500Y-89500001D01*
X152410500Y-89500001D01*
X152410500Y-89500001D01*
X152410500Y-89500001D01*
X152410500Y-89500001D01*
X152410500Y-89500001D01*
X152410500Y-89500001D01*
X152410500Y-89500001D01*
X152410499Y-89500001D01*
X152410499Y-89500001D01*
X152410499Y-89500001D01*
X152410499Y-89500001D01*
X152410499Y-89500001D01*
X152410499Y-89500001D01*
X152410499Y-89500000D01*
X152410499Y-89500000D01*
X152410499Y-89500000D01*
X152410499Y-89500000D01*
X152410499Y-89500000D01*
X152410499Y-89500000D01*
X152410500Y-89500000D01*
D13*
X152410500Y-89500000D02*
X152410500Y-89750000D01*
X152410500Y-89750000D02*
X152410500Y-89500000D01*
D14*
X152410500Y-89750000D02*
X152410499Y-89750000D01*
X152410499Y-89750000D01*
X152410499Y-89750000D01*
X152410499Y-89750000D01*
X152410499Y-89750000D01*
X152410499Y-89750000D01*
X152410499Y-89750000D01*
X152410499Y-89749999D01*
X152410499Y-89749999D01*
X152410499Y-89749999D01*
X152410499Y-89749999D01*
X152410499Y-89749999D01*
X152410500Y-89749999D01*
X152410500Y-89749999D01*
X152410500Y-89749999D01*
X152410500Y-89749999D01*
X152410500Y-89749999D01*
X152410500Y-89749999D01*
X152410500Y-89749999D01*
X152410500Y-89749999D01*
X152410500Y-89749999D01*
X152410500Y-89749999D01*
X152410500Y-89749999D01*
X152410500Y-89749999D01*
X152410501Y-89749999D01*
X152410501Y-89749999D01*
X152410501Y-89749999D01*
X152410501Y-89749999D01*
X152410501Y-89749999D01*
X152410501Y-89749999D01*
X152410501Y-89750000D01*
X152410501Y-89750000D01*
X152410501Y-89750000D01*
X152410501Y-89750000D01*
X152410501Y-89750000D01*
X152410501Y-89750000D01*
X152410501Y-89750000D01*
X152410500Y-89750000D01*
X152410500Y-89750000D02*
X152410501Y-89750000D01*
X152410501Y-89750000D01*
X152410501Y-89750000D01*
X152410501Y-89750000D01*
X152410501Y-89750000D01*
X152410501Y-89750000D01*
X152410501Y-89750001D01*
X152410501Y-89750001D01*
X152410501Y-89750001D01*
X152410501Y-89750001D01*
X152410501Y-89750001D01*
X152410501Y-89750001D01*
X152410501Y-89750001D01*
X152410500Y-89750001D01*
X152410500Y-89750001D01*
X152410500Y-89750001D01*
X152410500Y-89750001D01*
X152410500Y-89750001D01*
X152410500Y-89750001D01*
X152410500Y-89750001D01*
X152410500Y-89750001D01*
X152410500Y-89750001D01*
X152410500Y-89750001D01*
X152410500Y-89750001D01*
X152410500Y-89750001D01*
X152410499Y-89750001D01*
X152410499Y-89750001D01*
X152410499Y-89750001D01*
X152410499Y-89750001D01*
X152410499Y-89750001D01*
X152410499Y-89750001D01*
X152410499Y-89750000D01*
X152410499Y-89750000D01*
X152410499Y-89750000D01*
X152410499Y-89750000D01*
X152410499Y-89750000D01*
X152410499Y-89750000D01*
X152410500Y-89750000D01*
D13*
D14*
X152410500Y-97250000D02*
X152410499Y-97250000D01*
X152410499Y-97250000D01*
X152410499Y-97250000D01*
X152410499Y-97250000D01*
X152410499Y-97250000D01*
X152410499Y-97250000D01*
X152410499Y-97250000D01*
X152410499Y-97249999D01*
X152410499Y-97249999D01*
X152410499Y-97249999D01*
X152410499Y-97249999D01*
X152410499Y-97249999D01*
X152410500Y-97249999D01*
X152410500Y-97249999D01*
X152410500Y-97249999D01*
X152410500Y-97249999D01*
X152410500Y-97249999D01*
X152410500Y-97249999D01*
X152410500Y-97249999D01*
X152410500Y-97249999D01*
X152410500Y-97249999D01*
X152410500Y-97249999D01*
X152410500Y-97249999D01*
X152410500Y-97249999D01*
X152410501Y-97249999D01*
X152410501Y-97249999D01*
X152410501Y-97249999D01*
X152410501Y-97249999D01*
X152410501Y-97249999D01*
X152410501Y-97249999D01*
X152410501Y-97250000D01*
X152410501Y-97250000D01*
X152410501Y-97250000D01*
X152410501Y-97250000D01*
X152410501Y-97250000D01*
X152410501Y-97250000D01*
X152410501Y-97250000D01*
X152410500Y-97250000D01*
X152410500Y-97250000D02*
X152410501Y-97250000D01*
X152410501Y-97250000D01*
X152410501Y-97250000D01*
X152410501Y-97250000D01*
X152410501Y-97250000D01*
X152410501Y-97250000D01*
X152410501Y-97250001D01*
X152410501Y-97250001D01*
X152410501Y-97250001D01*
X152410501Y-97250001D01*
X152410501Y-97250001D01*
X152410501Y-97250001D01*
X152410501Y-97250001D01*
X152410500Y-97250001D01*
X152410500Y-97250001D01*
X152410500Y-97250001D01*
X152410500Y-97250001D01*
X152410500Y-97250001D01*
X152410500Y-97250001D01*
X152410500Y-97250001D01*
X152410500Y-97250001D01*
X152410500Y-97250001D01*
X152410500Y-97250001D01*
X152410500Y-97250001D01*
X152410500Y-97250001D01*
X152410499Y-97250001D01*
X152410499Y-97250001D01*
X152410499Y-97250001D01*
X152410499Y-97250001D01*
X152410499Y-97250001D01*
X152410499Y-97250001D01*
X152410499Y-97250000D01*
X152410499Y-97250000D01*
X152410499Y-97250000D01*
X152410499Y-97250000D01*
X152410499Y-97250000D01*
X152410499Y-97250000D01*
X152410500Y-97250000D01*
D13*
X152410500Y-97250000D02*
X152410500Y-97500000D01*
X152410500Y-97500000D02*
X141410500Y-97500000D01*
X152410500Y-97500000D02*
X152410500Y-97250000D01*
D14*
X152410500Y-97500000D02*
X152410499Y-97500000D01*
X152410499Y-97500000D01*
X152410499Y-97500000D01*
X152410499Y-97500000D01*
X152410499Y-97500000D01*
X152410499Y-97500000D01*
X152410499Y-97500000D01*
X152410499Y-97499999D01*
X152410499Y-97499999D01*
X152410499Y-97499999D01*
X152410499Y-97499999D01*
X152410499Y-97499999D01*
X152410500Y-97499999D01*
X152410500Y-97499999D01*
X152410500Y-97499999D01*
X152410500Y-97499999D01*
X152410500Y-97499999D01*
X152410500Y-97499999D01*
X152410500Y-97499999D01*
X152410500Y-97499999D01*
X152410500Y-97499999D01*
X152410500Y-97499999D01*
X152410500Y-97499999D01*
X152410500Y-97499999D01*
X152410501Y-97499999D01*
X152410501Y-97499999D01*
X152410501Y-97499999D01*
X152410501Y-97499999D01*
X152410501Y-97499999D01*
X152410501Y-97499999D01*
X152410501Y-97500000D01*
X152410501Y-97500000D01*
X152410501Y-97500000D01*
X152410501Y-97500000D01*
X152410501Y-97500000D01*
X152410501Y-97500000D01*
X152410501Y-97500000D01*
X152410500Y-97500000D01*
X152410500Y-97500000D02*
X152410501Y-97500000D01*
X152410501Y-97500000D01*
X152410501Y-97500000D01*
X152410501Y-97500000D01*
X152410501Y-97500000D01*
X152410501Y-97500000D01*
X152410501Y-97500001D01*
X152410501Y-97500001D01*
X152410501Y-97500001D01*
X152410501Y-97500001D01*
X152410501Y-97500001D01*
X152410501Y-97500001D01*
X152410501Y-97500001D01*
X152410500Y-97500001D01*
X152410500Y-97500001D01*
X152410500Y-97500001D01*
X152410500Y-97500001D01*
X152410500Y-97500001D01*
X152410500Y-97500001D01*
X152410500Y-97500001D01*
X152410500Y-97500001D01*
X152410500Y-97500001D01*
X152410500Y-97500001D01*
X152410500Y-97500001D01*
X152410500Y-97500001D01*
X152410499Y-97500001D01*
X152410499Y-97500001D01*
X152410499Y-97500001D01*
X152410499Y-97500001D01*
X152410499Y-97500001D01*
X152410499Y-97500001D01*
X152410499Y-97500000D01*
X152410499Y-97500000D01*
X152410499Y-97500000D01*
X152410499Y-97500000D01*
X152410499Y-97500000D01*
X152410499Y-97500000D01*
X152410500Y-97500000D01*
D13*
D14*
X152410500Y-97500000D02*
X152410499Y-97500000D01*
X152410499Y-97500000D01*
X152410499Y-97500000D01*
X152410499Y-97500000D01*
X152410499Y-97500000D01*
X152410499Y-97500000D01*
X152410499Y-97500000D01*
X152410499Y-97499999D01*
X152410499Y-97499999D01*
X152410499Y-97499999D01*
X152410499Y-97499999D01*
X152410499Y-97499999D01*
X152410500Y-97499999D01*
X152410500Y-97499999D01*
X152410500Y-97499999D01*
X152410500Y-97499999D01*
X152410500Y-97499999D01*
X152410500Y-97499999D01*
X152410500Y-97499999D01*
X152410500Y-97499999D01*
X152410500Y-97499999D01*
X152410500Y-97499999D01*
X152410500Y-97499999D01*
X152410500Y-97499999D01*
X152410501Y-97499999D01*
X152410501Y-97499999D01*
X152410501Y-97499999D01*
X152410501Y-97499999D01*
X152410501Y-97499999D01*
X152410501Y-97499999D01*
X152410501Y-97500000D01*
X152410501Y-97500000D01*
X152410501Y-97500000D01*
X152410501Y-97500000D01*
X152410501Y-97500000D01*
X152410501Y-97500000D01*
X152410501Y-97500000D01*
X152410500Y-97500000D01*
X152410500Y-97500000D02*
X152410501Y-97500000D01*
X152410501Y-97500000D01*
X152410501Y-97500000D01*
X152410501Y-97500000D01*
X152410501Y-97500000D01*
X152410501Y-97500000D01*
X152410501Y-97500001D01*
X152410501Y-97500001D01*
X152410501Y-97500001D01*
X152410501Y-97500001D01*
X152410501Y-97500001D01*
X152410501Y-97500001D01*
X152410501Y-97500001D01*
X152410500Y-97500001D01*
X152410500Y-97500001D01*
X152410500Y-97500001D01*
X152410500Y-97500001D01*
X152410500Y-97500001D01*
X152410500Y-97500001D01*
X152410500Y-97500001D01*
X152410500Y-97500001D01*
X152410500Y-97500001D01*
X152410500Y-97500001D01*
X152410500Y-97500001D01*
X152410500Y-97500001D01*
X152410499Y-97500001D01*
X152410499Y-97500001D01*
X152410499Y-97500001D01*
X152410499Y-97500001D01*
X152410499Y-97500001D01*
X152410499Y-97500001D01*
X152410499Y-97500000D01*
X152410499Y-97500000D01*
X152410499Y-97500000D01*
X152410499Y-97500000D01*
X152410499Y-97500000D01*
X152410499Y-97500000D01*
X152410500Y-97500000D01*
D15*
D14*
X152535500Y-88900000D02*
X152535499Y-88900000D01*
X152535499Y-88900000D01*
X152535499Y-88900000D01*
X152535499Y-88900000D01*
X152535499Y-88900000D01*
X152535499Y-88900000D01*
X152535499Y-88900000D01*
X152535499Y-88899999D01*
X152535499Y-88899999D01*
X152535499Y-88899999D01*
X152535499Y-88899999D01*
X152535499Y-88899999D01*
X152535500Y-88899999D01*
X152535500Y-88899999D01*
X152535500Y-88899999D01*
X152535500Y-88899999D01*
X152535500Y-88899999D01*
X152535500Y-88899999D01*
X152535500Y-88899999D01*
X152535500Y-88899999D01*
X152535500Y-88899999D01*
X152535500Y-88899999D01*
X152535500Y-88899999D01*
X152535500Y-88899999D01*
X152535501Y-88899999D01*
X152535501Y-88899999D01*
X152535501Y-88899999D01*
X152535501Y-88899999D01*
X152535501Y-88899999D01*
X152535501Y-88899999D01*
X152535501Y-88900000D01*
X152535501Y-88900000D01*
X152535501Y-88900000D01*
X152535501Y-88900000D01*
X152535501Y-88900000D01*
X152535501Y-88900000D01*
X152535501Y-88900000D01*
X152535500Y-88900000D01*
X152535500Y-88900000D02*
X152535501Y-88900000D01*
X152535501Y-88900000D01*
X152535501Y-88900000D01*
X152535501Y-88900000D01*
X152535501Y-88900000D01*
X152535501Y-88900000D01*
X152535501Y-88900001D01*
X152535501Y-88900001D01*
X152535501Y-88900001D01*
X152535501Y-88900001D01*
X152535501Y-88900001D01*
X152535501Y-88900001D01*
X152535501Y-88900001D01*
X152535500Y-88900001D01*
X152535500Y-88900001D01*
X152535500Y-88900001D01*
X152535500Y-88900001D01*
X152535500Y-88900001D01*
X152535500Y-88900001D01*
X152535500Y-88900001D01*
X152535500Y-88900001D01*
X152535500Y-88900001D01*
X152535500Y-88900001D01*
X152535500Y-88900001D01*
X152535500Y-88900001D01*
X152535499Y-88900001D01*
X152535499Y-88900001D01*
X152535499Y-88900001D01*
X152535499Y-88900001D01*
X152535499Y-88900001D01*
X152535499Y-88900001D01*
X152535499Y-88900000D01*
X152535499Y-88900000D01*
X152535499Y-88900000D01*
X152535499Y-88900000D01*
X152535499Y-88900000D01*
X152535499Y-88900000D01*
X152535500Y-88900000D01*
D15*
D14*
X152535500Y-88900000D02*
X152535499Y-88900000D01*
X152535499Y-88900000D01*
X152535499Y-88900000D01*
X152535499Y-88900000D01*
X152535499Y-88900000D01*
X152535499Y-88900000D01*
X152535499Y-88900000D01*
X152535499Y-88899999D01*
X152535499Y-88899999D01*
X152535499Y-88899999D01*
X152535499Y-88899999D01*
X152535499Y-88899999D01*
X152535500Y-88899999D01*
X152535500Y-88899999D01*
X152535500Y-88899999D01*
X152535500Y-88899999D01*
X152535500Y-88899999D01*
X152535500Y-88899999D01*
X152535500Y-88899999D01*
X152535500Y-88899999D01*
X152535500Y-88899999D01*
X152535500Y-88899999D01*
X152535500Y-88899999D01*
X152535500Y-88899999D01*
X152535501Y-88899999D01*
X152535501Y-88899999D01*
X152535501Y-88899999D01*
X152535501Y-88899999D01*
X152535501Y-88899999D01*
X152535501Y-88899999D01*
X152535501Y-88900000D01*
X152535501Y-88900000D01*
X152535501Y-88900000D01*
X152535501Y-88900000D01*
X152535501Y-88900000D01*
X152535501Y-88900000D01*
X152535501Y-88900000D01*
X152535500Y-88900000D01*
X152535500Y-88900000D02*
X152535501Y-88900000D01*
X152535501Y-88900000D01*
X152535501Y-88900000D01*
X152535501Y-88900000D01*
X152535501Y-88900000D01*
X152535501Y-88900000D01*
X152535501Y-88900001D01*
X152535501Y-88900001D01*
X152535501Y-88900001D01*
X152535501Y-88900001D01*
X152535501Y-88900001D01*
X152535501Y-88900001D01*
X152535501Y-88900001D01*
X152535500Y-88900001D01*
X152535500Y-88900001D01*
X152535500Y-88900001D01*
X152535500Y-88900001D01*
X152535500Y-88900001D01*
X152535500Y-88900001D01*
X152535500Y-88900001D01*
X152535500Y-88900001D01*
X152535500Y-88900001D01*
X152535500Y-88900001D01*
X152535500Y-88900001D01*
X152535500Y-88900001D01*
X152535499Y-88900001D01*
X152535499Y-88900001D01*
X152535499Y-88900001D01*
X152535499Y-88900001D01*
X152535499Y-88900001D01*
X152535499Y-88900001D01*
X152535499Y-88900000D01*
X152535499Y-88900000D01*
X152535499Y-88900000D01*
X152535499Y-88900000D01*
X152535499Y-88900000D01*
X152535499Y-88900000D01*
X152535500Y-88900000D01*
D15*
D14*
X152535500Y-89000000D02*
X152535499Y-89000000D01*
X152535499Y-89000000D01*
X152535499Y-89000000D01*
X152535499Y-89000000D01*
X152535499Y-89000000D01*
X152535499Y-89000000D01*
X152535499Y-89000000D01*
X152535499Y-88999999D01*
X152535499Y-88999999D01*
X152535499Y-88999999D01*
X152535499Y-88999999D01*
X152535499Y-88999999D01*
X152535500Y-88999999D01*
X152535500Y-88999999D01*
X152535500Y-88999999D01*
X152535500Y-88999999D01*
X152535500Y-88999999D01*
X152535500Y-88999999D01*
X152535500Y-88999999D01*
X152535500Y-88999999D01*
X152535500Y-88999999D01*
X152535500Y-88999999D01*
X152535500Y-88999999D01*
X152535500Y-88999999D01*
X152535501Y-88999999D01*
X152535501Y-88999999D01*
X152535501Y-88999999D01*
X152535501Y-88999999D01*
X152535501Y-88999999D01*
X152535501Y-88999999D01*
X152535501Y-89000000D01*
X152535501Y-89000000D01*
X152535501Y-89000000D01*
X152535501Y-89000000D01*
X152535501Y-89000000D01*
X152535501Y-89000000D01*
X152535501Y-89000000D01*
X152535500Y-89000000D01*
X152535500Y-89000000D02*
X152535501Y-89000000D01*
X152535501Y-89000000D01*
X152535501Y-89000000D01*
X152535501Y-89000000D01*
X152535501Y-89000000D01*
X152535501Y-89000000D01*
X152535501Y-89000001D01*
X152535501Y-89000001D01*
X152535501Y-89000001D01*
X152535501Y-89000001D01*
X152535501Y-89000001D01*
X152535501Y-89000001D01*
X152535501Y-89000001D01*
X152535500Y-89000001D01*
X152535500Y-89000001D01*
X152535500Y-89000001D01*
X152535500Y-89000001D01*
X152535500Y-89000001D01*
X152535500Y-89000001D01*
X152535500Y-89000001D01*
X152535500Y-89000001D01*
X152535500Y-89000001D01*
X152535500Y-89000001D01*
X152535500Y-89000001D01*
X152535500Y-89000001D01*
X152535499Y-89000001D01*
X152535499Y-89000001D01*
X152535499Y-89000001D01*
X152535499Y-89000001D01*
X152535499Y-89000001D01*
X152535499Y-89000001D01*
X152535499Y-89000000D01*
X152535499Y-89000000D01*
X152535499Y-89000000D01*
X152535499Y-89000000D01*
X152535499Y-89000000D01*
X152535499Y-89000000D01*
X152535500Y-89000000D01*
D15*
X152535500Y-88900000D02*
G75*
G02*
X152535500Y-89000000I0J-50000D01*
G01*
X152535500Y-89000000D02*
G75*
G02*
X152535500Y-88900000I0J50000D01*
G01*
X152535500Y-89000000D02*
G75*
G02*
X152535500Y-88900000I0J50000D01*
G01*
%TO.C,TP2*%
D12*
X137130000Y-97310000D02*
G75*
G02*
X135230000Y-97310000I-950000J0D01*
G01*
X135230000Y-97310000D02*
G75*
G02*
X137130000Y-97310000I950000J0D01*
G01*
%TO.C,TP5*%
X138850000Y-100550000D02*
G75*
G02*
X136950000Y-100550000I-950000J0D01*
G01*
X136950000Y-100550000D02*
G75*
G02*
X138850000Y-100550000I950000J0D01*
G01*
%TO.C,C1*%
X138240000Y-94590580D02*
X138240000Y-94309420D01*
X139260000Y-94590580D02*
X139260000Y-94309420D01*
%TD*%
%LPC*%
D16*
%TO.C,TP3*%
X157680000Y-99890000D03*
%TD*%
%TO.C,TP1*%
X154760000Y-100540000D03*
%TD*%
D17*
%TO.C,H3*%
X156700000Y-104980000D03*
%TD*%
D18*
%TO.C,J1*%
X150690000Y-100700000D03*
D19*
X148690000Y-100700000D03*
X146690000Y-100700000D03*
X144690000Y-100700000D03*
X142690000Y-100700000D03*
%TD*%
D16*
%TO.C,TP4*%
X156320000Y-96230000D03*
%TD*%
D20*
%TO.C,IC1*%
X152535500Y-90960000D03*
X152535500Y-93500000D03*
X152535500Y-96040000D03*
X141285500Y-96040000D03*
X141285500Y-93500000D03*
X141285500Y-90960000D03*
%TD*%
D17*
%TO.C,H2*%
X156770000Y-90370000D03*
%TD*%
%TO.C,H1*%
X137070000Y-90340000D03*
%TD*%
D16*
%TO.C,TP2*%
X136180000Y-97310000D03*
%TD*%
%TO.C,TP5*%
X137900000Y-100550000D03*
%TD*%
D17*
%TO.C,H4*%
X137070000Y-105050000D03*
%TD*%
D21*
%TO.C,C1*%
X138750000Y-95225000D03*
X138750000Y-93675000D03*
%TD*%
%LPD*%
M02*
