M48
; DRILL file KiCad 10.0.1 date 2026-08-01T20:51:21
; FORMAT={-:-/ absolute / inch / decimal}
; #@! TF.CreationDate,2026-08-01T20:51:21+02:00
; #@! TF.GenerationSoftware,Kicad,Pcbnew,10.0.1
; #@! TF.FileFunction,Plated,1,2,PTH
FMAT,2
INCH
; #@! TA.AperFunction,Plated,PTH,ViaDrill
T1C0.0118
; #@! TA.AperFunction,Plated,PTH,ComponentDrill
T2C0.0287
; #@! TA.AperFunction,Plated,PTH,ComponentDrill
T3C0.0315
%
G90
G05
T1
X5.3469Y-3.674
X5.3484Y-3.7791
X5.6169Y-3.9059
X5.6189Y-3.7846
X5.7138Y-3.6831
X5.7144Y-3.8928
X5.7449Y-3.5791
X5.7449Y-3.9008
X5.7685Y-3.665
X5.7705Y-4.0421
X5.7705Y-3.8825
X5.8067Y-4.0244
X5.8312Y-3.9124
X5.8429Y-3.8874
X5.928Y-3.8882
X5.9315Y-3.685
X5.9902Y-3.9417
T2
X5.5624Y-3.5811
X5.5624Y-3.6811
X5.5624Y-3.7811
X6.0053Y-3.5811
X6.0053Y-3.6811
X6.0053Y-3.7811
T3
X5.6177Y-3.9646
X5.6965Y-3.9646
X5.7752Y-3.9646
X5.8539Y-3.9646
X5.9327Y-3.9646
M30
