%TF.GenerationSoftware,KiCad,Pcbnew,10.0.1*%
%TF.CreationDate,2026-08-01T20:51:21+02:00*%
%TF.ProjectId,Pressure_sensor_board,50726573-7375-4726-955f-73656e736f72,rev?*%
%TF.SameCoordinates,Original*%
%TF.FileFunction,Copper,L2,Bot*%
%TF.FilePolarity,Positive*%
%FSLAX46Y46*%
G04 Gerber Fmt 4.6, Leading zero omitted, Abs format (unit mm)*
G04 Created by KiCad (PCBNEW 10.0.1) date 2026-08-01 20:51:21*
%MOMM*%
%LPD*%
G01*
G04 APERTURE LIST*
G04 Aperture macros list*
%AMRoundRect*
0 Rectangle with rounded corners*
0 $1 Rounding radius*
0 $2 $3 $4 $5 $6 $7 $8 $9 X,Y pos of 4 corners*
0 Add a 4 corners polygon primitive as box body*
4,1,4,$2,$3,$4,$5,$6,$7,$8,$9,$2,$3,0*
0 Add four circle primitives for the rounded corners*
1,1,$1+$1,$2,$3*
1,1,$1+$1,$4,$5*
1,1,$1+$1,$6,$7*
1,1,$1+$1,$8,$9*
0 Add four rect primitives between the rounded corners*
20,1,$1+$1,$2,$3,$4,$5,0*
20,1,$1+$1,$4,$5,$6,$7,0*
20,1,$1+$1,$6,$7,$8,$9,0*
20,1,$1+$1,$8,$9,$2,$3,0*%
G04 Aperture macros list end*
%TA.AperFunction,ComponentPad*%
%ADD10RoundRect,0.250000X0.350000X0.650000X-0.350000X0.650000X-0.350000X-0.650000X0.350000X-0.650000X0*%
%TD*%
%TA.AperFunction,ComponentPad*%
%ADD11O,1.200000X1.800000*%
%TD*%
%TA.AperFunction,ComponentPad*%
%ADD12C,1.251000*%
%TD*%
%TA.AperFunction,ViaPad*%
%ADD13C,0.600000*%
%TD*%
%TA.AperFunction,Conductor*%
%ADD14C,0.200000*%
%TD*%
G04 APERTURE END LIST*
D10*
%TO.P,J1,1,Pin_1_1*%
%TO.N,GND*%
X150690000Y-100700000D03*
D11*
%TO.P,J1,2,Pin_2_2*%
%TO.N,+3.3V*%
X148690000Y-100700000D03*
%TO.P,J1,3,Pin_3_3*%
%TO.N,SPI_SCK*%
X146690000Y-100700000D03*
%TO.P,J1,4,Pin_4_4*%
%TO.N,SPI_MISO*%
X144690000Y-100700000D03*
%TO.P,J1,5,Pin_5_5*%
%TO.N,CS_ABP*%
X142690000Y-100700000D03*
%TD*%
D12*
%TO.P,IC1,1,GND_1*%
%TO.N,GND*%
X152535500Y-90960000D03*
%TO.P,IC1,2,VSUPPLY_2*%
%TO.N,+3.3V*%
X152535500Y-93500000D03*
%TO.P,IC1,3,SS_3*%
%TO.N,CS_ABP*%
X152535500Y-96040000D03*
%TO.P,IC1,4,NC_4*%
%TO.N,unconnected-(IC1-NC-Pad4)*%
X141285500Y-96040000D03*
%TO.P,IC1,5,MISO_5*%
%TO.N,SPI_MISO*%
X141285500Y-93500000D03*
%TO.P,IC1,6,SCLK_6*%
%TO.N,SPI_SCK*%
X141285500Y-90960000D03*
%TD*%
D13*
%TO.N,SPI_SCK*%
X145920000Y-99080000D03*
X147490000Y-102220000D03*
X146570000Y-102670000D03*
X145920000Y-90910000D03*
%TO.N,GND*%
X152150000Y-100120000D03*
%TO.N,+3.3V*%
X146520000Y-93090000D03*
X135810000Y-93320000D03*
X150570000Y-98760000D03*
X150660000Y-93600000D03*
X148113241Y-99373985D03*
X146570988Y-98615008D03*
X135850000Y-95990000D03*
X148410000Y-98740000D03*
%TO.N,SPI_MISO*%
X145130000Y-93550000D03*
X145145903Y-98878062D03*
%TO.N,CS_ABP*%
X142720000Y-96130000D03*
X142670000Y-99210000D03*
%TD*%
%TO.N,SPI_SCK*%
D14*
X147040000Y-102670000D02*
X147490000Y-102220000D01*
X146570000Y-102670000D02*
X147040000Y-102670000D01*
X145920000Y-90910000D02*
X145920000Y-99080000D01*
%TO.N,+3.3V*%
X146570988Y-93140988D02*
X146520000Y-93090000D01*
X148410000Y-98740000D02*
X148410000Y-99077226D01*
X150660000Y-98670000D02*
X150570000Y-98760000D01*
X135850000Y-93360000D02*
X135810000Y-93320000D01*
X148410000Y-99077226D02*
X148113241Y-99373985D01*
X150660000Y-93600000D02*
X150660000Y-98670000D01*
X146570988Y-98615008D02*
X146570988Y-93140988D01*
X135850000Y-95990000D02*
X135850000Y-93360000D01*
%TO.N,SPI_MISO*%
X145130000Y-98862159D02*
X145145903Y-98878062D01*
X145130000Y-93550000D02*
X145130000Y-98862159D01*
%TO.N,CS_ABP*%
X142720000Y-99160000D02*
X142670000Y-99210000D01*
X142720000Y-96130000D02*
X142720000Y-99160000D01*
%TD*%
%TA.AperFunction,Conductor*%
%TO.N,GND*%
G36*
X158852539Y-88255185D02*
G01*
X158898294Y-88307989D01*
X158909500Y-88359500D01*
X158909500Y-107110500D01*
X158889815Y-107177539D01*
X158837011Y-107223294D01*
X158785500Y-107234500D01*
X135034500Y-107234500D01*
X134967461Y-107214815D01*
X134921706Y-107162011D01*
X134910500Y-107110500D01*
X134910500Y-104943713D01*
X135719500Y-104943713D01*
X135719500Y-105156286D01*
X135752753Y-105366239D01*
X135818444Y-105568414D01*
X135914951Y-105757820D01*
X136039890Y-105929786D01*
X136190213Y-106080109D01*
X136362179Y-106205048D01*
X136362181Y-106205049D01*
X136362184Y-106205051D01*
X136551588Y-106301557D01*
X136753757Y-106367246D01*
X136963713Y-106400500D01*
X136963714Y-106400500D01*
X137176286Y-106400500D01*
X137176287Y-106400500D01*
X137386243Y-106367246D01*
X137588412Y-106301557D01*
X137777816Y-106205051D01*
X137799789Y-106189086D01*
X137949786Y-106080109D01*
X137949788Y-106080106D01*
X137949792Y-106080104D01*
X138100104Y-105929792D01*
X138100106Y-105929788D01*
X138100109Y-105929786D01*
X138225048Y-105757820D01*
X138225047Y-105757820D01*
X138225051Y-105757816D01*
X138321557Y-105568412D01*
X138387246Y-105366243D01*
X138420500Y-105156287D01*
X138420500Y-104943713D01*
X138409413Y-104873713D01*
X155349500Y-104873713D01*
X155349500Y-105086287D01*
X155382754Y-105296243D01*
X155405498Y-105366243D01*
X155448444Y-105498414D01*
X155544951Y-105687820D01*
X155669890Y-105859786D01*
X155820213Y-106010109D01*
X155992179Y-106135048D01*
X155992181Y-106135049D01*
X155992184Y-106135051D01*
X156181588Y-106231557D01*
X156383757Y-106297246D01*
X156593713Y-106330500D01*
X156593714Y-106330500D01*
X156806286Y-106330500D01*
X156806287Y-106330500D01*
X157016243Y-106297246D01*
X157218412Y-106231557D01*
X157407816Y-106135051D01*
X157483445Y-106080104D01*
X157579786Y-106010109D01*
X157579788Y-106010106D01*
X157579792Y-106010104D01*
X157730104Y-105859792D01*
X157730106Y-105859788D01*
X157730109Y-105859786D01*
X157855048Y-105687820D01*
X157855047Y-105687820D01*
X157855051Y-105687816D01*
X157951557Y-105498412D01*
X158017246Y-105296243D01*
X158050500Y-105086287D01*
X158050500Y-104873713D01*
X158017246Y-104663757D01*
X157951557Y-104461588D01*
X157855051Y-104272184D01*
X157855049Y-104272181D01*
X157855048Y-104272179D01*
X157730109Y-104100213D01*
X157579786Y-103949890D01*
X157407820Y-103824951D01*
X157218414Y-103728444D01*
X157218413Y-103728443D01*
X157218412Y-103728443D01*
X157016243Y-103662754D01*
X157016241Y-103662753D01*
X157016240Y-103662753D01*
X156854957Y-103637208D01*
X156806287Y-103629500D01*
X156593713Y-103629500D01*
X156545042Y-103637208D01*
X156383760Y-103662753D01*
X156181585Y-103728444D01*
X155992179Y-103824951D01*
X155820213Y-103949890D01*
X155669890Y-104100213D01*
X155544951Y-104272179D01*
X155448444Y-104461585D01*
X155382753Y-104663760D01*
X155349500Y-104873713D01*
X138409413Y-104873713D01*
X138387246Y-104733757D01*
X138321557Y-104531588D01*
X138225051Y-104342184D01*
X138225049Y-104342181D01*
X138225048Y-104342179D01*
X138100109Y-104170213D01*
X137949786Y-104019890D01*
X137777820Y-103894951D01*
X137588414Y-103798444D01*
X137588413Y-103798443D01*
X137588412Y-103798443D01*
X137386243Y-103732754D01*
X137386241Y-103732753D01*
X137386240Y-103732753D01*
X137224957Y-103707208D01*
X137176287Y-103699500D01*
X136963713Y-103699500D01*
X136915042Y-103707208D01*
X136753760Y-103732753D01*
X136551585Y-103798444D01*
X136362179Y-103894951D01*
X136190213Y-104019890D01*
X136039890Y-104170213D01*
X135914951Y-104342179D01*
X135818444Y-104531585D01*
X135752753Y-104733760D01*
X135719500Y-104943713D01*
X134910500Y-104943713D01*
X134910500Y-96433575D01*
X134930185Y-96366536D01*
X134982989Y-96320781D01*
X135052147Y-96310837D01*
X135115703Y-96339862D01*
X135137602Y-96364684D01*
X135228210Y-96500288D01*
X135228213Y-96500292D01*
X135339707Y-96611786D01*
X135339711Y-96611789D01*
X135470814Y-96699390D01*
X135470827Y-96699397D01*
X135616498Y-96759735D01*
X135616503Y-96759737D01*
X135771153Y-96790499D01*
X135771156Y-96790500D01*
X135771158Y-96790500D01*
X135928844Y-96790500D01*
X135928845Y-96790499D01*
X136083497Y-96759737D01*
X136229179Y-96699394D01*
X136360289Y-96611789D01*
X136471789Y-96500289D01*
X136559394Y-96369179D01*
X136619737Y-96223497D01*
X136650500Y-96068842D01*
X136650500Y-95951382D01*
X140159500Y-95951382D01*
X140159500Y-96128617D01*
X140187226Y-96303673D01*
X140187226Y-96303676D01*
X140241993Y-96472231D01*
X140241995Y-96472234D01*
X140322458Y-96630153D01*
X140426635Y-96773540D01*
X140551960Y-96898865D01*
X140695347Y-97003042D01*
X140853266Y-97083505D01*
X140853268Y-97083506D01*
X141010490Y-97134590D01*
X141021828Y-97138274D01*
X141196882Y-97166000D01*
X141196883Y-97166000D01*
X141374117Y-97166000D01*
X141374118Y-97166000D01*
X141549172Y-97138274D01*
X141549175Y-97138273D01*
X141549176Y-97138273D01*
X141717731Y-97083506D01*
X141717731Y-97083505D01*
X141717734Y-97083505D01*
X141875653Y-97003042D01*
X141922614Y-96968923D01*
X141988420Y-96945442D01*
X142056474Y-96961267D01*
X142105169Y-97011372D01*
X142119500Y-97069240D01*
X142119500Y-98577059D01*
X142099815Y-98644098D01*
X142083181Y-98664740D01*
X142048213Y-98699707D01*
X142048210Y-98699711D01*
X141960609Y-98830814D01*
X141960602Y-98830827D01*
X141900264Y-98976498D01*
X141900261Y-98976510D01*
X141869500Y-99131153D01*
X141869500Y-99288846D01*
X141900260Y-99443488D01*
X141900261Y-99443489D01*
X141900263Y-99443497D01*
X141924176Y-99501229D01*
X141931644Y-99570697D01*
X141900368Y-99633176D01*
X141897297Y-99636358D01*
X141850592Y-99683064D01*
X141850590Y-99683066D01*
X141748768Y-99823211D01*
X141670128Y-99977552D01*
X141616597Y-100142302D01*
X141589500Y-100313389D01*
X141589500Y-101086611D01*
X141616598Y-101257701D01*
X141670127Y-101422445D01*
X141748768Y-101576788D01*
X141850586Y-101716928D01*
X141973072Y-101839414D01*
X142113212Y-101941232D01*
X142267555Y-102019873D01*
X142432299Y-102073402D01*
X142603389Y-102100500D01*
X142603390Y-102100500D01*
X142776610Y-102100500D01*
X142776611Y-102100500D01*
X142947701Y-102073402D01*
X143112445Y-102019873D01*
X143266788Y-101941232D01*
X143406928Y-101839414D01*
X143529414Y-101716928D01*
X143589682Y-101633975D01*
X143645012Y-101591311D01*
X143714626Y-101585332D01*
X143776421Y-101617938D01*
X143790315Y-101633973D01*
X143850586Y-101716928D01*
X143973072Y-101839414D01*
X144113212Y-101941232D01*
X144267555Y-102019873D01*
X144432299Y-102073402D01*
X144603389Y-102100500D01*
X144603390Y-102100500D01*
X144776610Y-102100500D01*
X144776611Y-102100500D01*
X144947701Y-102073402D01*
X145112445Y-102019873D01*
X145266788Y-101941232D01*
X145406928Y-101839414D01*
X145529414Y-101716928D01*
X145589682Y-101633975D01*
X145645012Y-101591311D01*
X145714626Y-101585332D01*
X145776421Y-101617938D01*
X145790315Y-101633973D01*
X145850586Y-101716928D01*
X145973072Y-101839414D01*
X146026728Y-101878398D01*
X146069394Y-101933726D01*
X146075373Y-102003340D01*
X146042768Y-102065135D01*
X146041525Y-102066396D01*
X145948210Y-102159711D01*
X145860609Y-102290814D01*
X145860602Y-102290827D01*
X145800264Y-102436498D01*
X145800261Y-102436510D01*
X145769500Y-102591153D01*
X145769500Y-102748846D01*
X145800261Y-102903489D01*
X145800264Y-102903501D01*
X145860602Y-103049172D01*
X145860609Y-103049185D01*
X145948210Y-103180288D01*
X145948213Y-103180292D01*
X146059707Y-103291786D01*
X146059711Y-103291789D01*
X146190814Y-103379390D01*
X146190827Y-103379397D01*
X146336498Y-103439735D01*
X146336503Y-103439737D01*
X146491153Y-103470499D01*
X146491156Y-103470500D01*
X146491158Y-103470500D01*
X146648844Y-103470500D01*
X146648845Y-103470499D01*
X146803497Y-103439737D01*
X146949179Y-103379394D01*
X147080289Y-103291789D01*
X147080290Y-103291787D01*
X147084431Y-103289021D01*
X147085163Y-103288074D01*
X147098778Y-103281585D01*
X147116391Y-103271627D01*
X147121068Y-103269961D01*
X147271785Y-103229577D01*
X147321904Y-103200639D01*
X147408716Y-103150520D01*
X147504663Y-103054572D01*
X147565984Y-103021088D01*
X147568152Y-103020637D01*
X147568841Y-103020500D01*
X147568842Y-103020500D01*
X147723497Y-102989737D01*
X147869179Y-102929394D01*
X148000289Y-102841789D01*
X148111789Y-102730289D01*
X148199394Y-102599179D01*
X148202719Y-102591153D01*
X148259735Y-102453501D01*
X148259737Y-102453497D01*
X148290500Y-102298842D01*
X148290500Y-102196128D01*
X148310185Y-102129089D01*
X148362989Y-102083334D01*
X148432147Y-102073390D01*
X148433861Y-102073649D01*
X148603389Y-102100500D01*
X148603390Y-102100500D01*
X148776610Y-102100500D01*
X148776611Y-102100500D01*
X148947701Y-102073402D01*
X149112445Y-102019873D01*
X149266788Y-101941232D01*
X149406928Y-101839414D01*
X149529414Y-101716928D01*
X149631232Y-101576788D01*
X149709873Y-101422445D01*
X149763402Y-101257701D01*
X149790500Y-101086611D01*
X149790500Y-100313389D01*
X149763402Y-100142299D01*
X149709873Y-99977555D01*
X149631232Y-99823212D01*
X149529414Y-99683072D01*
X149406928Y-99560586D01*
X149266788Y-99458768D01*
X149112445Y-99380127D01*
X149111886Y-99379842D01*
X149061090Y-99331868D01*
X149044295Y-99264047D01*
X149065080Y-99200465D01*
X149119389Y-99119187D01*
X149119390Y-99119184D01*
X149119394Y-99119179D01*
X149179737Y-98973497D01*
X149210500Y-98818842D01*
X149210500Y-98681153D01*
X149769500Y-98681153D01*
X149769500Y-98838846D01*
X149800261Y-98993489D01*
X149800264Y-98993501D01*
X149860602Y-99139172D01*
X149860609Y-99139185D01*
X149948210Y-99270288D01*
X149948213Y-99270292D01*
X150059707Y-99381786D01*
X150059711Y-99381789D01*
X150190814Y-99469390D01*
X150190827Y-99469397D01*
X150336498Y-99529735D01*
X150336503Y-99529737D01*
X150491153Y-99560499D01*
X150491156Y-99560500D01*
X150491158Y-99560500D01*
X150648844Y-99560500D01*
X150648845Y-99560499D01*
X150803497Y-99529737D01*
X150949179Y-99469394D01*
X151080289Y-99381789D01*
X151191789Y-99270289D01*
X151279394Y-99139179D01*
X151282719Y-99131153D01*
X151293067Y-99106166D01*
X151339737Y-98993497D01*
X151370500Y-98838842D01*
X151370500Y-98681158D01*
X151370500Y-98681155D01*
X151370499Y-98681153D01*
X151339737Y-98526503D01*
X151279394Y-98380821D01*
X151279390Y-98380815D01*
X151276521Y-98375447D01*
X151278452Y-98374414D01*
X151260520Y-98317137D01*
X151260500Y-98314929D01*
X151260500Y-96534397D01*
X151280185Y-96467358D01*
X151332989Y-96421603D01*
X151402147Y-96411659D01*
X151465703Y-96440684D01*
X151494985Y-96478103D01*
X151572456Y-96630151D01*
X151595290Y-96661578D01*
X151676635Y-96773540D01*
X151801960Y-96898865D01*
X151945347Y-97003042D01*
X152103266Y-97083505D01*
X152103268Y-97083506D01*
X152260490Y-97134590D01*
X152271828Y-97138274D01*
X152446882Y-97166000D01*
X152446883Y-97166000D01*
X152624117Y-97166000D01*
X152624118Y-97166000D01*
X152799172Y-97138274D01*
X152799175Y-97138273D01*
X152799176Y-97138273D01*
X152967731Y-97083506D01*
X152967731Y-97083505D01*
X152967734Y-97083505D01*
X153125653Y-97003042D01*
X153269040Y-96898865D01*
X153394365Y-96773540D01*
X153498542Y-96630153D01*
X153579005Y-96472234D01*
X153613950Y-96364684D01*
X153633773Y-96303676D01*
X153633773Y-96303675D01*
X153633774Y-96303672D01*
X153661500Y-96128618D01*
X153661500Y-95951382D01*
X153633774Y-95776328D01*
X153633773Y-95776324D01*
X153633773Y-95776323D01*
X153579006Y-95607768D01*
X153579004Y-95607765D01*
X153576015Y-95601897D01*
X153498542Y-95449847D01*
X153394365Y-95306460D01*
X153269040Y-95181135D01*
X153125653Y-95076958D01*
X152967734Y-94996495D01*
X152967731Y-94996493D01*
X152799174Y-94941726D01*
X152682469Y-94923242D01*
X152624118Y-94914000D01*
X152446882Y-94914000D01*
X152388530Y-94923242D01*
X152271826Y-94941726D01*
X152271823Y-94941726D01*
X152103268Y-94996493D01*
X152103265Y-94996495D01*
X151945346Y-95076958D01*
X151863538Y-95136395D01*
X151801960Y-95181135D01*
X151801958Y-95181137D01*
X151801957Y-95181137D01*
X151676637Y-95306457D01*
X151676637Y-95306458D01*
X151676635Y-95306460D01*
X151637546Y-95360261D01*
X151572458Y-95449846D01*
X151494985Y-95601897D01*
X151447011Y-95652693D01*
X151379190Y-95669488D01*
X151313055Y-95646951D01*
X151269603Y-95592236D01*
X151260500Y-95545602D01*
X151260500Y-94179765D01*
X151265827Y-94161621D01*
X151266165Y-94142713D01*
X151279666Y-94114492D01*
X151280185Y-94112726D01*
X151281397Y-94110875D01*
X151295243Y-94090153D01*
X151334985Y-94030674D01*
X151388595Y-93985871D01*
X151457920Y-93977164D01*
X151520948Y-94007318D01*
X151548571Y-94043272D01*
X151572458Y-94090153D01*
X151676635Y-94233540D01*
X151801960Y-94358865D01*
X151945347Y-94463042D01*
X152103266Y-94543505D01*
X152103268Y-94543506D01*
X152260490Y-94594590D01*
X152271828Y-94598274D01*
X152446882Y-94626000D01*
X152446883Y-94626000D01*
X152624117Y-94626000D01*
X152624118Y-94626000D01*
X152799172Y-94598274D01*
X152799175Y-94598273D01*
X152799176Y-94598273D01*
X152967731Y-94543506D01*
X152967731Y-94543505D01*
X152967734Y-94543505D01*
X153125653Y-94463042D01*
X153269040Y-94358865D01*
X153394365Y-94233540D01*
X153498542Y-94090153D01*
X153579005Y-93932234D01*
X153584091Y-93916580D01*
X153633773Y-93763676D01*
X153633773Y-93763675D01*
X153633774Y-93763672D01*
X153661500Y-93588618D01*
X153661500Y-93411382D01*
X153633774Y-93236328D01*
X153633773Y-93236324D01*
X153633773Y-93236323D01*
X153579006Y-93067768D01*
X153579004Y-93067765D01*
X153550161Y-93011155D01*
X153498542Y-92909847D01*
X153394365Y-92766460D01*
X153269040Y-92641135D01*
X153125653Y-92536958D01*
X152967734Y-92456495D01*
X152967731Y-92456493D01*
X152799174Y-92401726D01*
X152665801Y-92380602D01*
X152624118Y-92374000D01*
X152446882Y-92374000D01*
X152405199Y-92380602D01*
X152271826Y-92401726D01*
X152271823Y-92401726D01*
X152103268Y-92456493D01*
X152103265Y-92456495D01*
X151945346Y-92536958D01*
X151863538Y-92596395D01*
X151801960Y-92641135D01*
X151801958Y-92641137D01*
X151801957Y-92641137D01*
X151676637Y-92766457D01*
X151676637Y-92766458D01*
X151676635Y-92766460D01*
X151666608Y-92780261D01*
X151572458Y-92909846D01*
X151490647Y-93070411D01*
X151442673Y-93121207D01*
X151374852Y-93138002D01*
X151308717Y-93115465D01*
X151284308Y-93092780D01*
X151281786Y-93089707D01*
X151170292Y-92978213D01*
X151170288Y-92978210D01*
X151039185Y-92890609D01*
X151039172Y-92890602D01*
X150893501Y-92830264D01*
X150893489Y-92830261D01*
X150738845Y-92799500D01*
X150738842Y-92799500D01*
X150581158Y-92799500D01*
X150581155Y-92799500D01*
X150426510Y-92830261D01*
X150426498Y-92830264D01*
X150280827Y-92890602D01*
X150280814Y-92890609D01*
X150149711Y-92978210D01*
X150149707Y-92978213D01*
X150038213Y-93089707D01*
X150038210Y-93089711D01*
X149950609Y-93220814D01*
X149950602Y-93220827D01*
X149890264Y-93366498D01*
X149890261Y-93366510D01*
X149859500Y-93521153D01*
X149859500Y-93678846D01*
X149890261Y-93833489D01*
X149890264Y-93833501D01*
X149950602Y-93979172D01*
X149950609Y-93979185D01*
X150038602Y-94110874D01*
X150059480Y-94177551D01*
X150059500Y-94179765D01*
X150059500Y-98087059D01*
X150039815Y-98154098D01*
X150023181Y-98174740D01*
X149948213Y-98249707D01*
X149948210Y-98249711D01*
X149860609Y-98380814D01*
X149860602Y-98380827D01*
X149800264Y-98526498D01*
X149800261Y-98526510D01*
X149769500Y-98681153D01*
X149210500Y-98681153D01*
X149210500Y-98661158D01*
X149210500Y-98661155D01*
X149210499Y-98661153D01*
X149207198Y-98644560D01*
X149179737Y-98506503D01*
X149127962Y-98381506D01*
X149119397Y-98360827D01*
X149119390Y-98360814D01*
X149031789Y-98229711D01*
X149031786Y-98229707D01*
X148920292Y-98118213D01*
X148920288Y-98118210D01*
X148789185Y-98030609D01*
X148789172Y-98030602D01*
X148643501Y-97970264D01*
X148643489Y-97970261D01*
X148488845Y-97939500D01*
X148488842Y-97939500D01*
X148331158Y-97939500D01*
X148331155Y-97939500D01*
X148176510Y-97970261D01*
X148176498Y-97970264D01*
X148030827Y-98030602D01*
X148030814Y-98030609D01*
X147899711Y-98118210D01*
X147899707Y-98118213D01*
X147788213Y-98229707D01*
X147788210Y-98229711D01*
X147700609Y-98360814D01*
X147700602Y-98360827D01*
X147640264Y-98506498D01*
X147640261Y-98506508D01*
X147617105Y-98622923D01*
X147584720Y-98684833D01*
X147524004Y-98719408D01*
X147454235Y-98715668D01*
X147397563Y-98674801D01*
X147371982Y-98609783D01*
X147371488Y-98598731D01*
X147371488Y-98536163D01*
X147371487Y-98536161D01*
X147364072Y-98498883D01*
X147340725Y-98381511D01*
X147332804Y-98362387D01*
X147280385Y-98235835D01*
X147280378Y-98235822D01*
X147192386Y-98104133D01*
X147171508Y-98037455D01*
X147171488Y-98035242D01*
X147171488Y-93593456D01*
X147191173Y-93526417D01*
X147192387Y-93524564D01*
X147229389Y-93469187D01*
X147229390Y-93469184D01*
X147229394Y-93469179D01*
X147289737Y-93323497D01*
X147320500Y-93168842D01*
X147320500Y-93011158D01*
X147320500Y-93011155D01*
X147320499Y-93011153D01*
X147306509Y-92940821D01*
X147289737Y-92856503D01*
X147258157Y-92780261D01*
X147229397Y-92710827D01*
X147229390Y-92710814D01*
X147141789Y-92579711D01*
X147141786Y-92579707D01*
X147030292Y-92468213D01*
X147030288Y-92468210D01*
X146899185Y-92380609D01*
X146899172Y-92380602D01*
X146753501Y-92320264D01*
X146753491Y-92320261D01*
X146620308Y-92293769D01*
X146558397Y-92261384D01*
X146523823Y-92200668D01*
X146520500Y-92172152D01*
X146520500Y-91489765D01*
X146540185Y-91422726D01*
X146541398Y-91420874D01*
X146629390Y-91289185D01*
X146629390Y-91289184D01*
X146629394Y-91289179D01*
X146689737Y-91143497D01*
X146720500Y-90988842D01*
X146720500Y-90871421D01*
X151410000Y-90871421D01*
X151410000Y-91048578D01*
X151437714Y-91223556D01*
X151492456Y-91392039D01*
X151492457Y-91392042D01*
X151572886Y-91549890D01*
X151580953Y-91560992D01*
X151580954Y-91560993D01*
X152170500Y-90971447D01*
X152170500Y-91008053D01*
X152195374Y-91100885D01*
X152243427Y-91184116D01*
X152311384Y-91252073D01*
X152394615Y-91300126D01*
X152487447Y-91325000D01*
X152524053Y-91325000D01*
X151934506Y-91914545D01*
X151945610Y-91922614D01*
X151945616Y-91922617D01*
X152103447Y-92003037D01*
X152103460Y-92003043D01*
X152271943Y-92057785D01*
X152446922Y-92085500D01*
X152624078Y-92085500D01*
X152799056Y-92057785D01*
X152967539Y-92003043D01*
X152967542Y-92003042D01*
X153125387Y-91922615D01*
X153125392Y-91922612D01*
X153136492Y-91914546D01*
X153136493Y-91914545D01*
X152546948Y-91325000D01*
X152583553Y-91325000D01*
X152676385Y-91300126D01*
X152759616Y-91252073D01*
X152827573Y-91184116D01*
X152875626Y-91100885D01*
X152900500Y-91008053D01*
X152900500Y-90971447D01*
X153490045Y-91560993D01*
X153490046Y-91560992D01*
X153498112Y-91549892D01*
X153498115Y-91549887D01*
X153578542Y-91392042D01*
X153578543Y-91392039D01*
X153633285Y-91223556D01*
X153661000Y-91048578D01*
X153661000Y-90871421D01*
X153633285Y-90696443D01*
X153578543Y-90527960D01*
X153578537Y-90527947D01*
X153498117Y-90370116D01*
X153498112Y-90370108D01*
X153490045Y-90359006D01*
X152900500Y-90948551D01*
X152900500Y-90911947D01*
X152875626Y-90819115D01*
X152827573Y-90735884D01*
X152759616Y-90667927D01*
X152676385Y-90619874D01*
X152583553Y-90595000D01*
X152546947Y-90595000D01*
X152878234Y-90263713D01*
X155419500Y-90263713D01*
X155419500Y-90476286D01*
X155451210Y-90676498D01*
X155452754Y-90686243D01*
X155512922Y-90871421D01*
X155518444Y-90888414D01*
X155614951Y-91077820D01*
X155739890Y-91249786D01*
X155890213Y-91400109D01*
X156062179Y-91525048D01*
X156062181Y-91525049D01*
X156062184Y-91525051D01*
X156251588Y-91621557D01*
X156453757Y-91687246D01*
X156663713Y-91720500D01*
X156663714Y-91720500D01*
X156876286Y-91720500D01*
X156876287Y-91720500D01*
X157086243Y-91687246D01*
X157288412Y-91621557D01*
X157477816Y-91525051D01*
X157519112Y-91495048D01*
X157649786Y-91400109D01*
X157649788Y-91400106D01*
X157649792Y-91400104D01*
X157800104Y-91249792D01*
X157800106Y-91249788D01*
X157800109Y-91249786D01*
X157925048Y-91077820D01*
X157925047Y-91077820D01*
X157925051Y-91077816D01*
X158021557Y-90888412D01*
X158087246Y-90686243D01*
X158120500Y-90476287D01*
X158120500Y-90263713D01*
X158087246Y-90053757D01*
X158021557Y-89851588D01*
X157925051Y-89662184D01*
X157925049Y-89662181D01*
X157925048Y-89662179D01*
X157800109Y-89490213D01*
X157649786Y-89339890D01*
X157477820Y-89214951D01*
X157288414Y-89118444D01*
X157288413Y-89118443D01*
X157288412Y-89118443D01*
X157086243Y-89052754D01*
X157086241Y-89052753D01*
X157086240Y-89052753D01*
X156924957Y-89027208D01*
X156876287Y-89019500D01*
X156663713Y-89019500D01*
X156615042Y-89027208D01*
X156453760Y-89052753D01*
X156251585Y-89118444D01*
X156062179Y-89214951D01*
X155890213Y-89339890D01*
X155739890Y-89490213D01*
X155614951Y-89662179D01*
X155518444Y-89851585D01*
X155452753Y-90053760D01*
X155419500Y-90263713D01*
X152878234Y-90263713D01*
X153136493Y-90005454D01*
X153136492Y-90005453D01*
X153125390Y-89997386D01*
X152967542Y-89916957D01*
X152967539Y-89916956D01*
X152799056Y-89862214D01*
X152624078Y-89834500D01*
X152446922Y-89834500D01*
X152271943Y-89862214D01*
X152103460Y-89916956D01*
X152103447Y-89916962D01*
X151945621Y-89997379D01*
X151945612Y-89997385D01*
X151934506Y-90005453D01*
X152524054Y-90595000D01*
X152487447Y-90595000D01*
X152394615Y-90619874D01*
X152311384Y-90667927D01*
X152243427Y-90735884D01*
X152195374Y-90819115D01*
X152170500Y-90911947D01*
X152170500Y-90948553D01*
X151580953Y-90359006D01*
X151572885Y-90370112D01*
X151572879Y-90370121D01*
X151492462Y-90527947D01*
X151492456Y-90527960D01*
X151437714Y-90696443D01*
X151410000Y-90871421D01*
X146720500Y-90871421D01*
X146720500Y-90831158D01*
X146720500Y-90831155D01*
X146720499Y-90831153D01*
X146718104Y-90819115D01*
X146689737Y-90676503D01*
X146681344Y-90656240D01*
X146629397Y-90530827D01*
X146629390Y-90530814D01*
X146541789Y-90399711D01*
X146541786Y-90399707D01*
X146430292Y-90288213D01*
X146430288Y-90288210D01*
X146299185Y-90200609D01*
X146299172Y-90200602D01*
X146218706Y-90167273D01*
X146153501Y-90140264D01*
X146153489Y-90140261D01*
X145998845Y-90109500D01*
X145998842Y-90109500D01*
X145841158Y-90109500D01*
X145841155Y-90109500D01*
X145686510Y-90140261D01*
X145686498Y-90140264D01*
X145540827Y-90200602D01*
X145540814Y-90200609D01*
X145409711Y-90288210D01*
X145409707Y-90288213D01*
X145298213Y-90399707D01*
X145298210Y-90399711D01*
X145210609Y-90530814D01*
X145210602Y-90530827D01*
X145150264Y-90676498D01*
X145150261Y-90676510D01*
X145119500Y-90831153D01*
X145119500Y-90988846D01*
X145150261Y-91143489D01*
X145150264Y-91143501D01*
X145210602Y-91289172D01*
X145210609Y-91289185D01*
X145298602Y-91420874D01*
X145319480Y-91487551D01*
X145319500Y-91489765D01*
X145319500Y-92625500D01*
X145299815Y-92692539D01*
X145247011Y-92738294D01*
X145195500Y-92749500D01*
X145051155Y-92749500D01*
X144896510Y-92780261D01*
X144896498Y-92780264D01*
X144750827Y-92840602D01*
X144750814Y-92840609D01*
X144619711Y-92928210D01*
X144619707Y-92928213D01*
X144508213Y-93039707D01*
X144508210Y-93039711D01*
X144420609Y-93170814D01*
X144420602Y-93170827D01*
X144360264Y-93316498D01*
X144360261Y-93316510D01*
X144329500Y-93471153D01*
X144329500Y-93628846D01*
X144360261Y-93783489D01*
X144360264Y-93783501D01*
X144420602Y-93929172D01*
X144420609Y-93929185D01*
X144508602Y-94060874D01*
X144529480Y-94127551D01*
X144529500Y-94129765D01*
X144529500Y-98322096D01*
X144509815Y-98389135D01*
X144508602Y-98390987D01*
X144436512Y-98498876D01*
X144436505Y-98498889D01*
X144376167Y-98644560D01*
X144376164Y-98644572D01*
X144345403Y-98799215D01*
X144345403Y-98956908D01*
X144376164Y-99111551D01*
X144376167Y-99111563D01*
X144409996Y-99193234D01*
X144417465Y-99262703D01*
X144386189Y-99325182D01*
X144333755Y-99358616D01*
X144267554Y-99380126D01*
X144113211Y-99458768D01*
X144054772Y-99501227D01*
X143973072Y-99560586D01*
X143973070Y-99560588D01*
X143973069Y-99560588D01*
X143850588Y-99683069D01*
X143850581Y-99683078D01*
X143790317Y-99766023D01*
X143771821Y-99780285D01*
X143756421Y-99797847D01*
X143744670Y-99801221D01*
X143734987Y-99808689D01*
X143711714Y-99810687D01*
X143689266Y-99817135D01*
X143677555Y-99813620D01*
X143665374Y-99814667D01*
X143644716Y-99803767D01*
X143622344Y-99797054D01*
X143610291Y-99785602D01*
X143603579Y-99782061D01*
X143595808Y-99773784D01*
X143592587Y-99770022D01*
X143529414Y-99683072D01*
X143451021Y-99604679D01*
X143447908Y-99601043D01*
X143435469Y-99573373D01*
X143420934Y-99546754D01*
X143421286Y-99541824D01*
X143419260Y-99537316D01*
X143423754Y-99507317D01*
X143425918Y-99477062D01*
X143427522Y-99472985D01*
X143439737Y-99443497D01*
X143470500Y-99288842D01*
X143470500Y-99131158D01*
X143470500Y-99131155D01*
X143470499Y-99131153D01*
X143466600Y-99111551D01*
X143439737Y-98976503D01*
X143379394Y-98830821D01*
X143341396Y-98773953D01*
X143320520Y-98707276D01*
X143320500Y-98705064D01*
X143320500Y-96709765D01*
X143340185Y-96642726D01*
X143341398Y-96640874D01*
X143429390Y-96509185D01*
X143429390Y-96509184D01*
X143429394Y-96509179D01*
X143489737Y-96363497D01*
X143520500Y-96208842D01*
X143520500Y-96051158D01*
X143520500Y-96051155D01*
X143520499Y-96051153D01*
X143489738Y-95896510D01*
X143489737Y-95896503D01*
X143489735Y-95896498D01*
X143429397Y-95750827D01*
X143429390Y-95750814D01*
X143341789Y-95619711D01*
X143341786Y-95619707D01*
X143230292Y-95508213D01*
X143230288Y-95508210D01*
X143099185Y-95420609D01*
X143099172Y-95420602D01*
X142953501Y-95360264D01*
X142953489Y-95360261D01*
X142798845Y-95329500D01*
X142798842Y-95329500D01*
X142641158Y-95329500D01*
X142641155Y-95329500D01*
X142486510Y-95360261D01*
X142486498Y-95360264D01*
X142343870Y-95419342D01*
X142274400Y-95426811D01*
X142211921Y-95395535D01*
X142196100Y-95377667D01*
X142183454Y-95360261D01*
X142144365Y-95306460D01*
X142019040Y-95181135D01*
X141875653Y-95076958D01*
X141717734Y-94996495D01*
X141717731Y-94996493D01*
X141549174Y-94941726D01*
X141432469Y-94923242D01*
X141374118Y-94914000D01*
X141196882Y-94914000D01*
X141138530Y-94923242D01*
X141021826Y-94941726D01*
X141021823Y-94941726D01*
X140853268Y-94996493D01*
X140853265Y-94996495D01*
X140695346Y-95076958D01*
X140613538Y-95136395D01*
X140551960Y-95181135D01*
X140551958Y-95181137D01*
X140551957Y-95181137D01*
X140426637Y-95306457D01*
X140426637Y-95306458D01*
X140426635Y-95306460D01*
X140387546Y-95360261D01*
X140322458Y-95449846D01*
X140241995Y-95607765D01*
X140241993Y-95607768D01*
X140187226Y-95776323D01*
X140187226Y-95776326D01*
X140159500Y-95951382D01*
X136650500Y-95951382D01*
X136650500Y-95911158D01*
X136650500Y-95911155D01*
X136650499Y-95911153D01*
X136619738Y-95756510D01*
X136619737Y-95756503D01*
X136617386Y-95750827D01*
X136559397Y-95610827D01*
X136559390Y-95610814D01*
X136471398Y-95479125D01*
X136450520Y-95412447D01*
X136450500Y-95410234D01*
X136450500Y-93839901D01*
X136470185Y-93772862D01*
X136471398Y-93771010D01*
X136498983Y-93729726D01*
X136519394Y-93699179D01*
X136579737Y-93553497D01*
X136608006Y-93411382D01*
X140159500Y-93411382D01*
X140159500Y-93588617D01*
X140187226Y-93763673D01*
X140187226Y-93763676D01*
X140241993Y-93932231D01*
X140241995Y-93932234D01*
X140322458Y-94090153D01*
X140426635Y-94233540D01*
X140551960Y-94358865D01*
X140695347Y-94463042D01*
X140853266Y-94543505D01*
X140853268Y-94543506D01*
X141010490Y-94594590D01*
X141021828Y-94598274D01*
X141196882Y-94626000D01*
X141196883Y-94626000D01*
X141374117Y-94626000D01*
X141374118Y-94626000D01*
X141549172Y-94598274D01*
X141549175Y-94598273D01*
X141549176Y-94598273D01*
X141717731Y-94543506D01*
X141717731Y-94543505D01*
X141717734Y-94543505D01*
X141875653Y-94463042D01*
X142019040Y-94358865D01*
X142144365Y-94233540D01*
X142248542Y-94090153D01*
X142329005Y-93932234D01*
X142334091Y-93916580D01*
X142383773Y-93763676D01*
X142383773Y-93763675D01*
X142383774Y-93763672D01*
X142411500Y-93588618D01*
X142411500Y-93411382D01*
X142383774Y-93236328D01*
X142383773Y-93236324D01*
X142383773Y-93236323D01*
X142329006Y-93067768D01*
X142329004Y-93067765D01*
X142300161Y-93011155D01*
X142248542Y-92909847D01*
X142144365Y-92766460D01*
X142019040Y-92641135D01*
X141875653Y-92536958D01*
X141717734Y-92456495D01*
X141717731Y-92456493D01*
X141549174Y-92401726D01*
X141415801Y-92380602D01*
X141374118Y-92374000D01*
X141196882Y-92374000D01*
X141155199Y-92380602D01*
X141021826Y-92401726D01*
X141021823Y-92401726D01*
X140853268Y-92456493D01*
X140853265Y-92456495D01*
X140695346Y-92536958D01*
X140613538Y-92596395D01*
X140551960Y-92641135D01*
X140551958Y-92641137D01*
X140551957Y-92641137D01*
X140426637Y-92766457D01*
X140426637Y-92766458D01*
X140426635Y-92766460D01*
X140416608Y-92780261D01*
X140322458Y-92909846D01*
X140241995Y-93067765D01*
X140241993Y-93067768D01*
X140187226Y-93236323D01*
X140187226Y-93236326D01*
X140159500Y-93411382D01*
X136608006Y-93411382D01*
X136610500Y-93398842D01*
X136610500Y-93241158D01*
X136610500Y-93241155D01*
X136610499Y-93241153D01*
X136596509Y-93170821D01*
X136579737Y-93086503D01*
X136560354Y-93039707D01*
X136519397Y-92940827D01*
X136519390Y-92940814D01*
X136431789Y-92809711D01*
X136431786Y-92809707D01*
X136320292Y-92698213D01*
X136320288Y-92698210D01*
X136189185Y-92610609D01*
X136189172Y-92610602D01*
X136043501Y-92550264D01*
X136043489Y-92550261D01*
X135888845Y-92519500D01*
X135888842Y-92519500D01*
X135731158Y-92519500D01*
X135731155Y-92519500D01*
X135576510Y-92550261D01*
X135576498Y-92550264D01*
X135430827Y-92610602D01*
X135430814Y-92610609D01*
X135299711Y-92698210D01*
X135299707Y-92698213D01*
X135188213Y-92809707D01*
X135188210Y-92809711D01*
X135137602Y-92885451D01*
X135083989Y-92930256D01*
X135014664Y-92938963D01*
X134951637Y-92908808D01*
X134914918Y-92849365D01*
X134910500Y-92816560D01*
X134910500Y-90233713D01*
X135719500Y-90233713D01*
X135719500Y-90446286D01*
X135752753Y-90656239D01*
X135752753Y-90656241D01*
X135752754Y-90656243D01*
X135808623Y-90828190D01*
X135818444Y-90858414D01*
X135914951Y-91047820D01*
X136039890Y-91219786D01*
X136190213Y-91370109D01*
X136362179Y-91495048D01*
X136362181Y-91495049D01*
X136362184Y-91495051D01*
X136551588Y-91591557D01*
X136753757Y-91657246D01*
X136963713Y-91690500D01*
X136963714Y-91690500D01*
X137176286Y-91690500D01*
X137176287Y-91690500D01*
X137386243Y-91657246D01*
X137588412Y-91591557D01*
X137777816Y-91495051D01*
X137880718Y-91420289D01*
X137949786Y-91370109D01*
X137949788Y-91370106D01*
X137949792Y-91370104D01*
X138100104Y-91219792D01*
X138100106Y-91219788D01*
X138100109Y-91219786D01*
X138225048Y-91047820D01*
X138225047Y-91047820D01*
X138225051Y-91047816D01*
X138314948Y-90871382D01*
X140159500Y-90871382D01*
X140159500Y-91048617D01*
X140187226Y-91223673D01*
X140187226Y-91223676D01*
X140241993Y-91392231D01*
X140241995Y-91392234D01*
X140322458Y-91550153D01*
X140426635Y-91693540D01*
X140551960Y-91818865D01*
X140695347Y-91923042D01*
X140853266Y-92003505D01*
X140853268Y-92003506D01*
X141010490Y-92054590D01*
X141021828Y-92058274D01*
X141196882Y-92086000D01*
X141196883Y-92086000D01*
X141374117Y-92086000D01*
X141374118Y-92086000D01*
X141549172Y-92058274D01*
X141549175Y-92058273D01*
X141549176Y-92058273D01*
X141717731Y-92003506D01*
X141717731Y-92003505D01*
X141717734Y-92003505D01*
X141875653Y-91923042D01*
X142019040Y-91818865D01*
X142144365Y-91693540D01*
X142248542Y-91550153D01*
X142329005Y-91392234D01*
X142336194Y-91370109D01*
X142383773Y-91223676D01*
X142383773Y-91223675D01*
X142383774Y-91223672D01*
X142411500Y-91048618D01*
X142411500Y-90871382D01*
X142383774Y-90696328D01*
X142383773Y-90696324D01*
X142383773Y-90696323D01*
X142329006Y-90527768D01*
X142329004Y-90527765D01*
X142302775Y-90476286D01*
X142248542Y-90369847D01*
X142144365Y-90226460D01*
X142019040Y-90101135D01*
X141875653Y-89996958D01*
X141717734Y-89916495D01*
X141717731Y-89916493D01*
X141549174Y-89861726D01*
X141432469Y-89843242D01*
X141374118Y-89834000D01*
X141196882Y-89834000D01*
X141138530Y-89843242D01*
X141021826Y-89861726D01*
X141021823Y-89861726D01*
X140853268Y-89916493D01*
X140853265Y-89916495D01*
X140695346Y-89996958D01*
X140658461Y-90023757D01*
X140551960Y-90101135D01*
X140551958Y-90101137D01*
X140551957Y-90101137D01*
X140426637Y-90226457D01*
X140426637Y-90226458D01*
X140426635Y-90226460D01*
X140399569Y-90263713D01*
X140322458Y-90369846D01*
X140241995Y-90527765D01*
X140241993Y-90527768D01*
X140187226Y-90696323D01*
X140187226Y-90696326D01*
X140159500Y-90871382D01*
X138314948Y-90871382D01*
X138321557Y-90858412D01*
X138387246Y-90656243D01*
X138420500Y-90446287D01*
X138420500Y-90233713D01*
X138387246Y-90023757D01*
X138321557Y-89821588D01*
X138225051Y-89632184D01*
X138225049Y-89632181D01*
X138225048Y-89632179D01*
X138100109Y-89460213D01*
X137949786Y-89309890D01*
X137777820Y-89184951D01*
X137588414Y-89088444D01*
X137588413Y-89088443D01*
X137588412Y-89088443D01*
X137386243Y-89022754D01*
X137386241Y-89022753D01*
X137386240Y-89022753D01*
X137224957Y-88997208D01*
X137176287Y-88989500D01*
X136963713Y-88989500D01*
X136915042Y-88997208D01*
X136753760Y-89022753D01*
X136551585Y-89088444D01*
X136362179Y-89184951D01*
X136190213Y-89309890D01*
X136039890Y-89460213D01*
X135914951Y-89632179D01*
X135818444Y-89821585D01*
X135752753Y-90023760D01*
X135719500Y-90233713D01*
X134910500Y-90233713D01*
X134910500Y-88359500D01*
X134930185Y-88292461D01*
X134982989Y-88246706D01*
X135034500Y-88235500D01*
X158785500Y-88235500D01*
X158852539Y-88255185D01*
G37*
%TD.AperFunction*%
%TD*%
M02*
