%TF.GenerationSoftware,KiCad,Pcbnew,10.0.1*%
%TF.CreationDate,2026-07-06T18:23:42+02:00*%
%TF.ProjectId,MicroscopeStar-DLED,4d696372-6f73-4636-9f70-65537461722d,rev?*%
%TF.SameCoordinates,Original*%
%TF.FileFunction,Legend,Bot*%
%TF.FilePolarity,Positive*%
%FSLAX46Y46*%
G04 Gerber Fmt 4.6, Leading zero omitted, Abs format (unit mm)*
G04 Created by KiCad (PCBNEW 10.0.1) date 2026-07-06 18:23:42*
%MOMM*%
%LPD*%
G01*
G04 APERTURE LIST*
%ADD10C,0.250000*%
%ADD11C,0.150000*%
%ADD12C,0.120000*%
%ADD13R,1.270000X2.920000*%
%ADD14R,3.430000X1.650000*%
G04 APERTURE END LIST*
D10*
X132806955Y-66633000D02*
X132635527Y-66690142D01*
X132635527Y-66690142D02*
X132349812Y-66690142D01*
X132349812Y-66690142D02*
X132235527Y-66633000D01*
X132235527Y-66633000D02*
X132178384Y-66575857D01*
X132178384Y-66575857D02*
X132121241Y-66461571D01*
X132121241Y-66461571D02*
X132121241Y-66347285D01*
X132121241Y-66347285D02*
X132178384Y-66233000D01*
X132178384Y-66233000D02*
X132235527Y-66175857D01*
X132235527Y-66175857D02*
X132349812Y-66118714D01*
X132349812Y-66118714D02*
X132578384Y-66061571D01*
X132578384Y-66061571D02*
X132692669Y-66004428D01*
X132692669Y-66004428D02*
X132749812Y-65947285D01*
X132749812Y-65947285D02*
X132806955Y-65833000D01*
X132806955Y-65833000D02*
X132806955Y-65718714D01*
X132806955Y-65718714D02*
X132749812Y-65604428D01*
X132749812Y-65604428D02*
X132692669Y-65547285D01*
X132692669Y-65547285D02*
X132578384Y-65490142D01*
X132578384Y-65490142D02*
X132292669Y-65490142D01*
X132292669Y-65490142D02*
X132121241Y-65547285D01*
X131778384Y-65490142D02*
X131092670Y-65490142D01*
X131435527Y-66690142D02*
X131435527Y-65490142D01*
X130749812Y-66347285D02*
X130178384Y-66347285D01*
X130864098Y-66690142D02*
X130464098Y-65490142D01*
X130464098Y-65490142D02*
X130064098Y-66690142D01*
X128978384Y-66690142D02*
X129378384Y-66118714D01*
X129664098Y-66690142D02*
X129664098Y-65490142D01*
X129664098Y-65490142D02*
X129206955Y-65490142D01*
X129206955Y-65490142D02*
X129092670Y-65547285D01*
X129092670Y-65547285D02*
X129035527Y-65604428D01*
X129035527Y-65604428D02*
X128978384Y-65718714D01*
X128978384Y-65718714D02*
X128978384Y-65890142D01*
X128978384Y-65890142D02*
X129035527Y-66004428D01*
X129035527Y-66004428D02*
X129092670Y-66061571D01*
X129092670Y-66061571D02*
X129206955Y-66118714D01*
X129206955Y-66118714D02*
X129664098Y-66118714D01*
X128464098Y-66233000D02*
X127549813Y-66233000D01*
X126978384Y-66690142D02*
X126978384Y-65490142D01*
X126978384Y-65490142D02*
X126692670Y-65490142D01*
X126692670Y-65490142D02*
X126521241Y-65547285D01*
X126521241Y-65547285D02*
X126406956Y-65661571D01*
X126406956Y-65661571D02*
X126349813Y-65775857D01*
X126349813Y-65775857D02*
X126292670Y-66004428D01*
X126292670Y-66004428D02*
X126292670Y-66175857D01*
X126292670Y-66175857D02*
X126349813Y-66404428D01*
X126349813Y-66404428D02*
X126406956Y-66518714D01*
X126406956Y-66518714D02*
X126521241Y-66633000D01*
X126521241Y-66633000D02*
X126692670Y-66690142D01*
X126692670Y-66690142D02*
X126978384Y-66690142D01*
X124292670Y-66690142D02*
X124864098Y-66690142D01*
X124864098Y-66690142D02*
X124864098Y-65490142D01*
X123892669Y-66061571D02*
X123492669Y-66061571D01*
X123321241Y-66690142D02*
X123892669Y-66690142D01*
X123892669Y-66690142D02*
X123892669Y-65490142D01*
X123892669Y-65490142D02*
X123321241Y-65490142D01*
X122806955Y-66690142D02*
X122806955Y-65490142D01*
X122806955Y-65490142D02*
X122521241Y-65490142D01*
X122521241Y-65490142D02*
X122349812Y-65547285D01*
X122349812Y-65547285D02*
X122235527Y-65661571D01*
X122235527Y-65661571D02*
X122178384Y-65775857D01*
X122178384Y-65775857D02*
X122121241Y-66004428D01*
X122121241Y-66004428D02*
X122121241Y-66175857D01*
X122121241Y-66175857D02*
X122178384Y-66404428D01*
X122178384Y-66404428D02*
X122235527Y-66518714D01*
X122235527Y-66518714D02*
X122349812Y-66633000D01*
X122349812Y-66633000D02*
X122521241Y-66690142D01*
X122521241Y-66690142D02*
X122806955Y-66690142D01*
X120692669Y-66690142D02*
X120692669Y-65490142D01*
X120692669Y-65490142D02*
X120235526Y-65490142D01*
X120235526Y-65490142D02*
X120121241Y-65547285D01*
X120121241Y-65547285D02*
X120064098Y-65604428D01*
X120064098Y-65604428D02*
X120006955Y-65718714D01*
X120006955Y-65718714D02*
X120006955Y-65890142D01*
X120006955Y-65890142D02*
X120064098Y-66004428D01*
X120064098Y-66004428D02*
X120121241Y-66061571D01*
X120121241Y-66061571D02*
X120235526Y-66118714D01*
X120235526Y-66118714D02*
X120692669Y-66118714D01*
X118978384Y-66690142D02*
X118978384Y-66061571D01*
X118978384Y-66061571D02*
X119035526Y-65947285D01*
X119035526Y-65947285D02*
X119149812Y-65890142D01*
X119149812Y-65890142D02*
X119378384Y-65890142D01*
X119378384Y-65890142D02*
X119492669Y-65947285D01*
X118978384Y-66633000D02*
X119092669Y-66690142D01*
X119092669Y-66690142D02*
X119378384Y-66690142D01*
X119378384Y-66690142D02*
X119492669Y-66633000D01*
X119492669Y-66633000D02*
X119549812Y-66518714D01*
X119549812Y-66518714D02*
X119549812Y-66404428D01*
X119549812Y-66404428D02*
X119492669Y-66290142D01*
X119492669Y-66290142D02*
X119378384Y-66233000D01*
X119378384Y-66233000D02*
X119092669Y-66233000D01*
X119092669Y-66233000D02*
X118978384Y-66175857D01*
X118406955Y-65890142D02*
X118406955Y-66690142D01*
X118406955Y-66004428D02*
X118349812Y-65947285D01*
X118349812Y-65947285D02*
X118235527Y-65890142D01*
X118235527Y-65890142D02*
X118064098Y-65890142D01*
X118064098Y-65890142D02*
X117949812Y-65947285D01*
X117949812Y-65947285D02*
X117892670Y-66061571D01*
X117892670Y-66061571D02*
X117892670Y-66690142D01*
X117321241Y-65890142D02*
X117321241Y-66690142D01*
X117321241Y-66004428D02*
X117264098Y-65947285D01*
X117264098Y-65947285D02*
X117149813Y-65890142D01*
X117149813Y-65890142D02*
X116978384Y-65890142D01*
X116978384Y-65890142D02*
X116864098Y-65947285D01*
X116864098Y-65947285D02*
X116806956Y-66061571D01*
X116806956Y-66061571D02*
X116806956Y-66690142D01*
X115778384Y-66633000D02*
X115892670Y-66690142D01*
X115892670Y-66690142D02*
X116121242Y-66690142D01*
X116121242Y-66690142D02*
X116235527Y-66633000D01*
X116235527Y-66633000D02*
X116292670Y-66518714D01*
X116292670Y-66518714D02*
X116292670Y-66061571D01*
X116292670Y-66061571D02*
X116235527Y-65947285D01*
X116235527Y-65947285D02*
X116121242Y-65890142D01*
X116121242Y-65890142D02*
X115892670Y-65890142D01*
X115892670Y-65890142D02*
X115778384Y-65947285D01*
X115778384Y-65947285D02*
X115721242Y-66061571D01*
X115721242Y-66061571D02*
X115721242Y-66175857D01*
X115721242Y-66175857D02*
X116292670Y-66290142D01*
X115035528Y-66690142D02*
X115149813Y-66633000D01*
X115149813Y-66633000D02*
X115206956Y-66518714D01*
X115206956Y-66518714D02*
X115206956Y-65490142D01*
D11*
X124673333Y-62474819D02*
X124673333Y-63189104D01*
X124673333Y-63189104D02*
X124720952Y-63331961D01*
X124720952Y-63331961D02*
X124816190Y-63427200D01*
X124816190Y-63427200D02*
X124959047Y-63474819D01*
X124959047Y-63474819D02*
X125054285Y-63474819D01*
X123673333Y-63474819D02*
X124244761Y-63474819D01*
X123959047Y-63474819D02*
X123959047Y-62474819D01*
X123959047Y-62474819D02*
X124054285Y-62617676D01*
X124054285Y-62617676D02*
X124149523Y-62712914D01*
X124149523Y-62712914D02*
X124244761Y-62760533D01*
%TO.C,J1*%
D12*
X117905000Y-51810000D02*
X120335000Y-51810000D01*
X117905000Y-56025000D02*
X117905000Y-51810000D01*
X117905000Y-59930000D02*
X117905000Y-58415000D01*
X118905000Y-61930000D02*
X117905000Y-59930000D01*
X120335000Y-51810000D02*
X120335000Y-50350000D01*
X124340000Y-61930000D02*
X118905000Y-61930000D01*
X124340000Y-61930000D02*
X129775000Y-61930000D01*
X129775000Y-61930000D02*
X130775000Y-59930000D01*
X130775000Y-51810000D02*
X128345000Y-51810000D01*
X130775000Y-56025000D02*
X130775000Y-51810000D01*
X130775000Y-59930000D02*
X130775000Y-58415000D01*
%TD*%
%LPC*%
D13*
%TO.C,J1*%
X121340000Y-51750000D03*
X124340000Y-51750000D03*
X127340000Y-51750000D03*
D14*
X117455000Y-57220000D03*
X131225000Y-57220000D03*
%TD*%
%LPD*%
M02*
