M48
; DRILL file KiCad 10.0.1 date 2026-07-06T18:23:42
; FORMAT={-:-/ absolute / inch / decimal}
; #@! TF.CreationDate,2026-07-06T18:23:42+02:00
; #@! TF.GenerationSoftware,Kicad,Pcbnew,10.0.1
; #@! TF.FileFunction,Plated,1,2,PTH
FMAT,2
INCH
; #@! TA.AperFunction,Plated,PTH,ViaDrill
T1C0.0118
; #@! TA.AperFunction,Plated,PTH,ViaDrill
T2C0.0236
; #@! TA.AperFunction,Plated,PTH,ViaDrill
T3C0.0276
%
G90
G05
T1
X4.5642Y-1.9469
X4.5657Y-2.5051
X4.7098Y-2.2528
X4.7421Y-2.1949
X4.8051Y-2.2539
X4.813Y-2.4016
X4.8496Y-2.5071
X4.8504Y-2.4665
X4.8799Y-2.4114
X4.9098Y-1.9524
X4.9114Y-2.4665
X4.9126Y-2.5043
X4.9173Y-2.3504
X4.9547Y-2.3937
X4.9567Y-2.2539
X5.0177Y-2.2008
X5.0657Y-2.2563
X5.2252Y-2.5008
X5.2319Y-1.9551
T2
X4.8366Y-2.1457
X4.8802Y-2.2537
X4.8802Y-2.3521
X4.9252Y-2.1437
T3
X5.0134Y-2.1138
M30
