M48
; DRILL file KiCad 10.0.0 date 2026-06-05T02:52:51
; FORMAT={-:-/ absolute / metric / decimal}
; #@! TF.CreationDate,2026-06-05T02:52:51+02:00
; #@! TF.GenerationSoftware,Kicad,Pcbnew,10.0.0
; #@! TF.FileFunction,Plated,1,4,PTH
FMAT,2
METRIC
; #@! TA.AperFunction,Plated,PTH,ViaDrill
T1C0.200
; #@! TA.AperFunction,Plated,PTH,ViaDrill
T2C0.300
; #@! TA.AperFunction,Plated,PTH,ComponentDrill
T3C0.800
; #@! TA.AperFunction,Plated,PTH,ComponentDrill
T4C0.900
; #@! TA.AperFunction,Plated,PTH,ComponentDrill
T5C1.000
; #@! TA.AperFunction,Plated,PTH,ComponentDrill
T6C1.900
; #@! TA.AperFunction,Plated,PTH,ComponentDrill
T7C3.000
; #@! TA.AperFunction,Plated,PTH,ComponentDrill
T8C3.200
%
G90
G05
T1
X95.8Y-101.441
X95.8Y-103.641
X95.8Y-105.841
X95.8Y-108.041
X95.8Y-110.441
X112.7Y-74.763
X117.2Y-76.9
X157.9Y-76.6
X159.987Y-72.4
X167.1Y-115.15
X171.5Y-117.162
T2
X104.497Y-134.485
X106.247Y-132.135
X106.647Y-136.385
X107.25Y-56.75
X107.25Y-57.75
X107.25Y-58.75
X107.947Y-130.435
X107.947Y-133.735
X108.25Y-56.75
X108.25Y-57.75
X108.25Y-58.75
X108.5Y-71.75
X108.5Y-75.0
X109.25Y-56.75
X109.25Y-57.75
X109.25Y-58.75
X110.25Y-56.75
X110.25Y-57.75
X110.25Y-58.75
X111.25Y-56.75
X111.25Y-57.75
X111.25Y-58.75
X111.486Y-108.722
X111.5Y-112.75
X112.25Y-56.75
X112.25Y-57.75
X112.25Y-58.75
X112.486Y-108.722
X112.5Y-112.75
X113.0Y-71.0
X113.0Y-71.75
X113.25Y-56.75
X113.25Y-57.75
X113.25Y-58.75
X113.25Y-80.75
X113.486Y-108.722
X113.5Y-112.75
X113.75Y-71.0
X114.25Y-56.75
X114.25Y-57.75
X114.25Y-58.75
X114.486Y-108.722
X114.5Y-112.75
X114.746Y-70.25
X115.0Y-80.75
X115.25Y-56.75
X115.25Y-57.75
X115.25Y-58.75
X115.486Y-108.722
X115.5Y-70.25
X115.5Y-71.0
X115.5Y-112.75
X116.25Y-56.75
X116.25Y-57.75
X116.25Y-58.75
X116.25Y-70.25
X116.25Y-71.0
X116.499Y-108.746
X116.5Y-83.75
X116.5Y-112.75
X117.0Y-70.25
X117.25Y-56.75
X117.25Y-57.75
X117.25Y-58.75
X117.25Y-79.25
X117.5Y-108.75
X117.5Y-112.75
X118.0Y-71.0
X118.25Y-56.75
X118.25Y-57.75
X118.25Y-58.75
X118.5Y-108.722
X118.514Y-112.75
X118.75Y-71.0
X118.75Y-71.75
X119.25Y-56.75
X119.25Y-57.75
X119.25Y-58.75
X120.0Y-66.0
X120.0Y-67.0
X120.0Y-68.0
X120.0Y-69.0
X120.25Y-56.75
X120.25Y-57.75
X120.25Y-58.75
X121.0Y-66.0
X121.0Y-67.0
X121.0Y-68.0
X121.0Y-69.0
X121.25Y-56.75
X121.25Y-57.75
X121.25Y-58.75
X122.0Y-66.0
X122.0Y-67.0
X122.0Y-68.0
X122.0Y-69.0
X122.0Y-74.75
X122.25Y-56.75
X122.25Y-57.75
X122.25Y-58.75
X123.0Y-66.0
X123.0Y-67.0
X123.0Y-68.0
X123.0Y-69.0
X123.0Y-74.75
X123.0Y-75.75
X123.25Y-56.75
X123.25Y-57.75
X123.25Y-58.75
X124.0Y-66.0
X124.0Y-67.0
X124.0Y-68.0
X124.0Y-69.0
X124.0Y-74.75
X124.0Y-75.75
X124.25Y-56.75
X124.25Y-57.75
X124.25Y-58.75
X125.0Y-66.0
X125.0Y-67.0
X125.0Y-68.0
X125.0Y-69.0
X125.0Y-74.75
X125.0Y-75.75
X125.0Y-107.75
X125.0Y-108.75
X125.0Y-112.75
X125.0Y-113.75
X125.25Y-56.75
X125.25Y-57.75
X125.25Y-58.75
X126.0Y-66.0
X126.0Y-67.0
X126.0Y-68.0
X126.0Y-69.0
X126.0Y-74.75
X126.0Y-75.75
X126.0Y-107.75
X126.0Y-108.75
X126.0Y-112.75
X126.0Y-113.75
X126.25Y-56.75
X126.25Y-57.75
X126.25Y-58.75
X127.0Y-66.0
X127.0Y-67.0
X127.0Y-68.0
X127.0Y-69.0
X127.0Y-74.75
X127.0Y-75.75
X127.0Y-107.75
X127.0Y-108.75
X127.0Y-112.75
X127.0Y-113.75
X127.25Y-56.75
X127.25Y-57.75
X127.25Y-58.75
X128.0Y-66.0
X128.0Y-67.0
X128.0Y-68.0
X128.0Y-69.0
X128.0Y-74.75
X128.0Y-75.75
X128.0Y-107.75
X128.0Y-108.75
X128.0Y-112.75
X128.0Y-113.75
X128.25Y-56.75
X128.25Y-57.75
X128.25Y-58.75
X129.0Y-66.0
X129.0Y-67.0
X129.0Y-68.0
X129.0Y-69.0
X129.0Y-74.75
X129.0Y-75.75
X129.25Y-56.75
X129.25Y-57.75
X129.25Y-58.75
X130.0Y-66.0
X130.0Y-67.0
X130.0Y-68.0
X130.0Y-69.0
X130.0Y-74.75
X130.0Y-75.75
X130.25Y-56.75
X130.25Y-57.75
X130.25Y-58.75
X131.0Y-66.0
X131.0Y-67.0
X131.0Y-68.0
X131.0Y-69.0
X131.0Y-74.75
X131.0Y-75.75
X131.25Y-56.75
X131.25Y-57.75
X131.25Y-58.75
X132.0Y-74.75
X132.0Y-75.75
X132.197Y-131.885
X132.25Y-56.75
X132.25Y-57.75
X132.25Y-58.75
X133.25Y-56.75
X133.25Y-57.75
X133.25Y-58.75
X134.25Y-56.75
X134.25Y-57.75
X134.25Y-58.75
X135.25Y-56.75
X135.25Y-57.75
X135.25Y-58.75
X135.6Y-121.2
X136.25Y-56.75
X136.25Y-57.75
X136.25Y-58.75
X137.25Y-56.75
X137.25Y-57.75
X137.25Y-58.75
X137.3Y-130.3
X137.3Y-131.3
X138.25Y-56.75
X138.25Y-57.75
X138.25Y-58.75
X138.3Y-130.3
X138.3Y-131.3
X139.25Y-56.75
X139.25Y-57.75
X139.25Y-58.75
X139.3Y-130.3
X139.3Y-131.3
X140.25Y-56.75
X140.25Y-57.75
X140.25Y-58.75
X140.3Y-130.3
X140.3Y-131.3
X141.25Y-56.75
X141.25Y-57.75
X141.25Y-58.75
X141.3Y-130.3
X141.3Y-131.3
X142.3Y-130.3
X142.3Y-131.3
X143.3Y-130.3
X143.3Y-131.3
X144.3Y-130.3
X144.3Y-131.3
X145.0Y-123.25
X146.0Y-123.25
X146.0Y-124.25
X147.0Y-117.0
X147.0Y-123.25
X147.0Y-124.25
X147.5Y-132.75
X147.5Y-133.75
X148.0Y-116.0
X148.0Y-117.0
X148.0Y-123.25
X148.0Y-124.25
X148.5Y-132.75
X148.5Y-133.75
X149.0Y-99.5
X149.0Y-100.5
X149.0Y-101.5
X149.0Y-102.5
X149.0Y-103.5
X149.0Y-104.5
X149.0Y-105.5
X149.0Y-116.0
X149.0Y-117.0
X149.0Y-123.25
X149.0Y-124.25
X149.5Y-132.75
X149.5Y-133.75
X150.0Y-99.5
X150.0Y-100.5
X150.0Y-101.5
X150.0Y-102.5
X150.0Y-103.5
X150.0Y-104.5
X150.0Y-105.5
X150.0Y-116.0
X150.0Y-117.0
X150.0Y-123.25
X150.0Y-124.25
X150.5Y-132.75
X150.5Y-133.75
X151.0Y-116.0
X151.0Y-117.0
X151.0Y-123.25
X151.0Y-124.25
X151.5Y-132.75
X151.5Y-133.75
X151.75Y-76.25
X152.0Y-116.0
X152.0Y-117.0
X152.0Y-123.25
X152.0Y-124.25
X152.5Y-132.75
X152.5Y-133.75
X153.0Y-116.0
X153.0Y-117.0
X153.0Y-123.25
X153.0Y-124.25
X153.5Y-132.75
X153.5Y-133.75
X154.0Y-72.75
X154.0Y-74.25
X154.0Y-116.0
X154.0Y-117.0
X154.0Y-123.25
X154.0Y-124.25
X154.5Y-132.75
X154.5Y-133.75
X155.0Y-116.0
X155.0Y-117.0
X155.0Y-123.25
X155.0Y-124.25
X155.5Y-77.0
X155.5Y-132.75
X155.5Y-133.75
X156.0Y-116.0
X156.0Y-117.0
X156.0Y-123.25
X156.0Y-124.25
X156.5Y-132.75
X156.5Y-133.75
X157.0Y-116.0
X157.0Y-117.0
X157.0Y-123.25
X157.0Y-124.25
X157.5Y-132.75
X157.5Y-133.75
X158.0Y-116.0
X158.0Y-117.0
X158.0Y-123.25
X158.0Y-124.25
X158.5Y-132.75
X158.5Y-133.75
X159.0Y-82.0
X159.0Y-83.0
X159.0Y-84.0
X159.0Y-85.0
X159.0Y-86.0
X159.0Y-87.0
X159.0Y-88.0
X159.0Y-89.0
X159.0Y-90.0
X159.0Y-91.0
X159.0Y-92.0
X159.0Y-93.0
X159.0Y-94.0
X159.0Y-116.0
X159.0Y-117.0
X159.0Y-123.25
X159.0Y-124.25
X159.5Y-132.75
X159.5Y-133.75
X160.0Y-68.0
X160.0Y-81.0
X160.0Y-82.0
X160.0Y-83.0
X160.0Y-84.0
X160.0Y-85.0
X160.0Y-86.0
X160.0Y-87.0
X160.0Y-88.0
X160.0Y-89.0
X160.0Y-90.0
X160.0Y-91.0
X160.0Y-92.0
X160.0Y-93.0
X160.0Y-94.0
X160.0Y-116.0
X160.0Y-117.0
X160.0Y-123.25
X160.0Y-124.25
X160.5Y-132.75
X160.5Y-133.75
X161.0Y-116.0
X161.0Y-117.0
X161.0Y-123.25
X161.0Y-124.25
X161.5Y-132.75
X161.5Y-133.75
X162.0Y-117.0
X162.0Y-123.25
X162.0Y-124.25
X162.5Y-132.75
X162.5Y-133.75
X163.0Y-68.0
X163.0Y-72.5
X163.0Y-78.25
X163.0Y-123.25
X163.0Y-124.25
X163.5Y-132.75
X163.5Y-133.75
X163.75Y-72.5
X163.75Y-73.25
X163.75Y-75.0
X163.75Y-75.75
X163.75Y-77.5
X163.75Y-78.25
X164.0Y-123.25
X164.0Y-124.25
X164.5Y-74.25
X164.5Y-75.0
X164.5Y-75.75
X164.5Y-76.5
X164.5Y-132.75
X164.5Y-133.75
X165.5Y-120.25
X165.5Y-121.0
X165.5Y-132.75
X165.5Y-133.75
X166.0Y-79.5
X166.0Y-80.5
X166.0Y-81.5
X166.0Y-82.5
X166.0Y-83.5
X166.0Y-84.5
X166.0Y-85.5
X166.0Y-86.5
X166.0Y-87.5
X166.0Y-88.5
X166.0Y-89.5
X166.0Y-90.5
X166.25Y-112.75
X166.25Y-121.0
X166.5Y-132.75
X166.5Y-133.75
X167.0Y-79.5
X167.0Y-80.5
X167.0Y-81.5
X167.0Y-82.5
X167.0Y-83.5
X167.0Y-84.5
X167.0Y-85.5
X167.0Y-86.5
X167.0Y-87.5
X167.0Y-88.5
X167.0Y-89.5
X167.0Y-90.5
X167.25Y-121.75
X167.5Y-109.5
X167.5Y-132.75
X167.5Y-133.75
X168.0Y-79.5
X168.0Y-80.5
X168.0Y-81.5
X168.0Y-82.5
X168.0Y-83.5
X168.0Y-84.5
X168.0Y-85.5
X168.0Y-86.5
X168.0Y-87.5
X168.0Y-88.5
X168.0Y-89.5
X168.0Y-90.5
X168.0Y-121.0
X168.0Y-121.75
X168.5Y-132.75
X168.5Y-133.75
X168.75Y-121.0
X168.75Y-121.75
X169.0Y-79.5
X169.0Y-80.5
X169.0Y-81.5
X169.0Y-82.5
X169.0Y-83.5
X169.0Y-84.5
X169.0Y-85.5
X169.0Y-86.5
X169.0Y-87.5
X169.0Y-88.5
X169.0Y-89.5
X169.0Y-90.5
X169.25Y-111.25
X169.5Y-121.75
X169.5Y-132.75
X169.5Y-133.75
X170.5Y-121.0
X170.532Y-132.788
X170.532Y-133.788
X171.0Y-111.25
X171.25Y-120.25
X171.25Y-121.0
X171.532Y-132.788
X171.532Y-133.788
X172.532Y-132.788
X172.532Y-133.788
X173.532Y-132.788
X173.532Y-133.788
X174.532Y-132.788
X174.532Y-133.788
X175.5Y-67.0
X175.5Y-68.0
X175.5Y-69.0
X175.5Y-70.0
X175.5Y-71.0
X175.5Y-72.0
X175.5Y-73.0
X175.5Y-74.0
X175.5Y-75.0
X175.5Y-76.0
X175.5Y-77.0
X175.5Y-78.0
X175.5Y-79.0
X175.5Y-80.0
X175.5Y-81.0
X175.5Y-82.0
X175.5Y-83.0
X175.5Y-84.0
X175.5Y-85.0
X175.5Y-86.0
X175.5Y-87.0
X175.5Y-88.0
X175.5Y-89.0
X175.5Y-90.0
X175.5Y-91.0
X175.5Y-92.0
X175.5Y-93.0
X175.5Y-94.0
X175.5Y-95.0
X175.5Y-96.0
X175.5Y-97.0
X175.5Y-98.0
X175.5Y-99.0
X175.5Y-100.0
X175.5Y-101.0
X175.5Y-102.0
X175.5Y-103.0
X175.5Y-104.0
X175.5Y-105.0
X175.532Y-132.788
X175.532Y-133.788
X175.75Y-117.25
X175.75Y-120.5
X176.5Y-67.0
X176.5Y-68.0
X176.5Y-69.0
X176.5Y-70.0
X176.5Y-71.0
X176.5Y-72.0
X176.5Y-73.0
X176.5Y-74.0
X176.5Y-75.0
X176.5Y-76.0
X176.5Y-77.0
X176.5Y-78.0
X176.5Y-79.0
X176.5Y-80.0
X176.5Y-81.0
X176.5Y-82.0
X176.5Y-83.0
X176.5Y-84.0
X176.5Y-85.0
X176.5Y-86.0
X176.5Y-87.0
X176.5Y-88.0
X176.5Y-89.0
X176.5Y-90.0
X176.5Y-91.0
X176.5Y-92.0
X176.5Y-93.0
X176.5Y-94.0
X176.5Y-95.0
X176.5Y-96.0
X176.5Y-97.0
X176.5Y-98.0
X176.5Y-99.0
X176.5Y-100.0
X176.5Y-101.0
X176.5Y-102.0
X176.5Y-103.0
X176.5Y-104.0
X176.5Y-105.0
X176.532Y-132.788
X176.532Y-133.788
X177.5Y-67.0
X177.5Y-68.0
X177.5Y-69.0
X177.5Y-70.0
X177.5Y-71.0
X177.5Y-72.0
X177.5Y-73.0
X177.5Y-74.0
X177.5Y-75.0
X177.5Y-76.0
X177.5Y-77.0
X177.5Y-78.0
X177.5Y-79.0
X177.5Y-80.0
X177.5Y-81.0
X177.5Y-82.0
X177.5Y-83.0
X177.5Y-84.0
X177.5Y-85.0
X177.5Y-86.0
X177.5Y-87.0
X177.5Y-88.0
X177.5Y-89.0
X177.5Y-90.0
X177.5Y-91.0
X177.5Y-92.0
X177.5Y-93.0
X177.5Y-94.0
X177.5Y-95.0
X177.5Y-96.0
X177.5Y-97.0
X177.5Y-98.0
X177.5Y-99.0
X177.5Y-100.0
X177.5Y-101.0
X177.5Y-102.0
X177.5Y-103.0
X177.5Y-104.0
X177.5Y-105.0
T3
X110.527Y-125.325
X110.527Y-135.485
X113.067Y-125.325
X113.067Y-135.485
X116.317Y-125.318
X116.317Y-135.478
X118.857Y-125.318
X118.857Y-135.478
X122.107Y-125.325
X122.107Y-135.485
X124.647Y-125.325
X124.647Y-135.485
T4
X88.086Y-93.609
X88.086Y-96.349
X88.086Y-99.089
X88.086Y-101.829
X88.086Y-104.569
X88.086Y-107.309
X88.086Y-110.049
X90.926Y-92.239
X90.926Y-94.979
X90.926Y-97.719
X90.926Y-100.459
X90.926Y-103.199
X90.926Y-105.939
X90.926Y-108.679
X90.926Y-111.419
X104.155Y-139.047
X105.525Y-141.887
X106.895Y-139.047
X108.265Y-141.887
X109.635Y-139.047
X111.005Y-141.887
X112.375Y-139.047
X113.745Y-141.887
X115.115Y-139.047
X116.485Y-141.887
X117.855Y-139.047
X119.225Y-141.887
X120.595Y-139.047
X121.965Y-141.887
X123.335Y-139.047
T5
X131.9Y-60.0
X136.0Y-140.0
X142.9Y-60.0
X147.0Y-140.0
X170.2Y-96.0
X170.2Y-107.0
T6
X134.9Y-65.0
X139.0Y-135.0
X139.9Y-65.0
X144.0Y-135.0
X165.2Y-99.0
X165.2Y-104.0
T7
X162.5Y-60.0
T8
X89.506Y-85.169
X89.506Y-118.489
X97.085Y-140.467
X130.405Y-140.467
M30
