%TF.GenerationSoftware,KiCad,Pcbnew,10.0.1*%
%TF.CreationDate,2026-07-06T16:39:15+02:00*%
%TF.ProjectId,BME280_External,424d4532-3830-45f4-9578-7465726e616c,rev?*%
%TF.SameCoordinates,Original*%
%TF.FileFunction,Legend,Top*%
%TF.FilePolarity,Positive*%
%FSLAX46Y46*%
G04 Gerber Fmt 4.6, Leading zero omitted, Abs format (unit mm)*
G04 Created by KiCad (PCBNEW 10.0.1) date 2026-07-06 16:39:15*
%MOMM*%
%LPD*%
G01*
G04 APERTURE LIST*
G04 Aperture macros list*
%AMRoundRect*
0 Rectangle with rounded corners*
0 $1 Rounding radius*
0 $2 $3 $4 $5 $6 $7 $8 $9 X,Y pos of 4 corners*
0 Add a 4 corners polygon primitive as box body*
4,1,4,$2,$3,$4,$5,$6,$7,$8,$9,$2,$3,0*
0 Add four circle primitives for the rounded corners*
1,1,$1+$1,$2,$3*
1,1,$1+$1,$4,$5*
1,1,$1+$1,$6,$7*
1,1,$1+$1,$8,$9*
0 Add four rect primitives between the rounded corners*
20,1,$1+$1,$2,$3,$4,$5,0*
20,1,$1+$1,$4,$5,$6,$7,0*
20,1,$1+$1,$6,$7,$8,$9,0*
20,1,$1+$1,$8,$9,$2,$3,0*%
G04 Aperture macros list end*
%ADD10C,0.120000*%
%ADD11C,0.100000*%
%ADD12RoundRect,0.250000X-0.350000X-0.650000X0.350000X-0.650000X0.350000X0.650000X-0.350000X0.650000X0*%
%ADD13O,1.200000X1.800000*%
%ADD14RoundRect,0.140000X-0.140000X-0.170000X0.140000X-0.170000X0.140000X0.170000X-0.140000X0.170000X0*%
%ADD15R,0.350000X0.500000*%
G04 APERTURE END LIST*
%TO.C,J1*%
D10*
X136220000Y-77850000D02*
X136220000Y-80150000D01*
X136520000Y-80560000D02*
X136920000Y-80560000D01*
X136920000Y-78550000D02*
X136920000Y-79760000D01*
X136920000Y-79760000D02*
X137320000Y-79760000D01*
X136920000Y-80160000D02*
X136920000Y-82020000D01*
X137320000Y-79760000D02*
X137320000Y-80160000D01*
X137320000Y-80160000D02*
X136920000Y-80160000D01*
X138520000Y-77850000D02*
X136220000Y-77850000D01*
X143630000Y-78550000D02*
X136920000Y-78550000D01*
X143630000Y-78550000D02*
X150340000Y-78550000D01*
X149940000Y-79760000D02*
X149940000Y-80160000D01*
X149940000Y-80160000D02*
X150340000Y-80160000D01*
X150340000Y-78550000D02*
X150340000Y-79760000D01*
X150340000Y-79760000D02*
X149940000Y-79760000D01*
X150340000Y-80160000D02*
X150340000Y-82020000D01*
X150740000Y-80560000D02*
X150340000Y-80560000D01*
X136520000Y-78150000D02*
X150740000Y-78150000D01*
X150740000Y-82020000D01*
X136520000Y-82020000D01*
X136520000Y-78150000D01*
%TO.C,C2*%
X139792164Y-91260000D02*
X140007836Y-91260000D01*
X139792164Y-91980000D02*
X140007836Y-91980000D01*
%TO.C,C1*%
X146562164Y-91260000D02*
X146777836Y-91260000D01*
X146562164Y-91980000D02*
X146777836Y-91980000D01*
%TO.C,U1*%
D11*
X142085000Y-89265000D02*
X142085000Y-89115000D01*
X142085000Y-89275000D02*
X142235000Y-89275000D01*
X144635000Y-86565000D02*
X144785000Y-86565000D01*
X144785000Y-86565000D02*
X144785000Y-86715000D01*
X144785000Y-89265000D02*
X144635000Y-89265000D01*
X144785000Y-89265000D02*
X144785000Y-89115000D01*
D10*
X142085000Y-86565000D02*
X141725000Y-86565000D01*
X142085000Y-86205000D01*
X142085000Y-86565000D01*
G36*
X142085000Y-86565000D02*
G01*
X141725000Y-86565000D01*
X142085000Y-86205000D01*
X142085000Y-86565000D01*
G37*
%TD*%
%LPC*%
D12*
%TO.C,J1*%
X138630000Y-79760000D03*
D13*
X140630000Y-79760000D03*
X142630000Y-79760000D03*
X144630000Y-79760000D03*
X146630000Y-79760000D03*
X148630000Y-79760000D03*
%TD*%
D14*
%TO.C,C2*%
X139420000Y-91620000D03*
X140380000Y-91620000D03*
%TD*%
%TO.C,C1*%
X146190000Y-91620000D03*
X147150000Y-91620000D03*
%TD*%
D15*
%TO.C,U1*%
X142460000Y-86890000D03*
X143110000Y-86890000D03*
X143760000Y-86890000D03*
X144410000Y-86890000D03*
X144410000Y-88940000D03*
X143760000Y-88940000D03*
X143110000Y-88940000D03*
X142460000Y-88940000D03*
%TD*%
%LPD*%
M02*
