%TF.GenerationSoftware,KiCad,Pcbnew,10.0.1*%
%TF.CreationDate,2026-07-06T16:39:15+02:00*%
%TF.ProjectId,BME280_External,424d4532-3830-45f4-9578-7465726e616c,rev?*%
%TF.SameCoordinates,Original*%
%TF.FileFunction,Legend,Bot*%
%TF.FilePolarity,Positive*%
%FSLAX46Y46*%
G04 Gerber Fmt 4.6, Leading zero omitted, Abs format (unit mm)*
G04 Created by KiCad (PCBNEW 10.0.1) date 2026-07-06 16:39:15*
%MOMM*%
%LPD*%
G01*
G04 APERTURE LIST*
G04 Aperture macros list*
%AMRoundRect*
0 Rectangle with rounded corners*
0 $1 Rounding radius*
0 $2 $3 $4 $5 $6 $7 $8 $9 X,Y pos of 4 corners*
0 Add a 4 corners polygon primitive as box body*
4,1,4,$2,$3,$4,$5,$6,$7,$8,$9,$2,$3,0*
0 Add four circle primitives for the rounded corners*
1,1,$1+$1,$2,$3*
1,1,$1+$1,$4,$5*
1,1,$1+$1,$6,$7*
1,1,$1+$1,$8,$9*
0 Add four rect primitives between the rounded corners*
20,1,$1+$1,$2,$3,$4,$5,0*
20,1,$1+$1,$4,$5,$6,$7,0*
20,1,$1+$1,$6,$7,$8,$9,0*
20,1,$1+$1,$8,$9,$2,$3,0*%
G04 Aperture macros list end*
%ADD10C,0.100000*%
%ADD11RoundRect,0.250000X-0.350000X-0.650000X0.350000X-0.650000X0.350000X0.650000X-0.350000X0.650000X0*%
%ADD12O,1.200000X1.800000*%
G04 APERTURE END LIST*
D10*
X140949961Y-84002306D02*
X140997580Y-84097544D01*
X140997580Y-84097544D02*
X140997580Y-84240401D01*
X140997580Y-84240401D02*
X140949961Y-84383258D01*
X140949961Y-84383258D02*
X140854723Y-84478496D01*
X140854723Y-84478496D02*
X140759485Y-84526115D01*
X140759485Y-84526115D02*
X140569009Y-84573734D01*
X140569009Y-84573734D02*
X140426152Y-84573734D01*
X140426152Y-84573734D02*
X140235676Y-84526115D01*
X140235676Y-84526115D02*
X140140438Y-84478496D01*
X140140438Y-84478496D02*
X140045200Y-84383258D01*
X140045200Y-84383258D02*
X139997580Y-84240401D01*
X139997580Y-84240401D02*
X139997580Y-84145163D01*
X139997580Y-84145163D02*
X140045200Y-84002306D01*
X140045200Y-84002306D02*
X140092819Y-83954687D01*
X140092819Y-83954687D02*
X140426152Y-83954687D01*
X140426152Y-83954687D02*
X140426152Y-84145163D01*
X139997580Y-83526115D02*
X140997580Y-83526115D01*
X140997580Y-83526115D02*
X139997580Y-82954687D01*
X139997580Y-82954687D02*
X140997580Y-82954687D01*
X139997580Y-82478496D02*
X140997580Y-82478496D01*
X140997580Y-82478496D02*
X140997580Y-82240401D01*
X140997580Y-82240401D02*
X140949961Y-82097544D01*
X140949961Y-82097544D02*
X140854723Y-82002306D01*
X140854723Y-82002306D02*
X140759485Y-81954687D01*
X140759485Y-81954687D02*
X140569009Y-81907068D01*
X140569009Y-81907068D02*
X140426152Y-81907068D01*
X140426152Y-81907068D02*
X140235676Y-81954687D01*
X140235676Y-81954687D02*
X140140438Y-82002306D01*
X140140438Y-82002306D02*
X140045200Y-82097544D01*
X140045200Y-82097544D02*
X139997580Y-82240401D01*
X139997580Y-82240401D02*
X139997580Y-82478496D01*
X141985200Y-84483734D02*
X141937580Y-84340877D01*
X141937580Y-84340877D02*
X141937580Y-84102782D01*
X141937580Y-84102782D02*
X141985200Y-84007544D01*
X141985200Y-84007544D02*
X142032819Y-83959925D01*
X142032819Y-83959925D02*
X142128057Y-83912306D01*
X142128057Y-83912306D02*
X142223295Y-83912306D01*
X142223295Y-83912306D02*
X142318533Y-83959925D01*
X142318533Y-83959925D02*
X142366152Y-84007544D01*
X142366152Y-84007544D02*
X142413771Y-84102782D01*
X142413771Y-84102782D02*
X142461390Y-84293258D01*
X142461390Y-84293258D02*
X142509009Y-84388496D01*
X142509009Y-84388496D02*
X142556628Y-84436115D01*
X142556628Y-84436115D02*
X142651866Y-84483734D01*
X142651866Y-84483734D02*
X142747104Y-84483734D01*
X142747104Y-84483734D02*
X142842342Y-84436115D01*
X142842342Y-84436115D02*
X142889961Y-84388496D01*
X142889961Y-84388496D02*
X142937580Y-84293258D01*
X142937580Y-84293258D02*
X142937580Y-84055163D01*
X142937580Y-84055163D02*
X142889961Y-83912306D01*
X142032819Y-82912306D02*
X141985200Y-82959925D01*
X141985200Y-82959925D02*
X141937580Y-83102782D01*
X141937580Y-83102782D02*
X141937580Y-83198020D01*
X141937580Y-83198020D02*
X141985200Y-83340877D01*
X141985200Y-83340877D02*
X142080438Y-83436115D01*
X142080438Y-83436115D02*
X142175676Y-83483734D01*
X142175676Y-83483734D02*
X142366152Y-83531353D01*
X142366152Y-83531353D02*
X142509009Y-83531353D01*
X142509009Y-83531353D02*
X142699485Y-83483734D01*
X142699485Y-83483734D02*
X142794723Y-83436115D01*
X142794723Y-83436115D02*
X142889961Y-83340877D01*
X142889961Y-83340877D02*
X142937580Y-83198020D01*
X142937580Y-83198020D02*
X142937580Y-83102782D01*
X142937580Y-83102782D02*
X142889961Y-82959925D01*
X142889961Y-82959925D02*
X142842342Y-82912306D01*
X141937580Y-82483734D02*
X142937580Y-82483734D01*
X141937580Y-81912306D02*
X142509009Y-82340877D01*
X142937580Y-81912306D02*
X142366152Y-82483734D01*
X144107580Y-85056115D02*
X145107580Y-85056115D01*
X145107580Y-85056115D02*
X144393295Y-84722782D01*
X144393295Y-84722782D02*
X145107580Y-84389449D01*
X145107580Y-84389449D02*
X144107580Y-84389449D01*
X145107580Y-83722782D02*
X145107580Y-83532306D01*
X145107580Y-83532306D02*
X145059961Y-83437068D01*
X145059961Y-83437068D02*
X144964723Y-83341830D01*
X144964723Y-83341830D02*
X144774247Y-83294211D01*
X144774247Y-83294211D02*
X144440914Y-83294211D01*
X144440914Y-83294211D02*
X144250438Y-83341830D01*
X144250438Y-83341830D02*
X144155200Y-83437068D01*
X144155200Y-83437068D02*
X144107580Y-83532306D01*
X144107580Y-83532306D02*
X144107580Y-83722782D01*
X144107580Y-83722782D02*
X144155200Y-83818020D01*
X144155200Y-83818020D02*
X144250438Y-83913258D01*
X144250438Y-83913258D02*
X144440914Y-83960877D01*
X144440914Y-83960877D02*
X144774247Y-83960877D01*
X144774247Y-83960877D02*
X144964723Y-83913258D01*
X144964723Y-83913258D02*
X145059961Y-83818020D01*
X145059961Y-83818020D02*
X145107580Y-83722782D01*
X144155200Y-82913258D02*
X144107580Y-82770401D01*
X144107580Y-82770401D02*
X144107580Y-82532306D01*
X144107580Y-82532306D02*
X144155200Y-82437068D01*
X144155200Y-82437068D02*
X144202819Y-82389449D01*
X144202819Y-82389449D02*
X144298057Y-82341830D01*
X144298057Y-82341830D02*
X144393295Y-82341830D01*
X144393295Y-82341830D02*
X144488533Y-82389449D01*
X144488533Y-82389449D02*
X144536152Y-82437068D01*
X144536152Y-82437068D02*
X144583771Y-82532306D01*
X144583771Y-82532306D02*
X144631390Y-82722782D01*
X144631390Y-82722782D02*
X144679009Y-82818020D01*
X144679009Y-82818020D02*
X144726628Y-82865639D01*
X144726628Y-82865639D02*
X144821866Y-82913258D01*
X144821866Y-82913258D02*
X144917104Y-82913258D01*
X144917104Y-82913258D02*
X145012342Y-82865639D01*
X145012342Y-82865639D02*
X145059961Y-82818020D01*
X145059961Y-82818020D02*
X145107580Y-82722782D01*
X145107580Y-82722782D02*
X145107580Y-82484687D01*
X145107580Y-82484687D02*
X145059961Y-82341830D01*
X144107580Y-81913258D02*
X145107580Y-81913258D01*
X146007580Y-85216115D02*
X147007580Y-85216115D01*
X147007580Y-85216115D02*
X146293295Y-84882782D01*
X146293295Y-84882782D02*
X147007580Y-84549449D01*
X147007580Y-84549449D02*
X146007580Y-84549449D01*
X146007580Y-84073258D02*
X147007580Y-84073258D01*
X146055200Y-83644687D02*
X146007580Y-83501830D01*
X146007580Y-83501830D02*
X146007580Y-83263735D01*
X146007580Y-83263735D02*
X146055200Y-83168497D01*
X146055200Y-83168497D02*
X146102819Y-83120878D01*
X146102819Y-83120878D02*
X146198057Y-83073259D01*
X146198057Y-83073259D02*
X146293295Y-83073259D01*
X146293295Y-83073259D02*
X146388533Y-83120878D01*
X146388533Y-83120878D02*
X146436152Y-83168497D01*
X146436152Y-83168497D02*
X146483771Y-83263735D01*
X146483771Y-83263735D02*
X146531390Y-83454211D01*
X146531390Y-83454211D02*
X146579009Y-83549449D01*
X146579009Y-83549449D02*
X146626628Y-83597068D01*
X146626628Y-83597068D02*
X146721866Y-83644687D01*
X146721866Y-83644687D02*
X146817104Y-83644687D01*
X146817104Y-83644687D02*
X146912342Y-83597068D01*
X146912342Y-83597068D02*
X146959961Y-83549449D01*
X146959961Y-83549449D02*
X147007580Y-83454211D01*
X147007580Y-83454211D02*
X147007580Y-83216116D01*
X147007580Y-83216116D02*
X146959961Y-83073259D01*
X147007580Y-82454211D02*
X147007580Y-82263735D01*
X147007580Y-82263735D02*
X146959961Y-82168497D01*
X146959961Y-82168497D02*
X146864723Y-82073259D01*
X146864723Y-82073259D02*
X146674247Y-82025640D01*
X146674247Y-82025640D02*
X146340914Y-82025640D01*
X146340914Y-82025640D02*
X146150438Y-82073259D01*
X146150438Y-82073259D02*
X146055200Y-82168497D01*
X146055200Y-82168497D02*
X146007580Y-82263735D01*
X146007580Y-82263735D02*
X146007580Y-82454211D01*
X146007580Y-82454211D02*
X146055200Y-82549449D01*
X146055200Y-82549449D02*
X146150438Y-82644687D01*
X146150438Y-82644687D02*
X146340914Y-82692306D01*
X146340914Y-82692306D02*
X146674247Y-82692306D01*
X146674247Y-82692306D02*
X146864723Y-82644687D01*
X146864723Y-82644687D02*
X146959961Y-82549449D01*
X146959961Y-82549449D02*
X147007580Y-82454211D01*
X148082819Y-90134687D02*
X148035200Y-90182306D01*
X148035200Y-90182306D02*
X147987580Y-90325163D01*
X147987580Y-90325163D02*
X147987580Y-90420401D01*
X147987580Y-90420401D02*
X148035200Y-90563258D01*
X148035200Y-90563258D02*
X148130438Y-90658496D01*
X148130438Y-90658496D02*
X148225676Y-90706115D01*
X148225676Y-90706115D02*
X148416152Y-90753734D01*
X148416152Y-90753734D02*
X148559009Y-90753734D01*
X148559009Y-90753734D02*
X148749485Y-90706115D01*
X148749485Y-90706115D02*
X148844723Y-90658496D01*
X148844723Y-90658496D02*
X148939961Y-90563258D01*
X148939961Y-90563258D02*
X148987580Y-90420401D01*
X148987580Y-90420401D02*
X148987580Y-90325163D01*
X148987580Y-90325163D02*
X148939961Y-90182306D01*
X148939961Y-90182306D02*
X148892342Y-90134687D01*
X148035200Y-89753734D02*
X147987580Y-89610877D01*
X147987580Y-89610877D02*
X147987580Y-89372782D01*
X147987580Y-89372782D02*
X148035200Y-89277544D01*
X148035200Y-89277544D02*
X148082819Y-89229925D01*
X148082819Y-89229925D02*
X148178057Y-89182306D01*
X148178057Y-89182306D02*
X148273295Y-89182306D01*
X148273295Y-89182306D02*
X148368533Y-89229925D01*
X148368533Y-89229925D02*
X148416152Y-89277544D01*
X148416152Y-89277544D02*
X148463771Y-89372782D01*
X148463771Y-89372782D02*
X148511390Y-89563258D01*
X148511390Y-89563258D02*
X148559009Y-89658496D01*
X148559009Y-89658496D02*
X148606628Y-89706115D01*
X148606628Y-89706115D02*
X148701866Y-89753734D01*
X148701866Y-89753734D02*
X148797104Y-89753734D01*
X148797104Y-89753734D02*
X148892342Y-89706115D01*
X148892342Y-89706115D02*
X148939961Y-89658496D01*
X148939961Y-89658496D02*
X148987580Y-89563258D01*
X148987580Y-89563258D02*
X148987580Y-89325163D01*
X148987580Y-89325163D02*
X148939961Y-89182306D01*
X147892342Y-88991830D02*
X147892342Y-88229925D01*
X148511390Y-87991829D02*
X148511390Y-87658496D01*
X147987580Y-87515639D02*
X147987580Y-87991829D01*
X147987580Y-87991829D02*
X148987580Y-87991829D01*
X148987580Y-87991829D02*
X148987580Y-87515639D01*
X148987580Y-87182305D02*
X147987580Y-86515639D01*
X148987580Y-86515639D02*
X147987580Y-87182305D01*
X148987580Y-86277543D02*
X148987580Y-85706115D01*
X147987580Y-85991829D02*
X148987580Y-85991829D01*
X147892342Y-85610877D02*
X147892342Y-84848972D01*
X148511390Y-84277543D02*
X148463771Y-84134686D01*
X148463771Y-84134686D02*
X148416152Y-84087067D01*
X148416152Y-84087067D02*
X148320914Y-84039448D01*
X148320914Y-84039448D02*
X148178057Y-84039448D01*
X148178057Y-84039448D02*
X148082819Y-84087067D01*
X148082819Y-84087067D02*
X148035200Y-84134686D01*
X148035200Y-84134686D02*
X147987580Y-84229924D01*
X147987580Y-84229924D02*
X147987580Y-84610876D01*
X147987580Y-84610876D02*
X148987580Y-84610876D01*
X148987580Y-84610876D02*
X148987580Y-84277543D01*
X148987580Y-84277543D02*
X148939961Y-84182305D01*
X148939961Y-84182305D02*
X148892342Y-84134686D01*
X148892342Y-84134686D02*
X148797104Y-84087067D01*
X148797104Y-84087067D02*
X148701866Y-84087067D01*
X148701866Y-84087067D02*
X148606628Y-84134686D01*
X148606628Y-84134686D02*
X148559009Y-84182305D01*
X148559009Y-84182305D02*
X148511390Y-84277543D01*
X148511390Y-84277543D02*
X148511390Y-84610876D01*
X147987580Y-83610876D02*
X148987580Y-83610876D01*
X148987580Y-83610876D02*
X148273295Y-83277543D01*
X148273295Y-83277543D02*
X148987580Y-82944210D01*
X148987580Y-82944210D02*
X147987580Y-82944210D01*
X148511390Y-82468019D02*
X148511390Y-82134686D01*
X147987580Y-81991829D02*
X147987580Y-82468019D01*
X147987580Y-82468019D02*
X148987580Y-82468019D01*
X148987580Y-82468019D02*
X148987580Y-81991829D01*
X138358533Y-85617693D02*
X138358533Y-84855789D01*
X137977580Y-85236741D02*
X138739485Y-85236741D01*
X138977580Y-84474836D02*
X138977580Y-83855789D01*
X138977580Y-83855789D02*
X138596628Y-84189122D01*
X138596628Y-84189122D02*
X138596628Y-84046265D01*
X138596628Y-84046265D02*
X138549009Y-83951027D01*
X138549009Y-83951027D02*
X138501390Y-83903408D01*
X138501390Y-83903408D02*
X138406152Y-83855789D01*
X138406152Y-83855789D02*
X138168057Y-83855789D01*
X138168057Y-83855789D02*
X138072819Y-83903408D01*
X138072819Y-83903408D02*
X138025200Y-83951027D01*
X138025200Y-83951027D02*
X137977580Y-84046265D01*
X137977580Y-84046265D02*
X137977580Y-84331979D01*
X137977580Y-84331979D02*
X138025200Y-84427217D01*
X138025200Y-84427217D02*
X138072819Y-84474836D01*
X138977580Y-83570074D02*
X137977580Y-83236741D01*
X137977580Y-83236741D02*
X138977580Y-82903408D01*
X138977580Y-82665312D02*
X138977580Y-82046265D01*
X138977580Y-82046265D02*
X138596628Y-82379598D01*
X138596628Y-82379598D02*
X138596628Y-82236741D01*
X138596628Y-82236741D02*
X138549009Y-82141503D01*
X138549009Y-82141503D02*
X138501390Y-82093884D01*
X138501390Y-82093884D02*
X138406152Y-82046265D01*
X138406152Y-82046265D02*
X138168057Y-82046265D01*
X138168057Y-82046265D02*
X138072819Y-82093884D01*
X138072819Y-82093884D02*
X138025200Y-82141503D01*
X138025200Y-82141503D02*
X137977580Y-82236741D01*
X137977580Y-82236741D02*
X137977580Y-82522455D01*
X137977580Y-82522455D02*
X138025200Y-82617693D01*
X138025200Y-82617693D02*
X138072819Y-82665312D01*
%LPC*%
D11*
%TO.C,J1*%
X138630000Y-79760000D03*
D12*
X140630000Y-79760000D03*
X142630000Y-79760000D03*
X144630000Y-79760000D03*
X146630000Y-79760000D03*
X148630000Y-79760000D03*
%TD*%
%LPD*%
M02*
