%TF.GenerationSoftware,KiCad,Pcbnew,10.0.1*%
%TF.CreationDate,2026-07-06T16:39:15+02:00*%
%TF.ProjectId,BME280_External,424d4532-3830-45f4-9578-7465726e616c,rev?*%
%TF.SameCoordinates,Original*%
%TF.FileFunction,Copper,L1,Top*%
%TF.FilePolarity,Positive*%
%FSLAX46Y46*%
G04 Gerber Fmt 4.6, Leading zero omitted, Abs format (unit mm)*
G04 Created by KiCad (PCBNEW 10.0.1) date 2026-07-06 16:39:15*
%MOMM*%
%LPD*%
G01*
G04 APERTURE LIST*
G04 Aperture macros list*
%AMRoundRect*
0 Rectangle with rounded corners*
0 $1 Rounding radius*
0 $2 $3 $4 $5 $6 $7 $8 $9 X,Y pos of 4 corners*
0 Add a 4 corners polygon primitive as box body*
4,1,4,$2,$3,$4,$5,$6,$7,$8,$9,$2,$3,0*
0 Add four circle primitives for the rounded corners*
1,1,$1+$1,$2,$3*
1,1,$1+$1,$4,$5*
1,1,$1+$1,$6,$7*
1,1,$1+$1,$8,$9*
0 Add four rect primitives between the rounded corners*
20,1,$1+$1,$2,$3,$4,$5,0*
20,1,$1+$1,$4,$5,$6,$7,0*
20,1,$1+$1,$6,$7,$8,$9,0*
20,1,$1+$1,$8,$9,$2,$3,0*%
G04 Aperture macros list end*
%TA.AperFunction,ComponentPad*%
%ADD10RoundRect,0.250000X-0.350000X-0.650000X0.350000X-0.650000X0.350000X0.650000X-0.350000X0.650000X0*%
%TD*%
%TA.AperFunction,ComponentPad*%
%ADD11O,1.200000X1.800000*%
%TD*%
%TA.AperFunction,SMDPad,CuDef*%
%ADD12RoundRect,0.140000X-0.140000X-0.170000X0.140000X-0.170000X0.140000X0.170000X-0.140000X0.170000X0*%
%TD*%
%TA.AperFunction,SMDPad,CuDef*%
%ADD13R,0.350000X0.500000*%
%TD*%
%TA.AperFunction,ViaPad*%
%ADD14C,0.600000*%
%TD*%
%TA.AperFunction,Conductor*%
%ADD15C,0.200000*%
%TD*%
G04 APERTURE END LIST*
D10*
%TO.P,J1,1,Pin_1_1*%
%TO.N,+3V3*%
X138630000Y-79760000D03*
D11*
%TO.P,J1,2,Pin_2_2*%
%TO.N,GND*%
X140630000Y-79760000D03*
%TO.P,J1,3,Pin_3_3*%
%TO.N,SPI_SCK*%
X142630000Y-79760000D03*
%TO.P,J1,4,Pin_4_4*%
%TO.N,SPI_MOSI*%
X144630000Y-79760000D03*
%TO.P,J1,5,Pin_5_5*%
%TO.N,SPI_MISO*%
X146630000Y-79760000D03*
%TO.P,J1,6,Pin_6_6*%
%TO.N,CS_EXTERNAL_BME280*%
X148630000Y-79760000D03*
%TD*%
D12*
%TO.P,C2,1*%
%TO.N,+3V3*%
X139420000Y-91620000D03*
%TO.P,C2,2*%
%TO.N,GND*%
X140380000Y-91620000D03*
%TD*%
%TO.P,C1,1*%
%TO.N,+3V3*%
X146190000Y-91620000D03*
%TO.P,C1,2*%
%TO.N,GND*%
X147150000Y-91620000D03*
%TD*%
D13*
%TO.P,U1,1,GND_1*%
%TO.N,GND*%
X142460000Y-86890000D03*
%TO.P,U1,2,CSB_2*%
%TO.N,CS_EXTERNAL_BME280*%
X143110000Y-86890000D03*
%TO.P,U1,3,SDI_3*%
%TO.N,SPI_MOSI*%
X143760000Y-86890000D03*
%TO.P,U1,4,SCK_4*%
%TO.N,SPI_SCK*%
X144410000Y-86890000D03*
%TO.P,U1,5,SDO_5*%
%TO.N,SPI_MISO*%
X144410000Y-88940000D03*
%TO.P,U1,6,VDDIO_6*%
%TO.N,+3V3*%
X143760000Y-88940000D03*
%TO.P,U1,7,GND_7*%
%TO.N,GND*%
X143110000Y-88940000D03*
%TO.P,U1,8,VDD_8*%
%TO.N,+3V3*%
X142460000Y-88940000D03*
%TD*%
D14*
%TO.N,+3V3*%
X144280000Y-91290000D03*
X145270000Y-91750000D03*
X138930000Y-88500000D03*
X141450000Y-88910000D03*
%TO.N,GND*%
X147690000Y-87460000D03*
X141720000Y-85250000D03*
X145990000Y-89300000D03*
X141170000Y-87050000D03*
%TO.N,SPI_SCK*%
X144410000Y-83280000D03*
X142700000Y-83000000D03*
%TO.N,CS_EXTERNAL_BME280*%
X143160000Y-84250000D03*
X147870000Y-83560000D03*
%TD*%
%TO.N,+3V3*%
D15*
X139420000Y-89820000D02*
X139420000Y-91620000D01*
X143760000Y-88940000D02*
X143760000Y-89790000D01*
X142933000Y-89790000D02*
X143760000Y-89790000D01*
X145270000Y-91750000D02*
X146060000Y-91750000D01*
X142460000Y-89317000D02*
X142933000Y-89790000D01*
X138930000Y-89330000D02*
X139420000Y-89820000D01*
X141450000Y-88910000D02*
X142430000Y-88910000D01*
X142430000Y-88910000D02*
X142460000Y-88940000D01*
X146060000Y-91750000D02*
X146190000Y-91620000D01*
X138510000Y-79710000D02*
X138510000Y-88080000D01*
X138510000Y-88080000D02*
X138930000Y-88500000D01*
X144280000Y-91290000D02*
X143760000Y-90770000D01*
X142460000Y-88940000D02*
X142460000Y-89317000D01*
X143760000Y-90770000D02*
X143760000Y-89790000D01*
X138930000Y-88500000D02*
X138930000Y-89330000D01*
%TO.N,GND*%
X143110000Y-88100000D02*
X143110000Y-88940000D01*
X142460000Y-87450000D02*
X143110000Y-88100000D01*
X142460000Y-86890000D02*
X142460000Y-87450000D01*
%TO.N,SPI_MOSI*%
X143760000Y-80460000D02*
X144510000Y-79710000D01*
X143760000Y-86890000D02*
X143760000Y-80460000D01*
%TO.N,SPI_MISO*%
X144410000Y-88940000D02*
X146510000Y-86840000D01*
X146510000Y-86840000D02*
X146510000Y-79710000D01*
%TO.N,SPI_SCK*%
X142510000Y-82810000D02*
X142510000Y-79710000D01*
X144410000Y-86890000D02*
X144410000Y-83280000D01*
X142700000Y-83000000D02*
X142510000Y-82810000D01*
%TO.N,CS_EXTERNAL_BME280*%
X143110000Y-84300000D02*
X143110000Y-86890000D01*
X143160000Y-84250000D02*
X143110000Y-84300000D01*
X148510000Y-82920000D02*
X148510000Y-79710000D01*
X147870000Y-83560000D02*
X148510000Y-82920000D01*
%TD*%
%TA.AperFunction,Conductor*%
%TO.N,GND*%
G36*
X151042539Y-77740185D02*
G01*
X151088294Y-77792989D01*
X151099500Y-77844500D01*
X151099500Y-92595500D01*
X151079815Y-92662539D01*
X151027011Y-92708294D01*
X150975500Y-92719500D01*
X145644617Y-92719500D01*
X145640912Y-92718412D01*
X145637149Y-92719275D01*
X145607648Y-92708644D01*
X145577578Y-92699815D01*
X145575050Y-92696898D01*
X145571417Y-92695589D01*
X145552344Y-92670694D01*
X145531823Y-92647011D01*
X145531273Y-92643190D01*
X145528925Y-92640125D01*
X145526340Y-92608882D01*
X145521879Y-92577853D01*
X145523483Y-92574340D01*
X145523165Y-92570493D01*
X145537880Y-92542813D01*
X145550904Y-92514297D01*
X145554676Y-92511221D01*
X145555964Y-92508801D01*
X145565845Y-92502118D01*
X145583981Y-92487337D01*
X145590384Y-92483747D01*
X145649179Y-92459394D01*
X145729172Y-92405943D01*
X145733389Y-92403580D01*
X145762905Y-92396813D01*
X145791809Y-92387763D01*
X145798499Y-92388654D01*
X145801493Y-92387968D01*
X145806270Y-92389689D01*
X145828619Y-92392666D01*
X145949007Y-92427643D01*
X145985310Y-92430500D01*
X145985318Y-92430500D01*
X146394682Y-92430500D01*
X146394690Y-92430500D01*
X146430993Y-92427643D01*
X146430995Y-92427642D01*
X146430997Y-92427642D01*
X146513817Y-92403580D01*
X146586395Y-92382494D01*
X146607369Y-92370089D01*
X146675088Y-92352906D01*
X146733613Y-92370090D01*
X146753803Y-92382031D01*
X146900000Y-92424504D01*
X146900000Y-92424503D01*
X147400000Y-92424503D01*
X147546195Y-92382031D01*
X147685374Y-92299721D01*
X147685383Y-92299714D01*
X147799714Y-92185383D01*
X147799721Y-92185374D01*
X147882031Y-92046195D01*
X147882033Y-92046190D01*
X147927144Y-91890918D01*
X147927145Y-91890912D01*
X147928790Y-91870000D01*
X147400000Y-91870000D01*
X147400000Y-92424503D01*
X146900000Y-92424503D01*
X146900000Y-92118352D01*
X146917267Y-92055233D01*
X146922494Y-92046395D01*
X146936149Y-91999397D01*
X146967642Y-91890997D01*
X146967643Y-91890991D01*
X146970499Y-91854697D01*
X146970500Y-91854690D01*
X146970500Y-91385310D01*
X146967643Y-91349007D01*
X146922494Y-91193605D01*
X146922493Y-91193604D01*
X146922492Y-91193600D01*
X146917266Y-91184763D01*
X146900000Y-91121645D01*
X146900000Y-90815494D01*
X147400000Y-90815494D01*
X147400000Y-91370000D01*
X147928790Y-91370000D01*
X147927145Y-91349089D01*
X147882031Y-91193804D01*
X147799721Y-91054625D01*
X147799714Y-91054616D01*
X147685383Y-90940285D01*
X147685374Y-90940278D01*
X147546193Y-90857967D01*
X147546190Y-90857965D01*
X147400001Y-90815493D01*
X147400000Y-90815494D01*
X146900000Y-90815494D01*
X146899998Y-90815493D01*
X146753809Y-90857965D01*
X146753806Y-90857967D01*
X146733608Y-90869912D01*
X146665884Y-90887092D01*
X146607370Y-90869910D01*
X146586397Y-90857507D01*
X146586390Y-90857504D01*
X146430997Y-90812357D01*
X146430991Y-90812356D01*
X146394697Y-90809500D01*
X146394690Y-90809500D01*
X145985310Y-90809500D01*
X145985302Y-90809500D01*
X145949008Y-90812356D01*
X145949002Y-90812357D01*
X145793609Y-90857504D01*
X145793606Y-90857505D01*
X145654318Y-90939879D01*
X145654311Y-90939885D01*
X145640169Y-90954026D01*
X145578844Y-90987508D01*
X145509153Y-90982520D01*
X145505044Y-90980903D01*
X145503501Y-90980264D01*
X145503494Y-90980261D01*
X145348845Y-90949500D01*
X145348842Y-90949500D01*
X145191158Y-90949500D01*
X145117138Y-90964223D01*
X145047547Y-90957994D01*
X144992370Y-90915131D01*
X144989846Y-90911496D01*
X144901789Y-90779711D01*
X144901786Y-90779707D01*
X144790292Y-90668213D01*
X144790288Y-90668210D01*
X144659185Y-90580609D01*
X144659172Y-90580602D01*
X144513501Y-90520264D01*
X144513492Y-90520261D01*
X144460307Y-90509682D01*
X144398397Y-90477296D01*
X144363823Y-90416580D01*
X144360500Y-90388065D01*
X144360500Y-89814499D01*
X144380185Y-89747460D01*
X144432989Y-89701705D01*
X144484500Y-89690499D01*
X144632871Y-89690499D01*
X144632872Y-89690499D01*
X144692483Y-89684091D01*
X144827331Y-89633796D01*
X144942546Y-89547546D01*
X145028796Y-89432331D01*
X145079091Y-89297483D01*
X145084095Y-89250943D01*
X145085499Y-89237886D01*
X145085499Y-89237882D01*
X145085500Y-89237873D01*
X145085499Y-89165096D01*
X145105183Y-89098058D01*
X145121813Y-89077420D01*
X146868506Y-87330728D01*
X146868511Y-87330724D01*
X146878714Y-87320520D01*
X146878716Y-87320520D01*
X146990520Y-87208716D01*
X147069577Y-87071784D01*
X147110500Y-86919057D01*
X147110500Y-84231941D01*
X147130185Y-84164902D01*
X147182989Y-84119147D01*
X147252147Y-84109203D01*
X147315703Y-84138228D01*
X147322181Y-84144260D01*
X147359707Y-84181786D01*
X147359711Y-84181789D01*
X147490814Y-84269390D01*
X147490827Y-84269397D01*
X147634342Y-84328842D01*
X147636503Y-84329737D01*
X147791153Y-84360499D01*
X147791156Y-84360500D01*
X147791158Y-84360500D01*
X147948844Y-84360500D01*
X147948845Y-84360499D01*
X148103497Y-84329737D01*
X148249179Y-84269394D01*
X148380289Y-84181789D01*
X148491789Y-84070289D01*
X148579394Y-83939179D01*
X148639737Y-83793497D01*
X148659113Y-83696085D01*
X148670638Y-83638150D01*
X148703023Y-83576239D01*
X148704461Y-83574773D01*
X148990520Y-83288716D01*
X149069577Y-83151784D01*
X149110501Y-82999057D01*
X149110501Y-82840942D01*
X149110501Y-82833347D01*
X149110500Y-82833329D01*
X149110500Y-81126279D01*
X149130185Y-81059240D01*
X149178205Y-81015795D01*
X149206788Y-81001232D01*
X149346928Y-80899414D01*
X149469414Y-80776928D01*
X149571232Y-80636788D01*
X149649873Y-80482445D01*
X149703402Y-80317701D01*
X149730500Y-80146611D01*
X149730500Y-79373389D01*
X149703402Y-79202299D01*
X149649873Y-79037555D01*
X149571232Y-78883212D01*
X149469414Y-78743072D01*
X149346928Y-78620586D01*
X149206788Y-78518768D01*
X149052445Y-78440127D01*
X148887701Y-78386598D01*
X148887699Y-78386597D01*
X148887698Y-78386597D01*
X148756271Y-78365781D01*
X148716611Y-78359500D01*
X148543389Y-78359500D01*
X148503728Y-78365781D01*
X148372302Y-78386597D01*
X148207552Y-78440128D01*
X148053211Y-78518768D01*
X147973256Y-78576859D01*
X147913072Y-78620586D01*
X147913070Y-78620588D01*
X147913069Y-78620588D01*
X147790588Y-78743069D01*
X147790581Y-78743078D01*
X147730317Y-78826023D01*
X147674987Y-78868689D01*
X147605374Y-78874667D01*
X147543579Y-78842061D01*
X147529683Y-78826023D01*
X147469418Y-78743078D01*
X147469414Y-78743072D01*
X147346928Y-78620586D01*
X147206788Y-78518768D01*
X147052445Y-78440127D01*
X146887701Y-78386598D01*
X146887699Y-78386597D01*
X146887698Y-78386597D01*
X146756271Y-78365781D01*
X146716611Y-78359500D01*
X146543389Y-78359500D01*
X146503728Y-78365781D01*
X146372302Y-78386597D01*
X146207552Y-78440128D01*
X146053211Y-78518768D01*
X145973256Y-78576859D01*
X145913072Y-78620586D01*
X145913070Y-78620588D01*
X145913069Y-78620588D01*
X145790588Y-78743069D01*
X145790581Y-78743078D01*
X145730317Y-78826023D01*
X145674987Y-78868689D01*
X145605374Y-78874667D01*
X145543579Y-78842061D01*
X145529683Y-78826023D01*
X145469418Y-78743078D01*
X145469414Y-78743072D01*
X145346928Y-78620586D01*
X145206788Y-78518768D01*
X145052445Y-78440127D01*
X144887701Y-78386598D01*
X144887699Y-78386597D01*
X144887698Y-78386597D01*
X144756271Y-78365781D01*
X144716611Y-78359500D01*
X144543389Y-78359500D01*
X144503728Y-78365781D01*
X144372302Y-78386597D01*
X144207552Y-78440128D01*
X144053211Y-78518768D01*
X143973256Y-78576859D01*
X143913072Y-78620586D01*
X143913070Y-78620588D01*
X143913069Y-78620588D01*
X143790588Y-78743069D01*
X143790581Y-78743078D01*
X143730317Y-78826023D01*
X143674987Y-78868689D01*
X143605374Y-78874667D01*
X143543579Y-78842061D01*
X143529683Y-78826023D01*
X143469418Y-78743078D01*
X143469414Y-78743072D01*
X143346928Y-78620586D01*
X143206788Y-78518768D01*
X143052445Y-78440127D01*
X142887701Y-78386598D01*
X142887699Y-78386597D01*
X142887698Y-78386597D01*
X142756271Y-78365781D01*
X142716611Y-78359500D01*
X142543389Y-78359500D01*
X142503728Y-78365781D01*
X142372302Y-78386597D01*
X142207552Y-78440128D01*
X142053211Y-78518768D01*
X141973256Y-78576859D01*
X141913072Y-78620586D01*
X141913070Y-78620588D01*
X141913069Y-78620588D01*
X141790585Y-78743072D01*
X141730007Y-78826450D01*
X141674677Y-78869115D01*
X141605063Y-78875093D01*
X141543269Y-78842486D01*
X141529371Y-78826447D01*
X141469036Y-78743401D01*
X141346602Y-78620967D01*
X141206524Y-78519195D01*
X141052257Y-78440591D01*
X140887589Y-78387087D01*
X140887581Y-78387085D01*
X140880000Y-78385884D01*
X140880000Y-79444314D01*
X140875606Y-79439920D01*
X140784394Y-79387259D01*
X140682661Y-79360000D01*
X140577339Y-79360000D01*
X140475606Y-79387259D01*
X140384394Y-79439920D01*
X140380000Y-79444314D01*
X140380000Y-78385884D01*
X140379999Y-78385884D01*
X140372418Y-78387085D01*
X140372410Y-78387087D01*
X140207742Y-78440591D01*
X140053475Y-78519195D01*
X139913401Y-78620964D01*
X139805799Y-78728566D01*
X139744476Y-78762050D01*
X139674784Y-78757066D01*
X139618851Y-78715194D01*
X139612585Y-78705988D01*
X139572712Y-78641344D01*
X139448656Y-78517288D01*
X139323559Y-78440128D01*
X139299336Y-78425187D01*
X139299331Y-78425185D01*
X139297862Y-78424698D01*
X139132797Y-78370001D01*
X139132795Y-78370000D01*
X139030010Y-78359500D01*
X138229998Y-78359500D01*
X138229980Y-78359501D01*
X138127203Y-78370000D01*
X138127200Y-78370001D01*
X137960668Y-78425185D01*
X137960663Y-78425187D01*
X137811342Y-78517289D01*
X137687289Y-78641342D01*
X137595187Y-78790663D01*
X137595185Y-78790668D01*
X137569332Y-78868689D01*
X137540001Y-78957203D01*
X137540001Y-78957204D01*
X137540000Y-78957204D01*
X137529500Y-79059983D01*
X137529500Y-80460001D01*
X137529501Y-80460018D01*
X137540000Y-80562796D01*
X137540001Y-80562799D01*
X137580654Y-80685479D01*
X137595186Y-80729334D01*
X137687288Y-80878656D01*
X137811344Y-81002712D01*
X137850596Y-81026922D01*
X137897320Y-81078868D01*
X137909500Y-81132461D01*
X137909500Y-87993330D01*
X137909499Y-87993348D01*
X137909499Y-88159054D01*
X137909498Y-88159054D01*
X137938291Y-88266510D01*
X137950423Y-88311785D01*
X137972731Y-88350423D01*
X138029480Y-88448716D01*
X138101665Y-88520901D01*
X138106955Y-88527956D01*
X138116225Y-88552753D01*
X138128911Y-88575985D01*
X138129362Y-88578151D01*
X138160261Y-88733491D01*
X138160264Y-88733501D01*
X138220602Y-88879172D01*
X138220609Y-88879185D01*
X138308602Y-89010874D01*
X138314252Y-89028920D01*
X138324477Y-89044830D01*
X138328928Y-89075789D01*
X138329480Y-89077551D01*
X138329500Y-89079765D01*
X138329500Y-89243330D01*
X138329499Y-89243348D01*
X138329499Y-89409054D01*
X138329498Y-89409054D01*
X138335735Y-89432331D01*
X138362385Y-89531789D01*
X138370424Y-89561787D01*
X138385682Y-89588214D01*
X138385683Y-89588216D01*
X138449477Y-89698712D01*
X138449481Y-89698717D01*
X138561285Y-89810521D01*
X138783181Y-90032416D01*
X138816666Y-90093739D01*
X138819500Y-90120097D01*
X138819500Y-90953333D01*
X138799815Y-91020372D01*
X138783181Y-91041014D01*
X138769887Y-91054307D01*
X138769881Y-91054315D01*
X138687505Y-91193606D01*
X138687504Y-91193609D01*
X138642357Y-91349002D01*
X138642356Y-91349008D01*
X138639500Y-91385302D01*
X138639500Y-91854697D01*
X138642356Y-91890991D01*
X138642357Y-91890997D01*
X138687504Y-92046390D01*
X138687505Y-92046393D01*
X138687506Y-92046395D01*
X138695397Y-92059738D01*
X138769881Y-92185684D01*
X138769887Y-92185692D01*
X138884307Y-92300112D01*
X138884311Y-92300115D01*
X138884313Y-92300117D01*
X139023605Y-92382494D01*
X139044808Y-92388654D01*
X139179002Y-92427642D01*
X139179005Y-92427642D01*
X139179007Y-92427643D01*
X139215310Y-92430500D01*
X139215318Y-92430500D01*
X139624682Y-92430500D01*
X139624690Y-92430500D01*
X139660993Y-92427643D01*
X139660995Y-92427642D01*
X139660997Y-92427642D01*
X139743817Y-92403580D01*
X139816395Y-92382494D01*
X139837369Y-92370089D01*
X139905088Y-92352906D01*
X139963613Y-92370090D01*
X139983803Y-92382031D01*
X140130000Y-92424504D01*
X140130000Y-92424503D01*
X140630000Y-92424503D01*
X140776195Y-92382031D01*
X140915374Y-92299721D01*
X140915383Y-92299714D01*
X141029714Y-92185383D01*
X141029721Y-92185374D01*
X141112031Y-92046195D01*
X141112033Y-92046190D01*
X141157144Y-91890918D01*
X141157145Y-91890912D01*
X141158790Y-91870000D01*
X140630000Y-91870000D01*
X140630000Y-92424503D01*
X140130000Y-92424503D01*
X140130000Y-92118352D01*
X140147267Y-92055233D01*
X140152494Y-92046395D01*
X140166149Y-91999397D01*
X140197642Y-91890997D01*
X140197643Y-91890991D01*
X140200499Y-91854697D01*
X140200500Y-91854690D01*
X140200500Y-91385310D01*
X140197643Y-91349007D01*
X140152494Y-91193605D01*
X140152493Y-91193604D01*
X140152492Y-91193600D01*
X140147266Y-91184763D01*
X140130000Y-91121645D01*
X140130000Y-90820721D01*
X140121982Y-90815494D01*
X140630000Y-90815494D01*
X140630000Y-91370000D01*
X141158790Y-91370000D01*
X141157145Y-91349089D01*
X141112031Y-91193804D01*
X141029721Y-91054625D01*
X141029714Y-91054616D01*
X140915383Y-90940285D01*
X140915374Y-90940278D01*
X140776193Y-90857967D01*
X140776190Y-90857965D01*
X140630001Y-90815493D01*
X140630000Y-90815494D01*
X140121982Y-90815494D01*
X140076783Y-90786030D01*
X140065336Y-90772645D01*
X140050551Y-90763082D01*
X140043102Y-90746645D01*
X140031373Y-90732930D01*
X140028980Y-90715482D01*
X140021711Y-90699442D01*
X140020500Y-90682153D01*
X140020500Y-89909060D01*
X140020501Y-89909047D01*
X140020501Y-89740944D01*
X140012462Y-89710943D01*
X139979577Y-89588216D01*
X139956097Y-89547547D01*
X139900524Y-89451290D01*
X139900518Y-89451282D01*
X139586791Y-89137555D01*
X139553306Y-89076232D01*
X139558290Y-89006540D01*
X139571365Y-88980990D01*
X139639394Y-88879179D01*
X139699737Y-88733497D01*
X139730500Y-88578842D01*
X139730500Y-88421158D01*
X139730500Y-88421155D01*
X139730499Y-88421153D01*
X139715148Y-88343981D01*
X139699737Y-88266503D01*
X139683501Y-88227305D01*
X139639397Y-88120827D01*
X139639390Y-88120814D01*
X139551789Y-87989711D01*
X139551786Y-87989707D01*
X139440292Y-87878213D01*
X139440288Y-87878210D01*
X139309185Y-87790609D01*
X139309175Y-87790604D01*
X139187047Y-87740017D01*
X139132644Y-87696176D01*
X139110579Y-87629882D01*
X139110500Y-87625456D01*
X139110500Y-81246928D01*
X139130185Y-81179889D01*
X139182989Y-81134134D01*
X139195486Y-81129225D01*
X139299334Y-81094814D01*
X139448656Y-81002712D01*
X139572712Y-80878656D01*
X139612581Y-80814016D01*
X139664525Y-80767294D01*
X139733488Y-80756071D01*
X139797570Y-80783914D01*
X139805799Y-80791434D01*
X139913397Y-80899032D01*
X140053475Y-81000804D01*
X140207744Y-81079408D01*
X140372415Y-81132914D01*
X140372414Y-81132914D01*
X140379999Y-81134115D01*
X140380000Y-81134114D01*
X140380000Y-80075686D01*
X140384394Y-80080080D01*
X140475606Y-80132741D01*
X140577339Y-80160000D01*
X140682661Y-80160000D01*
X140784394Y-80132741D01*
X140875606Y-80080080D01*
X140880000Y-80075686D01*
X140880000Y-81134115D01*
X140887584Y-81132914D01*
X141052255Y-81079408D01*
X141206524Y-81000804D01*
X141346602Y-80899032D01*
X141469036Y-80776598D01*
X141529371Y-80693552D01*
X141547711Y-80679409D01*
X141562924Y-80661945D01*
X141574859Y-80658474D01*
X141584700Y-80650886D01*
X141607772Y-80648903D01*
X141630014Y-80642436D01*
X141641930Y-80645968D01*
X141654313Y-80644905D01*
X141674797Y-80655712D01*
X141697002Y-80662296D01*
X141709243Y-80673887D01*
X141716109Y-80677510D01*
X141723615Y-80685479D01*
X141726984Y-80689387D01*
X141790586Y-80776928D01*
X141876428Y-80862770D01*
X141879425Y-80866247D01*
X141892036Y-80894054D01*
X141906666Y-80920846D01*
X141907436Y-80928008D01*
X141908284Y-80929878D01*
X141907910Y-80932425D01*
X141909500Y-80947204D01*
X141909500Y-82723330D01*
X141909499Y-82723348D01*
X141909499Y-82858677D01*
X141907116Y-82882869D01*
X141899500Y-82921156D01*
X141899500Y-83078846D01*
X141930261Y-83233489D01*
X141930264Y-83233501D01*
X141990602Y-83379172D01*
X141990609Y-83379185D01*
X142078210Y-83510288D01*
X142078213Y-83510292D01*
X142189707Y-83621786D01*
X142189711Y-83621789D01*
X142320814Y-83709390D01*
X142320818Y-83709392D01*
X142320821Y-83709394D01*
X142320826Y-83709396D01*
X142374110Y-83731467D01*
X142428514Y-83775307D01*
X142450579Y-83841601D01*
X142441220Y-83893480D01*
X142390263Y-84016503D01*
X142390262Y-84016506D01*
X142390262Y-84016507D01*
X142390261Y-84016510D01*
X142359500Y-84171153D01*
X142359500Y-84328846D01*
X142390261Y-84483489D01*
X142390264Y-84483501D01*
X142450602Y-84629172D01*
X142450606Y-84629179D01*
X142488602Y-84686044D01*
X142509480Y-84752721D01*
X142509500Y-84754935D01*
X142509500Y-86065138D01*
X142489815Y-86132177D01*
X142437011Y-86177932D01*
X142367853Y-86187876D01*
X142304297Y-86158851D01*
X142297819Y-86152819D01*
X142285000Y-86140000D01*
X142237155Y-86140000D01*
X142177627Y-86146401D01*
X142177620Y-86146403D01*
X142042913Y-86196645D01*
X142042906Y-86196649D01*
X141927812Y-86282809D01*
X141927809Y-86282812D01*
X141841649Y-86397906D01*
X141841645Y-86397913D01*
X141791403Y-86532620D01*
X141791401Y-86532627D01*
X141785000Y-86592155D01*
X141785000Y-86715000D01*
X142310500Y-86715000D01*
X142319185Y-86717550D01*
X142328146Y-86716262D01*
X142352187Y-86727240D01*
X142377539Y-86734685D01*
X142383465Y-86741524D01*
X142391702Y-86745286D01*
X142405992Y-86767521D01*
X142423294Y-86787489D01*
X142425581Y-86798001D01*
X142429477Y-86804064D01*
X142434500Y-86838999D01*
X142434501Y-86940999D01*
X142414817Y-87008038D01*
X142362014Y-87053794D01*
X142310501Y-87065000D01*
X141785000Y-87065000D01*
X141785000Y-87187844D01*
X141791401Y-87247372D01*
X141791403Y-87247379D01*
X141841645Y-87382086D01*
X141841649Y-87382093D01*
X141927809Y-87497187D01*
X141927812Y-87497190D01*
X142042906Y-87583350D01*
X142042913Y-87583354D01*
X142177620Y-87633596D01*
X142177627Y-87633598D01*
X142237155Y-87639999D01*
X142237172Y-87640000D01*
X142285000Y-87640000D01*
X142285000Y-87479435D01*
X142292826Y-87452780D01*
X142297404Y-87425377D01*
X142302534Y-87419721D01*
X142304685Y-87412396D01*
X142325676Y-87394206D01*
X142344345Y-87373625D01*
X142351719Y-87371640D01*
X142357489Y-87366641D01*
X142384985Y-87362687D01*
X142411814Y-87355467D01*
X142419089Y-87357783D01*
X142426647Y-87356697D01*
X142451919Y-87368238D01*
X142478390Y-87376668D01*
X142485771Y-87383698D01*
X142490203Y-87385722D01*
X142504532Y-87400380D01*
X142506455Y-87402704D01*
X142577454Y-87497546D01*
X142597125Y-87512272D01*
X142606532Y-87523639D01*
X142614730Y-87542727D01*
X142627180Y-87559356D01*
X142631024Y-87580659D01*
X142634107Y-87587837D01*
X142633247Y-87592982D01*
X142635000Y-87602694D01*
X142635000Y-87640000D01*
X142682828Y-87640000D01*
X142682844Y-87639999D01*
X142742375Y-87633598D01*
X142749926Y-87631814D01*
X142750315Y-87633462D01*
X142810624Y-87629140D01*
X142827387Y-87634060D01*
X142827511Y-87634088D01*
X142827517Y-87634091D01*
X142887127Y-87640500D01*
X143332872Y-87640499D01*
X143392483Y-87634091D01*
X143392485Y-87634090D01*
X143392487Y-87634090D01*
X143400031Y-87632308D01*
X143400377Y-87633775D01*
X143461342Y-87629408D01*
X143476378Y-87633822D01*
X143477511Y-87634089D01*
X143477517Y-87634091D01*
X143537127Y-87640500D01*
X143982872Y-87640499D01*
X144042483Y-87634091D01*
X144042485Y-87634090D01*
X144042487Y-87634090D01*
X144050031Y-87632308D01*
X144050377Y-87633775D01*
X144111342Y-87629408D01*
X144126378Y-87633822D01*
X144127511Y-87634089D01*
X144127517Y-87634091D01*
X144187127Y-87640500D01*
X144560903Y-87640499D01*
X144627942Y-87660183D01*
X144673697Y-87712987D01*
X144683641Y-87782146D01*
X144654616Y-87845701D01*
X144648584Y-87852180D01*
X144347582Y-88153181D01*
X144324812Y-88165614D01*
X144304166Y-88181330D01*
X144291877Y-88183598D01*
X144286259Y-88186666D01*
X144269740Y-88189109D01*
X144264823Y-88189500D01*
X144187128Y-88189501D01*
X144127517Y-88195909D01*
X144112106Y-88201656D01*
X144094839Y-88203031D01*
X144076901Y-88199279D01*
X144058622Y-88200584D01*
X144043600Y-88196172D01*
X144042482Y-88195908D01*
X143982882Y-88189501D01*
X143982873Y-88189500D01*
X143982863Y-88189500D01*
X143537129Y-88189500D01*
X143537123Y-88189501D01*
X143477515Y-88195909D01*
X143469971Y-88197692D01*
X143469675Y-88196439D01*
X143407926Y-88200855D01*
X143394357Y-88196870D01*
X143392372Y-88196401D01*
X143332844Y-88190000D01*
X143285000Y-88190000D01*
X143285000Y-88227305D01*
X143265315Y-88294344D01*
X143252027Y-88311508D01*
X143244354Y-88319802D01*
X143227454Y-88332454D01*
X143205402Y-88361910D01*
X143201027Y-88366641D01*
X143176345Y-88381392D01*
X143153332Y-88398620D01*
X143146733Y-88399091D01*
X143141053Y-88402487D01*
X143112315Y-88401553D01*
X143083640Y-88403604D01*
X143077832Y-88400432D01*
X143071220Y-88400218D01*
X143047552Y-88383898D01*
X143022317Y-88370118D01*
X143014522Y-88361121D01*
X143013700Y-88360555D01*
X143013391Y-88359817D01*
X143010734Y-88356750D01*
X142992545Y-88332453D01*
X142984685Y-88326569D01*
X142942816Y-88270633D01*
X142935000Y-88227305D01*
X142935000Y-88190000D01*
X142887155Y-88190000D01*
X142827624Y-88196401D01*
X142820073Y-88198186D01*
X142819684Y-88196542D01*
X142759348Y-88200853D01*
X142742614Y-88195939D01*
X142742491Y-88195910D01*
X142742483Y-88195909D01*
X142682873Y-88189500D01*
X142682863Y-88189500D01*
X142237129Y-88189500D01*
X142237123Y-88189501D01*
X142177516Y-88195908D01*
X142042672Y-88246202D01*
X142034887Y-88250454D01*
X142033980Y-88248794D01*
X141978921Y-88269318D01*
X141910651Y-88254452D01*
X141901210Y-88248734D01*
X141829190Y-88200612D01*
X141829172Y-88200602D01*
X141683501Y-88140264D01*
X141683489Y-88140261D01*
X141528845Y-88109500D01*
X141528842Y-88109500D01*
X141371158Y-88109500D01*
X141371155Y-88109500D01*
X141216510Y-88140261D01*
X141216498Y-88140264D01*
X141070827Y-88200602D01*
X141070814Y-88200609D01*
X140939711Y-88288210D01*
X140939707Y-88288213D01*
X140828213Y-88399707D01*
X140828210Y-88399711D01*
X140740609Y-88530814D01*
X140740602Y-88530827D01*
X140680264Y-88676498D01*
X140680261Y-88676510D01*
X140649500Y-88831153D01*
X140649500Y-88988846D01*
X140680261Y-89143489D01*
X140680264Y-89143501D01*
X140740602Y-89289172D01*
X140740609Y-89289185D01*
X140828210Y-89420288D01*
X140828213Y-89420292D01*
X140939707Y-89531786D01*
X140939711Y-89531789D01*
X141070814Y-89619390D01*
X141070827Y-89619397D01*
X141216498Y-89679735D01*
X141216503Y-89679737D01*
X141326943Y-89701705D01*
X141371153Y-89710499D01*
X141371156Y-89710500D01*
X141371158Y-89710500D01*
X141528844Y-89710500D01*
X141528845Y-89710499D01*
X141683497Y-89679737D01*
X141794407Y-89633797D01*
X141819105Y-89623567D01*
X141888574Y-89616098D01*
X141951053Y-89647373D01*
X141957134Y-89653442D01*
X141966840Y-89663823D01*
X141979480Y-89685716D01*
X142091284Y-89797520D01*
X142091286Y-89797521D01*
X142099827Y-89806062D01*
X142448139Y-90154374D01*
X142448149Y-90154385D01*
X142452479Y-90158715D01*
X142452480Y-90158716D01*
X142564284Y-90270520D01*
X142651095Y-90320639D01*
X142651097Y-90320641D01*
X142689151Y-90342611D01*
X142701215Y-90349577D01*
X142853943Y-90390501D01*
X142853946Y-90390501D01*
X143019653Y-90390501D01*
X143019669Y-90390500D01*
X143035500Y-90390500D01*
X143102539Y-90410185D01*
X143148294Y-90462989D01*
X143159500Y-90514500D01*
X143159500Y-90683330D01*
X143159499Y-90683348D01*
X143159499Y-90849054D01*
X143159498Y-90849054D01*
X143200423Y-91001785D01*
X143222835Y-91040602D01*
X143222836Y-91040606D01*
X143222837Y-91040606D01*
X143279479Y-91138714D01*
X143279481Y-91138717D01*
X143398349Y-91257585D01*
X143398355Y-91257590D01*
X143445425Y-91304660D01*
X143478910Y-91365983D01*
X143479361Y-91368149D01*
X143510261Y-91523491D01*
X143510264Y-91523501D01*
X143570602Y-91669172D01*
X143570609Y-91669185D01*
X143658210Y-91800288D01*
X143658213Y-91800292D01*
X143769707Y-91911786D01*
X143769711Y-91911789D01*
X143900814Y-91999390D01*
X143900827Y-91999397D01*
X144014280Y-92046390D01*
X144046503Y-92059737D01*
X144201153Y-92090499D01*
X144201156Y-92090500D01*
X144201158Y-92090500D01*
X144358842Y-92090500D01*
X144432861Y-92075776D01*
X144502449Y-92082002D01*
X144557627Y-92124864D01*
X144560153Y-92128502D01*
X144648210Y-92260288D01*
X144648213Y-92260292D01*
X144759707Y-92371786D01*
X144759711Y-92371789D01*
X144890814Y-92459390D01*
X144890827Y-92459397D01*
X144942835Y-92480939D01*
X144997239Y-92524779D01*
X145019304Y-92591073D01*
X145002025Y-92658773D01*
X144950888Y-92706384D01*
X144895383Y-92719500D01*
X136224500Y-92719500D01*
X136157461Y-92699815D01*
X136111706Y-92647011D01*
X136100500Y-92595500D01*
X136100500Y-77844500D01*
X136120185Y-77777461D01*
X136172989Y-77731706D01*
X136224500Y-77720500D01*
X150975500Y-77720500D01*
X151042539Y-77740185D01*
G37*
%TD.AperFunction*%
%TD*%
M02*
