%TF.GenerationSoftware,KiCad,Pcbnew,10.0.1*%
%TF.CreationDate,2026-07-06T16:39:15+02:00*%
%TF.ProjectId,BME280_External,424d4532-3830-45f4-9578-7465726e616c,rev?*%
%TF.SameCoordinates,Original*%
%TF.FileFunction,Copper,L2,Bot*%
%TF.FilePolarity,Positive*%
%FSLAX46Y46*%
G04 Gerber Fmt 4.6, Leading zero omitted, Abs format (unit mm)*
G04 Created by KiCad (PCBNEW 10.0.1) date 2026-07-06 16:39:15*
%MOMM*%
%LPD*%
G01*
G04 APERTURE LIST*
G04 Aperture macros list*
%AMRoundRect*
0 Rectangle with rounded corners*
0 $1 Rounding radius*
0 $2 $3 $4 $5 $6 $7 $8 $9 X,Y pos of 4 corners*
0 Add a 4 corners polygon primitive as box body*
4,1,4,$2,$3,$4,$5,$6,$7,$8,$9,$2,$3,0*
0 Add four circle primitives for the rounded corners*
1,1,$1+$1,$2,$3*
1,1,$1+$1,$4,$5*
1,1,$1+$1,$6,$7*
1,1,$1+$1,$8,$9*
0 Add four rect primitives between the rounded corners*
20,1,$1+$1,$2,$3,$4,$5,0*
20,1,$1+$1,$4,$5,$6,$7,0*
20,1,$1+$1,$6,$7,$8,$9,0*
20,1,$1+$1,$8,$9,$2,$3,0*%
G04 Aperture macros list end*
%TA.AperFunction,ComponentPad*%
%ADD10RoundRect,0.250000X-0.350000X-0.650000X0.350000X-0.650000X0.350000X0.650000X-0.350000X0.650000X0*%
%TD*%
%TA.AperFunction,ComponentPad*%
%ADD11O,1.200000X1.800000*%
%TD*%
%TA.AperFunction,ViaPad*%
%ADD12C,0.600000*%
%TD*%
%TA.AperFunction,Conductor*%
%ADD13C,0.200000*%
%TD*%
G04 APERTURE END LIST*
D10*
%TO.P,J1,1,Pin_1_1*%
%TO.N,+3V3*%
X138630000Y-79760000D03*
D11*
%TO.P,J1,2,Pin_2_2*%
%TO.N,GND*%
X140630000Y-79760000D03*
%TO.P,J1,3,Pin_3_3*%
%TO.N,SPI_SCK*%
X142630000Y-79760000D03*
%TO.P,J1,4,Pin_4_4*%
%TO.N,SPI_MOSI*%
X144630000Y-79760000D03*
%TO.P,J1,5,Pin_5_5*%
%TO.N,SPI_MISO*%
X146630000Y-79760000D03*
%TO.P,J1,6,Pin_6_6*%
%TO.N,CS_EXTERNAL_BME280*%
X148630000Y-79760000D03*
%TD*%
D12*
%TO.N,+3V3*%
X144280000Y-91290000D03*
X145270000Y-91750000D03*
X138930000Y-88500000D03*
X141450000Y-88910000D03*
%TO.N,GND*%
X147690000Y-87460000D03*
X141720000Y-85250000D03*
X145990000Y-89300000D03*
X141170000Y-87050000D03*
%TO.N,SPI_SCK*%
X144410000Y-83280000D03*
X142700000Y-83000000D03*
%TO.N,CS_EXTERNAL_BME280*%
X143160000Y-84250000D03*
X147870000Y-83560000D03*
%TD*%
%TO.N,+3V3*%
D13*
X138930000Y-88500000D02*
X139340000Y-88910000D01*
X144280000Y-91290000D02*
X144660000Y-91670000D01*
X145190000Y-91670000D02*
X145270000Y-91750000D01*
X139340000Y-88910000D02*
X141450000Y-88910000D01*
X144660000Y-91670000D02*
X145190000Y-91670000D01*
%TO.N,SPI_SCK*%
X142700000Y-83000000D02*
X142980000Y-83280000D01*
X142980000Y-83280000D02*
X144410000Y-83280000D01*
%TO.N,CS_EXTERNAL_BME280*%
X147510000Y-83920000D02*
X143490000Y-83920000D01*
X147870000Y-83560000D02*
X147510000Y-83920000D01*
X143490000Y-83920000D02*
X143160000Y-84250000D01*
%TD*%
%TA.AperFunction,Conductor*%
%TO.N,GND*%
G36*
X151042539Y-77740185D02*
G01*
X151088294Y-77792989D01*
X151099500Y-77844500D01*
X151099500Y-92595500D01*
X151079815Y-92662539D01*
X151027011Y-92708294D01*
X150975500Y-92719500D01*
X145644617Y-92719500D01*
X145577578Y-92699815D01*
X145531823Y-92647011D01*
X145521879Y-92577853D01*
X145550904Y-92514297D01*
X145597165Y-92480939D01*
X145649172Y-92459397D01*
X145649172Y-92459396D01*
X145649179Y-92459394D01*
X145780289Y-92371789D01*
X145891789Y-92260289D01*
X145979394Y-92129179D01*
X146039737Y-91983497D01*
X146070500Y-91828842D01*
X146070500Y-91671158D01*
X146070500Y-91671155D01*
X146070499Y-91671153D01*
X146041128Y-91523497D01*
X146039737Y-91516503D01*
X146039735Y-91516498D01*
X145979397Y-91370827D01*
X145979390Y-91370814D01*
X145891789Y-91239711D01*
X145891786Y-91239707D01*
X145780292Y-91128213D01*
X145780288Y-91128210D01*
X145649185Y-91040609D01*
X145649172Y-91040602D01*
X145503501Y-90980264D01*
X145503489Y-90980261D01*
X145348845Y-90949500D01*
X145348842Y-90949500D01*
X145191158Y-90949500D01*
X145117138Y-90964223D01*
X145047547Y-90957994D01*
X144992370Y-90915131D01*
X144989846Y-90911496D01*
X144901789Y-90779711D01*
X144901786Y-90779707D01*
X144790292Y-90668213D01*
X144790288Y-90668210D01*
X144659185Y-90580609D01*
X144659172Y-90580602D01*
X144513501Y-90520264D01*
X144513489Y-90520261D01*
X144358845Y-90489500D01*
X144358842Y-90489500D01*
X144201158Y-90489500D01*
X144201155Y-90489500D01*
X144046510Y-90520261D01*
X144046498Y-90520264D01*
X143900827Y-90580602D01*
X143900814Y-90580609D01*
X143769711Y-90668210D01*
X143769707Y-90668213D01*
X143658213Y-90779707D01*
X143658210Y-90779711D01*
X143570609Y-90910814D01*
X143570602Y-90910827D01*
X143510264Y-91056498D01*
X143510261Y-91056510D01*
X143479500Y-91211153D01*
X143479500Y-91368846D01*
X143510261Y-91523489D01*
X143510264Y-91523501D01*
X143570602Y-91669172D01*
X143570609Y-91669185D01*
X143658210Y-91800288D01*
X143658213Y-91800292D01*
X143769707Y-91911786D01*
X143769711Y-91911789D01*
X143900814Y-91999390D01*
X143900827Y-91999397D01*
X144046498Y-92059735D01*
X144046503Y-92059737D01*
X144201158Y-92090500D01*
X144201847Y-92090637D01*
X144248203Y-92110278D01*
X144257414Y-92116650D01*
X144291284Y-92150520D01*
X144378095Y-92200639D01*
X144382476Y-92203168D01*
X144382484Y-92203174D01*
X144417760Y-92223541D01*
X144428215Y-92229577D01*
X144580943Y-92270500D01*
X144607060Y-92270500D01*
X144674099Y-92290185D01*
X144694736Y-92306814D01*
X144759708Y-92371786D01*
X144759712Y-92371790D01*
X144890814Y-92459390D01*
X144890827Y-92459397D01*
X144942835Y-92480939D01*
X144997239Y-92524779D01*
X145019304Y-92591073D01*
X145002025Y-92658773D01*
X144950888Y-92706384D01*
X144895383Y-92719500D01*
X136224500Y-92719500D01*
X136157461Y-92699815D01*
X136111706Y-92647011D01*
X136100500Y-92595500D01*
X136100500Y-88421153D01*
X138129500Y-88421153D01*
X138129500Y-88578846D01*
X138160261Y-88733489D01*
X138160264Y-88733501D01*
X138220602Y-88879172D01*
X138220609Y-88879185D01*
X138308210Y-89010288D01*
X138308213Y-89010292D01*
X138419707Y-89121786D01*
X138419711Y-89121789D01*
X138550814Y-89209390D01*
X138550827Y-89209397D01*
X138696498Y-89269735D01*
X138696503Y-89269737D01*
X138851158Y-89300500D01*
X138851847Y-89300637D01*
X138913758Y-89333022D01*
X138915337Y-89334573D01*
X138971284Y-89390520D01*
X138971286Y-89390521D01*
X138971290Y-89390524D01*
X139108209Y-89469573D01*
X139108216Y-89469577D01*
X139260943Y-89510501D01*
X139260945Y-89510501D01*
X139426654Y-89510501D01*
X139426670Y-89510500D01*
X140870234Y-89510500D01*
X140937273Y-89530185D01*
X140939125Y-89531398D01*
X141070814Y-89619390D01*
X141070827Y-89619397D01*
X141216498Y-89679735D01*
X141216503Y-89679737D01*
X141371153Y-89710499D01*
X141371156Y-89710500D01*
X141371158Y-89710500D01*
X141528844Y-89710500D01*
X141528845Y-89710499D01*
X141683497Y-89679737D01*
X141829179Y-89619394D01*
X141960289Y-89531789D01*
X142071789Y-89420289D01*
X142159394Y-89289179D01*
X142219737Y-89143497D01*
X142250500Y-88988842D01*
X142250500Y-88831158D01*
X142250500Y-88831155D01*
X142250499Y-88831153D01*
X142219737Y-88676503D01*
X142219735Y-88676498D01*
X142159397Y-88530827D01*
X142159390Y-88530814D01*
X142071789Y-88399711D01*
X142071786Y-88399707D01*
X141960292Y-88288213D01*
X141960288Y-88288210D01*
X141829185Y-88200609D01*
X141829172Y-88200602D01*
X141683501Y-88140264D01*
X141683489Y-88140261D01*
X141528845Y-88109500D01*
X141528842Y-88109500D01*
X141371158Y-88109500D01*
X141371155Y-88109500D01*
X141216510Y-88140261D01*
X141216498Y-88140264D01*
X141070827Y-88200602D01*
X141070814Y-88200609D01*
X140939125Y-88288602D01*
X140872447Y-88309480D01*
X140870234Y-88309500D01*
X139800401Y-88309500D01*
X139733362Y-88289815D01*
X139687607Y-88237011D01*
X139685840Y-88232952D01*
X139639397Y-88120827D01*
X139639390Y-88120814D01*
X139551789Y-87989711D01*
X139551786Y-87989707D01*
X139440292Y-87878213D01*
X139440288Y-87878210D01*
X139309185Y-87790609D01*
X139309172Y-87790602D01*
X139163501Y-87730264D01*
X139163489Y-87730261D01*
X139008845Y-87699500D01*
X139008842Y-87699500D01*
X138851158Y-87699500D01*
X138851155Y-87699500D01*
X138696510Y-87730261D01*
X138696498Y-87730264D01*
X138550827Y-87790602D01*
X138550814Y-87790609D01*
X138419711Y-87878210D01*
X138419707Y-87878213D01*
X138308213Y-87989707D01*
X138308210Y-87989711D01*
X138220609Y-88120814D01*
X138220602Y-88120827D01*
X138160264Y-88266498D01*
X138160261Y-88266510D01*
X138129500Y-88421153D01*
X136100500Y-88421153D01*
X136100500Y-82921153D01*
X141899500Y-82921153D01*
X141899500Y-83078846D01*
X141930261Y-83233489D01*
X141930264Y-83233501D01*
X141990602Y-83379172D01*
X141990609Y-83379185D01*
X142078210Y-83510288D01*
X142078213Y-83510292D01*
X142189707Y-83621786D01*
X142189711Y-83621789D01*
X142320814Y-83709390D01*
X142320818Y-83709392D01*
X142320821Y-83709394D01*
X142320826Y-83709396D01*
X142374110Y-83731467D01*
X142428514Y-83775307D01*
X142450579Y-83841601D01*
X142441220Y-83893480D01*
X142390263Y-84016503D01*
X142390262Y-84016506D01*
X142390262Y-84016507D01*
X142390261Y-84016510D01*
X142359500Y-84171153D01*
X142359500Y-84328846D01*
X142390261Y-84483489D01*
X142390264Y-84483501D01*
X142450602Y-84629172D01*
X142450609Y-84629185D01*
X142538210Y-84760288D01*
X142538213Y-84760292D01*
X142649707Y-84871786D01*
X142649711Y-84871789D01*
X142780814Y-84959390D01*
X142780827Y-84959397D01*
X142926498Y-85019735D01*
X142926503Y-85019737D01*
X143081153Y-85050499D01*
X143081156Y-85050500D01*
X143081158Y-85050500D01*
X143238844Y-85050500D01*
X143238845Y-85050499D01*
X143393497Y-85019737D01*
X143539179Y-84959394D01*
X143670289Y-84871789D01*
X143781789Y-84760289D01*
X143869394Y-84629179D01*
X143882703Y-84597047D01*
X143926542Y-84542645D01*
X143992836Y-84520579D01*
X143997264Y-84520500D01*
X147423331Y-84520500D01*
X147423347Y-84520501D01*
X147430943Y-84520501D01*
X147589054Y-84520501D01*
X147589057Y-84520501D01*
X147741785Y-84479577D01*
X147810777Y-84439744D01*
X147878716Y-84400520D01*
X147893814Y-84385421D01*
X147904649Y-84378362D01*
X147926217Y-84371881D01*
X147945980Y-84361089D01*
X147948152Y-84360637D01*
X147948841Y-84360500D01*
X147948842Y-84360500D01*
X148103497Y-84329737D01*
X148249179Y-84269394D01*
X148380289Y-84181789D01*
X148491789Y-84070289D01*
X148579394Y-83939179D01*
X148639737Y-83793497D01*
X148670500Y-83638842D01*
X148670500Y-83481158D01*
X148670500Y-83481155D01*
X148670499Y-83481153D01*
X148650215Y-83379179D01*
X148639737Y-83326503D01*
X148606811Y-83247011D01*
X148579397Y-83180827D01*
X148579390Y-83180814D01*
X148491789Y-83049711D01*
X148491786Y-83049707D01*
X148380292Y-82938213D01*
X148380288Y-82938210D01*
X148249185Y-82850609D01*
X148249172Y-82850602D01*
X148103501Y-82790264D01*
X148103489Y-82790261D01*
X147948845Y-82759500D01*
X147948842Y-82759500D01*
X147791158Y-82759500D01*
X147791155Y-82759500D01*
X147636510Y-82790261D01*
X147636498Y-82790264D01*
X147490827Y-82850602D01*
X147490814Y-82850609D01*
X147359711Y-82938210D01*
X147359707Y-82938213D01*
X147248213Y-83049707D01*
X147248210Y-83049711D01*
X147160607Y-83180817D01*
X147160606Y-83180820D01*
X147152184Y-83201153D01*
X147138791Y-83233489D01*
X147134871Y-83242952D01*
X147091031Y-83297356D01*
X147024737Y-83319421D01*
X147020310Y-83319500D01*
X145334500Y-83319500D01*
X145267461Y-83299815D01*
X145221706Y-83247011D01*
X145213008Y-83207029D01*
X145211097Y-83207218D01*
X145210500Y-83201163D01*
X145210500Y-83201158D01*
X145179737Y-83046503D01*
X145179735Y-83046498D01*
X145119397Y-82900827D01*
X145119390Y-82900814D01*
X145031789Y-82769711D01*
X145031786Y-82769707D01*
X144920292Y-82658213D01*
X144920288Y-82658210D01*
X144789185Y-82570609D01*
X144789172Y-82570602D01*
X144643501Y-82510264D01*
X144643489Y-82510261D01*
X144488845Y-82479500D01*
X144488842Y-82479500D01*
X144331158Y-82479500D01*
X144331155Y-82479500D01*
X144176510Y-82510261D01*
X144176498Y-82510264D01*
X144030827Y-82570602D01*
X144030814Y-82570609D01*
X143899125Y-82658602D01*
X143832447Y-82679480D01*
X143830234Y-82679500D01*
X143514881Y-82679500D01*
X143447842Y-82659815D01*
X143411779Y-82624390D01*
X143321792Y-82489715D01*
X143321786Y-82489707D01*
X143210292Y-82378213D01*
X143210288Y-82378210D01*
X143079185Y-82290609D01*
X143079172Y-82290602D01*
X142933501Y-82230264D01*
X142933489Y-82230261D01*
X142778845Y-82199500D01*
X142778842Y-82199500D01*
X142621158Y-82199500D01*
X142621155Y-82199500D01*
X142466510Y-82230261D01*
X142466498Y-82230264D01*
X142320827Y-82290602D01*
X142320814Y-82290609D01*
X142189711Y-82378210D01*
X142189707Y-82378213D01*
X142078213Y-82489707D01*
X142078210Y-82489711D01*
X141990609Y-82620814D01*
X141990602Y-82620827D01*
X141930264Y-82766498D01*
X141930261Y-82766510D01*
X141899500Y-82921153D01*
X136100500Y-82921153D01*
X136100500Y-79059983D01*
X137529500Y-79059983D01*
X137529500Y-80460001D01*
X137529501Y-80460018D01*
X137540000Y-80562796D01*
X137540001Y-80562799D01*
X137578013Y-80677510D01*
X137595186Y-80729334D01*
X137687288Y-80878656D01*
X137811344Y-81002712D01*
X137960666Y-81094814D01*
X138127203Y-81149999D01*
X138229991Y-81160500D01*
X139030008Y-81160499D01*
X139030016Y-81160498D01*
X139030019Y-81160498D01*
X139086302Y-81154748D01*
X139132797Y-81149999D01*
X139299334Y-81094814D01*
X139448656Y-81002712D01*
X139572712Y-80878656D01*
X139612581Y-80814016D01*
X139664525Y-80767294D01*
X139733488Y-80756071D01*
X139797570Y-80783914D01*
X139805799Y-80791434D01*
X139913397Y-80899032D01*
X140053475Y-81000804D01*
X140207744Y-81079408D01*
X140372415Y-81132914D01*
X140372414Y-81132914D01*
X140379999Y-81134115D01*
X140380000Y-81134114D01*
X140380000Y-80075686D01*
X140384394Y-80080080D01*
X140475606Y-80132741D01*
X140577339Y-80160000D01*
X140682661Y-80160000D01*
X140784394Y-80132741D01*
X140875606Y-80080080D01*
X140880000Y-80075686D01*
X140880000Y-81134115D01*
X140887584Y-81132914D01*
X141052255Y-81079408D01*
X141206524Y-81000804D01*
X141346602Y-80899032D01*
X141469036Y-80776598D01*
X141529371Y-80693552D01*
X141584700Y-80650886D01*
X141654313Y-80644905D01*
X141716109Y-80677510D01*
X141730008Y-80693550D01*
X141730318Y-80693976D01*
X141790586Y-80776928D01*
X141913072Y-80899414D01*
X142053212Y-81001232D01*
X142207555Y-81079873D01*
X142372299Y-81133402D01*
X142543389Y-81160500D01*
X142543390Y-81160500D01*
X142716610Y-81160500D01*
X142716611Y-81160500D01*
X142887701Y-81133402D01*
X143052445Y-81079873D01*
X143206788Y-81001232D01*
X143346928Y-80899414D01*
X143469414Y-80776928D01*
X143529682Y-80693975D01*
X143585012Y-80651311D01*
X143654626Y-80645332D01*
X143716421Y-80677938D01*
X143730315Y-80693973D01*
X143790586Y-80776928D01*
X143913072Y-80899414D01*
X144053212Y-81001232D01*
X144207555Y-81079873D01*
X144372299Y-81133402D01*
X144543389Y-81160500D01*
X144543390Y-81160500D01*
X144716610Y-81160500D01*
X144716611Y-81160500D01*
X144887701Y-81133402D01*
X145052445Y-81079873D01*
X145206788Y-81001232D01*
X145346928Y-80899414D01*
X145469414Y-80776928D01*
X145529682Y-80693975D01*
X145585012Y-80651311D01*
X145654626Y-80645332D01*
X145716421Y-80677938D01*
X145730315Y-80693973D01*
X145790586Y-80776928D01*
X145913072Y-80899414D01*
X146053212Y-81001232D01*
X146207555Y-81079873D01*
X146372299Y-81133402D01*
X146543389Y-81160500D01*
X146543390Y-81160500D01*
X146716610Y-81160500D01*
X146716611Y-81160500D01*
X146887701Y-81133402D01*
X147052445Y-81079873D01*
X147206788Y-81001232D01*
X147346928Y-80899414D01*
X147469414Y-80776928D01*
X147529682Y-80693975D01*
X147585012Y-80651311D01*
X147654626Y-80645332D01*
X147716421Y-80677938D01*
X147730315Y-80693973D01*
X147790586Y-80776928D01*
X147913072Y-80899414D01*
X148053212Y-81001232D01*
X148207555Y-81079873D01*
X148372299Y-81133402D01*
X148543389Y-81160500D01*
X148543390Y-81160500D01*
X148716610Y-81160500D01*
X148716611Y-81160500D01*
X148887701Y-81133402D01*
X149052445Y-81079873D01*
X149206788Y-81001232D01*
X149346928Y-80899414D01*
X149469414Y-80776928D01*
X149571232Y-80636788D01*
X149649873Y-80482445D01*
X149703402Y-80317701D01*
X149730500Y-80146611D01*
X149730500Y-79373389D01*
X149703402Y-79202299D01*
X149649873Y-79037555D01*
X149571232Y-78883212D01*
X149469414Y-78743072D01*
X149346928Y-78620586D01*
X149206788Y-78518768D01*
X149052445Y-78440127D01*
X148887701Y-78386598D01*
X148887699Y-78386597D01*
X148887698Y-78386597D01*
X148756271Y-78365781D01*
X148716611Y-78359500D01*
X148543389Y-78359500D01*
X148503728Y-78365781D01*
X148372302Y-78386597D01*
X148207552Y-78440128D01*
X148053211Y-78518768D01*
X147973256Y-78576859D01*
X147913072Y-78620586D01*
X147913070Y-78620588D01*
X147913069Y-78620588D01*
X147790588Y-78743069D01*
X147790581Y-78743078D01*
X147730317Y-78826023D01*
X147674987Y-78868689D01*
X147605374Y-78874667D01*
X147543579Y-78842061D01*
X147529683Y-78826023D01*
X147469418Y-78743078D01*
X147469414Y-78743072D01*
X147346928Y-78620586D01*
X147206788Y-78518768D01*
X147052445Y-78440127D01*
X146887701Y-78386598D01*
X146887699Y-78386597D01*
X146887698Y-78386597D01*
X146756271Y-78365781D01*
X146716611Y-78359500D01*
X146543389Y-78359500D01*
X146503728Y-78365781D01*
X146372302Y-78386597D01*
X146207552Y-78440128D01*
X146053211Y-78518768D01*
X145973256Y-78576859D01*
X145913072Y-78620586D01*
X145913070Y-78620588D01*
X145913069Y-78620588D01*
X145790588Y-78743069D01*
X145790581Y-78743078D01*
X145730317Y-78826023D01*
X145674987Y-78868689D01*
X145605374Y-78874667D01*
X145543579Y-78842061D01*
X145529683Y-78826023D01*
X145469418Y-78743078D01*
X145469414Y-78743072D01*
X145346928Y-78620586D01*
X145206788Y-78518768D01*
X145052445Y-78440127D01*
X144887701Y-78386598D01*
X144887699Y-78386597D01*
X144887698Y-78386597D01*
X144756271Y-78365781D01*
X144716611Y-78359500D01*
X144543389Y-78359500D01*
X144503728Y-78365781D01*
X144372302Y-78386597D01*
X144207552Y-78440128D01*
X144053211Y-78518768D01*
X143973256Y-78576859D01*
X143913072Y-78620586D01*
X143913070Y-78620588D01*
X143913069Y-78620588D01*
X143790588Y-78743069D01*
X143790581Y-78743078D01*
X143730317Y-78826023D01*
X143674987Y-78868689D01*
X143605374Y-78874667D01*
X143543579Y-78842061D01*
X143529683Y-78826023D01*
X143469418Y-78743078D01*
X143469414Y-78743072D01*
X143346928Y-78620586D01*
X143206788Y-78518768D01*
X143052445Y-78440127D01*
X142887701Y-78386598D01*
X142887699Y-78386597D01*
X142887698Y-78386597D01*
X142756271Y-78365781D01*
X142716611Y-78359500D01*
X142543389Y-78359500D01*
X142503728Y-78365781D01*
X142372302Y-78386597D01*
X142207552Y-78440128D01*
X142053211Y-78518768D01*
X141973256Y-78576859D01*
X141913072Y-78620586D01*
X141913070Y-78620588D01*
X141913069Y-78620588D01*
X141790585Y-78743072D01*
X141730007Y-78826450D01*
X141674677Y-78869115D01*
X141605063Y-78875093D01*
X141543269Y-78842486D01*
X141529371Y-78826447D01*
X141469036Y-78743401D01*
X141346602Y-78620967D01*
X141206524Y-78519195D01*
X141052257Y-78440591D01*
X140887589Y-78387087D01*
X140887581Y-78387085D01*
X140880000Y-78385884D01*
X140880000Y-79444314D01*
X140875606Y-79439920D01*
X140784394Y-79387259D01*
X140682661Y-79360000D01*
X140577339Y-79360000D01*
X140475606Y-79387259D01*
X140384394Y-79439920D01*
X140380000Y-79444314D01*
X140380000Y-78385884D01*
X140379999Y-78385884D01*
X140372418Y-78387085D01*
X140372410Y-78387087D01*
X140207742Y-78440591D01*
X140053475Y-78519195D01*
X139913401Y-78620964D01*
X139805799Y-78728566D01*
X139744476Y-78762050D01*
X139674784Y-78757066D01*
X139618851Y-78715194D01*
X139612585Y-78705988D01*
X139572712Y-78641344D01*
X139448656Y-78517288D01*
X139323559Y-78440128D01*
X139299336Y-78425187D01*
X139299331Y-78425185D01*
X139297862Y-78424698D01*
X139132797Y-78370001D01*
X139132795Y-78370000D01*
X139030010Y-78359500D01*
X138229998Y-78359500D01*
X138229980Y-78359501D01*
X138127203Y-78370000D01*
X138127200Y-78370001D01*
X137960668Y-78425185D01*
X137960663Y-78425187D01*
X137811342Y-78517289D01*
X137687289Y-78641342D01*
X137595187Y-78790663D01*
X137595185Y-78790668D01*
X137569332Y-78868689D01*
X137540001Y-78957203D01*
X137540001Y-78957204D01*
X137540000Y-78957204D01*
X137529500Y-79059983D01*
X136100500Y-79059983D01*
X136100500Y-77844500D01*
X136120185Y-77777461D01*
X136172989Y-77731706D01*
X136224500Y-77720500D01*
X150975500Y-77720500D01*
X151042539Y-77740185D01*
G37*
%TD.AperFunction*%
%TD*%
M02*
