%TF.GenerationSoftware,KiCad,Pcbnew,10.0.1*%
%TF.CreationDate,2026-07-07T15:10:34+02:00*%
%TF.ProjectId,star-d_power,73746172-2d64-45f7-906f-7765722e6b69,rev?*%
%TF.SameCoordinates,Original*%
%TF.FileFunction,Soldermask,Bot*%
%TF.FilePolarity,Negative*%
%FSLAX46Y46*%
G04 Gerber Fmt 4.6, Leading zero omitted, Abs format (unit mm)*
G04 Created by KiCad (PCBNEW 10.0.1) date 2026-07-07 15:10:34*
%MOMM*%
%LPD*%
G01*
G04 APERTURE LIST*
G04 Aperture macros list*
%AMRoundRect*
0 Rectangle with rounded corners*
0 $1 Rounding radius*
0 $2 $3 $4 $5 $6 $7 $8 $9 X,Y pos of 4 corners*
0 Add a 4 corners polygon primitive as box body*
4,1,4,$2,$3,$4,$5,$6,$7,$8,$9,$2,$3,0*
0 Add four circle primitives for the rounded corners*
1,1,$1+$1,$2,$3*
1,1,$1+$1,$4,$5*
1,1,$1+$1,$6,$7*
1,1,$1+$1,$8,$9*
0 Add four rect primitives between the rounded corners*
20,1,$1+$1,$2,$3,$4,$5,0*
20,1,$1+$1,$4,$5,$6,$7,0*
20,1,$1+$1,$6,$7,$8,$9,0*
20,1,$1+$1,$8,$9,$2,$3,0*%
G04 Aperture macros list end*
%ADD10O,1.500000X2.020000*%
%ADD11RoundRect,0.250001X-0.499999X-0.759999X0.499999X-0.759999X0.499999X0.759999X-0.499999X0.759999X0*%
%ADD12C,3.000000*%
%ADD13O,2.020000X1.500000*%
%ADD14RoundRect,0.250001X-0.759999X0.499999X-0.759999X-0.499999X0.759999X-0.499999X0.759999X0.499999X0*%
%ADD15RoundRect,0.250001X0.499999X0.759999X-0.499999X0.759999X-0.499999X-0.759999X0.499999X-0.759999X0*%
%ADD16C,4.420000*%
%ADD17C,1.612000*%
%ADD18RoundRect,0.102000X-0.704000X0.704000X-0.704000X-0.704000X0.704000X-0.704000X0.704000X0.704000X0*%
%ADD19RoundRect,0.102000X-0.704000X-0.704000X0.704000X-0.704000X0.704000X0.704000X-0.704000X0.704000X0*%
%ADD20C,4.000000*%
%ADD21RoundRect,0.250000X-0.550000X0.550000X-0.550000X-0.550000X0.550000X-0.550000X0.550000X0.550000X0*%
%ADD22C,1.600000*%
%ADD23C,4.300000*%
G04 APERTURE END LIST*
D10*
%TO.C,J1*%
X138500000Y-59565000D03*
D11*
X135500000Y-59565000D03*
D12*
X137000000Y-55245000D03*
%TD*%
D13*
%TO.C,J2*%
X170330000Y-102550000D03*
D14*
X170330000Y-99550000D03*
D12*
X174650000Y-101050000D03*
%TD*%
D10*
%TO.C,J3*%
X141400000Y-140280000D03*
D15*
X144400000Y-140280000D03*
D12*
X142900000Y-144600000D03*
%TD*%
D16*
%TO.C,J4*%
X89505936Y-118488904D03*
X89505936Y-85168904D03*
D17*
X88085936Y-110048904D03*
X88085936Y-107308904D03*
X88085936Y-104568904D03*
X88085936Y-101828904D03*
X88085936Y-99088904D03*
X88085936Y-96348904D03*
X88085936Y-93608904D03*
X90925936Y-111418904D03*
X90925936Y-108678904D03*
X90925936Y-105938904D03*
X90925936Y-103198904D03*
X90925936Y-100458904D03*
X90925936Y-97718904D03*
X90925936Y-94978904D03*
D18*
X90925936Y-92238904D03*
%TD*%
D16*
%TO.C,J5*%
X130405159Y-140466542D03*
X97085159Y-140466542D03*
D17*
X105525159Y-141886542D03*
X108265159Y-141886542D03*
X111005159Y-141886542D03*
X113745159Y-141886542D03*
X116485159Y-141886542D03*
X119225159Y-141886542D03*
X121965159Y-141886542D03*
X104155159Y-139046542D03*
X106895159Y-139046542D03*
X109635159Y-139046542D03*
X112375159Y-139046542D03*
X115115159Y-139046542D03*
X117855159Y-139046542D03*
X120595159Y-139046542D03*
D19*
X123335159Y-139046542D03*
%TD*%
D20*
%TO.C,TP4*%
X162500000Y-60000000D03*
%TD*%
D21*
%TO.C,U3*%
X113067491Y-125324874D03*
D22*
X110527491Y-125324874D03*
X110527491Y-135484874D03*
X113067491Y-135484874D03*
%TD*%
D21*
%TO.C,U1*%
X124647491Y-125324874D03*
D22*
X122107491Y-125324874D03*
X122107491Y-135484874D03*
X124647491Y-135484874D03*
%TD*%
D21*
%TO.C,U2*%
X118857232Y-125317891D03*
D22*
X116317232Y-125317891D03*
X116317232Y-135477891D03*
X118857232Y-135477891D03*
%TD*%
D23*
%TO.C,REF\u002A\u002A3*%
X172000000Y-142000000D03*
%TD*%
%TO.C,REF\u002A\u002A*%
X88000000Y-58000000D03*
%TD*%
%TO.C,REF\u002A\u002A*%
X130000000Y-82000000D03*
%TD*%
%TO.C,REF\u002A\u002A2*%
X88000000Y-142000000D03*
%TD*%
%TO.C,REF\u002A\u002A1*%
X172000000Y-58000000D03*
%TD*%
M02*
