M48
; DRILL file KiCad 10.0.1 date 2026-07-07T15:10:34
; FORMAT={-:-/ absolute / inch / decimal}
; #@! TF.CreationDate,2026-07-07T15:10:34+02:00
; #@! TF.GenerationSoftware,Kicad,Pcbnew,10.0.1
; #@! TF.FileFunction,Plated,1,4,PTH
FMAT,2
INCH
; #@! TA.AperFunction,Plated,PTH,ViaDrill
T1C0.0079
; #@! TA.AperFunction,Plated,PTH,ViaDrill
T2C0.0118
; #@! TA.AperFunction,Plated,PTH,ComponentDrill
T3C0.0315
; #@! TA.AperFunction,Plated,PTH,ComponentDrill
T4C0.0354
; #@! TA.AperFunction,Plated,PTH,ComponentDrill
T5C0.0402
; #@! TA.AperFunction,Plated,PTH,ComponentDrill
T6C0.1181
; #@! TA.AperFunction,Plated,PTH,ComponentDrill
T7C0.1260
%
G90
G05
T1
X3.7716Y-4.4318
X3.7716Y-4.5144
X3.7717Y-4.1689
X3.7717Y-4.2575
X3.7717Y-4.3441
X4.437Y-2.9434
X4.6142Y-3.0276
X6.2165Y-3.0157
X6.2987Y-2.8504
X6.5787Y-4.5335
X6.752Y-4.6127
T2
X4.2224Y-2.2343
X4.2224Y-2.2736
X4.2224Y-2.313
X4.2618Y-2.2343
X4.2618Y-2.2736
X4.2618Y-2.313
X4.2717Y-2.8248
X4.2717Y-2.9528
X4.3012Y-2.2343
X4.3012Y-2.2736
X4.3012Y-2.313
X4.3406Y-2.2343
X4.3406Y-2.2736
X4.3406Y-2.313
X4.3799Y-2.2343
X4.3799Y-2.2736
X4.3799Y-2.313
X4.3892Y-4.2804
X4.3898Y-4.439
X4.4193Y-2.2343
X4.4193Y-2.2736
X4.4193Y-2.313
X4.4286Y-4.2804
X4.4291Y-4.439
X4.4488Y-2.7953
X4.4488Y-2.8248
X4.4587Y-2.2343
X4.4587Y-2.2736
X4.4587Y-2.313
X4.4587Y-3.1791
X4.468Y-4.2804
X4.4685Y-4.439
X4.4783Y-2.7953
X4.498Y-2.2343
X4.498Y-2.2736
X4.498Y-2.313
X4.5073Y-4.2804
X4.5079Y-4.439
X4.5175Y-2.7657
X4.5276Y-3.1791
X4.5374Y-2.2343
X4.5374Y-2.2736
X4.5374Y-2.313
X4.5467Y-4.2804
X4.5472Y-2.7657
X4.5472Y-2.7953
X4.5472Y-4.439
X4.5768Y-2.2343
X4.5768Y-2.2736
X4.5768Y-2.313
X4.5768Y-2.7657
X4.5768Y-2.7953
X4.5866Y-4.2813
X4.5866Y-3.2972
X4.5866Y-4.439
X4.6063Y-2.7657
X4.6161Y-2.2343
X4.6161Y-2.2736
X4.6161Y-2.313
X4.6161Y-3.1201
X4.626Y-4.2815
X4.626Y-4.439
X4.6457Y-2.7953
X4.6555Y-2.2343
X4.6555Y-2.2736
X4.6555Y-2.313
X4.6654Y-4.2804
X4.6659Y-4.439
X4.6752Y-2.7953
X4.6752Y-2.8248
X4.6949Y-2.2343
X4.6949Y-2.2736
X4.6949Y-2.313
X4.7244Y-2.5984
X4.7244Y-2.6378
X4.7244Y-2.6772
X4.7244Y-2.7165
X4.7343Y-2.2343
X4.7343Y-2.2736
X4.7343Y-2.313
X4.7638Y-2.5984
X4.7638Y-2.6378
X4.7638Y-2.6772
X4.7638Y-2.7165
X4.7736Y-2.2343
X4.7736Y-2.2736
X4.7736Y-2.313
X4.8031Y-2.5984
X4.8031Y-2.6378
X4.8031Y-2.6772
X4.8031Y-2.7165
X4.8031Y-2.9429
X4.813Y-2.2343
X4.813Y-2.2736
X4.813Y-2.313
X4.8425Y-2.5984
X4.8425Y-2.6378
X4.8425Y-2.6772
X4.8425Y-2.7165
X4.8425Y-2.9429
X4.8425Y-2.9823
X4.8524Y-2.2343
X4.8524Y-2.2736
X4.8524Y-2.313
X4.8819Y-2.5984
X4.8819Y-2.6378
X4.8819Y-2.6772
X4.8819Y-2.7165
X4.8819Y-2.9429
X4.8819Y-2.9823
X4.8917Y-2.2343
X4.8917Y-2.2736
X4.8917Y-2.313
X4.9213Y-2.5984
X4.9213Y-2.6378
X4.9213Y-2.6772
X4.9213Y-2.7165
X4.9213Y-2.9429
X4.9213Y-2.9823
X4.9213Y-4.2421
X4.9213Y-4.2815
X4.9213Y-4.439
X4.9213Y-4.4783
X4.9311Y-2.2343
X4.9311Y-2.2736
X4.9311Y-2.313
X4.9606Y-2.5984
X4.9606Y-2.6378
X4.9606Y-2.6772
X4.9606Y-2.7165
X4.9606Y-2.9429
X4.9606Y-2.9823
X4.9606Y-4.2421
X4.9606Y-4.2815
X4.9606Y-4.439
X4.9606Y-4.4783
X4.9705Y-2.2343
X4.9705Y-2.2736
X4.9705Y-2.313
X5.0Y-2.5984
X5.0Y-2.6378
X5.0Y-2.6772
X5.0Y-2.7165
X5.0Y-2.9429
X5.0Y-2.9823
X5.0Y-4.2421
X5.0Y-4.2815
X5.0Y-4.439
X5.0Y-4.4783
X5.0098Y-2.2343
X5.0098Y-2.2736
X5.0098Y-2.313
X5.0394Y-2.5984
X5.0394Y-2.6378
X5.0394Y-2.6772
X5.0394Y-2.7165
X5.0394Y-2.9429
X5.0394Y-2.9823
X5.0394Y-4.2421
X5.0394Y-4.2815
X5.0394Y-4.439
X5.0394Y-4.4783
X5.0492Y-2.2343
X5.0492Y-2.2736
X5.0492Y-2.313
X5.0787Y-2.5984
X5.0787Y-2.6378
X5.0787Y-2.6772
X5.0787Y-2.7165
X5.0787Y-2.9429
X5.0787Y-2.9823
X5.0886Y-2.2343
X5.0886Y-2.2736
X5.0886Y-2.313
X5.1181Y-2.5984
X5.1181Y-2.6378
X5.1181Y-2.6772
X5.1181Y-2.7165
X5.1181Y-2.9429
X5.1181Y-2.9823
X5.128Y-2.2343
X5.128Y-2.2736
X5.128Y-2.313
X5.1575Y-2.5984
X5.1575Y-2.6378
X5.1575Y-2.6772
X5.1575Y-2.7165
X5.1575Y-2.9429
X5.1575Y-2.9823
X5.1673Y-2.2343
X5.1673Y-2.2736
X5.1673Y-2.313
X5.1969Y-2.9429
X5.1969Y-2.9823
X5.2046Y-5.1923
X5.2067Y-2.2343
X5.2067Y-2.2736
X5.2067Y-2.313
X5.3386Y-4.7717
X5.4724Y-5.124
X5.4724Y-5.1634
X5.4728Y-5.2034
X5.4728Y-5.2428
X5.4728Y-5.2822
X5.4728Y-5.3216
X5.4728Y-5.3609
X5.4728Y-5.4003
X5.4728Y-5.4397
X5.4803Y-4.937
X5.502Y-4.7913
X5.5118Y-5.124
X5.5118Y-5.1634
X5.5131Y-5.2035
X5.5131Y-5.2428
X5.5131Y-5.2822
X5.5131Y-5.3216
X5.5131Y-5.3609
X5.5131Y-5.4003
X5.5131Y-5.4397
X5.5492Y-4.8445
X5.5512Y-5.124
X5.5512Y-5.1634
X5.5525Y-5.2035
X5.5525Y-5.2428
X5.5525Y-5.2822
X5.5525Y-5.3216
X5.5525Y-5.3609
X5.5525Y-5.4003
X5.5525Y-5.4397
X5.565Y-5.0118
X5.5906Y-5.124
X5.5906Y-5.1634
X5.6299Y-5.124
X5.6299Y-5.1634
X5.6693Y-5.124
X5.6693Y-5.1634
X5.7087Y-5.124
X5.7087Y-5.1634
X5.748Y-4.8524
X5.748Y-4.8917
X5.7874Y-4.6063
X5.7874Y-4.8524
X5.7874Y-4.8917
X5.8071Y-5.2264
X5.8071Y-5.2657
X5.8268Y-4.5669
X5.8268Y-4.6063
X5.8268Y-4.8524
X5.8268Y-4.8917
X5.8465Y-5.2264
X5.8465Y-5.2657
X5.8661Y-3.9173
X5.8661Y-3.9567
X5.8661Y-3.9961
X5.8661Y-4.0354
X5.8661Y-4.0748
X5.8661Y-4.1142
X5.8661Y-4.1535
X5.8661Y-4.5669
X5.8661Y-4.6063
X5.8661Y-4.8524
X5.8661Y-4.8917
X5.8858Y-5.2264
X5.8858Y-5.2657
X5.9055Y-3.9173
X5.9055Y-3.9567
X5.9055Y-3.9961
X5.9055Y-4.0354
X5.9055Y-4.0748
X5.9055Y-4.1142
X5.9055Y-4.1535
X5.9055Y-4.5669
X5.9055Y-4.6063
X5.9055Y-4.8524
X5.9055Y-4.8917
X5.9252Y-5.2264
X5.9252Y-5.2657
X5.9449Y-4.5669
X5.9449Y-4.6063
X5.9449Y-4.8524
X5.9449Y-4.8917
X5.9646Y-5.2264
X5.9646Y-5.2657
X5.9744Y-3.002
X5.9843Y-4.5669
X5.9843Y-4.6063
X5.9843Y-4.8524
X5.9843Y-4.8917
X6.0039Y-5.2264
X6.0039Y-5.2657
X6.0236Y-4.5669
X6.0236Y-4.6063
X6.0236Y-4.8524
X6.0236Y-4.8917
X6.0433Y-5.2264
X6.0433Y-5.2657
X6.063Y-2.8642
X6.063Y-2.9232
X6.063Y-4.5669
X6.063Y-4.6063
X6.063Y-4.8524
X6.063Y-4.8917
X6.0827Y-5.2264
X6.0827Y-5.2657
X6.1024Y-4.5669
X6.1024Y-4.6063
X6.1024Y-4.8524
X6.1024Y-4.8917
X6.122Y-3.0315
X6.122Y-5.2264
X6.122Y-5.2657
X6.1417Y-4.5669
X6.1417Y-4.6063
X6.1417Y-4.8524
X6.1417Y-4.8917
X6.1614Y-5.2264
X6.1614Y-5.2657
X6.1811Y-4.5669
X6.1811Y-4.6063
X6.1811Y-4.8524
X6.1811Y-4.8917
X6.2008Y-5.2264
X6.2008Y-5.2657
X6.2205Y-4.5669
X6.2205Y-4.6063
X6.2205Y-4.8524
X6.2205Y-4.8917
X6.2402Y-5.2264
X6.2402Y-5.2657
X6.2598Y-3.2283
X6.2598Y-3.2677
X6.2598Y-3.3071
X6.2598Y-3.3465
X6.2598Y-3.3858
X6.2598Y-3.4252
X6.2598Y-3.4646
X6.2598Y-3.5039
X6.2598Y-3.5433
X6.2598Y-3.5827
X6.2598Y-3.622
X6.2598Y-3.6614
X6.2598Y-3.7008
X6.2598Y-4.5669
X6.2598Y-4.6063
X6.2598Y-4.8524
X6.2598Y-4.8917
X6.2795Y-5.2264
X6.2795Y-5.2657
X6.2992Y-2.6772
X6.2992Y-3.189
X6.2992Y-3.2283
X6.2992Y-3.2677
X6.2992Y-3.3071
X6.2992Y-3.3465
X6.2992Y-3.3858
X6.2992Y-3.4252
X6.2992Y-3.4646
X6.2992Y-3.5039
X6.2992Y-3.5433
X6.2992Y-3.5827
X6.2992Y-3.622
X6.2992Y-3.6614
X6.2992Y-3.7008
X6.2992Y-4.5669
X6.2992Y-4.6063
X6.2992Y-4.8524
X6.2992Y-4.8917
X6.3189Y-5.2264
X6.3189Y-5.2657
X6.3386Y-4.5669
X6.3386Y-4.6063
X6.3386Y-4.8524
X6.3386Y-4.8917
X6.3583Y-5.2264
X6.3583Y-5.2657
X6.378Y-4.6063
X6.378Y-4.8524
X6.378Y-4.8917
X6.3976Y-5.2264
X6.3976Y-5.2657
X6.4173Y-2.6772
X6.4173Y-2.8543
X6.4173Y-3.0807
X6.4173Y-4.8524
X6.4173Y-4.8917
X6.437Y-5.2264
X6.437Y-5.2657
X6.4469Y-2.8543
X6.4469Y-2.8839
X6.4469Y-2.9528
X6.4469Y-2.9823
X6.4469Y-3.0512
X6.4469Y-3.0807
X6.4567Y-4.8524
X6.4567Y-4.8917
X6.4764Y-2.9232
X6.4764Y-2.9528
X6.4764Y-2.9823
X6.4764Y-3.0118
X6.4764Y-5.2264
X6.4764Y-5.2657
X6.5157Y-4.7343
X6.5157Y-4.7638
X6.5157Y-5.2264
X6.5157Y-5.2657
X6.5354Y-3.1299
X6.5354Y-3.1693
X6.5354Y-3.2087
X6.5354Y-3.248
X6.5354Y-3.2874
X6.5354Y-3.3268
X6.5354Y-3.3661
X6.5354Y-3.4055
X6.5354Y-3.4449
X6.5354Y-3.4843
X6.5354Y-3.5236
X6.5354Y-3.563
X6.5453Y-4.439
X6.5453Y-4.7638
X6.5551Y-5.2264
X6.5551Y-5.2657
X6.5748Y-3.1299
X6.5748Y-3.1693
X6.5748Y-3.2087
X6.5748Y-3.248
X6.5748Y-3.2874
X6.5748Y-3.3268
X6.5748Y-3.3661
X6.5748Y-3.4055
X6.5748Y-3.4449
X6.5748Y-3.4843
X6.5748Y-3.5236
X6.5748Y-3.563
X6.5846Y-4.7933
X6.5945Y-4.311
X6.5945Y-5.2264
X6.5945Y-5.2657
X6.6142Y-3.1299
X6.6142Y-3.1693
X6.6142Y-3.2087
X6.6142Y-3.248
X6.6142Y-3.2874
X6.6142Y-3.3268
X6.6142Y-3.3661
X6.6142Y-3.4055
X6.6142Y-3.4449
X6.6142Y-3.4843
X6.6142Y-3.5236
X6.6142Y-3.563
X6.6142Y-4.7638
X6.6142Y-4.7933
X6.6339Y-5.2264
X6.6339Y-5.2657
X6.6437Y-4.7638
X6.6437Y-4.7933
X6.6535Y-3.1299
X6.6535Y-3.1693
X6.6535Y-3.2087
X6.6535Y-3.248
X6.6535Y-3.2874
X6.6535Y-3.3268
X6.6535Y-3.3661
X6.6535Y-3.4055
X6.6535Y-3.4449
X6.6535Y-3.4843
X6.6535Y-3.5236
X6.6535Y-3.563
X6.6634Y-4.3799
X6.6732Y-4.7933
X6.6732Y-5.2264
X6.6732Y-5.2657
X6.7126Y-4.7638
X6.7138Y-5.2279
X6.7138Y-5.2672
X6.7323Y-4.3799
X6.7421Y-4.7343
X6.7421Y-4.7638
X6.7532Y-5.2279
X6.7532Y-5.2672
X6.7926Y-5.2279
X6.7926Y-5.2672
X6.8319Y-5.2279
X6.8319Y-5.2672
X6.8713Y-5.2279
X6.8713Y-5.2672
X6.9094Y-2.6378
X6.9094Y-2.6772
X6.9094Y-2.7165
X6.9094Y-2.7559
X6.9094Y-2.7953
X6.9094Y-2.8346
X6.9094Y-2.874
X6.9094Y-2.9134
X6.9094Y-2.9528
X6.9094Y-2.9921
X6.9094Y-3.0315
X6.9094Y-3.0709
X6.9094Y-3.1102
X6.9094Y-3.1496
X6.9094Y-3.189
X6.9094Y-3.2283
X6.9094Y-3.2677
X6.9094Y-3.3071
X6.9094Y-3.3465
X6.9094Y-3.3858
X6.9094Y-3.4252
X6.9094Y-3.4646
X6.9094Y-3.5039
X6.9094Y-3.5433
X6.9094Y-3.5827
X6.9094Y-3.622
X6.9094Y-3.6614
X6.9094Y-3.7008
X6.9094Y-3.7402
X6.9094Y-3.7795
X6.9094Y-3.8189
X6.9094Y-3.8583
X6.9094Y-4.0945
X6.9094Y-4.1339
X6.9107Y-5.2279
X6.9107Y-5.2672
X6.9193Y-4.6161
X6.9193Y-4.7441
X6.9488Y-2.6378
X6.9488Y-2.6772
X6.9488Y-2.7165
X6.9488Y-2.7559
X6.9488Y-2.7953
X6.9488Y-2.8346
X6.9488Y-2.874
X6.9488Y-2.9134
X6.9488Y-2.9528
X6.9488Y-2.9921
X6.9488Y-3.0315
X6.9488Y-3.0709
X6.9488Y-3.1102
X6.9488Y-3.1496
X6.9488Y-3.189
X6.9488Y-3.2283
X6.9488Y-3.2677
X6.9488Y-3.3071
X6.9488Y-3.3465
X6.9488Y-3.3858
X6.9488Y-3.4252
X6.9488Y-3.4646
X6.9488Y-3.5039
X6.9488Y-3.5433
X6.9488Y-3.5827
X6.9488Y-3.622
X6.9488Y-3.6614
X6.9488Y-3.7008
X6.9488Y-3.7402
X6.9488Y-3.7795
X6.9488Y-3.8189
X6.9488Y-3.8583
X6.9488Y-3.8976
X6.9488Y-4.0551
X6.9488Y-4.0945
X6.9488Y-4.1339
X6.9501Y-5.2279
X6.9501Y-5.2672
X6.9882Y-2.6378
X6.9882Y-2.6772
X6.9882Y-2.7165
X6.9882Y-2.7559
X6.9882Y-2.7953
X6.9882Y-2.8346
X6.9882Y-2.874
X6.9882Y-2.9134
X6.9882Y-2.9528
X6.9882Y-2.9921
X6.9882Y-3.0315
X6.9882Y-3.0709
X6.9882Y-3.1102
X6.9882Y-3.1496
X6.9882Y-3.189
X6.9882Y-3.2283
X6.9882Y-3.2677
X6.9882Y-3.3071
X6.9882Y-3.3465
X6.9882Y-3.3858
X6.9882Y-3.4252
X6.9882Y-3.4646
X6.9882Y-3.5039
X6.9882Y-3.5433
X6.9882Y-3.5827
X6.9882Y-3.622
X6.9882Y-3.6614
X6.9882Y-3.7008
X6.9882Y-3.7402
X6.9882Y-3.7795
X6.9882Y-3.8189
X6.9882Y-3.8583
X6.9882Y-3.8976
X6.9882Y-3.937
X6.9882Y-3.9764
X6.9882Y-4.0157
X6.9882Y-4.0551
X6.9882Y-4.0945
X6.9882Y-4.1339
T3
X4.3515Y-4.9341
X4.3515Y-5.3341
X4.4515Y-4.9341
X4.4515Y-5.3341
X4.5794Y-4.9338
X4.5794Y-5.3338
X4.6794Y-4.9338
X4.6794Y-5.3338
X4.8074Y-4.9341
X4.8074Y-5.3341
X4.9074Y-4.9341
X4.9074Y-5.3341
T4
X3.468Y-3.6854
X3.468Y-3.7933
X3.468Y-3.9011
X3.468Y-4.009
X3.468Y-4.1169
X3.468Y-4.2248
X3.468Y-4.3326
X3.5798Y-3.6315
X3.5798Y-3.7393
X3.5798Y-3.8472
X3.5798Y-3.9551
X3.5798Y-4.0629
X3.5798Y-4.1708
X3.5798Y-4.2787
X3.5798Y-4.3866
X4.1006Y-5.4743
X4.1545Y-5.5861
X4.2085Y-5.4743
X4.2624Y-5.5861
X4.3163Y-5.4743
X4.3703Y-5.5861
X4.4242Y-5.4743
X4.4782Y-5.5861
X4.5321Y-5.4743
X4.586Y-5.5861
X4.64Y-5.4743
X4.6939Y-5.5861
X4.7478Y-5.4743
X4.8018Y-5.5861
X4.8557Y-5.4743
T5
X5.3346Y-2.3451
X5.4528Y-2.3451
X5.5669Y-5.5228
X5.685Y-5.5228
X6.7059Y-3.9193
X6.7059Y-4.0374
T6
X6.3976Y-2.3622
T7
X3.5239Y-3.3531
X3.5239Y-4.6649
X3.8223Y-5.5302
X5.1341Y-5.5302
M30
