%TF.GenerationSoftware,KiCad,Pcbnew,10.0.1*%
%TF.CreationDate,2026-07-07T15:10:34+02:00*%
%TF.ProjectId,star-d_power,73746172-2d64-45f7-906f-7765722e6b69,rev?*%
%TF.SameCoordinates,Original*%
%TF.FileFunction,Paste,Top*%
%TF.FilePolarity,Positive*%
%FSLAX46Y46*%
G04 Gerber Fmt 4.6, Leading zero omitted, Abs format (unit mm)*
G04 Created by KiCad (PCBNEW 10.0.1) date 2026-07-07 15:10:34*
%MOMM*%
%LPD*%
G01*
G04 APERTURE LIST*
G04 Aperture macros list*
%AMRoundRect*
0 Rectangle with rounded corners*
0 $1 Rounding radius*
0 $2 $3 $4 $5 $6 $7 $8 $9 X,Y pos of 4 corners*
0 Add a 4 corners polygon primitive as box body*
4,1,4,$2,$3,$4,$5,$6,$7,$8,$9,$2,$3,0*
0 Add four circle primitives for the rounded corners*
1,1,$1+$1,$2,$3*
1,1,$1+$1,$4,$5*
1,1,$1+$1,$6,$7*
1,1,$1+$1,$8,$9*
0 Add four rect primitives between the rounded corners*
20,1,$1+$1,$2,$3,$4,$5,0*
20,1,$1+$1,$4,$5,$6,$7,0*
20,1,$1+$1,$6,$7,$8,$9,0*
20,1,$1+$1,$8,$9,$2,$3,0*%
G04 Aperture macros list end*
%ADD10R,0.300000X0.875000*%
%ADD11R,0.300000X0.975000*%
%ADD12R,0.500000X0.975000*%
%ADD13R,0.400000X1.450000*%
%ADD14R,1.725000X0.350000*%
%ADD15R,0.450000X0.500000*%
%ADD16R,1.025000X0.300000*%
%ADD17R,1.025000X0.450000*%
%ADD18R,0.365000X1.600000*%
%ADD19R,0.475000X0.350000*%
%ADD20RoundRect,0.200000X0.200000X0.275000X-0.200000X0.275000X-0.200000X-0.275000X0.200000X-0.275000X0*%
%ADD21RoundRect,0.250000X-0.325000X-0.650000X0.325000X-0.650000X0.325000X0.650000X-0.325000X0.650000X0*%
%ADD22R,2.380000X8.500000*%
%ADD23RoundRect,0.200000X-0.200000X-0.275000X0.200000X-0.275000X0.200000X0.275000X-0.200000X0.275000X0*%
%ADD24RoundRect,0.225000X0.250000X-0.225000X0.250000X0.225000X-0.250000X0.225000X-0.250000X-0.225000X0*%
%ADD25RoundRect,0.250000X-0.650000X0.325000X-0.650000X-0.325000X0.650000X-0.325000X0.650000X0.325000X0*%
%ADD26RoundRect,0.200000X0.275000X-0.200000X0.275000X0.200000X-0.275000X0.200000X-0.275000X-0.200000X0*%
%ADD27R,0.600000X0.600000*%
%ADD28R,0.400000X0.400000*%
%ADD29O,7.620000X2.030000*%
%ADD30RoundRect,0.200000X-0.275000X0.200000X-0.275000X-0.200000X0.275000X-0.200000X0.275000X0.200000X0*%
%ADD31RoundRect,0.250000X0.650000X-0.325000X0.650000X0.325000X-0.650000X0.325000X-0.650000X-0.325000X0*%
%ADD32RoundRect,0.250000X-0.325000X-1.100000X0.325000X-1.100000X0.325000X1.100000X-0.325000X1.100000X0*%
%ADD33RoundRect,0.250000X1.100000X-0.325000X1.100000X0.325000X-1.100000X0.325000X-1.100000X-0.325000X0*%
%ADD34RoundRect,0.225000X-0.225000X-0.250000X0.225000X-0.250000X0.225000X0.250000X-0.225000X0.250000X0*%
%ADD35R,8.500000X2.380000*%
%ADD36RoundRect,0.225000X0.225000X0.250000X-0.225000X0.250000X-0.225000X-0.250000X0.225000X-0.250000X0*%
%ADD37RoundRect,0.218750X0.218750X0.256250X-0.218750X0.256250X-0.218750X-0.256250X0.218750X-0.256250X0*%
%ADD38R,0.875000X0.300000*%
%ADD39R,0.975000X0.300000*%
%ADD40R,0.975000X0.500000*%
%ADD41R,1.450000X0.400000*%
%ADD42R,0.350000X1.725000*%
%ADD43R,0.500000X0.450000*%
%ADD44R,0.300000X1.025000*%
%ADD45R,0.450000X1.025000*%
%ADD46R,1.600000X0.365000*%
%ADD47R,0.350000X0.475000*%
%ADD48RoundRect,0.225000X-0.250000X0.225000X-0.250000X-0.225000X0.250000X-0.225000X0.250000X0.225000X0*%
%ADD49RoundRect,0.218750X0.256250X-0.218750X0.256250X0.218750X-0.256250X0.218750X-0.256250X-0.218750X0*%
%ADD50R,6.300000X19.200000*%
%ADD51RoundRect,0.250000X-2.450000X0.650000X-2.450000X-0.650000X2.450000X-0.650000X2.450000X0.650000X0*%
%ADD52R,0.350000X0.500000*%
G04 APERTURE END LIST*
D10*
%TO.C,IC2*%
X160036572Y-77176000D03*
X160536572Y-77176000D03*
D11*
X161136572Y-77125000D03*
D12*
X161836572Y-77126000D03*
D13*
X162486572Y-76888000D03*
D14*
X162299572Y-75313000D03*
D13*
X162486572Y-73738000D03*
D12*
X161836572Y-73500000D03*
D11*
X161136572Y-73500000D03*
D10*
X160536572Y-73451000D03*
X160036572Y-73451000D03*
D15*
X159361572Y-73313000D03*
D16*
X159074572Y-74313000D03*
X159074572Y-74813000D03*
X159074572Y-75313000D03*
X159074572Y-75813000D03*
X159074572Y-76313000D03*
D17*
X159074572Y-76888000D03*
D18*
X160713572Y-75313000D03*
D15*
X159361572Y-77363000D03*
D19*
X162924572Y-76938000D03*
X162924572Y-76338000D03*
X162924572Y-74288000D03*
X162924572Y-73688000D03*
D17*
X159074572Y-73738000D03*
%TD*%
D20*
%TO.C,R3_2*%
X159925000Y-71000000D03*
X158275000Y-71000000D03*
%TD*%
D21*
%TO.C,C1_6*%
X161225000Y-80000000D03*
X164175000Y-80000000D03*
%TD*%
D22*
%TO.C,L1_2*%
X166350000Y-72750000D03*
X173000000Y-72750000D03*
%TD*%
D23*
%TO.C,RLED_2*%
X174025000Y-109500000D03*
X175675000Y-109500000D03*
%TD*%
D24*
%TO.C,C2_3*%
X169250000Y-113975000D03*
X169250000Y-112425000D03*
%TD*%
D25*
%TO.C,C1_16*%
X152950000Y-118475000D03*
X152950000Y-121425000D03*
%TD*%
D20*
%TO.C,RO3*%
X129647491Y-127084874D03*
X127997491Y-127084874D03*
%TD*%
D26*
%TO.C,R5_3*%
X171000000Y-114000000D03*
X171000000Y-112350000D03*
%TD*%
D20*
%TO.C,R5_2*%
X156675000Y-72750000D03*
X155025000Y-72750000D03*
%TD*%
D27*
%TO.C,CFT2*%
X95000000Y-107040618D03*
D28*
X95800000Y-106640618D03*
X95800000Y-107440618D03*
D27*
X96600000Y-107040618D03*
%TD*%
D29*
%TO.C,FL1*%
X114750000Y-93730000D03*
X126690000Y-93730000D03*
X114750000Y-110750000D03*
X126690000Y-110750000D03*
%TD*%
D20*
%TO.C,RO1*%
X129647491Y-125284874D03*
X127997491Y-125284874D03*
%TD*%
D30*
%TO.C,RLED_3*%
X141050000Y-64375000D03*
X141050000Y-66025000D03*
%TD*%
D31*
%TO.C,C1_2*%
X123200000Y-73525000D03*
X123200000Y-70575000D03*
%TD*%
%TO.C,CF1*%
X139250000Y-89525000D03*
X139250000Y-86575000D03*
%TD*%
D32*
%TO.C,C5_4*%
X170454411Y-80495337D03*
X173404411Y-80495337D03*
%TD*%
D33*
%TO.C,C5_1*%
X121000000Y-64575000D03*
X121000000Y-61625000D03*
%TD*%
D25*
%TO.C,C1_13*%
X160850000Y-118475000D03*
X160850000Y-121425000D03*
%TD*%
D27*
%TO.C,CFT3*%
X94998677Y-111466502D03*
D28*
X95798677Y-111066502D03*
X95798677Y-111866502D03*
D27*
X96598677Y-111466502D03*
%TD*%
D20*
%TO.C,RO5*%
X129647491Y-128884874D03*
X127997491Y-128884874D03*
%TD*%
D23*
%TO.C,R4_2*%
X158275000Y-69250000D03*
X159925000Y-69250000D03*
%TD*%
D26*
%TO.C,R6_3*%
X167500000Y-112250000D03*
X167500000Y-110600000D03*
%TD*%
D34*
%TO.C,C4_2*%
X157875000Y-79750000D03*
X159425000Y-79750000D03*
%TD*%
D35*
%TO.C,L1_3*%
X170750000Y-123600000D03*
X170750000Y-130250000D03*
%TD*%
D30*
%TO.C,R1_1*%
X111500000Y-71750000D03*
X111500000Y-73400000D03*
%TD*%
D26*
%TO.C,R3_3*%
X172750000Y-117175000D03*
X172750000Y-115525000D03*
%TD*%
D20*
%TO.C,R1_2*%
X163000000Y-71000000D03*
X161350000Y-71000000D03*
%TD*%
D36*
%TO.C,C2_2*%
X156675000Y-74400000D03*
X155125000Y-74400000D03*
%TD*%
D23*
%TO.C,RO2*%
X127997491Y-135447173D03*
X129647491Y-135447173D03*
%TD*%
D26*
%TO.C,R2_1*%
X109750000Y-73400000D03*
X109750000Y-71750000D03*
%TD*%
D25*
%TO.C,C1_15*%
X155550000Y-118475000D03*
X155550000Y-121425000D03*
%TD*%
D26*
%TO.C,R4_1*%
X109750000Y-76650000D03*
X109750000Y-75000000D03*
%TD*%
D31*
%TO.C,C1_1*%
X120600000Y-73525000D03*
X120600000Y-70575000D03*
%TD*%
D33*
%TO.C,C5_2*%
X124500000Y-64575000D03*
X124500000Y-61625000D03*
%TD*%
D21*
%TO.C,C1_11*%
X161241549Y-92750000D03*
X164191549Y-92750000D03*
%TD*%
D32*
%TO.C,C5_6*%
X170454411Y-88995337D03*
X173404411Y-88995337D03*
%TD*%
D36*
%TO.C,C3_1*%
X118750000Y-78075000D03*
X117200000Y-78075000D03*
%TD*%
D34*
%TO.C,CD_1*%
X138300000Y-123000000D03*
X139850000Y-123000000D03*
%TD*%
D27*
%TO.C,CFT4*%
X95000000Y-109240618D03*
D28*
X95800000Y-108840618D03*
X95800000Y-109640618D03*
D27*
X96600000Y-109240618D03*
%TD*%
D37*
%TO.C,D2*%
X178750000Y-109500000D03*
X177175000Y-109500000D03*
%TD*%
D38*
%TO.C,IC3*%
X166512000Y-117287000D03*
X166512000Y-117787000D03*
D39*
X166563000Y-118387000D03*
D40*
X166562000Y-119087000D03*
D41*
X166800000Y-119737000D03*
D42*
X168375000Y-119550000D03*
D41*
X169950000Y-119737000D03*
D40*
X170188000Y-119087000D03*
D39*
X170188000Y-118387000D03*
D38*
X170237000Y-117787000D03*
X170237000Y-117287000D03*
D43*
X170375000Y-116612000D03*
D44*
X169375000Y-116325000D03*
X168875000Y-116325000D03*
X168375000Y-116325000D03*
X167875000Y-116325000D03*
X167375000Y-116325000D03*
D45*
X166800000Y-116325000D03*
D46*
X168375000Y-117964000D03*
D43*
X166325000Y-116612000D03*
D47*
X166750000Y-120175000D03*
X167350000Y-120175000D03*
X169400000Y-120175000D03*
X170000000Y-120175000D03*
D45*
X169950000Y-116325000D03*
%TD*%
D48*
%TO.C,C2_1*%
X114877116Y-78050000D03*
X114877116Y-79600000D03*
%TD*%
%TO.C,C4_3*%
X163750000Y-115025000D03*
X163750000Y-116575000D03*
%TD*%
D34*
%TO.C,C3_3*%
X165450000Y-113925000D03*
X167000000Y-113925000D03*
%TD*%
D23*
%TO.C,RO4*%
X128038384Y-133699716D03*
X129688384Y-133699716D03*
%TD*%
D48*
%TO.C,CD_2*%
X141350000Y-124650000D03*
X141350000Y-126200000D03*
%TD*%
D30*
%TO.C,R3_1*%
X111500000Y-75000000D03*
X111500000Y-76650000D03*
%TD*%
D21*
%TO.C,C1_8*%
X161225000Y-85000000D03*
X164175000Y-85000000D03*
%TD*%
D31*
%TO.C,C1_3*%
X125800000Y-73525000D03*
X125800000Y-70575000D03*
%TD*%
D23*
%TO.C,RO6*%
X128029967Y-131945125D03*
X129679967Y-131945125D03*
%TD*%
D21*
%TO.C,C1_10*%
X161241549Y-90150000D03*
X164191549Y-90150000D03*
%TD*%
D30*
%TO.C,R5_1*%
X113250000Y-78023085D03*
X113250000Y-79673085D03*
%TD*%
D32*
%TO.C,C5_5*%
X170454411Y-84745337D03*
X173404411Y-84745337D03*
%TD*%
D31*
%TO.C,C1_4*%
X128400000Y-73525000D03*
X128400000Y-70575000D03*
%TD*%
%TO.C,C1_5*%
X131000000Y-73525000D03*
X131000000Y-70575000D03*
%TD*%
D49*
%TO.C,D3*%
X141050000Y-69200000D03*
X141050000Y-67625000D03*
%TD*%
D20*
%TO.C,R6_2*%
X154525000Y-76250000D03*
X152875000Y-76250000D03*
%TD*%
D49*
%TO.C,D1*%
X149600000Y-140575000D03*
X149600000Y-139000000D03*
%TD*%
D23*
%TO.C,R2_2*%
X161350000Y-69250000D03*
X163000000Y-69250000D03*
%TD*%
D27*
%TO.C,CFT1*%
X94998677Y-113666502D03*
D28*
X95798677Y-113266502D03*
X95798677Y-114066502D03*
D27*
X96598677Y-113666502D03*
%TD*%
D50*
%TO.C,LF1*%
X135650000Y-102250000D03*
X154350000Y-102250000D03*
%TD*%
D25*
%TO.C,C1_14*%
X158250000Y-118475000D03*
X158250000Y-121425000D03*
%TD*%
D30*
%TO.C,R4_3*%
X174500000Y-115525000D03*
X174500000Y-117175000D03*
%TD*%
D21*
%TO.C,C1_7*%
X161216297Y-82507099D03*
X164166297Y-82507099D03*
%TD*%
D38*
%TO.C,IC1*%
X117738000Y-74713000D03*
X117738000Y-74213000D03*
D39*
X117687000Y-73613000D03*
D40*
X117688000Y-72913000D03*
D41*
X117450000Y-72263000D03*
D42*
X115875000Y-72450000D03*
D41*
X114300000Y-72263000D03*
D40*
X114062000Y-72913000D03*
D39*
X114062000Y-73613000D03*
D38*
X114013000Y-74213000D03*
X114013000Y-74713000D03*
D43*
X113875000Y-75388000D03*
D44*
X114875000Y-75675000D03*
X115375000Y-75675000D03*
X115875000Y-75675000D03*
X116375000Y-75675000D03*
X116875000Y-75675000D03*
D45*
X117450000Y-75675000D03*
D46*
X115875000Y-74036000D03*
D43*
X117925000Y-75388000D03*
D47*
X117500000Y-71825000D03*
X116900000Y-71825000D03*
X114850000Y-71825000D03*
X114250000Y-71825000D03*
D45*
X114300000Y-75675000D03*
%TD*%
D30*
%TO.C,R6_1*%
X116500000Y-80925000D03*
X116500000Y-82575000D03*
%TD*%
D21*
%TO.C,C1_9*%
X161241549Y-87550000D03*
X164191549Y-87550000D03*
%TD*%
D24*
%TO.C,C4_1*%
X120250000Y-76875000D03*
X120250000Y-75325000D03*
%TD*%
D35*
%TO.C,L1_1*%
X113250000Y-68400000D03*
X113250000Y-61750000D03*
%TD*%
D24*
%TO.C,C3_2*%
X156675000Y-78225000D03*
X156675000Y-76675000D03*
%TD*%
D25*
%TO.C,C1_17*%
X150350000Y-118475000D03*
X150350000Y-121425000D03*
%TD*%
D30*
%TO.C,R2_3*%
X174500000Y-118675000D03*
X174500000Y-120325000D03*
%TD*%
D51*
%TO.C,C5_9*%
X149250000Y-126075000D03*
X149250000Y-131175000D03*
%TD*%
%TO.C,C5_8*%
X155450000Y-126075000D03*
X155450000Y-131175000D03*
%TD*%
D30*
%TO.C,RLED_1*%
X149600000Y-135850000D03*
X149600000Y-137500000D03*
%TD*%
D33*
%TO.C,C5_3*%
X128000000Y-64575000D03*
X128000000Y-61625000D03*
%TD*%
D26*
%TO.C,R1_3*%
X172750000Y-120325000D03*
X172750000Y-118675000D03*
%TD*%
D25*
%TO.C,C1_12*%
X163500000Y-118475000D03*
X163500000Y-121425000D03*
%TD*%
D52*
%TO.C,U4*%
X140050000Y-126450000D03*
X139400000Y-126450000D03*
X138750000Y-126450000D03*
X138100000Y-126450000D03*
X138100000Y-124400000D03*
X138750000Y-124400000D03*
X139400000Y-124400000D03*
X140050000Y-124400000D03*
%TD*%
D25*
%TO.C,C1_18*%
X147750000Y-118475000D03*
X147750000Y-121425000D03*
%TD*%
D51*
%TO.C,C5_7*%
X161650000Y-126075000D03*
X161650000Y-131175000D03*
%TD*%
M02*
