M48
; DRILL file KiCad 10.0.1 date 2026-06-11T23:14:03
; FORMAT={-:-/ absolute / metric / decimal}
; #@! TF.CreationDate,2026-06-11T23:14:03+02:00
; #@! TF.GenerationSoftware,Kicad,Pcbnew,10.0.1
; #@! TF.FileFunction,MixedPlating,1,4
FMAT,2
METRIC
; #@! TA.AperFunction,Plated,PTH,ViaDrill
T1C0.300
; #@! TA.AperFunction,Plated,PTH,ComponentDrill
T2C0.600
; #@! TA.AperFunction,Plated,PTH,ComponentDrill
T3C0.750
; #@! TA.AperFunction,Plated,PTH,ComponentDrill
T4C0.950
; #@! TA.AperFunction,Plated,PTH,ComponentDrill
T5C1.000
; #@! TA.AperFunction,Plated,PTH,ComponentDrill
T6C2.200
; #@! TA.AperFunction,Plated,PTH,ComponentDrill
T7C2.700
; #@! TA.AperFunction,NonPlated,NPTH,ComponentDrill
T8C0.650
%
G90
G05
T1
X150.05Y-102.43
X152.0Y-123.0
X153.694Y-120.94
X153.77Y-105.14
X154.43Y-102.31
X154.75Y-113.24
X157.86Y-92.86
X158.17Y-114.64
X161.86Y-109.64
X162.0Y-108.5
X162.45Y-118.65
X162.48Y-102.38
X163.07Y-94.75
X163.24Y-97.48
X163.53Y-119.68
X163.53Y-121.29
X163.75Y-114.59
X164.94Y-117.98
X165.0Y-105.9
X165.19Y-120.14
X165.5Y-115.7
X165.72Y-102.41
X165.916Y-106.484
X166.0Y-110.5
X166.2Y-111.25
X166.28Y-114.25
X166.47Y-121.1
X166.6Y-108.6
X167.0Y-104.0
X167.0Y-109.25
X168.55Y-116.8
X168.98Y-102.76
X169.9Y-115.3
X169.96Y-111.26
X170.22Y-100.99
X170.38Y-104.93
X170.38Y-113.15
X170.4Y-111.84
X170.41Y-108.91
X170.41Y-114.36
X170.45Y-104.32
X170.45Y-105.56
X170.52Y-103.64
X171.42Y-102.58
X171.48Y-107.33
X172.78Y-108.93
X173.25Y-101.76
X173.84Y-95.48
X174.0Y-109.5
X174.05Y-112.475
X174.3Y-116.9
X174.53Y-101.67
X174.82Y-121.3
X175.04Y-119.51
X175.16Y-117.72
X175.35Y-126.7
X175.5Y-109.5
X176.0Y-107.21
X176.29Y-102.48
X176.97Y-101.66
X177.11Y-103.62
X177.29Y-108.93
X177.348Y-109.502
X177.5Y-130.0
X177.5Y-130.9
X177.55Y-117.95
X177.69Y-114.34
X177.75Y-111.85
X178.0Y-112.9
X178.05Y-108.2
X178.15Y-109.54
X178.51Y-115.49
X178.75Y-107.38
X178.88Y-103.92
X178.98Y-127.26
X179.1Y-108.41
X179.1Y-111.45
X179.12Y-109.29
X179.12Y-110.34
X179.22Y-101.0
X179.35Y-112.2
X179.48Y-122.88
X179.88Y-111.67
X179.88Y-126.54
X179.99Y-104.68
X180.11Y-95.66
X180.28Y-116.4
X180.3Y-122.35
X180.69Y-117.49
X180.73Y-102.94
X180.95Y-113.15
X181.0Y-114.45
X181.43Y-122.29
X181.58Y-110.85
X181.69Y-105.19
X181.74Y-109.22
X181.74Y-111.54
X181.75Y-114.45
X182.0Y-104.4
X182.0Y-115.5
X182.0Y-116.4
X182.25Y-114.15
X182.55Y-117.51
X182.67Y-121.3
X182.95Y-112.5
X183.3Y-105.42
X183.32Y-95.37
X183.6Y-114.28
X183.62Y-107.32
X183.97Y-104.76
X184.1Y-119.42
X184.15Y-103.67
X184.41Y-118.84
X184.45Y-114.22
X184.61Y-112.57
X184.84Y-119.7
X185.08Y-95.68
X185.22Y-102.38
X185.27Y-118.98
X185.45Y-112.5
X185.57Y-105.32
X185.65Y-107.29
X185.79Y-104.28
X185.88Y-121.44
X186.19Y-105.02
X186.35Y-93.22
X186.47Y-121.88
X186.54Y-122.68
X186.69Y-110.45
X186.72Y-111.3
X186.756Y-109.879
X186.78Y-108.84
X186.81Y-112.46
X186.81Y-119.06
X186.905Y-111.893
X187.1Y-119.9
X187.37Y-105.95
X187.75Y-121.3
X187.84Y-101.12
X187.9Y-104.63
X188.0Y-113.5
X188.17Y-106.59
X188.33Y-102.73
X188.57Y-109.25
X188.64Y-104.49
X188.97Y-107.24
X188.97Y-108.08
X189.08Y-126.59
X189.208Y-104.581
X189.37Y-114.23
X189.39Y-121.88
X189.46Y-108.82
X189.5Y-109.5
X189.534Y-108.19
X189.56Y-106.08
X189.7Y-120.72
X189.77Y-121.44
X189.99Y-120.12
X190.21Y-105.55
X190.69Y-112.15
X190.85Y-120.8
X190.99Y-102.79
X191.56Y-127.2
X191.63Y-107.91
X192.3Y-104.86
X192.46Y-103.54
X192.52Y-110.16
X193.09Y-106.32
X193.15Y-109.751
X193.23Y-110.32
X193.23Y-117.64
X193.24Y-107.07
X193.51Y-119.79
X193.54Y-120.66
X193.59Y-104.98
X194.23Y-95.39
X194.48Y-103.77
X194.62Y-106.72
X194.63Y-105.83
X195.08Y-111.67
X196.08Y-126.75
X196.18Y-107.23
X196.84Y-109.84
X196.87Y-108.63
X196.98Y-120.65
X197.06Y-112.94
X197.204Y-112.383
X197.93Y-94.55
X198.19Y-104.46
X198.58Y-108.95
X198.89Y-117.64
X198.92Y-119.66
X198.92Y-120.66
X198.93Y-115.71
X199.53Y-99.16
X199.74Y-97.45
X200.67Y-98.913
X201.59Y-109.31
X201.65Y-117.02
X201.82Y-118.95
X203.3Y-107.95
X203.51Y-120.39
X205.27Y-117.05
X206.6Y-106.5
X206.6Y-107.8
X207.13Y-111.53
X207.19Y-103.88
X208.36Y-115.82
X208.4Y-131.56
X208.42Y-127.22
X208.43Y-119.17
X208.44Y-123.17
X208.6Y-109.95
X208.64Y-112.56
X208.93Y-115.8
X209.0Y-117.32
X209.3Y-119.75
X209.62Y-113.53
X209.68Y-116.4
X210.89Y-115.9
X211.07Y-119.82
X212.75Y-126.3
X213.48Y-122.28
X213.9Y-120.95
X214.3Y-123.35
X214.32Y-122.32
X214.65Y-121.2
X216.4Y-120.9
X218.49Y-115.48
X218.55Y-121.0
X219.25Y-101.85
X221.7Y-104.1
X222.55Y-114.47
X225.27Y-105.6
X225.29Y-103.03
X225.96Y-121.12
X226.4Y-113.1
X227.0Y-112.5
X229.0Y-123.55
X233.77Y-96.95
X233.88Y-99.44
X234.01Y-102.76
X236.84Y-122.07
T3
X160.62Y-99.1
X162.62Y-99.1
X164.62Y-99.1
X166.62Y-99.1
T4
X165.2Y-124.84
X167.7Y-124.84
X170.2Y-124.84
X172.7Y-124.84
X175.2Y-124.84
X177.7Y-124.84
X184.08Y-124.817
X186.58Y-124.817
X189.08Y-124.817
X191.58Y-124.817
X191.67Y-99.542
X194.17Y-99.542
X196.67Y-99.542
X197.85Y-124.84
X200.35Y-124.84
X202.85Y-124.84
X205.35Y-124.84
X207.85Y-124.84
X212.1Y-109.1
X214.22Y-124.887
X214.6Y-109.1
X216.72Y-124.887
X217.1Y-109.1
X219.22Y-124.887
X219.6Y-109.1
X221.72Y-124.887
X222.1Y-109.1
X224.22Y-124.887
X226.72Y-124.887
T5
X172.18Y-99.542
X174.68Y-99.542
T6
X151.99Y-95.21
X152.05Y-129.25
X236.0Y-129.25
X236.3Y-94.91
T7
X158.0Y-123.95
X158.0Y-128.95
X205.1Y-95.3
X205.1Y-100.3
X213.8Y-95.3
X213.8Y-100.3
X222.75Y-95.35
X222.75Y-100.35
X230.46Y-95.37
X230.46Y-100.37
X230.76Y-119.77
X230.79Y-106.62
X230.85Y-113.21
X235.76Y-119.77
X235.79Y-106.62
X235.85Y-113.21
T8
X180.27Y-99.185
X186.05Y-99.185
T2
G00X178.84Y-95.905
M15
G01X178.84Y-95.105
M16
G05
G00X178.84Y-100.235
M15
G01X178.84Y-99.135
M16
G05
G00X187.48Y-95.905
M15
G01X187.48Y-95.105
M16
G05
G00X187.48Y-100.235
M15
G01X187.48Y-99.135
M16
G05
M30
