M48
; DRILL file KiCad 10.0.1 date 2026-07-07T09:22:00
; FORMAT={-:-/ absolute / inch / decimal}
; #@! TF.CreationDate,2026-07-07T09:22:00+02:00
; #@! TF.GenerationSoftware,Kicad,Pcbnew,10.0.1
; #@! TF.FileFunction,Plated,1,4,PTH
FMAT,2
INCH
; #@! TA.AperFunction,Plated,PTH,ViaDrill
T1C0.0118
; #@! TA.AperFunction,Plated,PTH,ViaDrill
T2C0.0197
; #@! TA.AperFunction,Plated,PTH,ComponentDrill
T3C0.0236
; #@! TA.AperFunction,Plated,PTH,ComponentDrill
T4C0.0315
; #@! TA.AperFunction,Plated,PTH,ComponentDrill
T5C0.0402
; #@! TA.AperFunction,Plated,PTH,ComponentDrill
T6C0.0866
%
G90
G05
T1
X5.9075Y-4.0327
X5.9843Y-4.8425
X6.051Y-4.7614
X6.0539Y-4.1394
X6.0799Y-4.028
X6.0925Y-4.4583
X6.1874Y-3.6811
X6.2272Y-4.5134
X6.3724Y-4.3165
X6.378Y-4.2717
X6.3957Y-4.6713
X6.3969Y-4.0307
X6.4201Y-3.7303
X6.4268Y-3.8378
X6.4382Y-4.7118
X6.4425Y-4.7772
X6.4469Y-4.5114
X6.4937Y-4.6449
X6.4961Y-4.1693
X6.5035Y-4.7299
X6.5157Y-4.5551
X6.5244Y-4.0319
X6.5321Y-4.1923
X6.5354Y-4.3504
X6.5433Y-4.3799
X6.5465Y-4.498
X6.5539Y-4.7677
X6.5591Y-4.2756
X6.5748Y-4.0945
X6.5748Y-4.3012
X6.5866Y-4.8374
X6.6358Y-4.5984
X6.6528Y-4.0457
X6.6823Y-3.9689
X6.689Y-4.5394
X6.6913Y-4.3803
X6.7079Y-4.1311
X6.7079Y-4.4547
X6.7087Y-4.4031
X6.7091Y-4.2878
X6.7091Y-4.5024
X6.7106Y-4.1071
X6.7106Y-4.1559
X6.7134Y-4.0803
X6.7488Y-4.0386
X6.7512Y-4.2256
X6.8024Y-4.2886
X6.8209Y-4.0063
X6.8441Y-3.7591
X6.8504Y-4.311
X6.8524Y-4.4281
X6.8622Y-4.6024
X6.8713Y-4.0028
X6.8827Y-4.7756
X6.8913Y-4.7051
X6.8961Y-4.6346
X6.9094Y-4.311
X6.9291Y-4.2209
X6.9406Y-4.0346
X6.9531Y-4.0126
X6.9728Y-4.0795
X6.9799Y-4.2886
X6.9815Y-4.9783
X6.9822Y-4.3111
X6.9882Y-5.1181
X6.9882Y-5.1535
X6.9902Y-4.6437
X6.9957Y-4.5016
X6.998Y-4.4035
X7.0079Y-4.4449
X7.0098Y-4.2598
X7.0138Y-4.3126
X7.028Y-4.5469
X7.0327Y-3.9937
X7.0374Y-4.2276
X7.0425Y-4.0913
X7.0465Y-5.0102
X7.0512Y-4.2681
X7.0512Y-4.3878
X7.052Y-4.3028
X7.052Y-4.3441
X7.061Y-4.4173
X7.0661Y-4.8378
X7.0819Y-4.3965
X7.0819Y-4.9819
X7.0862Y-4.1213
X7.0909Y-3.7661
X7.0976Y-4.5827
X7.0984Y-4.8169
X7.1138Y-4.6256
X7.1154Y-4.0528
X7.124Y-4.4547
X7.126Y-4.5059
X7.1429Y-4.8146
X7.1488Y-4.3642
X7.1531Y-4.1413
X7.1551Y-4.3
X7.1551Y-4.3913
X7.1555Y-4.5059
X7.1654Y-4.1102
X7.1654Y-4.5472
X7.1654Y-4.5827
X7.1752Y-4.4941
X7.187Y-4.6264
X7.1917Y-4.7756
X7.2028Y-4.4291
X7.2165Y-4.1504
X7.2173Y-3.7547
X7.2283Y-4.4992
X7.2291Y-4.2252
X7.2429Y-4.1244
X7.248Y-4.7016
X7.25Y-4.0815
X7.2602Y-4.6787
X7.2618Y-4.4969
X7.2681Y-4.4319
X7.2717Y-4.8484
X7.2772Y-4.7126
X7.2866Y-3.7669
X7.2921Y-4.0307
X7.2941Y-4.6843
X7.3012Y-4.4291
X7.3059Y-4.1465
X7.3091Y-4.224
X7.3146Y-4.1055
X7.3181Y-4.7811
X7.3303Y-4.1346
X7.3366Y-3.6701
X7.3413Y-4.7984
X7.35Y-4.3484
X7.3512Y-4.3819
X7.3526Y-4.3259
X7.3535Y-4.285
X7.3547Y-4.4276
X7.3547Y-4.6874
X7.3584Y-4.4052
X7.3661Y-4.7205
X7.3768Y-4.1713
X7.3917Y-4.7756
X7.3953Y-3.9811
X7.3976Y-4.1193
X7.4016Y-4.4685
X7.4063Y-4.1713
X7.4083Y-4.1965
X7.4083Y-4.9756
X7.4146Y-4.0445
X7.424Y-4.3012
X7.4268Y-4.1138
X7.4398Y-4.222
X7.4398Y-4.2551
X7.4491Y-4.1174
X7.4555Y-4.4972
X7.4563Y-4.7984
X7.4591Y-4.2843
X7.4594Y-5.0193
X7.4606Y-4.311
X7.462Y-4.2595
X7.463Y-4.1764
X7.4657Y-4.8874
X7.4685Y-4.7528
X7.4713Y-4.7811
X7.4799Y-4.7291
X7.4886Y-4.1555
X7.5075Y-4.4154
X7.513Y-5.0091
X7.5138Y-4.7559
X7.5193Y-4.0469
X7.5291Y-4.3965
X7.5445Y-4.2484
X7.5461Y-4.652
X7.5461Y-4.8264
X7.5709Y-4.1283
X7.5709Y-4.9161
X7.5772Y-4.0764
X7.5795Y-4.337
X7.602Y-4.1858
X7.6043Y-4.3209
X7.6075Y-4.3433
X7.6079Y-4.2154
X7.6197Y-4.7504
X7.6217Y-4.1331
X7.6469Y-3.7555
X7.6567Y-4.0854
X7.6579Y-4.4154
X7.6622Y-4.2016
X7.6626Y-4.1665
X7.6717Y-4.498
X7.6953Y-4.9008
X7.7035Y-4.685
X7.7197Y-4.9902
X7.7236Y-4.2217
X7.7378Y-4.7598
X7.7508Y-4.2768
X7.7925Y-3.7224
X7.8028Y-4.1126
X7.8071Y-4.5248
X7.813Y-4.4713
X7.8181Y-4.2894
X7.8264Y-4.5815
X7.8291Y-4.9209
X7.8303Y-4.6634
X7.8335Y-4.7177
X7.8465Y-4.4949
X7.8555Y-3.9039
X7.8638Y-3.8366
X7.8646Y-4.6201
X7.8689Y-4.7724
X7.8693Y-4.463
X7.8717Y-4.8138
X7.8776Y-5.085
X7.9004Y-3.8942
X7.9055Y-4.4291
X7.9157Y-4.1031
X7.9165Y-4.5457
X7.9217Y-4.5165
X7.9366Y-4.3035
X7.9606Y-3.7484
X7.978Y-4.9024
X8.0031Y-4.4209
X8.0039Y-4.25
X8.0512Y-5.0283
X8.0669Y-4.3378
X8.0872Y-4.7466
X8.0988Y-3.9953
X8.1039Y-4.7618
X8.1083Y-4.4996
X8.1138Y-4.7331
X8.1354Y-4.1606
X8.1429Y-5.1228
X8.1461Y-4.328
X8.1563Y-4.698
X8.1665Y-4.1972
X8.1756Y-4.6846
X8.1961Y-4.0016
X8.2047Y-5.1795
X8.2055Y-5.0087
X8.2311Y-4.5882
X8.2665Y-3.9386
X8.2866Y-4.476
X8.2886Y-4.6756
X8.3272Y-4.8087
X8.3524Y-4.7984
X8.376Y-4.9724
X8.3906Y-4.8382
X8.4213Y-4.7618
X8.437Y-4.8563
X8.4378Y-4.8157
X8.4508Y-4.7717
X8.5197Y-4.7598
X8.5303Y-4.8063
X8.602Y-4.5465
X8.6043Y-4.7638
X8.6209Y-4.1232
X8.728Y-4.8039
X8.7283Y-4.0984
X8.7618Y-4.5067
X8.8689Y-4.1575
X8.8697Y-4.0563
X8.8961Y-4.7685
X8.9016Y-4.3598
X8.9134Y-4.4528
X8.9362Y-4.8362
X8.937Y-4.4291
X9.128Y-4.7398
X9.2035Y-3.8169
X9.2079Y-3.915
X9.213Y-4.0457
X9.3244Y-4.8059
T2
X9.0862Y-4.1976
T4
X6.3337Y-3.8955
X6.4124Y-3.8955
X6.4911Y-3.8955
X6.5228Y-4.9425
X6.5699Y-3.8955
X6.6016Y-4.9425
X6.6803Y-4.9425
X6.7591Y-4.9425
X6.7933Y-3.9091
X6.8378Y-4.9425
X6.872Y-3.9091
X6.9165Y-4.9425
X7.2114Y-4.9421
X7.2902Y-4.9421
X7.3689Y-4.9421
X7.4476Y-4.9421
X7.548Y-3.9098
X7.6268Y-3.9098
X7.7055Y-3.9098
X7.7866Y-4.9465
X7.8654Y-4.9465
X7.9441Y-4.9465
X8.0228Y-4.9465
X8.1016Y-4.9465
X8.4551Y-4.9358
X8.5339Y-4.9358
X8.6126Y-4.9358
X8.6913Y-4.9358
X8.7701Y-4.9358
X8.8488Y-4.9358
T5
X6.2283Y-4.9268
X6.2283Y-5.0449
X8.003Y-3.7976
X8.003Y-3.9157
X8.2374Y-4.3004
X8.3555Y-4.3004
X8.4482Y-3.7803
X8.4482Y-3.8984
X8.4736Y-4.3004
X8.5917Y-4.3004
X8.7098Y-4.3004
X8.7374Y-3.7854
X8.7374Y-3.9035
X9.0333Y-3.7862
X9.0333Y-3.9043
X9.1173Y-4.2602
X9.122Y-4.8657
X9.1236Y-4.5618
X9.2354Y-4.2602
X9.2402Y-4.8657
X9.2417Y-4.5618
T6
X5.9843Y-5.0874
X5.985Y-3.7512
X9.2906Y-3.7504
X9.2913Y-5.0884
T3
G00X7.0409Y-3.7758
M15
G01X7.0409Y-3.7443
M16
G05
G00X7.0409Y-3.9463
M15
G01X7.0409Y-3.903
M16
G05
G00X7.3811Y-3.7758
M15
G01X7.3811Y-3.7443
M16
G05
G00X7.3811Y-3.9463
M15
G01X7.3811Y-3.903
M16
G05
M30
