M48
; DRILL file KiCad 10.0.1 date 2026-07-07T09:22:00
; FORMAT={-:-/ absolute / inch / decimal}
; #@! TF.CreationDate,2026-07-07T09:22:00+02:00
; #@! TF.GenerationSoftware,Kicad,Pcbnew,10.0.1
; #@! TF.FileFunction,NonPlated,1,4,NPTH
FMAT,2
INCH
; #@! TA.AperFunction,NonPlated,NPTH,ComponentDrill
T1C0.0256
; #@! TA.AperFunction,NonPlated,NPTH,ComponentDrill
T2C0.0500
%
G90
G05
T1
X7.0972Y-3.9049
X7.3248Y-3.9049
T2
X6.3055Y-4.8087
X6.3055Y-5.163
X7.9258Y-3.6795
X7.9258Y-4.0339
X8.1193Y-4.2232
X8.3711Y-3.6622
X8.3711Y-4.0165
X8.6602Y-3.6673
X8.6602Y-4.0217
X8.828Y-4.2232
X8.9561Y-3.6681
X8.9561Y-4.0224
X8.9992Y-4.3374
X9.0039Y-4.9429
X9.0055Y-4.639
X9.3535Y-4.3374
X9.3583Y-4.9429
X9.3598Y-4.639
M30
