%TF.GenerationSoftware,KiCad,Pcbnew,10.0.1*%
%TF.CreationDate,2026-07-07T09:21:59+02:00*%
%TF.ProjectId,Main_PCB_STAR_D,4d61696e-5f50-4434-925f-535441525f44,rev?*%
%TF.SameCoordinates,Original*%
%TF.FileFunction,Paste,Top*%
%TF.FilePolarity,Positive*%
%FSLAX46Y46*%
G04 Gerber Fmt 4.6, Leading zero omitted, Abs format (unit mm)*
G04 Created by KiCad (PCBNEW 10.0.1) date 2026-07-07 09:21:59*
%MOMM*%
%LPD*%
G01*
G04 APERTURE LIST*
G04 Aperture macros list*
%AMRoundRect*
0 Rectangle with rounded corners*
0 $1 Rounding radius*
0 $2 $3 $4 $5 $6 $7 $8 $9 X,Y pos of 4 corners*
0 Add a 4 corners polygon primitive as box body*
4,1,4,$2,$3,$4,$5,$6,$7,$8,$9,$2,$3,0*
0 Add four circle primitives for the rounded corners*
1,1,$1+$1,$2,$3*
1,1,$1+$1,$4,$5*
1,1,$1+$1,$6,$7*
1,1,$1+$1,$8,$9*
0 Add four rect primitives between the rounded corners*
20,1,$1+$1,$2,$3,$4,$5,0*
20,1,$1+$1,$4,$5,$6,$7,0*
20,1,$1+$1,$6,$7,$8,$9,0*
20,1,$1+$1,$8,$9,$2,$3,0*%
G04 Aperture macros list end*
%ADD10RoundRect,0.250000X-0.325000X-0.650000X0.325000X-0.650000X0.325000X0.650000X-0.325000X0.650000X0*%
%ADD11RoundRect,0.250000X0.650000X-0.325000X0.650000X0.325000X-0.650000X0.325000X-0.650000X-0.325000X0*%
%ADD12RoundRect,0.250000X-0.650000X0.325000X-0.650000X-0.325000X0.650000X-0.325000X0.650000X0.325000X0*%
%ADD13RoundRect,0.140000X0.140000X0.170000X-0.140000X0.170000X-0.140000X-0.170000X0.140000X-0.170000X0*%
%ADD14RoundRect,0.135000X-0.185000X0.135000X-0.185000X-0.135000X0.185000X-0.135000X0.185000X0.135000X0*%
%ADD15R,1.300000X0.600000*%
%ADD16R,1.000000X1.250000*%
%ADD17RoundRect,0.135000X0.135000X0.185000X-0.135000X0.185000X-0.135000X-0.185000X0.135000X-0.185000X0*%
%ADD18RoundRect,0.135000X0.185000X-0.135000X0.185000X0.135000X-0.185000X0.135000X-0.185000X-0.135000X0*%
%ADD19RoundRect,0.200000X0.200000X0.275000X-0.200000X0.275000X-0.200000X-0.275000X0.200000X-0.275000X0*%
%ADD20RoundRect,0.140000X0.170000X-0.140000X0.170000X0.140000X-0.170000X0.140000X-0.170000X-0.140000X0*%
%ADD21RoundRect,0.140000X-0.140000X-0.170000X0.140000X-0.170000X0.140000X0.170000X-0.140000X0.170000X0*%
%ADD22RoundRect,0.243750X-0.243750X-0.456250X0.243750X-0.456250X0.243750X0.456250X-0.243750X0.456250X0*%
%ADD23RoundRect,0.135000X-0.135000X-0.185000X0.135000X-0.185000X0.135000X0.185000X-0.135000X0.185000X0*%
%ADD24RoundRect,0.140000X-0.170000X0.140000X-0.170000X-0.140000X0.170000X-0.140000X0.170000X0.140000X0*%
%ADD25RoundRect,0.147500X-0.147500X-0.172500X0.147500X-0.172500X0.147500X0.172500X-0.147500X0.172500X0*%
%ADD26R,0.650000X1.525000*%
%ADD27RoundRect,0.225000X-0.225000X-0.250000X0.225000X-0.250000X0.225000X0.250000X-0.225000X0.250000X0*%
%ADD28R,0.500000X0.350000*%
%ADD29RoundRect,0.250000X0.625000X-0.312500X0.625000X0.312500X-0.625000X0.312500X-0.625000X-0.312500X0*%
%ADD30RoundRect,0.100000X0.400000X-0.400000X0.400000X0.400000X-0.400000X0.400000X-0.400000X-0.400000X0*%
%ADD31RoundRect,0.105000X0.995000X-0.420000X0.995000X0.420000X-0.995000X0.420000X-0.995000X-0.420000X0*%
%ADD32RoundRect,0.225000X0.225000X0.375000X-0.225000X0.375000X-0.225000X-0.375000X0.225000X-0.375000X0*%
%ADD33RoundRect,0.147500X0.147500X0.172500X-0.147500X0.172500X-0.147500X-0.172500X0.147500X-0.172500X0*%
%ADD34R,0.300000X0.800000*%
%ADD35R,0.800000X0.300000*%
%ADD36R,3.800000X3.800000*%
%ADD37RoundRect,0.150000X-0.700000X0.150000X-0.700000X-0.150000X0.700000X-0.150000X0.700000X0.150000X0*%
%ADD38RoundRect,0.250000X-1.150000X0.250000X-1.150000X-0.250000X1.150000X-0.250000X1.150000X0.250000X0*%
%ADD39RoundRect,0.250000X0.435000X0.615000X-0.435000X0.615000X-0.435000X-0.615000X0.435000X-0.615000X0*%
%ADD40RoundRect,0.125000X0.250000X0.125000X-0.250000X0.125000X-0.250000X-0.125000X0.250000X-0.125000X0*%
%ADD41RoundRect,0.250000X0.285000X0.285000X-0.285000X0.285000X-0.285000X-0.285000X0.285000X-0.285000X0*%
%ADD42RoundRect,0.050000X0.350000X0.050000X-0.350000X0.050000X-0.350000X-0.050000X0.350000X-0.050000X0*%
%ADD43RoundRect,0.050000X0.050000X0.350000X-0.050000X0.350000X-0.050000X-0.350000X0.050000X-0.350000X0*%
%ADD44R,0.600000X1.300000*%
%ADD45R,1.000000X0.350000*%
%ADD46R,0.350000X1.000000*%
%ADD47R,3.350000X3.350000*%
%ADD48RoundRect,0.250000X0.450000X0.350000X-0.450000X0.350000X-0.450000X-0.350000X0.450000X-0.350000X0*%
%ADD49RoundRect,0.225000X0.250000X-0.225000X0.250000X0.225000X-0.250000X0.225000X-0.250000X-0.225000X0*%
%ADD50RoundRect,0.150000X0.150000X0.425000X-0.150000X0.425000X-0.150000X-0.425000X0.150000X-0.425000X0*%
%ADD51RoundRect,0.075000X0.075000X0.500000X-0.075000X0.500000X-0.075000X-0.500000X0.075000X-0.500000X0*%
%ADD52O,1.000000X2.100000*%
%ADD53O,1.000000X1.800000*%
%ADD54RoundRect,0.087500X-0.087500X0.225000X-0.087500X-0.225000X0.087500X-0.225000X0.087500X0.225000X0*%
%ADD55RoundRect,0.087500X-0.225000X0.087500X-0.225000X-0.087500X0.225000X-0.087500X0.225000X0.087500X0*%
%ADD56R,1.500000X0.650000*%
%ADD57RoundRect,0.225000X0.335067X-0.029239X0.064250X0.330147X-0.335067X0.029239X-0.064250X-0.330147X0*%
G04 APERTURE END LIST*
D10*
%TO.C,C42*%
X191415000Y-116860000D03*
X194365000Y-116860000D03*
%TD*%
D11*
%TO.C,C41*%
X197210000Y-121960000D03*
X197210000Y-119010000D03*
%TD*%
D12*
%TO.C,C40*%
X196650000Y-114235000D03*
X196650000Y-117185000D03*
%TD*%
%TO.C,C39*%
X193640000Y-125035000D03*
X193640000Y-127985000D03*
%TD*%
D11*
%TO.C,C38*%
X194050000Y-121905000D03*
X194050000Y-118955000D03*
%TD*%
D10*
%TO.C,C37*%
X196525000Y-111620000D03*
X199475000Y-111620000D03*
%TD*%
%TO.C,C36*%
X207515000Y-115560000D03*
X210465000Y-115560000D03*
%TD*%
D13*
%TO.C,C10*%
X180000000Y-106400000D03*
X179040000Y-106400000D03*
%TD*%
D14*
%TO.C,R_PD3*%
X212000000Y-104790000D03*
X212000000Y-105810000D03*
%TD*%
D15*
%TO.C,Q9*%
X208500000Y-103460000D03*
X208500000Y-105360000D03*
X210600000Y-104410000D03*
%TD*%
D16*
%TO.C,SW1*%
X151320000Y-104435000D03*
X151320000Y-112185000D03*
%TD*%
D14*
%TO.C,R10*%
X170110000Y-107190000D03*
X170110000Y-108210000D03*
%TD*%
%TO.C,R_G2*%
X204560000Y-108260000D03*
X204560000Y-109280000D03*
%TD*%
D17*
%TO.C,R_I2C_SCL2*%
X216050000Y-122320000D03*
X215030000Y-122320000D03*
%TD*%
D18*
%TO.C,R7*%
X177480000Y-106130000D03*
X177480000Y-105110000D03*
%TD*%
D14*
%TO.C,R16*%
X183160000Y-101815000D03*
X183160000Y-102835000D03*
%TD*%
D19*
%TO.C,Rtop1*%
X205840000Y-122110000D03*
X204190000Y-122110000D03*
%TD*%
D20*
%TO.C,C1*%
X190930000Y-108070000D03*
X190930000Y-107110000D03*
%TD*%
D21*
%TO.C,C8*%
X187650000Y-114490000D03*
X188610000Y-114490000D03*
%TD*%
D20*
%TO.C,C35*%
X169450000Y-114500000D03*
X169450000Y-113540000D03*
%TD*%
%TO.C,C4*%
X181970000Y-118060000D03*
X181970000Y-117100000D03*
%TD*%
D22*
%TO.C,D2*%
X223812500Y-116370000D03*
X225687500Y-116370000D03*
%TD*%
D23*
%TO.C,R_PD4*%
X236480000Y-98190000D03*
X237500000Y-98190000D03*
%TD*%
D20*
%TO.C,C30*%
X225800000Y-112380000D03*
X225800000Y-111420000D03*
%TD*%
D24*
%TO.C,C20*%
X190940000Y-105230000D03*
X190940000Y-106190000D03*
%TD*%
D25*
%TO.C,L3*%
X188865000Y-112460000D03*
X189835000Y-112460000D03*
%TD*%
D26*
%TO.C,IC5*%
X212780000Y-119624000D03*
X214050000Y-119624000D03*
X215320000Y-119624000D03*
X216590000Y-119624000D03*
X217860000Y-119624000D03*
X219130000Y-119624000D03*
X220400000Y-119624000D03*
X221670000Y-119624000D03*
X221670000Y-114200000D03*
X220400000Y-114200000D03*
X219130000Y-114200000D03*
X217860000Y-114200000D03*
X216590000Y-114200000D03*
X215320000Y-114200000D03*
X214050000Y-114200000D03*
X212780000Y-114200000D03*
%TD*%
D17*
%TO.C,R_G4*%
X235600000Y-98190000D03*
X234580000Y-98190000D03*
%TD*%
D15*
%TO.C,Q10*%
X235070000Y-99550000D03*
X235070000Y-101450000D03*
X237170000Y-100500000D03*
%TD*%
D13*
%TO.C,C21*%
X193230000Y-109020000D03*
X192270000Y-109020000D03*
%TD*%
D21*
%TO.C,C27*%
X229880000Y-128650000D03*
X230840000Y-128650000D03*
%TD*%
D27*
%TO.C,C23*%
X229985000Y-127350000D03*
X231535000Y-127350000D03*
%TD*%
D23*
%TO.C,R_ADC_POT1*%
X193800000Y-102070000D03*
X194820000Y-102070000D03*
%TD*%
D20*
%TO.C,C26*%
X198600000Y-108100000D03*
X198600000Y-107140000D03*
%TD*%
D14*
%TO.C,R17*%
X182160000Y-101815000D03*
X182160000Y-102835000D03*
%TD*%
%TO.C,R18*%
X226997500Y-113780000D03*
X226997500Y-114800000D03*
%TD*%
D28*
%TO.C,U2*%
X195460000Y-107680000D03*
X195460000Y-107030000D03*
X195460000Y-106380000D03*
X195460000Y-105730000D03*
X197510000Y-105730000D03*
X197510000Y-106380000D03*
X197510000Y-107030000D03*
X197510000Y-107680000D03*
%TD*%
D16*
%TO.C,SW2*%
X151350000Y-121840000D03*
X151350000Y-114090000D03*
%TD*%
D29*
%TO.C,Rsense1*%
X207830000Y-120652500D03*
X207830000Y-117727500D03*
%TD*%
D21*
%TO.C,C29*%
X225880000Y-106910000D03*
X226840000Y-106910000D03*
%TD*%
D30*
%TO.C,AE1*%
X191290000Y-113075000D03*
D31*
X192790000Y-111600000D03*
D30*
X194290000Y-113075000D03*
D31*
X192790000Y-114550000D03*
%TD*%
D17*
%TO.C,R_I2C_SCL1*%
X223490000Y-122310000D03*
X222470000Y-122310000D03*
%TD*%
D14*
%TO.C,R_G1*%
X205780000Y-103970000D03*
X205780000Y-104990000D03*
%TD*%
D32*
%TO.C,D1*%
X189987500Y-102790000D03*
X186687500Y-102790000D03*
%TD*%
D33*
%TO.C,L1*%
X189835000Y-110440000D03*
X188865000Y-110440000D03*
%TD*%
D21*
%TO.C,C17*%
X195750000Y-102070000D03*
X196710000Y-102070000D03*
%TD*%
D29*
%TO.C,Rsense2*%
X210150000Y-120712500D03*
X210150000Y-117787500D03*
%TD*%
D13*
%TO.C,C14*%
X189840000Y-113460000D03*
X188880000Y-113460000D03*
%TD*%
D34*
%TO.C,IC6*%
X205020000Y-115720000D03*
X204520000Y-115720000D03*
X204020000Y-115720000D03*
X203520000Y-115720000D03*
X203020000Y-115720000D03*
X202520000Y-115720000D03*
X202020000Y-115720000D03*
D35*
X201020000Y-116720000D03*
X201020000Y-117220000D03*
X201020000Y-117720000D03*
X201020000Y-118220000D03*
X201020000Y-118720000D03*
X201020000Y-119220000D03*
X201020000Y-119720000D03*
D34*
X202020000Y-120720000D03*
X202520000Y-120720000D03*
X203020000Y-120720000D03*
X203520000Y-120720000D03*
X204020000Y-120720000D03*
X204520000Y-120720000D03*
X205020000Y-120720000D03*
D35*
X206020000Y-119720000D03*
X206020000Y-119220000D03*
X206020000Y-118720000D03*
X206020000Y-118220000D03*
X206020000Y-117720000D03*
X206020000Y-117220000D03*
X206020000Y-116720000D03*
D36*
X203520000Y-118220000D03*
%TD*%
D21*
%TO.C,C2*%
X187240000Y-116460000D03*
X188200000Y-116460000D03*
%TD*%
D20*
%TO.C,C25*%
X198580000Y-106200000D03*
X198580000Y-105240000D03*
%TD*%
D13*
%TO.C,C3*%
X191250000Y-109030000D03*
X190290000Y-109030000D03*
%TD*%
D37*
%TO.C,J2*%
X156860000Y-106210000D03*
X156860000Y-107460000D03*
X156860000Y-108710000D03*
X156860000Y-109960000D03*
X156860000Y-111210000D03*
X156860000Y-112460000D03*
X156860000Y-113710000D03*
X156860000Y-114960000D03*
X156860000Y-116210000D03*
D38*
X160210000Y-104360000D03*
X160210000Y-118060000D03*
%TD*%
D39*
%TO.C,IC2*%
X174900000Y-113550000D03*
X174900000Y-111400000D03*
X173200000Y-113550000D03*
X173200000Y-111400000D03*
D40*
X176750000Y-114380000D03*
X176750000Y-113110000D03*
X176750000Y-111840000D03*
X176750000Y-110570000D03*
X171350000Y-110570000D03*
X171350000Y-111840000D03*
X171350000Y-113110000D03*
X171350000Y-114380000D03*
%TD*%
D18*
%TO.C,R5*%
X152640000Y-122780000D03*
X152640000Y-121760000D03*
%TD*%
%TO.C,R_PD1*%
X195840000Y-109740000D03*
X195840000Y-108720000D03*
%TD*%
D20*
%TO.C,C34*%
X153000000Y-124780000D03*
X153000000Y-123820000D03*
%TD*%
D41*
%TO.C,U1*%
X185580000Y-111195000D03*
X185580000Y-109865000D03*
X185580000Y-108535000D03*
X184250000Y-111195000D03*
X184250000Y-109865000D03*
X184250000Y-108535000D03*
X182920000Y-111195000D03*
X182920000Y-109865000D03*
X182920000Y-108535000D03*
D42*
X187700000Y-112465000D03*
X187700000Y-112065000D03*
X187700000Y-111665000D03*
X187700000Y-111265000D03*
X187700000Y-110865000D03*
X187700000Y-110465000D03*
X187700000Y-110065000D03*
X187700000Y-109665000D03*
X187700000Y-109265000D03*
X187700000Y-108865000D03*
X187700000Y-108465000D03*
X187700000Y-108065000D03*
X187700000Y-107665000D03*
X187700000Y-107265000D03*
D43*
X186850000Y-106415000D03*
X186450000Y-106415000D03*
X186050000Y-106415000D03*
X185650000Y-106415000D03*
X185250000Y-106415000D03*
X184850000Y-106415000D03*
X184450000Y-106415000D03*
X184050000Y-106415000D03*
X183650000Y-106415000D03*
X183250000Y-106415000D03*
X182850000Y-106415000D03*
X182450000Y-106415000D03*
X182050000Y-106415000D03*
X181650000Y-106415000D03*
D42*
X180800000Y-107265000D03*
X180800000Y-107665000D03*
X180800000Y-108065000D03*
X180800000Y-108465000D03*
X180800000Y-108865000D03*
X180800000Y-109265000D03*
X180800000Y-109665000D03*
X180800000Y-110065000D03*
X180800000Y-110465000D03*
X180800000Y-110865000D03*
X180800000Y-111265000D03*
X180800000Y-111665000D03*
X180800000Y-112065000D03*
X180800000Y-112465000D03*
D43*
X181650000Y-113315000D03*
X182050000Y-113315000D03*
X182450000Y-113315000D03*
X182850000Y-113315000D03*
X183250000Y-113315000D03*
X183650000Y-113315000D03*
X184050000Y-113315000D03*
X184450000Y-113315000D03*
X184850000Y-113315000D03*
X185250000Y-113315000D03*
X185650000Y-113315000D03*
X186050000Y-113315000D03*
X186450000Y-113315000D03*
X186850000Y-113315000D03*
%TD*%
D44*
%TO.C,Q8*%
X207920000Y-98670000D03*
X209820000Y-98670000D03*
X208870000Y-96570000D03*
%TD*%
D14*
%TO.C,R_PD2*%
X206760000Y-103980000D03*
X206760000Y-105000000D03*
%TD*%
D24*
%TO.C,C15*%
X153640000Y-121760000D03*
X153640000Y-122720000D03*
%TD*%
D45*
%TO.C,IC1*%
X176200000Y-106240000D03*
X176200000Y-105590000D03*
X176200000Y-104940000D03*
X176200000Y-104290000D03*
X176200000Y-103640000D03*
D46*
X175150000Y-102590000D03*
X174500000Y-102590000D03*
X173850000Y-102590000D03*
X173200000Y-102590000D03*
X172550000Y-102590000D03*
D45*
X171500000Y-103640000D03*
X171500000Y-104290000D03*
X171500000Y-104940000D03*
X171500000Y-105590000D03*
X171500000Y-106240000D03*
D46*
X172550000Y-107290000D03*
X173200000Y-107290000D03*
X173850000Y-107290000D03*
X174500000Y-107290000D03*
X175150000Y-107290000D03*
D47*
X173850000Y-104940000D03*
%TD*%
D20*
%TO.C,C9*%
X184820000Y-105280000D03*
X184820000Y-104320000D03*
%TD*%
D44*
%TO.C,Q7*%
X204430000Y-104450000D03*
X202530000Y-104450000D03*
X203480000Y-106550000D03*
%TD*%
D22*
%TO.C,D4*%
X223815000Y-118430000D03*
X225690000Y-118430000D03*
%TD*%
D20*
%TO.C,C24*%
X177860000Y-103100000D03*
X177860000Y-102140000D03*
%TD*%
D17*
%TO.C,R14*%
X181190000Y-101870000D03*
X180170000Y-101870000D03*
%TD*%
D48*
%TO.C,Y1*%
X185730000Y-115920000D03*
X183530000Y-115920000D03*
X183530000Y-117620000D03*
X185730000Y-117620000D03*
%TD*%
D13*
%TO.C,C5*%
X191760000Y-110040000D03*
X190800000Y-110040000D03*
%TD*%
D18*
%TO.C,R19*%
X226980000Y-118930000D03*
X226980000Y-117910000D03*
%TD*%
D49*
%TO.C,C31*%
X226300000Y-105585000D03*
X226300000Y-104035000D03*
%TD*%
D13*
%TO.C,C22*%
X168300000Y-103150000D03*
X167340000Y-103150000D03*
%TD*%
D21*
%TO.C,C6*%
X187640000Y-115470000D03*
X188600000Y-115470000D03*
%TD*%
D20*
%TO.C,C33*%
X225010000Y-104860000D03*
X225010000Y-103900000D03*
%TD*%
D21*
%TO.C,C19*%
X175320000Y-108600000D03*
X176280000Y-108600000D03*
%TD*%
D50*
%TO.C,J10*%
X186360000Y-100260000D03*
X185560000Y-100260000D03*
D51*
X184410000Y-100260000D03*
X183410000Y-100260000D03*
X182910000Y-100260000D03*
X181910000Y-100260000D03*
D50*
X180760000Y-100260000D03*
X179960000Y-100260000D03*
X179960000Y-100260000D03*
X180760000Y-100260000D03*
D51*
X181410000Y-100260000D03*
X182410000Y-100260000D03*
X183910000Y-100260000D03*
X184910000Y-100260000D03*
D50*
X185560000Y-100260000D03*
X186360000Y-100260000D03*
D52*
X187480000Y-99685000D03*
D53*
X187480000Y-95505000D03*
D52*
X178840000Y-99685000D03*
D53*
X178840000Y-95505000D03*
%TD*%
D13*
%TO.C,C11*%
X179990000Y-105400000D03*
X179030000Y-105400000D03*
%TD*%
D14*
%TO.C,R1*%
X150000000Y-103180000D03*
X150000000Y-104200000D03*
%TD*%
D13*
%TO.C,C13*%
X179730000Y-114750000D03*
X178770000Y-114750000D03*
%TD*%
%TO.C,C7*%
X189840000Y-111430000D03*
X188880000Y-111430000D03*
%TD*%
D54*
%TO.C,U4*%
X193725000Y-105582500D03*
X193225000Y-105582500D03*
X192725000Y-105582500D03*
X192225000Y-105582500D03*
D55*
X192062500Y-106245000D03*
X192062500Y-106745000D03*
X192062500Y-107245000D03*
D54*
X192225000Y-107907500D03*
X192725000Y-107907500D03*
X193225000Y-107907500D03*
X193725000Y-107907500D03*
D55*
X193887500Y-107245000D03*
X193887500Y-106745000D03*
X193887500Y-106245000D03*
%TD*%
D21*
%TO.C,C18*%
X173430000Y-108600000D03*
X174390000Y-108600000D03*
%TD*%
D22*
%TO.C,D3*%
X223812500Y-114300000D03*
X225687500Y-114300000D03*
%TD*%
D49*
%TO.C,C28*%
X226110000Y-109795000D03*
X226110000Y-108245000D03*
%TD*%
D14*
%TO.C,R15*%
X184190000Y-101820000D03*
X184190000Y-102840000D03*
%TD*%
D19*
%TO.C,Rbottom1*%
X202800000Y-122140000D03*
X201150000Y-122140000D03*
%TD*%
D56*
%TO.C,IC3*%
X163150000Y-104470000D03*
X163150000Y-105740000D03*
X163150000Y-107010000D03*
X163150000Y-108280000D03*
X163150000Y-109550000D03*
X163150000Y-110820000D03*
X163150000Y-112090000D03*
X168550000Y-112090000D03*
X168550000Y-110820000D03*
X168550000Y-109550000D03*
X168550000Y-108280000D03*
X168550000Y-107010000D03*
X168550000Y-105740000D03*
X168550000Y-104470000D03*
%TD*%
D23*
%TO.C,R2*%
X185720000Y-114500000D03*
X186740000Y-114500000D03*
%TD*%
D57*
%TO.C,C32*%
X162776407Y-121948943D03*
X161843593Y-120711057D03*
%TD*%
D14*
%TO.C,R_G3*%
X220900000Y-104620000D03*
X220900000Y-105640000D03*
%TD*%
%TO.C,R4*%
X226987500Y-115860000D03*
X226987500Y-116880000D03*
%TD*%
M02*
