%TF.GenerationSoftware,KiCad,Pcbnew,10.0.1*%
%TF.CreationDate,2026-07-07T09:22:00+02:00*%
%TF.ProjectId,Main_PCB_STAR_D,4d61696e-5f50-4434-925f-535441525f44,rev?*%
%TF.SameCoordinates,Original*%
%TF.FileFunction,Soldermask,Bot*%
%TF.FilePolarity,Negative*%
%FSLAX46Y46*%
G04 Gerber Fmt 4.6, Leading zero omitted, Abs format (unit mm)*
G04 Created by KiCad (PCBNEW 10.0.1) date 2026-07-07 09:22:00*
%MOMM*%
%LPD*%
G01*
G04 APERTURE LIST*
G04 Aperture macros list*
%AMRoundRect*
0 Rectangle with rounded corners*
0 $1 Rounding radius*
0 $2 $3 $4 $5 $6 $7 $8 $9 X,Y pos of 4 corners*
0 Add a 4 corners polygon primitive as box body*
4,1,4,$2,$3,$4,$5,$6,$7,$8,$9,$2,$3,0*
0 Add four circle primitives for the rounded corners*
1,1,$1+$1,$2,$3*
1,1,$1+$1,$4,$5*
1,1,$1+$1,$6,$7*
1,1,$1+$1,$8,$9*
0 Add four rect primitives between the rounded corners*
20,1,$1+$1,$2,$3,$4,$5,0*
20,1,$1+$1,$4,$5,$6,$7,0*
20,1,$1+$1,$6,$7,$8,$9,0*
20,1,$1+$1,$8,$9,$2,$3,0*%
G04 Aperture macros list end*
%ADD10C,1.270000*%
%ADD11RoundRect,0.250001X-0.759999X0.499999X-0.759999X-0.499999X0.759999X-0.499999X0.759999X0.499999X0*%
%ADD12O,2.020000X1.500000*%
%ADD13RoundRect,0.250001X0.759999X-0.499999X0.759999X0.499999X-0.759999X0.499999X-0.759999X-0.499999X0*%
%ADD14RoundRect,0.250001X0.499999X0.759999X-0.499999X0.759999X-0.499999X-0.759999X0.499999X-0.759999X0*%
%ADD15O,1.500000X2.020000*%
%ADD16C,3.800000*%
%ADD17RoundRect,0.250000X0.350000X0.650000X-0.350000X0.650000X-0.350000X-0.650000X0.350000X-0.650000X0*%
%ADD18O,1.200000X1.800000*%
%ADD19RoundRect,0.250000X-0.350000X-0.650000X0.350000X-0.650000X0.350000X0.650000X-0.350000X0.650000X0*%
%ADD20RoundRect,0.250001X-0.499999X-0.759999X0.499999X-0.759999X0.499999X0.759999X-0.499999X0.759999X0*%
%ADD21C,0.650000*%
%ADD22O,1.000000X2.100000*%
%ADD23O,1.000000X1.800000*%
%ADD24R,1.000000X1.000000*%
G04 APERTURE END LIST*
D10*
%TO.C,J15*%
X160160000Y-122140000D03*
X160160000Y-131140000D03*
D11*
X158200000Y-125140000D03*
D12*
X158200000Y-128140000D03*
%TD*%
D10*
%TO.C,J_HEATER1*%
X201315000Y-102460000D03*
X201315000Y-93460000D03*
D13*
X203275000Y-99460000D03*
D12*
X203275000Y-96460000D03*
%TD*%
D10*
%TO.C,J6*%
X237700000Y-125550000D03*
X228700000Y-125550000D03*
D14*
X234700000Y-123590000D03*
D15*
X231700000Y-123590000D03*
%TD*%
D16*
%TO.C,H3*%
X152000000Y-129220000D03*
%TD*%
D10*
%TO.C,J12*%
X237740000Y-117830000D03*
X228740000Y-117830000D03*
D14*
X234740000Y-115870000D03*
D15*
X231740000Y-115870000D03*
%TD*%
D17*
%TO.C,J1*%
X205780000Y-125640000D03*
D18*
X203780000Y-125640000D03*
X201780000Y-125640000D03*
X199780000Y-125640000D03*
X197780000Y-125640000D03*
%TD*%
D10*
%TO.C,J13*%
X237580000Y-110170000D03*
X228580000Y-110170000D03*
D14*
X234580000Y-108210000D03*
D15*
X231580000Y-108210000D03*
%TD*%
D17*
%TO.C,J3*%
X189170000Y-125530000D03*
D18*
X187170000Y-125530000D03*
X185170000Y-125530000D03*
X183170000Y-125530000D03*
%TD*%
D19*
%TO.C,J8*%
X172550000Y-99290000D03*
D18*
X174550000Y-99290000D03*
%TD*%
D17*
%TO.C,J7*%
X175680000Y-125540000D03*
D18*
X173680000Y-125540000D03*
X171680000Y-125540000D03*
X169680000Y-125540000D03*
X167680000Y-125540000D03*
X165680000Y-125540000D03*
%TD*%
D10*
%TO.C,J_HEATER3*%
X219970000Y-102150000D03*
X219970000Y-93150000D03*
D13*
X221930000Y-99150000D03*
D12*
X221930000Y-96150000D03*
%TD*%
D10*
%TO.C,J9*%
X206230000Y-107270000D03*
X224230000Y-107270000D03*
D20*
X209230000Y-109230000D03*
D15*
X212230000Y-109230000D03*
X215230000Y-109230000D03*
X218230000Y-109230000D03*
X221230000Y-109230000D03*
%TD*%
D16*
%TO.C,H1*%
X152020000Y-95280000D03*
%TD*%
%TO.C,H2*%
X235980000Y-95260000D03*
%TD*%
%TO.C,H4*%
X236000000Y-129245000D03*
%TD*%
D10*
%TO.C,J_HEATER4*%
X227485000Y-102170000D03*
X227485000Y-93170000D03*
D13*
X229445000Y-99170000D03*
D12*
X229445000Y-96170000D03*
%TD*%
D19*
%TO.C,J5*%
X160875000Y-98945000D03*
D18*
X162875000Y-98945000D03*
X164875000Y-98945000D03*
X166875000Y-98945000D03*
%TD*%
D21*
%TO.C,J10*%
X186050000Y-99185000D03*
X180270000Y-99185000D03*
D22*
X187480000Y-99685000D03*
D23*
X187480000Y-95505000D03*
D22*
X178840000Y-99685000D03*
D23*
X178840000Y-95505000D03*
%TD*%
D10*
%TO.C,J_HEATER2*%
X212625000Y-102020000D03*
X212625000Y-93020000D03*
D13*
X214585000Y-99020000D03*
D12*
X214585000Y-96020000D03*
%TD*%
D19*
%TO.C,J11*%
X191720000Y-99310000D03*
D18*
X193720000Y-99310000D03*
X195720000Y-99310000D03*
%TD*%
D17*
%TO.C,J4*%
X224760000Y-125370000D03*
D18*
X222760000Y-125370000D03*
X220760000Y-125370000D03*
X218760000Y-125370000D03*
X216760000Y-125370000D03*
X214760000Y-125370000D03*
%TD*%
D24*
%TO.C,TP8*%
X219720000Y-121780000D03*
%TD*%
%TO.C,TP6*%
X169280000Y-121060000D03*
%TD*%
%TO.C,TP2*%
X187830000Y-118030000D03*
%TD*%
%TO.C,TP7*%
X217620000Y-121770000D03*
%TD*%
%TO.C,TP3*%
X182690000Y-119610000D03*
%TD*%
%TO.C,TP4*%
X172680000Y-121100000D03*
%TD*%
M02*
